G04 start of page 12 for group -3984 idx -3984 *
G04 Title: (unknown), fab *
G04 Creator: pcb 4.0.2 *
G04 CreationDate: Wed Jul  1 19:45:12 2020 UTC *
G04 For: ndholmes *
G04 Format: Gerber/RS-274X *
G04 PCB-Dimensions (mil): 4000.00 2800.00 *
G04 PCB-Coordinate-Origin: lower left *
%MOIN*%
%FSLAX25Y25*%
%LNFAB*%
%ADD80C,0.0100*%
%ADD79C,0.0060*%
%ADD78R,0.0080X0.0080*%
G54D78*X17000Y266200D02*Y259800D01*
X13800Y263000D02*X20200D01*
X15400Y264600D02*X18600D01*
X15400D02*Y261400D01*
X18600D01*
Y264600D02*Y261400D01*
X17000Y20200D02*Y13800D01*
X13800Y17000D02*X20200D01*
X15400Y18600D02*X18600D01*
X15400D02*Y15400D01*
X18600D01*
Y18600D02*Y15400D01*
X383000Y266200D02*Y259800D01*
X379800Y263000D02*X386200D01*
X381400Y264600D02*X384600D01*
X381400D02*Y261400D01*
X384600D01*
Y264600D02*Y261400D01*
X383000Y20200D02*Y13800D01*
X379800Y17000D02*X386200D01*
X381400Y18600D02*X384600D01*
X381400D02*Y15400D01*
X384600D01*
Y18600D02*Y15400D01*
X15000Y294450D02*Y288050D01*
X11800Y291250D02*X18200D01*
X13400Y292850D02*X16600D01*
X13400D02*Y289650D01*
X16600D01*
Y292850D02*Y289650D01*
G54D79*X135000Y293500D02*Y292750D01*
X136500Y291250D01*
X138000Y292750D01*
Y293500D02*Y292750D01*
X136500Y291250D02*Y287500D01*
X139800Y290500D02*X142050D01*
X139800Y287500D02*X142800D01*
X139800Y293500D02*Y287500D01*
Y293500D02*X142800D01*
X147600D02*X148350Y292750D01*
X145350Y293500D02*X147600D01*
X144600Y292750D02*X145350Y293500D01*
X144600Y292750D02*Y291250D01*
X145350Y290500D01*
X147600D01*
X148350Y289750D01*
Y288250D01*
X147600Y287500D02*X148350Y288250D01*
X145350Y287500D02*X147600D01*
X144600Y288250D02*X145350Y287500D01*
X98000Y290500D02*X101000Y293500D01*
X98000Y290500D02*X101750D01*
X101000Y293500D02*Y287500D01*
X45000Y288250D02*X45750Y287500D01*
X45000Y292750D02*Y288250D01*
Y292750D02*X45750Y293500D01*
X47250D01*
X48000Y292750D01*
Y288250D01*
X47250Y287500D02*X48000Y288250D01*
X45750Y287500D02*X47250D01*
X45000Y289000D02*X48000Y292000D01*
X49800Y287500D02*X50550D01*
X53100D02*X54600D01*
X53850Y293500D02*Y287500D01*
X52350Y292000D02*X53850Y293500D01*
X56400Y292750D02*X57150Y293500D01*
X59400D01*
X60150Y292750D01*
Y291250D01*
X56400Y287500D02*X60150Y291250D01*
X56400Y287500D02*X60150D01*
X61950D02*X64950Y290500D01*
Y292750D02*Y290500D01*
X64200Y293500D02*X64950Y292750D01*
X62700Y293500D02*X64200D01*
X61950Y292750D02*X62700Y293500D01*
X61950Y292750D02*Y291250D01*
X62700Y290500D01*
X64950D01*
X28000Y138750D02*Y135550D01*
Y138750D02*X30773Y140350D01*
X28000Y138750D02*X25227Y140350D01*
X26400Y138750D02*G75*G03X29600Y138750I1600J0D01*G01*
G75*G03X26400Y138750I-1600J0D01*G01*
X48500D02*Y135550D01*
Y138750D02*X51273Y140350D01*
X48500Y138750D02*X45727Y140350D01*
X46900Y138750D02*G75*G03X50100Y138750I1600J0D01*G01*
G75*G03X46900Y138750I-1600J0D01*G01*
X69000D02*Y135550D01*
Y138750D02*X71773Y140350D01*
X69000Y138750D02*X66227Y140350D01*
X67400Y138750D02*G75*G03X70600Y138750I1600J0D01*G01*
G75*G03X67400Y138750I-1600J0D01*G01*
X28000Y96250D02*Y93050D01*
Y96250D02*X30773Y97850D01*
X28000Y96250D02*X25227Y97850D01*
X26400Y96250D02*G75*G03X29600Y96250I1600J0D01*G01*
G75*G03X26400Y96250I-1600J0D01*G01*
X48500D02*Y93050D01*
Y96250D02*X51273Y97850D01*
X48500Y96250D02*X45727Y97850D01*
X46900Y96250D02*G75*G03X50100Y96250I1600J0D01*G01*
G75*G03X46900Y96250I-1600J0D01*G01*
X69000D02*Y93050D01*
Y96250D02*X71773Y97850D01*
X69000Y96250D02*X66227Y97850D01*
X67400Y96250D02*G75*G03X70600Y96250I1600J0D01*G01*
G75*G03X67400Y96250I-1600J0D01*G01*
X15000Y306250D02*Y303050D01*
Y306250D02*X17773Y307850D01*
X15000Y306250D02*X12227Y307850D01*
X13400Y306250D02*G75*G03X16600Y306250I1600J0D01*G01*
G75*G03X13400Y306250I-1600J0D01*G01*
X135000Y308500D02*Y307750D01*
X136500Y306250D01*
X138000Y307750D01*
Y308500D02*Y307750D01*
X136500Y306250D02*Y302500D01*
X139800Y305500D02*X142050D01*
X139800Y302500D02*X142800D01*
X139800Y308500D02*Y302500D01*
Y308500D02*X142800D01*
X147600D02*X148350Y307750D01*
X145350Y308500D02*X147600D01*
X144600Y307750D02*X145350Y308500D01*
X144600Y307750D02*Y306250D01*
X145350Y305500D01*
X147600D01*
X148350Y304750D01*
Y303250D01*
X147600Y302500D02*X148350Y303250D01*
X145350Y302500D02*X147600D01*
X144600Y303250D02*X145350Y302500D01*
X100250Y308500D02*X101000Y307750D01*
X98750Y308500D02*X100250D01*
X98000Y307750D02*X98750Y308500D01*
X98000Y307750D02*Y303250D01*
X98750Y302500D01*
X100250Y305500D02*X101000Y304750D01*
X98000Y305500D02*X100250D01*
X98750Y302500D02*X100250D01*
X101000Y303250D01*
Y304750D02*Y303250D01*
X45000D02*X45750Y302500D01*
X45000Y307750D02*Y303250D01*
Y307750D02*X45750Y308500D01*
X47250D01*
X48000Y307750D01*
Y303250D01*
X47250Y302500D02*X48000Y303250D01*
X45750Y302500D02*X47250D01*
X45000Y304000D02*X48000Y307000D01*
X49800Y302500D02*X50550D01*
X53100D02*X54600D01*
X53850Y308500D02*Y302500D01*
X52350Y307000D02*X53850Y308500D01*
X56400Y303250D02*X57150Y302500D01*
X56400Y307750D02*Y303250D01*
Y307750D02*X57150Y308500D01*
X58650D01*
X59400Y307750D01*
Y303250D01*
X58650Y302500D02*X59400Y303250D01*
X57150Y302500D02*X58650D01*
X56400Y304000D02*X59400Y307000D01*
X61950Y302500D02*X63450D01*
X62700Y308500D02*Y302500D01*
X61200Y307000D02*X62700Y308500D01*
X50912Y262100D02*X54112D01*
X50912D02*Y258900D01*
X54112D01*
Y262100D02*Y258900D01*
X139888Y262100D02*X143088D01*
X139888D02*Y258900D01*
X143088D01*
Y262100D02*Y258900D01*
X50912Y222100D02*X54112D01*
X50912D02*Y218900D01*
X54112D01*
Y222100D02*Y218900D01*
X139888Y222100D02*X143088D01*
X139888D02*Y218900D01*
X143088D01*
Y222100D02*Y218900D01*
X13400Y322850D02*X16600D01*
X13400D02*Y319650D01*
X16600D01*
Y322850D02*Y319650D01*
X135000Y323500D02*Y322750D01*
X136500Y321250D01*
X138000Y322750D01*
Y323500D02*Y322750D01*
X136500Y321250D02*Y317500D01*
X139800Y320500D02*X142050D01*
X139800Y317500D02*X142800D01*
X139800Y323500D02*Y317500D01*
Y323500D02*X142800D01*
X147600D02*X148350Y322750D01*
X145350Y323500D02*X147600D01*
X144600Y322750D02*X145350Y323500D01*
X144600Y322750D02*Y321250D01*
X145350Y320500D01*
X147600D01*
X148350Y319750D01*
Y318250D01*
X147600Y317500D02*X148350Y318250D01*
X145350Y317500D02*X147600D01*
X144600Y318250D02*X145350Y317500D01*
X98000Y320500D02*X101000Y323500D01*
X98000Y320500D02*X101750D01*
X101000Y323500D02*Y317500D01*
X45000Y318250D02*X45750Y317500D01*
X45000Y322750D02*Y318250D01*
Y322750D02*X45750Y323500D01*
X47250D01*
X48000Y322750D01*
Y318250D01*
X47250Y317500D02*X48000Y318250D01*
X45750Y317500D02*X47250D01*
X45000Y319000D02*X48000Y322000D01*
X49800Y317500D02*X50550D01*
X52350Y318250D02*X53100Y317500D01*
X52350Y322750D02*Y318250D01*
Y322750D02*X53100Y323500D01*
X54600D01*
X55350Y322750D01*
Y318250D01*
X54600Y317500D02*X55350Y318250D01*
X53100Y317500D02*X54600D01*
X52350Y319000D02*X55350Y322000D01*
X57150Y323500D02*X60150D01*
X57150D02*Y320500D01*
X57900Y321250D01*
X59400D01*
X60150Y320500D01*
Y318250D01*
X59400Y317500D02*X60150Y318250D01*
X57900Y317500D02*X59400D01*
X57150Y318250D02*X57900Y317500D01*
X61950D02*X64950Y320500D01*
Y322750D02*Y320500D01*
X64200Y323500D02*X64950Y322750D01*
X62700Y323500D02*X64200D01*
X61950Y322750D02*X62700Y323500D01*
X61950Y322750D02*Y321250D01*
X62700Y320500D01*
X64950D01*
X21700Y69000D02*G75*G03X23300Y69000I800J0D01*G01*
G75*G03X21700Y69000I-800J0D01*G01*
Y49000D02*G75*G03X23300Y49000I800J0D01*G01*
G75*G03X21700Y49000I-800J0D01*G01*
Y184500D02*G75*G03X23300Y184500I800J0D01*G01*
G75*G03X21700Y184500I-800J0D01*G01*
Y164500D02*G75*G03X23300Y164500I800J0D01*G01*
G75*G03X21700Y164500I-800J0D01*G01*
Y230500D02*G75*G03X23300Y230500I800J0D01*G01*
G75*G03X21700Y230500I-800J0D01*G01*
Y210500D02*G75*G03X23300Y210500I800J0D01*G01*
G75*G03X21700Y210500I-800J0D01*G01*
X14200Y336250D02*G75*G03X15800Y336250I800J0D01*G01*
G75*G03X14200Y336250I-800J0D01*G01*
X135000Y338500D02*Y337750D01*
X136500Y336250D01*
X138000Y337750D01*
Y338500D02*Y337750D01*
X136500Y336250D02*Y332500D01*
X139800Y335500D02*X142050D01*
X139800Y332500D02*X142800D01*
X139800Y338500D02*Y332500D01*
Y338500D02*X142800D01*
X147600D02*X148350Y337750D01*
X145350Y338500D02*X147600D01*
X144600Y337750D02*X145350Y338500D01*
X144600Y337750D02*Y336250D01*
X145350Y335500D01*
X147600D01*
X148350Y334750D01*
Y333250D01*
X147600Y332500D02*X148350Y333250D01*
X145350Y332500D02*X147600D01*
X144600Y333250D02*X145350Y332500D01*
X100250Y338500D02*X101000Y337750D01*
X98750Y338500D02*X100250D01*
X98000Y337750D02*X98750Y338500D01*
X98000Y337750D02*Y333250D01*
X98750Y332500D01*
X100250Y335500D02*X101000Y334750D01*
X98000Y335500D02*X100250D01*
X98750Y332500D02*X100250D01*
X101000Y333250D01*
Y334750D02*Y333250D01*
X45000D02*X45750Y332500D01*
X45000Y337750D02*Y333250D01*
Y337750D02*X45750Y338500D01*
X47250D01*
X48000Y337750D01*
Y333250D01*
X47250Y332500D02*X48000Y333250D01*
X45750Y332500D02*X47250D01*
X45000Y334000D02*X48000Y337000D01*
X49800Y332500D02*X50550D01*
X52350Y333250D02*X53100Y332500D01*
X52350Y337750D02*Y333250D01*
Y337750D02*X53100Y338500D01*
X54600D01*
X55350Y337750D01*
Y333250D01*
X54600Y332500D02*X55350Y333250D01*
X53100Y332500D02*X54600D01*
X52350Y334000D02*X55350Y337000D01*
X57150Y335500D02*X60150Y338500D01*
X57150Y335500D02*X60900D01*
X60150Y338500D02*Y332500D01*
X62700Y333250D02*X63450Y332500D01*
X62700Y334750D02*Y333250D01*
Y334750D02*X63450Y335500D01*
X64950D01*
X65700Y334750D01*
Y333250D01*
X64950Y332500D02*X65700Y333250D01*
X63450Y332500D02*X64950D01*
X62700Y336250D02*X63450Y335500D01*
X62700Y337750D02*Y336250D01*
Y337750D02*X63450Y338500D01*
X64950D01*
X65700Y337750D01*
Y336250D01*
X64950Y335500D02*X65700Y336250D01*
X199300Y178700D02*X201700Y176300D01*
X199300D02*X201700Y178700D01*
X199300Y188700D02*X201700Y186300D01*
X199300D02*X201700Y188700D01*
X199300Y198700D02*X201700Y196300D01*
X199300D02*X201700Y198700D01*
X13800Y352450D02*X16200Y350050D01*
X13800D02*X16200Y352450D01*
X135000Y353500D02*Y352750D01*
X136500Y351250D01*
X138000Y352750D01*
Y353500D02*Y352750D01*
X136500Y351250D02*Y347500D01*
X139800Y350500D02*X142050D01*
X139800Y347500D02*X142800D01*
X139800Y353500D02*Y347500D01*
Y353500D02*X142800D01*
X147600D02*X148350Y352750D01*
X145350Y353500D02*X147600D01*
X144600Y352750D02*X145350Y353500D01*
X144600Y352750D02*Y351250D01*
X145350Y350500D01*
X147600D01*
X148350Y349750D01*
Y348250D01*
X147600Y347500D02*X148350Y348250D01*
X145350Y347500D02*X147600D01*
X144600Y348250D02*X145350Y347500D01*
X98000Y352750D02*X98750Y353500D01*
X100250D01*
X101000Y352750D01*
Y348250D01*
X100250Y347500D02*X101000Y348250D01*
X98750Y347500D02*X100250D01*
X98000Y348250D02*X98750Y347500D01*
Y350500D02*X101000D01*
X45000Y348250D02*X45750Y347500D01*
X45000Y352750D02*Y348250D01*
Y352750D02*X45750Y353500D01*
X47250D01*
X48000Y352750D01*
Y348250D01*
X47250Y347500D02*X48000Y348250D01*
X45750Y347500D02*X47250D01*
X45000Y349000D02*X48000Y352000D01*
X49800Y347500D02*X50550D01*
X52350Y348250D02*X53100Y347500D01*
X52350Y352750D02*Y348250D01*
Y352750D02*X53100Y353500D01*
X54600D01*
X55350Y352750D01*
Y348250D01*
X54600Y347500D02*X55350Y348250D01*
X53100Y347500D02*X54600D01*
X52350Y349000D02*X55350Y352000D01*
X57150Y350500D02*X60150Y353500D01*
X57150Y350500D02*X60900D01*
X60150Y353500D02*Y347500D01*
X62700Y353500D02*X65700D01*
X62700D02*Y350500D01*
X63450Y351250D01*
X64950D01*
X65700Y350500D01*
Y348250D01*
X64950Y347500D02*X65700Y348250D01*
X63450Y347500D02*X64950D01*
X62700Y348250D02*X63450Y347500D01*
X276500Y210600D02*Y207400D01*
X274900Y209000D02*X278100D01*
X276500Y200600D02*Y197400D01*
X274900Y199000D02*X278100D01*
X276500Y190600D02*Y187400D01*
X274900Y189000D02*X278100D01*
X276500Y180600D02*Y177400D01*
X274900Y179000D02*X278100D01*
X276500Y170600D02*Y167400D01*
X274900Y169000D02*X278100D01*
X276500Y160600D02*Y157400D01*
X274900Y159000D02*X278100D01*
X276500Y150600D02*Y147400D01*
X274900Y149000D02*X278100D01*
X276500Y140600D02*Y137400D01*
X274900Y139000D02*X278100D01*
X276500Y130600D02*Y127400D01*
X274900Y129000D02*X278100D01*
X276500Y120600D02*Y117400D01*
X274900Y119000D02*X278100D01*
X276500Y110600D02*Y107400D01*
X274900Y109000D02*X278100D01*
X276500Y100600D02*Y97400D01*
X274900Y99000D02*X278100D01*
X276500Y90600D02*Y87400D01*
X274900Y89000D02*X278100D01*
X276500Y80600D02*Y77400D01*
X274900Y79000D02*X278100D01*
X276500Y70600D02*Y67400D01*
X274900Y69000D02*X278100D01*
X366500Y210600D02*Y207400D01*
X364900Y209000D02*X368100D01*
X366500Y200600D02*Y197400D01*
X364900Y199000D02*X368100D01*
X366500Y190600D02*Y187400D01*
X364900Y189000D02*X368100D01*
X366500Y180600D02*Y177400D01*
X364900Y179000D02*X368100D01*
X366500Y170600D02*Y167400D01*
X364900Y169000D02*X368100D01*
X366500Y160600D02*Y157400D01*
X364900Y159000D02*X368100D01*
X366500Y150600D02*Y147400D01*
X364900Y149000D02*X368100D01*
X366500Y140600D02*Y137400D01*
X364900Y139000D02*X368100D01*
X366500Y130600D02*Y127400D01*
X364900Y129000D02*X368100D01*
X366500Y120600D02*Y117400D01*
X364900Y119000D02*X368100D01*
X366500Y110600D02*Y107400D01*
X364900Y109000D02*X368100D01*
X366500Y100600D02*Y97400D01*
X364900Y99000D02*X368100D01*
X366500Y90600D02*Y87400D01*
X364900Y89000D02*X368100D01*
X366500Y80600D02*Y77400D01*
X364900Y79000D02*X368100D01*
X366500Y70600D02*Y67400D01*
X364900Y69000D02*X368100D01*
X156500Y100600D02*Y97400D01*
X154900Y99000D02*X158100D01*
X156500Y70600D02*Y67400D01*
X154900Y69000D02*X158100D01*
X156500Y50600D02*Y47400D01*
X154900Y49000D02*X158100D01*
X156500Y30600D02*Y27400D01*
X154900Y29000D02*X158100D01*
X186500Y30600D02*Y27400D01*
X184900Y29000D02*X188100D01*
X186500Y50600D02*Y47400D01*
X184900Y49000D02*X188100D01*
X186500Y70600D02*Y67400D01*
X184900Y69000D02*X188100D01*
X186500Y100600D02*Y97400D01*
X184900Y99000D02*X188100D01*
X212500Y100600D02*Y97400D01*
X210900Y99000D02*X214100D01*
X212500Y70600D02*Y67400D01*
X210900Y69000D02*X214100D01*
X212500Y50600D02*Y47400D01*
X210900Y49000D02*X214100D01*
X212500Y30600D02*Y27400D01*
X210900Y29000D02*X214100D01*
X242500Y30600D02*Y27400D01*
X240900Y29000D02*X244100D01*
X242500Y50600D02*Y47400D01*
X240900Y49000D02*X244100D01*
X242500Y70600D02*Y67400D01*
X240900Y69000D02*X244100D01*
X242500Y100600D02*Y97400D01*
X240900Y99000D02*X244100D01*
X15000Y367850D02*Y364650D01*
X13400Y366250D02*X16600D01*
X135000Y368500D02*Y367750D01*
X136500Y366250D01*
X138000Y367750D01*
Y368500D02*Y367750D01*
X136500Y366250D02*Y362500D01*
X139800Y365500D02*X142050D01*
X139800Y362500D02*X142800D01*
X139800Y368500D02*Y362500D01*
Y368500D02*X142800D01*
X147600D02*X148350Y367750D01*
X145350Y368500D02*X147600D01*
X144600Y367750D02*X145350Y368500D01*
X144600Y367750D02*Y366250D01*
X145350Y365500D01*
X147600D01*
X148350Y364750D01*
Y363250D01*
X147600Y362500D02*X148350Y363250D01*
X145350Y362500D02*X147600D01*
X144600Y363250D02*X145350Y362500D01*
X98000Y365500D02*X101000Y368500D01*
X98000Y365500D02*X101750D01*
X101000Y368500D02*Y362500D01*
X105800Y368500D02*X106550Y367750D01*
X104300Y368500D02*X105800D01*
X103550Y367750D02*X104300Y368500D01*
X103550Y367750D02*Y363250D01*
X104300Y362500D01*
X105800Y365500D02*X106550Y364750D01*
X103550Y365500D02*X105800D01*
X104300Y362500D02*X105800D01*
X106550Y363250D01*
Y364750D02*Y363250D01*
X45000D02*X45750Y362500D01*
X45000Y367750D02*Y363250D01*
Y367750D02*X45750Y368500D01*
X47250D01*
X48000Y367750D01*
Y363250D01*
X47250Y362500D02*X48000Y363250D01*
X45750Y362500D02*X47250D01*
X45000Y364000D02*X48000Y367000D01*
X49800Y362500D02*X50550D01*
X52350Y363250D02*X53100Y362500D01*
X52350Y367750D02*Y363250D01*
Y367750D02*X53100Y368500D01*
X54600D01*
X55350Y367750D01*
Y363250D01*
X54600Y362500D02*X55350Y363250D01*
X53100Y362500D02*X54600D01*
X52350Y364000D02*X55350Y367000D01*
X57150Y367750D02*X57900Y368500D01*
X59400D01*
X60150Y367750D01*
Y363250D01*
X59400Y362500D02*X60150Y363250D01*
X57900Y362500D02*X59400D01*
X57150Y363250D02*X57900Y362500D01*
Y365500D02*X60150D01*
X61950Y363250D02*X62700Y362500D01*
X61950Y364750D02*Y363250D01*
Y364750D02*X62700Y365500D01*
X64200D01*
X64950Y364750D01*
Y363250D01*
X64200Y362500D02*X64950Y363250D01*
X62700Y362500D02*X64200D01*
X61950Y366250D02*X62700Y365500D01*
X61950Y367750D02*Y366250D01*
Y367750D02*X62700Y368500D01*
X64200D01*
X64950Y367750D01*
Y366250D01*
X64200Y365500D02*X64950Y366250D01*
X50500Y76500D02*Y74900D01*
Y76500D02*X51887Y77300D01*
X50500Y76500D02*X49113Y77300D01*
X46000Y76500D02*Y74900D01*
Y76500D02*X47387Y77300D01*
X46000Y76500D02*X44613Y77300D01*
X41500Y76500D02*Y74900D01*
Y76500D02*X42887Y77300D01*
X41500Y76500D02*X40113Y77300D01*
X41500Y72500D02*Y70900D01*
Y72500D02*X42887Y73300D01*
X41500Y72500D02*X40113Y73300D01*
X37000Y72500D02*Y70900D01*
Y72500D02*X38387Y73300D01*
X37000Y72500D02*X35613Y73300D01*
X32500Y72500D02*Y70900D01*
Y72500D02*X33887Y73300D01*
X32500Y72500D02*X31113Y73300D01*
X37000Y76500D02*Y74900D01*
Y76500D02*X38387Y77300D01*
X37000Y76500D02*X35613Y77300D01*
X32500Y76500D02*Y74900D01*
Y76500D02*X33887Y77300D01*
X32500Y76500D02*X31113Y77300D01*
X41500Y68500D02*Y66900D01*
Y68500D02*X42887Y69300D01*
X41500Y68500D02*X40113Y69300D01*
X41500Y64500D02*Y62900D01*
Y64500D02*X42887Y65300D01*
X41500Y64500D02*X40113Y65300D01*
X37000Y64500D02*Y62900D01*
Y64500D02*X38387Y65300D01*
X37000Y64500D02*X35613Y65300D01*
X32500Y64500D02*Y62900D01*
Y64500D02*X33887Y65300D01*
X32500Y64500D02*X31113Y65300D01*
X37000Y68500D02*Y66900D01*
Y68500D02*X38387Y69300D01*
X37000Y68500D02*X35613Y69300D01*
X32500Y68500D02*Y66900D01*
Y68500D02*X33887Y69300D01*
X32500Y68500D02*X31113Y69300D01*
X114000Y63500D02*Y61900D01*
Y63500D02*X115387Y64300D01*
X114000Y63500D02*X112613Y64300D01*
X109500Y63500D02*Y61900D01*
Y63500D02*X110887Y64300D01*
X109500Y63500D02*X108113Y64300D01*
X104500Y63500D02*Y61900D01*
Y63500D02*X105887Y64300D01*
X104500Y63500D02*X103113Y64300D01*
X114000Y75500D02*Y73900D01*
Y75500D02*X115387Y76300D01*
X114000Y75500D02*X112613Y76300D01*
X114000Y71500D02*Y69900D01*
Y71500D02*X115387Y72300D01*
X114000Y71500D02*X112613Y72300D01*
X114000Y67500D02*Y65900D01*
Y67500D02*X115387Y68300D01*
X114000Y67500D02*X112613Y68300D01*
X95000Y75500D02*Y73900D01*
Y75500D02*X96387Y76300D01*
X95000Y75500D02*X93613Y76300D01*
X95000Y71500D02*Y69900D01*
Y71500D02*X96387Y72300D01*
X95000Y71500D02*X93613Y72300D01*
X95000Y67500D02*Y65900D01*
Y67500D02*X96387Y68300D01*
X95000Y67500D02*X93613Y68300D01*
X100000Y63500D02*Y61900D01*
Y63500D02*X101387Y64300D01*
X100000Y63500D02*X98613Y64300D01*
X95000Y63500D02*Y61900D01*
Y63500D02*X96387Y64300D01*
X95000Y63500D02*X93613Y64300D01*
X90000Y75500D02*Y73900D01*
Y75500D02*X91387Y76300D01*
X90000Y75500D02*X88613Y76300D01*
X90000Y71500D02*Y69900D01*
Y71500D02*X91387Y72300D01*
X90000Y71500D02*X88613Y72300D01*
X90000Y67500D02*Y65900D01*
Y67500D02*X91387Y68300D01*
X90000Y67500D02*X88613Y68300D01*
X90000Y63500D02*Y61900D01*
Y63500D02*X91387Y64300D01*
X90000Y63500D02*X88613Y64300D01*
X41500Y170000D02*Y168400D01*
Y170000D02*X42887Y170800D01*
X41500Y170000D02*X40113Y170800D01*
X41500Y166000D02*Y164400D01*
Y166000D02*X42887Y166800D01*
X41500Y166000D02*X40113Y166800D01*
X37000Y166000D02*Y164400D01*
Y166000D02*X38387Y166800D01*
X37000Y166000D02*X35613Y166800D01*
X32500Y166000D02*Y164400D01*
Y166000D02*X33887Y166800D01*
X32500Y166000D02*X31113Y166800D01*
X37000Y170000D02*Y168400D01*
Y170000D02*X38387Y170800D01*
X37000Y170000D02*X35613Y170800D01*
X32500Y170000D02*Y168400D01*
Y170000D02*X33887Y170800D01*
X32500Y170000D02*X31113Y170800D01*
X41500Y162000D02*Y160400D01*
Y162000D02*X42887Y162800D01*
X41500Y162000D02*X40113Y162800D01*
X41500Y158000D02*Y156400D01*
Y158000D02*X42887Y158800D01*
X41500Y158000D02*X40113Y158800D01*
X37000Y158000D02*Y156400D01*
Y158000D02*X38387Y158800D01*
X37000Y158000D02*X35613Y158800D01*
X32500Y158000D02*Y156400D01*
Y158000D02*X33887Y158800D01*
X32500Y158000D02*X31113Y158800D01*
X37000Y162000D02*Y160400D01*
Y162000D02*X38387Y162800D01*
X37000Y162000D02*X35613Y162800D01*
X32500Y162000D02*Y160400D01*
Y162000D02*X33887Y162800D01*
X32500Y162000D02*X31113Y162800D01*
X114000Y157000D02*Y155400D01*
Y157000D02*X115387Y157800D01*
X114000Y157000D02*X112613Y157800D01*
X114000Y169000D02*Y167400D01*
Y169000D02*X115387Y169800D01*
X114000Y169000D02*X112613Y169800D01*
X114000Y165000D02*Y163400D01*
Y165000D02*X115387Y165800D01*
X114000Y165000D02*X112613Y165800D01*
X114000Y161000D02*Y159400D01*
Y161000D02*X115387Y161800D01*
X114000Y161000D02*X112613Y161800D01*
X95000Y169000D02*Y167400D01*
Y169000D02*X96387Y169800D01*
X95000Y169000D02*X93613Y169800D01*
X95000Y165000D02*Y163400D01*
Y165000D02*X96387Y165800D01*
X95000Y165000D02*X93613Y165800D01*
X95000Y161000D02*Y159400D01*
Y161000D02*X96387Y161800D01*
X95000Y161000D02*X93613Y161800D01*
X95000Y157000D02*Y155400D01*
Y157000D02*X96387Y157800D01*
X95000Y157000D02*X93613Y157800D01*
X90000Y169000D02*Y167400D01*
Y169000D02*X91387Y169800D01*
X90000Y169000D02*X88613Y169800D01*
X90000Y165000D02*Y163400D01*
Y165000D02*X91387Y165800D01*
X90000Y165000D02*X88613Y165800D01*
X90000Y161000D02*Y159400D01*
Y161000D02*X91387Y161800D01*
X90000Y161000D02*X88613Y161800D01*
X90000Y157000D02*Y155400D01*
Y157000D02*X91387Y157800D01*
X90000Y157000D02*X88613Y157800D01*
X109000Y169000D02*Y167400D01*
Y169000D02*X110387Y169800D01*
X109000Y169000D02*X107613Y169800D01*
X104000Y169000D02*Y167400D01*
Y169000D02*X105387Y169800D01*
X104000Y169000D02*X102613Y169800D01*
X99500Y169000D02*Y167400D01*
Y169000D02*X100887Y169800D01*
X99500Y169000D02*X98113Y169800D01*
X89500Y192500D02*Y190900D01*
Y192500D02*X90887Y193300D01*
X89500Y192500D02*X88113Y193300D01*
X89500Y188500D02*Y186900D01*
Y188500D02*X90887Y189300D01*
X89500Y188500D02*X88113Y189300D01*
X89500Y184500D02*Y182900D01*
Y184500D02*X90887Y185300D01*
X89500Y184500D02*X88113Y185300D01*
X89500Y180500D02*Y178900D01*
Y180500D02*X90887Y181300D01*
X89500Y180500D02*X88113Y181300D01*
X84500Y192500D02*Y190900D01*
Y192500D02*X85887Y193300D01*
X84500Y192500D02*X83113Y193300D01*
X84500Y188500D02*Y186900D01*
Y188500D02*X85887Y189300D01*
X84500Y188500D02*X83113Y189300D01*
X84500Y184500D02*Y182900D01*
Y184500D02*X85887Y185300D01*
X84500Y184500D02*X83113Y185300D01*
X84500Y180500D02*Y178900D01*
Y180500D02*X85887Y181300D01*
X84500Y180500D02*X83113Y181300D01*
X122000Y149500D02*Y147900D01*
Y149500D02*X123387Y150300D01*
X122000Y149500D02*X120613Y150300D01*
X126500Y149500D02*Y147900D01*
Y149500D02*X127887Y150300D01*
X126500Y149500D02*X125113Y150300D01*
X131000Y149500D02*Y147900D01*
Y149500D02*X132387Y150300D01*
X131000Y149500D02*X129613Y150300D01*
X40000Y51500D02*Y49900D01*
Y51500D02*X41387Y52300D01*
X40000Y51500D02*X38613Y52300D01*
X40000Y47500D02*Y45900D01*
Y47500D02*X41387Y48300D01*
X40000Y47500D02*X38613Y48300D01*
X35500Y47500D02*Y45900D01*
Y47500D02*X36887Y48300D01*
X35500Y47500D02*X34113Y48300D01*
X31000Y47500D02*Y45900D01*
Y47500D02*X32387Y48300D01*
X31000Y47500D02*X29613Y48300D01*
X35500Y51500D02*Y49900D01*
Y51500D02*X36887Y52300D01*
X35500Y51500D02*X34113Y52300D01*
X31000Y51500D02*Y49900D01*
Y51500D02*X32387Y52300D01*
X31000Y51500D02*X29613Y52300D01*
X40000Y43500D02*Y41900D01*
Y43500D02*X41387Y44300D01*
X40000Y43500D02*X38613Y44300D01*
X40000Y39500D02*Y37900D01*
Y39500D02*X41387Y40300D01*
X40000Y39500D02*X38613Y40300D01*
X35500Y39500D02*Y37900D01*
Y39500D02*X36887Y40300D01*
X35500Y39500D02*X34113Y40300D01*
X31000Y39500D02*Y37900D01*
Y39500D02*X32387Y40300D01*
X31000Y39500D02*X29613Y40300D01*
X35500Y43500D02*Y41900D01*
Y43500D02*X36887Y44300D01*
X35500Y43500D02*X34113Y44300D01*
X31000Y43500D02*Y41900D01*
Y43500D02*X32387Y44300D01*
X31000Y43500D02*X29613Y44300D01*
X95000Y50500D02*Y48900D01*
Y50500D02*X96387Y51300D01*
X95000Y50500D02*X93613Y51300D01*
X95000Y46500D02*Y44900D01*
Y46500D02*X96387Y47300D01*
X95000Y46500D02*X93613Y47300D01*
X95000Y42500D02*Y40900D01*
Y42500D02*X96387Y43300D01*
X95000Y42500D02*X93613Y43300D01*
X95000Y38500D02*Y36900D01*
Y38500D02*X96387Y39300D01*
X95000Y38500D02*X93613Y39300D01*
X90000Y50500D02*Y48900D01*
Y50500D02*X91387Y51300D01*
X90000Y50500D02*X88613Y51300D01*
X90000Y46500D02*Y44900D01*
Y46500D02*X91387Y47300D01*
X90000Y46500D02*X88613Y47300D01*
X90000Y42500D02*Y40900D01*
Y42500D02*X91387Y43300D01*
X90000Y42500D02*X88613Y43300D01*
X90000Y38500D02*Y36900D01*
Y38500D02*X91387Y39300D01*
X90000Y38500D02*X88613Y39300D01*
X114000Y38500D02*Y36900D01*
Y38500D02*X115387Y39300D01*
X114000Y38500D02*X112613Y39300D01*
X114000Y50500D02*Y48900D01*
Y50500D02*X115387Y51300D01*
X114000Y50500D02*X112613Y51300D01*
X114000Y46500D02*Y44900D01*
Y46500D02*X115387Y47300D01*
X114000Y46500D02*X112613Y47300D01*
X114000Y42500D02*Y40900D01*
Y42500D02*X115387Y43300D01*
X114000Y42500D02*X112613Y43300D01*
X109000Y53500D02*Y51900D01*
Y53500D02*X110387Y54300D01*
X109000Y53500D02*X107613Y54300D01*
X104000Y53500D02*Y51900D01*
Y53500D02*X105387Y54300D01*
X104000Y53500D02*X102613Y54300D01*
X99500Y53500D02*Y51900D01*
Y53500D02*X100887Y54300D01*
X99500Y53500D02*X98113Y54300D01*
X153000Y228500D02*Y226900D01*
Y228500D02*X154387Y229300D01*
X153000Y228500D02*X151613Y229300D01*
X153000Y224500D02*Y222900D01*
Y224500D02*X154387Y225300D01*
X153000Y224500D02*X151613Y225300D01*
X153000Y220500D02*Y218900D01*
Y220500D02*X154387Y221300D01*
X153000Y220500D02*X151613Y221300D01*
X153000Y216500D02*Y214900D01*
Y216500D02*X154387Y217300D01*
X153000Y216500D02*X151613Y217300D01*
X160000Y211500D02*Y209900D01*
Y211500D02*X161387Y212300D01*
X160000Y211500D02*X158613Y212300D01*
X164500Y211500D02*Y209900D01*
Y211500D02*X165887Y212300D01*
X164500Y211500D02*X163113Y212300D01*
X168500Y211500D02*Y209900D01*
Y211500D02*X169887Y212300D01*
X168500Y211500D02*X167113Y212300D01*
X172500Y211500D02*Y209900D01*
Y211500D02*X173887Y212300D01*
X172500Y211500D02*X171113Y212300D01*
X134000Y249000D02*Y247400D01*
Y249000D02*X135387Y249800D01*
X134000Y249000D02*X132613Y249800D01*
X138500Y249000D02*Y247400D01*
Y249000D02*X139887Y249800D01*
X138500Y249000D02*X137113Y249800D01*
X142500Y249000D02*Y247400D01*
Y249000D02*X143887Y249800D01*
X142500Y249000D02*X141113Y249800D01*
X146500Y249000D02*Y247400D01*
Y249000D02*X147887Y249800D01*
X146500Y249000D02*X145113Y249800D01*
X134000Y244500D02*Y242900D01*
Y244500D02*X135387Y245300D01*
X134000Y244500D02*X132613Y245300D01*
X138500Y244500D02*Y242900D01*
Y244500D02*X139887Y245300D01*
X138500Y244500D02*X137113Y245300D01*
X142500Y244500D02*Y242900D01*
Y244500D02*X143887Y245300D01*
X142500Y244500D02*X141113Y245300D01*
X146500Y244500D02*Y242900D01*
Y244500D02*X147887Y245300D01*
X146500Y244500D02*X145113Y245300D01*
X147500Y106000D02*Y104400D01*
Y106000D02*X148887Y106800D01*
X147500Y106000D02*X146113Y106800D01*
X147500Y102000D02*Y100400D01*
Y102000D02*X148887Y102800D01*
X147500Y102000D02*X146113Y102800D01*
X147500Y98000D02*Y96400D01*
Y98000D02*X148887Y98800D01*
X147500Y98000D02*X146113Y98800D01*
X190500Y120000D02*Y118400D01*
Y120000D02*X191887Y120800D01*
X190500Y120000D02*X189113Y120800D01*
X187000Y120000D02*Y118400D01*
Y120000D02*X188387Y120800D01*
X187000Y120000D02*X185613Y120800D01*
X209000Y112200D02*Y110600D01*
Y112200D02*X210387Y113000D01*
X209000Y112200D02*X207613Y113000D01*
X212300Y112200D02*Y110600D01*
Y112200D02*X213687Y113000D01*
X212300Y112200D02*X210913Y113000D01*
X196500Y216000D02*Y214400D01*
Y216000D02*X197887Y216800D01*
X196500Y216000D02*X195113Y216800D01*
X196500Y220000D02*Y218400D01*
Y220000D02*X197887Y220800D01*
X196500Y220000D02*X195113Y220800D01*
X196500Y223500D02*Y221900D01*
Y223500D02*X197887Y224300D01*
X196500Y223500D02*X195113Y224300D01*
X196500Y227500D02*Y225900D01*
Y227500D02*X197887Y228300D01*
X196500Y227500D02*X195113Y228300D01*
X196500Y231000D02*Y229400D01*
Y231000D02*X197887Y231800D01*
X196500Y231000D02*X195113Y231800D01*
X166500Y157500D02*Y155900D01*
Y157500D02*X167887Y158300D01*
X166500Y157500D02*X165113Y158300D01*
X163000Y157500D02*Y155900D01*
Y157500D02*X164387Y158300D01*
X163000Y157500D02*X161613Y158300D01*
X211000Y148000D02*Y146400D01*
Y148000D02*X212387Y148800D01*
X211000Y148000D02*X209613Y148800D01*
X205500Y148000D02*Y146400D01*
Y148000D02*X206887Y148800D01*
X205500Y148000D02*X204113Y148800D01*
X270500Y252000D02*Y250400D01*
Y252000D02*X271887Y252800D01*
X270500Y252000D02*X269113Y252800D01*
X270500Y248500D02*Y246900D01*
Y248500D02*X271887Y249300D01*
X270500Y248500D02*X269113Y249300D01*
X279500Y259500D02*Y257900D01*
Y259500D02*X280887Y260300D01*
X279500Y259500D02*X278113Y260300D01*
X279500Y255500D02*Y253900D01*
Y255500D02*X280887Y256300D01*
X279500Y255500D02*X278113Y256300D01*
X50500Y158000D02*Y156400D01*
Y158000D02*X51887Y158800D01*
X50500Y158000D02*X49113Y158800D01*
X46000Y158000D02*Y156400D01*
Y158000D02*X47387Y158800D01*
X46000Y158000D02*X44613Y158800D01*
X15000Y381250D02*Y379650D01*
Y381250D02*X16387Y382050D01*
X15000Y381250D02*X13613Y382050D01*
X135000Y383500D02*Y382750D01*
X136500Y381250D01*
X138000Y382750D01*
Y383500D02*Y382750D01*
X136500Y381250D02*Y377500D01*
X139800Y380500D02*X142050D01*
X139800Y377500D02*X142800D01*
X139800Y383500D02*Y377500D01*
Y383500D02*X142800D01*
X147600D02*X148350Y382750D01*
X145350Y383500D02*X147600D01*
X144600Y382750D02*X145350Y383500D01*
X144600Y382750D02*Y381250D01*
X145350Y380500D01*
X147600D01*
X148350Y379750D01*
Y378250D01*
X147600Y377500D02*X148350Y378250D01*
X145350Y377500D02*X147600D01*
X144600Y378250D02*X145350Y377500D01*
X98750D02*X100250D01*
X99500Y383500D02*Y377500D01*
X98000Y382000D02*X99500Y383500D01*
X102050Y382750D02*X102800Y383500D01*
X104300D01*
X105050Y382750D01*
Y378250D01*
X104300Y377500D02*X105050Y378250D01*
X102800Y377500D02*X104300D01*
X102050Y378250D02*X102800Y377500D01*
Y380500D02*X105050D01*
X106850Y382750D02*X107600Y383500D01*
X109850D01*
X110600Y382750D01*
Y381250D01*
X106850Y377500D02*X110600Y381250D01*
X106850Y377500D02*X110600D01*
X45000Y378250D02*X45750Y377500D01*
X45000Y382750D02*Y378250D01*
Y382750D02*X45750Y383500D01*
X47250D01*
X48000Y382750D01*
Y378250D01*
X47250Y377500D02*X48000Y378250D01*
X45750Y377500D02*X47250D01*
X45000Y379000D02*X48000Y382000D01*
X49800Y377500D02*X50550D01*
X52350Y378250D02*X53100Y377500D01*
X52350Y382750D02*Y378250D01*
Y382750D02*X53100Y383500D01*
X54600D01*
X55350Y382750D01*
Y378250D01*
X54600Y377500D02*X55350Y378250D01*
X53100Y377500D02*X54600D01*
X52350Y379000D02*X55350Y382000D01*
X57900Y377500D02*X59400D01*
X58650Y383500D02*Y377500D01*
X57150Y382000D02*X58650Y383500D01*
X61200Y382750D02*X61950Y383500D01*
X64200D01*
X64950Y382750D01*
Y381250D01*
X61200Y377500D02*X64950Y381250D01*
X61200Y377500D02*X64950D01*
X3000Y398500D02*X3750Y397750D01*
X750Y398500D02*X3000D01*
X0Y397750D02*X750Y398500D01*
X0Y397750D02*Y396250D01*
X750Y395500D01*
X3000D01*
X3750Y394750D01*
Y393250D01*
X3000Y392500D02*X3750Y393250D01*
X750Y392500D02*X3000D01*
X0Y393250D02*X750Y392500D01*
X5550Y395500D02*Y393250D01*
X6300Y392500D01*
X8550Y395500D02*Y391000D01*
X7800Y390250D02*X8550Y391000D01*
X6300Y390250D02*X7800D01*
X5550Y391000D02*X6300Y390250D01*
Y392500D02*X7800D01*
X8550Y393250D01*
X11100Y394750D02*Y392500D01*
Y394750D02*X11850Y395500D01*
X12600D01*
X13350Y394750D01*
Y392500D01*
Y394750D02*X14100Y395500D01*
X14850D01*
X15600Y394750D01*
Y392500D01*
X10350Y395500D02*X11100Y394750D01*
X17400Y398500D02*Y392500D01*
Y393250D02*X18150Y392500D01*
X19650D01*
X20400Y393250D01*
Y394750D02*Y393250D01*
X19650Y395500D02*X20400Y394750D01*
X18150Y395500D02*X19650D01*
X17400Y394750D02*X18150Y395500D01*
X22200Y394750D02*Y393250D01*
Y394750D02*X22950Y395500D01*
X24450D01*
X25200Y394750D01*
Y393250D01*
X24450Y392500D02*X25200Y393250D01*
X22950Y392500D02*X24450D01*
X22200Y393250D02*X22950Y392500D01*
X27000Y398500D02*Y393250D01*
X27750Y392500D01*
X0Y389250D02*X29250D01*
X41750Y398500D02*Y392500D01*
X44000Y398500D02*X44750Y397750D01*
Y393250D01*
X44000Y392500D02*X44750Y393250D01*
X41000Y392500D02*X44000D01*
X41000Y398500D02*X44000D01*
X46550Y397000D02*Y396250D01*
Y394750D02*Y392500D01*
X50300Y395500D02*X51050Y394750D01*
X48800Y395500D02*X50300D01*
X48050Y394750D02*X48800Y395500D01*
X48050Y394750D02*Y393250D01*
X48800Y392500D01*
X51050Y395500D02*Y393250D01*
X51800Y392500D01*
X48800D02*X50300D01*
X51050Y393250D01*
X54350Y394750D02*Y392500D01*
Y394750D02*X55100Y395500D01*
X55850D01*
X56600Y394750D01*
Y392500D01*
Y394750D02*X57350Y395500D01*
X58100D01*
X58850Y394750D01*
Y392500D01*
X53600Y395500D02*X54350Y394750D01*
X60650Y392500D02*X61400D01*
X65900Y393250D02*X66650Y392500D01*
X65900Y397750D02*X66650Y398500D01*
X65900Y397750D02*Y393250D01*
X68450Y398500D02*X69950D01*
X69200D02*Y392500D01*
X68450D02*X69950D01*
X72500Y394750D02*Y392500D01*
Y394750D02*X73250Y395500D01*
X74000D01*
X74750Y394750D01*
Y392500D01*
X71750Y395500D02*X72500Y394750D01*
X77300Y395500D02*X79550D01*
X76550Y394750D02*X77300Y395500D01*
X76550Y394750D02*Y393250D01*
X77300Y392500D01*
X79550D01*
X81350Y398500D02*Y392500D01*
Y394750D02*X82100Y395500D01*
X83600D01*
X84350Y394750D01*
Y392500D01*
X86150Y398500D02*X86900Y397750D01*
Y393250D01*
X86150Y392500D02*X86900Y393250D01*
X41000Y389250D02*X88700D01*
X95750Y392500D02*X98000D01*
X95000Y393250D02*X95750Y392500D01*
X95000Y397750D02*Y393250D01*
Y397750D02*X95750Y398500D01*
X98000D01*
X99800Y394750D02*Y393250D01*
Y394750D02*X100550Y395500D01*
X102050D01*
X102800Y394750D01*
Y393250D01*
X102050Y392500D02*X102800Y393250D01*
X100550Y392500D02*X102050D01*
X99800Y393250D02*X100550Y392500D01*
X104600Y395500D02*Y393250D01*
X105350Y392500D01*
X106850D01*
X107600Y393250D01*
Y395500D02*Y393250D01*
X110150Y394750D02*Y392500D01*
Y394750D02*X110900Y395500D01*
X111650D01*
X112400Y394750D01*
Y392500D01*
X109400Y395500D02*X110150Y394750D01*
X114950Y398500D02*Y393250D01*
X115700Y392500D01*
X114200Y396250D02*X115700D01*
X95000Y389250D02*X117200D01*
X130750Y398500D02*Y392500D01*
X130000Y398500D02*X133000D01*
X133750Y397750D01*
Y396250D01*
X133000Y395500D02*X133750Y396250D01*
X130750Y395500D02*X133000D01*
X135550Y398500D02*Y393250D01*
X136300Y392500D01*
X140050Y395500D02*X140800Y394750D01*
X138550Y395500D02*X140050D01*
X137800Y394750D02*X138550Y395500D01*
X137800Y394750D02*Y393250D01*
X138550Y392500D01*
X140800Y395500D02*Y393250D01*
X141550Y392500D01*
X138550D02*X140050D01*
X140800Y393250D01*
X144100Y398500D02*Y393250D01*
X144850Y392500D01*
X143350Y396250D02*X144850D01*
X147100Y392500D02*X149350D01*
X146350Y393250D02*X147100Y392500D01*
X146350Y394750D02*Y393250D01*
Y394750D02*X147100Y395500D01*
X148600D01*
X149350Y394750D01*
X146350Y394000D02*X149350D01*
Y394750D02*Y394000D01*
X154150Y398500D02*Y392500D01*
X153400D02*X154150Y393250D01*
X151900Y392500D02*X153400D01*
X151150Y393250D02*X151900Y392500D01*
X151150Y394750D02*Y393250D01*
Y394750D02*X151900Y395500D01*
X153400D01*
X154150Y394750D01*
X157450Y395500D02*Y394750D01*
Y393250D02*Y392500D01*
X155950Y397750D02*Y397000D01*
Y397750D02*X156700Y398500D01*
X158200D01*
X158950Y397750D01*
Y397000D01*
X157450Y395500D02*X158950Y397000D01*
X130000Y389250D02*X160750D01*
X0Y413500D02*X3000D01*
X1500D02*Y407500D01*
X4800Y413500D02*Y407500D01*
Y409750D02*X5550Y410500D01*
X7050D01*
X7800Y409750D01*
Y407500D01*
X10350D02*X12600D01*
X9600Y408250D02*X10350Y407500D01*
X9600Y409750D02*Y408250D01*
Y409750D02*X10350Y410500D01*
X11850D01*
X12600Y409750D01*
X9600Y409000D02*X12600D01*
Y409750D02*Y409000D01*
X15150Y409750D02*Y407500D01*
Y409750D02*X15900Y410500D01*
X17400D01*
X14400D02*X15150Y409750D01*
X19950Y407500D02*X22200D01*
X19200Y408250D02*X19950Y407500D01*
X19200Y409750D02*Y408250D01*
Y409750D02*X19950Y410500D01*
X21450D01*
X22200Y409750D01*
X19200Y409000D02*X22200D01*
Y409750D02*Y409000D01*
X28950Y410500D02*X29700Y409750D01*
X27450Y410500D02*X28950D01*
X26700Y409750D02*X27450Y410500D01*
X26700Y409750D02*Y408250D01*
X27450Y407500D01*
X29700Y410500D02*Y408250D01*
X30450Y407500D01*
X27450D02*X28950D01*
X29700Y408250D01*
X33000Y409750D02*Y407500D01*
Y409750D02*X33750Y410500D01*
X35250D01*
X32250D02*X33000Y409750D01*
X37800Y407500D02*X40050D01*
X37050Y408250D02*X37800Y407500D01*
X37050Y409750D02*Y408250D01*
Y409750D02*X37800Y410500D01*
X39300D01*
X40050Y409750D01*
X37050Y409000D02*X40050D01*
Y409750D02*Y409000D01*
X44550Y407500D02*X48300Y411250D01*
Y413500D02*Y411250D01*
X44550Y413500D02*X48300D01*
X55800D02*Y407500D01*
X55050D02*X55800Y408250D01*
X53550Y407500D02*X55050D01*
X52800Y408250D02*X53550Y407500D01*
X52800Y409750D02*Y408250D01*
Y409750D02*X53550Y410500D01*
X55050D01*
X55800Y409750D01*
X57600Y412000D02*Y411250D01*
Y409750D02*Y407500D01*
X59850Y412750D02*Y407500D01*
Y412750D02*X60600Y413500D01*
X61350D01*
X59100Y410500D02*X60600D01*
X63600Y412750D02*Y407500D01*
Y412750D02*X64350Y413500D01*
X65100D01*
X62850Y410500D02*X64350D01*
X67350Y407500D02*X69600D01*
X66600Y408250D02*X67350Y407500D01*
X66600Y409750D02*Y408250D01*
Y409750D02*X67350Y410500D01*
X68850D01*
X69600Y409750D01*
X66600Y409000D02*X69600D01*
Y409750D02*Y409000D01*
X72150Y409750D02*Y407500D01*
Y409750D02*X72900Y410500D01*
X74400D01*
X71400D02*X72150Y409750D01*
X76950Y407500D02*X79200D01*
X76200Y408250D02*X76950Y407500D01*
X76200Y409750D02*Y408250D01*
Y409750D02*X76950Y410500D01*
X78450D01*
X79200Y409750D01*
X76200Y409000D02*X79200D01*
Y409750D02*Y409000D01*
X81750Y409750D02*Y407500D01*
Y409750D02*X82500Y410500D01*
X83250D01*
X84000Y409750D01*
Y407500D01*
X81000Y410500D02*X81750Y409750D01*
X86550Y413500D02*Y408250D01*
X87300Y407500D01*
X85800Y411250D02*X87300D01*
X94500Y413500D02*Y407500D01*
X93750D02*X94500Y408250D01*
X92250Y407500D02*X93750D01*
X91500Y408250D02*X92250Y407500D01*
X91500Y409750D02*Y408250D01*
Y409750D02*X92250Y410500D01*
X93750D01*
X94500Y409750D01*
X97050D02*Y407500D01*
Y409750D02*X97800Y410500D01*
X99300D01*
X96300D02*X97050Y409750D01*
X101100Y412000D02*Y411250D01*
Y409750D02*Y407500D01*
X102600Y413500D02*Y408250D01*
X103350Y407500D01*
X104850Y413500D02*Y408250D01*
X105600Y407500D01*
X110550D02*X112800D01*
X113550Y408250D01*
X112800Y409000D02*X113550Y408250D01*
X110550Y409000D02*X112800D01*
X109800Y409750D02*X110550Y409000D01*
X109800Y409750D02*X110550Y410500D01*
X112800D01*
X113550Y409750D01*
X109800Y408250D02*X110550Y407500D01*
X115350Y412000D02*Y411250D01*
Y409750D02*Y407500D01*
X116850Y410500D02*X119850D01*
X116850Y407500D02*X119850Y410500D01*
X116850Y407500D02*X119850D01*
X122400D02*X124650D01*
X121650Y408250D02*X122400Y407500D01*
X121650Y409750D02*Y408250D01*
Y409750D02*X122400Y410500D01*
X123900D01*
X124650Y409750D01*
X121650Y409000D02*X124650D01*
Y409750D02*Y409000D01*
X127200Y407500D02*X129450D01*
X130200Y408250D01*
X129450Y409000D02*X130200Y408250D01*
X127200Y409000D02*X129450D01*
X126450Y409750D02*X127200Y409000D01*
X126450Y409750D02*X127200Y410500D01*
X129450D01*
X130200Y409750D01*
X126450Y408250D02*X127200Y407500D01*
X134700Y410500D02*Y408250D01*
X135450Y407500D01*
X136950D01*
X137700Y408250D01*
Y410500D02*Y408250D01*
X140250Y407500D02*X142500D01*
X143250Y408250D01*
X142500Y409000D02*X143250Y408250D01*
X140250Y409000D02*X142500D01*
X139500Y409750D02*X140250Y409000D01*
X139500Y409750D02*X140250Y410500D01*
X142500D01*
X143250Y409750D01*
X139500Y408250D02*X140250Y407500D01*
X145800D02*X148050D01*
X145050Y408250D02*X145800Y407500D01*
X145050Y409750D02*Y408250D01*
Y409750D02*X145800Y410500D01*
X147300D01*
X148050Y409750D01*
X145050Y409000D02*X148050D01*
Y409750D02*Y409000D01*
X152850Y413500D02*Y407500D01*
X152100D02*X152850Y408250D01*
X150600Y407500D02*X152100D01*
X149850Y408250D02*X150600Y407500D01*
X149850Y409750D02*Y408250D01*
Y409750D02*X150600Y410500D01*
X152100D01*
X152850Y409750D01*
X157350Y412000D02*Y411250D01*
Y409750D02*Y407500D01*
X159600Y409750D02*Y407500D01*
Y409750D02*X160350Y410500D01*
X161100D01*
X161850Y409750D01*
Y407500D01*
X158850Y410500D02*X159600Y409750D01*
X167100Y413500D02*Y408250D01*
X167850Y407500D01*
X166350Y411250D02*X167850D01*
X169350Y413500D02*Y407500D01*
Y409750D02*X170100Y410500D01*
X171600D01*
X172350Y409750D01*
Y407500D01*
X174150Y412000D02*Y411250D01*
Y409750D02*Y407500D01*
X176400D02*X178650D01*
X179400Y408250D01*
X178650Y409000D02*X179400Y408250D01*
X176400Y409000D02*X178650D01*
X175650Y409750D02*X176400Y409000D01*
X175650Y409750D02*X176400Y410500D01*
X178650D01*
X179400Y409750D01*
X175650Y408250D02*X176400Y407500D01*
X183900Y413500D02*Y408250D01*
X184650Y407500D01*
X188400Y410500D02*X189150Y409750D01*
X186900Y410500D02*X188400D01*
X186150Y409750D02*X186900Y410500D01*
X186150Y409750D02*Y408250D01*
X186900Y407500D01*
X189150Y410500D02*Y408250D01*
X189900Y407500D01*
X186900D02*X188400D01*
X189150Y408250D01*
X191700Y410500D02*Y408250D01*
X192450Y407500D01*
X194700Y410500D02*Y406000D01*
X193950Y405250D02*X194700Y406000D01*
X192450Y405250D02*X193950D01*
X191700Y406000D02*X192450Y405250D01*
Y407500D02*X193950D01*
X194700Y408250D01*
X196500Y409750D02*Y408250D01*
Y409750D02*X197250Y410500D01*
X198750D01*
X199500Y409750D01*
Y408250D01*
X198750Y407500D02*X199500Y408250D01*
X197250Y407500D02*X198750D01*
X196500Y408250D02*X197250Y407500D01*
X201300Y410500D02*Y408250D01*
X202050Y407500D01*
X203550D01*
X204300Y408250D01*
Y410500D02*Y408250D01*
X206850Y413500D02*Y408250D01*
X207600Y407500D01*
X206100Y411250D02*X207600D01*
X209100Y406000D02*X210600Y407500D01*
X215100Y412750D02*X215850Y413500D01*
X218100D01*
X218850Y412750D01*
Y411250D01*
X215100Y407500D02*X218850Y411250D01*
X215100Y407500D02*X218850D01*
X220650Y408250D02*X221400Y407500D01*
X220650Y412750D02*Y408250D01*
Y412750D02*X221400Y413500D01*
X222900D01*
X223650Y412750D01*
Y408250D01*
X222900Y407500D02*X223650Y408250D01*
X221400Y407500D02*X222900D01*
X220650Y409000D02*X223650Y412000D01*
X226200Y407500D02*X227700D01*
X226950Y413500D02*Y407500D01*
X225450Y412000D02*X226950Y413500D01*
X232200D02*Y407500D01*
Y409750D02*X232950Y410500D01*
X234450D01*
X235200Y409750D01*
Y407500D01*
X237000Y409750D02*Y408250D01*
Y409750D02*X237750Y410500D01*
X239250D01*
X240000Y409750D01*
Y408250D01*
X239250Y407500D02*X240000Y408250D01*
X237750Y407500D02*X239250D01*
X237000Y408250D02*X237750Y407500D01*
X241800Y413500D02*Y408250D01*
X242550Y407500D01*
X244800D02*X247050D01*
X244050Y408250D02*X244800Y407500D01*
X244050Y409750D02*Y408250D01*
Y409750D02*X244800Y410500D01*
X246300D01*
X247050Y409750D01*
X244050Y409000D02*X247050D01*
Y409750D02*Y409000D01*
X249600Y407500D02*X251850D01*
X252600Y408250D01*
X251850Y409000D02*X252600Y408250D01*
X249600Y409000D02*X251850D01*
X248850Y409750D02*X249600Y409000D01*
X248850Y409750D02*X249600Y410500D01*
X251850D01*
X252600Y409750D01*
X248850Y408250D02*X249600Y407500D01*
X257850Y413500D02*Y408250D01*
X258600Y407500D01*
X257100Y411250D02*X258600D01*
X260100Y409750D02*Y408250D01*
Y409750D02*X260850Y410500D01*
X262350D01*
X263100Y409750D01*
Y408250D01*
X262350Y407500D02*X263100Y408250D01*
X260850Y407500D02*X262350D01*
X260100Y408250D02*X260850Y407500D01*
X265650Y413500D02*Y408250D01*
X266400Y407500D01*
X264900Y411250D02*X266400D01*
X270150Y410500D02*X270900Y409750D01*
X268650Y410500D02*X270150D01*
X267900Y409750D02*X268650Y410500D01*
X267900Y409750D02*Y408250D01*
X268650Y407500D01*
X270900Y410500D02*Y408250D01*
X271650Y407500D01*
X268650D02*X270150D01*
X270900Y408250D01*
X273450Y413500D02*Y408250D01*
X274200Y407500D01*
G54D80*X0Y280000D02*X200000D01*
Y0D02*X0D01*
Y280000D01*
X200000Y0D02*X400000D01*
Y280000D01*
X196000D01*
G54D79*X113675Y-9500D02*X116675D01*
X117425Y-8750D01*
Y-7250D02*Y-8750D01*
X116675Y-6500D02*X117425Y-7250D01*
X114425Y-6500D02*X116675D01*
X114425Y-3500D02*Y-9500D01*
X113675Y-3500D02*X116675D01*
X117425Y-4250D01*
Y-5750D01*
X116675Y-6500D02*X117425Y-5750D01*
X119225Y-7250D02*Y-8750D01*
Y-7250D02*X119975Y-6500D01*
X121475D01*
X122225Y-7250D01*
Y-8750D01*
X121475Y-9500D02*X122225Y-8750D01*
X119975Y-9500D02*X121475D01*
X119225Y-8750D02*X119975Y-9500D01*
X126275Y-6500D02*X127025Y-7250D01*
X124775Y-6500D02*X126275D01*
X124025Y-7250D02*X124775Y-6500D01*
X124025Y-7250D02*Y-8750D01*
X124775Y-9500D01*
X127025Y-6500D02*Y-8750D01*
X127775Y-9500D01*
X124775D02*X126275D01*
X127025Y-8750D01*
X130325Y-7250D02*Y-9500D01*
Y-7250D02*X131075Y-6500D01*
X132575D01*
X129575D02*X130325Y-7250D01*
X137375Y-3500D02*Y-9500D01*
X136625D02*X137375Y-8750D01*
X135125Y-9500D02*X136625D01*
X134375Y-8750D02*X135125Y-9500D01*
X134375Y-7250D02*Y-8750D01*
Y-7250D02*X135125Y-6500D01*
X136625D01*
X137375Y-7250D01*
X141875D02*Y-8750D01*
Y-7250D02*X142625Y-6500D01*
X144125D01*
X144875Y-7250D01*
Y-8750D01*
X144125Y-9500D02*X144875Y-8750D01*
X142625Y-9500D02*X144125D01*
X141875Y-8750D02*X142625Y-9500D01*
X146675Y-6500D02*Y-8750D01*
X147425Y-9500D01*
X148925D01*
X149675Y-8750D01*
Y-6500D02*Y-8750D01*
X152225Y-3500D02*Y-8750D01*
X152975Y-9500D01*
X151475Y-5750D02*X152975D01*
X154475Y-3500D02*Y-8750D01*
X155225Y-9500D01*
X156725Y-5000D02*Y-5750D01*
Y-7250D02*Y-9500D01*
X158975Y-7250D02*Y-9500D01*
Y-7250D02*X159725Y-6500D01*
X160475D01*
X161225Y-7250D01*
Y-9500D01*
X158225Y-6500D02*X158975Y-7250D01*
X163775Y-9500D02*X166025D01*
X163025Y-8750D02*X163775Y-9500D01*
X163025Y-7250D02*Y-8750D01*
Y-7250D02*X163775Y-6500D01*
X165275D01*
X166025Y-7250D01*
X163025Y-8000D02*X166025D01*
Y-7250D02*Y-8000D01*
X170525Y-5000D02*Y-5750D01*
Y-7250D02*Y-9500D01*
X172775D02*X175025D01*
X175775Y-8750D01*
X175025Y-8000D02*X175775Y-8750D01*
X172775Y-8000D02*X175025D01*
X172025Y-7250D02*X172775Y-8000D01*
X172025Y-7250D02*X172775Y-6500D01*
X175025D01*
X175775Y-7250D01*
X172025Y-8750D02*X172775Y-9500D01*
X181025Y-3500D02*Y-8750D01*
X181775Y-9500D01*
X180275Y-5750D02*X181775D01*
X183275Y-3500D02*Y-9500D01*
Y-7250D02*X184025Y-6500D01*
X185525D01*
X186275Y-7250D01*
Y-9500D01*
X188825D02*X191075D01*
X188075Y-8750D02*X188825Y-9500D01*
X188075Y-7250D02*Y-8750D01*
Y-7250D02*X188825Y-6500D01*
X190325D01*
X191075Y-7250D01*
X188075Y-8000D02*X191075D01*
Y-7250D02*Y-8000D01*
X196325Y-6500D02*X198575D01*
X195575Y-7250D02*X196325Y-6500D01*
X195575Y-7250D02*Y-8750D01*
X196325Y-9500D01*
X198575D01*
X201125D02*X203375D01*
X200375Y-8750D02*X201125Y-9500D01*
X200375Y-7250D02*Y-8750D01*
Y-7250D02*X201125Y-6500D01*
X202625D01*
X203375Y-7250D01*
X200375Y-8000D02*X203375D01*
Y-7250D02*Y-8000D01*
X205925Y-7250D02*Y-9500D01*
Y-7250D02*X206675Y-6500D01*
X207425D01*
X208175Y-7250D01*
Y-9500D01*
X205175Y-6500D02*X205925Y-7250D01*
X210725Y-3500D02*Y-8750D01*
X211475Y-9500D01*
X209975Y-5750D02*X211475D01*
X213725Y-9500D02*X215975D01*
X212975Y-8750D02*X213725Y-9500D01*
X212975Y-7250D02*Y-8750D01*
Y-7250D02*X213725Y-6500D01*
X215225D01*
X215975Y-7250D01*
X212975Y-8000D02*X215975D01*
Y-7250D02*Y-8000D01*
X218525Y-7250D02*Y-9500D01*
Y-7250D02*X219275Y-6500D01*
X220775D01*
X217775D02*X218525Y-7250D01*
X222575Y-3500D02*Y-8750D01*
X223325Y-9500D01*
X224825Y-5000D02*Y-5750D01*
Y-7250D02*Y-9500D01*
X227075Y-7250D02*Y-9500D01*
Y-7250D02*X227825Y-6500D01*
X228575D01*
X229325Y-7250D01*
Y-9500D01*
X226325Y-6500D02*X227075Y-7250D01*
X231875Y-9500D02*X234125D01*
X231125Y-8750D02*X231875Y-9500D01*
X231125Y-7250D02*Y-8750D01*
Y-7250D02*X231875Y-6500D01*
X233375D01*
X234125Y-7250D01*
X231125Y-8000D02*X234125D01*
Y-7250D02*Y-8000D01*
X238625Y-7250D02*Y-8750D01*
Y-7250D02*X239375Y-6500D01*
X240875D01*
X241625Y-7250D01*
Y-8750D01*
X240875Y-9500D02*X241625Y-8750D01*
X239375Y-9500D02*X240875D01*
X238625Y-8750D02*X239375Y-9500D01*
X244175Y-4250D02*Y-9500D01*
Y-4250D02*X244925Y-3500D01*
X245675D01*
X243425Y-6500D02*X244925D01*
X250625Y-3500D02*Y-8750D01*
X251375Y-9500D01*
X249875Y-5750D02*X251375D01*
X252875Y-3500D02*Y-9500D01*
Y-7250D02*X253625Y-6500D01*
X255125D01*
X255875Y-7250D01*
Y-9500D01*
X257675Y-5000D02*Y-5750D01*
Y-7250D02*Y-9500D01*
X259925D02*X262175D01*
X262925Y-8750D01*
X262175Y-8000D02*X262925Y-8750D01*
X259925Y-8000D02*X262175D01*
X259175Y-7250D02*X259925Y-8000D01*
X259175Y-7250D02*X259925Y-6500D01*
X262175D01*
X262925Y-7250D01*
X259175Y-8750D02*X259925Y-9500D01*
X268175Y-7250D02*Y-11750D01*
X267425Y-6500D02*X268175Y-7250D01*
X268925Y-6500D01*
X270425D01*
X271175Y-7250D01*
Y-8750D01*
X270425Y-9500D02*X271175Y-8750D01*
X268925Y-9500D02*X270425D01*
X268175Y-8750D02*X268925Y-9500D01*
X275225Y-6500D02*X275975Y-7250D01*
X273725Y-6500D02*X275225D01*
X272975Y-7250D02*X273725Y-6500D01*
X272975Y-7250D02*Y-8750D01*
X273725Y-9500D01*
X275975Y-6500D02*Y-8750D01*
X276725Y-9500D01*
X273725D02*X275225D01*
X275975Y-8750D01*
X279275Y-3500D02*Y-8750D01*
X280025Y-9500D01*
X278525Y-5750D02*X280025D01*
X281525Y-3500D02*Y-9500D01*
Y-7250D02*X282275Y-6500D01*
X283775D01*
X284525Y-7250D01*
Y-9500D01*
X200750Y308500D02*Y302500D01*
X203000Y308500D02*X203750Y307750D01*
Y303250D01*
X203000Y302500D02*X203750Y303250D01*
X200000Y302500D02*X203000D01*
X200000Y308500D02*X203000D01*
X207800Y305500D02*X208550Y304750D01*
X206300Y305500D02*X207800D01*
X205550Y304750D02*X206300Y305500D01*
X205550Y304750D02*Y303250D01*
X206300Y302500D01*
X208550Y305500D02*Y303250D01*
X209300Y302500D01*
X206300D02*X207800D01*
X208550Y303250D01*
X211850Y308500D02*Y303250D01*
X212600Y302500D01*
X211100Y306250D02*X212600D01*
X214850Y302500D02*X217100D01*
X214100Y303250D02*X214850Y302500D01*
X214100Y304750D02*Y303250D01*
Y304750D02*X214850Y305500D01*
X216350D01*
X217100Y304750D01*
X214100Y304000D02*X217100D01*
Y304750D02*Y304000D01*
X218900Y306250D02*X219650D01*
X218900Y304750D02*X219650D01*
X224150Y308500D02*Y302500D01*
X226400Y304750D01*
X228650Y302500D01*
Y308500D02*Y302500D01*
X231200D02*X233450D01*
X230450Y303250D02*X231200Y302500D01*
X230450Y304750D02*Y303250D01*
Y304750D02*X231200Y305500D01*
X232700D01*
X233450Y304750D01*
X230450Y304000D02*X233450D01*
Y304750D02*Y304000D01*
X238250Y308500D02*Y302500D01*
X237500D02*X238250Y303250D01*
X236000Y302500D02*X237500D01*
X235250Y303250D02*X236000Y302500D01*
X235250Y304750D02*Y303250D01*
Y304750D02*X236000Y305500D01*
X237500D01*
X238250Y304750D01*
X242750Y308500D02*X245000D01*
Y303250D01*
X244250Y302500D02*X245000Y303250D01*
X243500Y302500D02*X244250D01*
X242750Y303250D02*X243500Y302500D01*
X246800Y305500D02*Y303250D01*
X247550Y302500D01*
X249050D01*
X249800Y303250D01*
Y305500D02*Y303250D01*
X251600Y308500D02*Y303250D01*
X252350Y302500D01*
X260000D02*X261500D01*
X260750Y308500D02*Y302500D01*
X259250Y307000D02*X260750Y308500D01*
X266750Y302500D02*X268250D01*
X267500Y308500D02*Y302500D01*
X266000Y307000D02*X267500Y308500D01*
X270050Y302500D02*X273050Y305500D01*
Y307750D02*Y305500D01*
X272300Y308500D02*X273050Y307750D01*
X270800Y308500D02*X272300D01*
X270050Y307750D02*X270800Y308500D01*
X270050Y307750D02*Y306250D01*
X270800Y305500D01*
X273050D01*
X274850Y306250D02*X275600D01*
X274850Y304750D02*X275600D01*
X277400Y305500D02*X280400Y308500D01*
X277400Y305500D02*X281150D01*
X280400Y308500D02*Y302500D01*
X282950Y308500D02*X285950D01*
X282950D02*Y305500D01*
X283700Y306250D01*
X285200D01*
X285950Y305500D01*
Y303250D01*
X285200Y302500D02*X285950Y303250D01*
X283700Y302500D02*X285200D01*
X282950Y303250D02*X283700Y302500D01*
X287750Y306250D02*X288500D01*
X287750Y304750D02*X288500D01*
X291050Y302500D02*X292550D01*
X291800Y308500D02*Y302500D01*
X290300Y307000D02*X291800Y308500D01*
X294350Y307750D02*X295100Y308500D01*
X297350D01*
X298100Y307750D01*
Y306250D01*
X294350Y302500D02*X298100Y306250D01*
X294350Y302500D02*X298100D01*
X302600Y307750D02*X303350Y308500D01*
X305600D01*
X306350Y307750D01*
Y306250D01*
X302600Y302500D02*X306350Y306250D01*
X302600Y302500D02*X306350D01*
X308150Y303250D02*X308900Y302500D01*
X308150Y307750D02*Y303250D01*
Y307750D02*X308900Y308500D01*
X310400D01*
X311150Y307750D01*
Y303250D01*
X310400Y302500D02*X311150Y303250D01*
X308900Y302500D02*X310400D01*
X308150Y304000D02*X311150Y307000D01*
X312950Y307750D02*X313700Y308500D01*
X315950D01*
X316700Y307750D01*
Y306250D01*
X312950Y302500D02*X316700Y306250D01*
X312950Y302500D02*X316700D01*
X318500Y303250D02*X319250Y302500D01*
X318500Y307750D02*Y303250D01*
Y307750D02*X319250Y308500D01*
X320750D01*
X321500Y307750D01*
Y303250D01*
X320750Y302500D02*X321500Y303250D01*
X319250Y302500D02*X320750D01*
X318500Y304000D02*X321500Y307000D01*
X326000Y308500D02*Y303250D01*
X326750Y302500D01*
X328250D01*
X329000Y303250D01*
Y308500D02*Y303250D01*
X330800Y308500D02*X333800D01*
X332300D02*Y302500D01*
X336350D02*X338600D01*
X335600Y303250D02*X336350Y302500D01*
X335600Y307750D02*Y303250D01*
Y307750D02*X336350Y308500D01*
X338600D01*
X200000Y322750D02*Y317500D01*
Y322750D02*X200750Y323500D01*
X203000D01*
X203750Y322750D01*
Y317500D01*
X200000Y320500D02*X203750D01*
X205550D02*Y318250D01*
X206300Y317500D01*
X207800D01*
X208550Y318250D01*
Y320500D02*Y318250D01*
X211100Y323500D02*Y318250D01*
X211850Y317500D01*
X210350Y321250D02*X211850D01*
X213350Y323500D02*Y317500D01*
Y319750D02*X214100Y320500D01*
X215600D01*
X216350Y319750D01*
Y317500D01*
X218150Y319750D02*Y318250D01*
Y319750D02*X218900Y320500D01*
X220400D01*
X221150Y319750D01*
Y318250D01*
X220400Y317500D02*X221150Y318250D01*
X218900Y317500D02*X220400D01*
X218150Y318250D02*X218900Y317500D01*
X223700Y319750D02*Y317500D01*
Y319750D02*X224450Y320500D01*
X225950D01*
X222950D02*X223700Y319750D01*
X227750Y321250D02*X228500D01*
X227750Y319750D02*X228500D01*
X233000Y323500D02*Y317500D01*
Y323500D02*Y322750D01*
X236750Y319000D01*
Y323500D02*Y317500D01*
X240800Y320500D02*X241550Y319750D01*
X239300Y320500D02*X240800D01*
X238550Y319750D02*X239300Y320500D01*
X238550Y319750D02*Y318250D01*
X239300Y317500D01*
X241550Y320500D02*Y318250D01*
X242300Y317500D01*
X239300D02*X240800D01*
X241550Y318250D01*
X244850Y323500D02*Y318250D01*
X245600Y317500D01*
X244100Y321250D02*X245600D01*
X247100Y323500D02*Y317500D01*
Y319750D02*X247850Y320500D01*
X249350D01*
X250100Y319750D01*
Y317500D01*
X254150Y320500D02*X254900Y319750D01*
X252650Y320500D02*X254150D01*
X251900Y319750D02*X252650Y320500D01*
X251900Y319750D02*Y318250D01*
X252650Y317500D01*
X254900Y320500D02*Y318250D01*
X255650Y317500D01*
X252650D02*X254150D01*
X254900Y318250D01*
X258200Y319750D02*Y317500D01*
Y319750D02*X258950Y320500D01*
X259700D01*
X260450Y319750D01*
Y317500D01*
X257450Y320500D02*X258200Y319750D01*
X265700Y323500D02*Y317500D01*
X267950Y323500D02*X268700Y322750D01*
Y318250D01*
X267950Y317500D02*X268700Y318250D01*
X264950Y317500D02*X267950D01*
X264950Y323500D02*X267950D01*
X270500Y317500D02*X271250D01*
X275750Y323500D02*Y317500D01*
X279500Y323500D02*Y317500D01*
X275750Y320500D02*X279500D01*
X281300Y319750D02*Y318250D01*
Y319750D02*X282050Y320500D01*
X283550D01*
X284300Y319750D01*
Y318250D01*
X283550Y317500D02*X284300Y318250D01*
X282050Y317500D02*X283550D01*
X281300Y318250D02*X282050Y317500D01*
X286100Y323500D02*Y318250D01*
X286850Y317500D01*
X289100Y319750D02*Y317500D01*
Y319750D02*X289850Y320500D01*
X290600D01*
X291350Y319750D01*
Y317500D01*
Y319750D02*X292100Y320500D01*
X292850D01*
X293600Y319750D01*
Y317500D01*
X288350Y320500D02*X289100Y319750D01*
X296150Y317500D02*X298400D01*
X295400Y318250D02*X296150Y317500D01*
X295400Y319750D02*Y318250D01*
Y319750D02*X296150Y320500D01*
X297650D01*
X298400Y319750D01*
X295400Y319000D02*X298400D01*
Y319750D02*Y319000D01*
X300950Y317500D02*X303200D01*
X303950Y318250D01*
X303200Y319000D02*X303950Y318250D01*
X300950Y319000D02*X303200D01*
X300200Y319750D02*X300950Y319000D01*
X300200Y319750D02*X300950Y320500D01*
X303200D01*
X303950Y319750D01*
X300200Y318250D02*X300950Y317500D01*
X200000Y338500D02*X203000D01*
X201500D02*Y332500D01*
X204800Y337000D02*Y336250D01*
Y334750D02*Y332500D01*
X207050Y338500D02*Y333250D01*
X207800Y332500D01*
X206300Y336250D02*X207800D01*
X209300Y338500D02*Y333250D01*
X210050Y332500D01*
X212300D02*X214550D01*
X211550Y333250D02*X212300Y332500D01*
X211550Y334750D02*Y333250D01*
Y334750D02*X212300Y335500D01*
X213800D01*
X214550Y334750D01*
X211550Y334000D02*X214550D01*
Y334750D02*Y334000D01*
X216350Y336250D02*X217100D01*
X216350Y334750D02*X217100D01*
X221600Y333250D02*X222350Y332500D01*
X221600Y337750D02*X222350Y338500D01*
X221600Y337750D02*Y333250D01*
X224150Y335500D02*Y333250D01*
X224900Y332500D01*
X226400D01*
X227150Y333250D01*
Y335500D02*Y333250D01*
X229700Y334750D02*Y332500D01*
Y334750D02*X230450Y335500D01*
X231200D01*
X231950Y334750D01*
Y332500D01*
X228950Y335500D02*X229700Y334750D01*
X233750Y338500D02*Y332500D01*
Y334750D02*X236000Y332500D01*
X233750Y334750D02*X235250Y336250D01*
X238550Y334750D02*Y332500D01*
Y334750D02*X239300Y335500D01*
X240050D01*
X240800Y334750D01*
Y332500D01*
X237800Y335500D02*X238550Y334750D01*
X242600D02*Y333250D01*
Y334750D02*X243350Y335500D01*
X244850D01*
X245600Y334750D01*
Y333250D01*
X244850Y332500D02*X245600Y333250D01*
X243350Y332500D02*X244850D01*
X242600Y333250D02*X243350Y332500D01*
X247400Y335500D02*Y333250D01*
X248150Y332500D01*
X248900D01*
X249650Y333250D01*
Y335500D02*Y333250D01*
X250400Y332500D01*
X251150D01*
X251900Y333250D01*
Y335500D02*Y333250D01*
X254450Y334750D02*Y332500D01*
Y334750D02*X255200Y335500D01*
X255950D01*
X256700Y334750D01*
Y332500D01*
X253700Y335500D02*X254450Y334750D01*
X258500Y338500D02*X259250Y337750D01*
Y333250D01*
X258500Y332500D02*X259250Y333250D01*
X263750Y335500D02*X266750D01*
X271250Y338500D02*Y332500D01*
Y338500D02*X274250D01*
X271250Y335500D02*X273500D01*
X278300D02*X279050Y334750D01*
X276800Y335500D02*X278300D01*
X276050Y334750D02*X276800Y335500D01*
X276050Y334750D02*Y333250D01*
X276800Y332500D01*
X279050Y335500D02*Y333250D01*
X279800Y332500D01*
X276800D02*X278300D01*
X279050Y333250D01*
X281600Y338500D02*Y332500D01*
Y333250D02*X282350Y332500D01*
X283850D01*
X284600Y333250D01*
Y334750D02*Y333250D01*
X283850Y335500D02*X284600Y334750D01*
X282350Y335500D02*X283850D01*
X281600Y334750D02*X282350Y335500D01*
X287150Y334750D02*Y332500D01*
Y334750D02*X287900Y335500D01*
X289400D01*
X286400D02*X287150Y334750D01*
X291200Y337000D02*Y336250D01*
Y334750D02*Y332500D01*
X293450Y335500D02*X295700D01*
X292700Y334750D02*X293450Y335500D01*
X292700Y334750D02*Y333250D01*
X293450Y332500D01*
X295700D01*
X299750Y335500D02*X300500Y334750D01*
X298250Y335500D02*X299750D01*
X297500Y334750D02*X298250Y335500D01*
X297500Y334750D02*Y333250D01*
X298250Y332500D01*
X300500Y335500D02*Y333250D01*
X301250Y332500D01*
X298250D02*X299750D01*
X300500Y333250D01*
X303800Y338500D02*Y333250D01*
X304550Y332500D01*
X303050Y336250D02*X304550D01*
X306050Y337000D02*Y336250D01*
Y334750D02*Y332500D01*
X307550Y334750D02*Y333250D01*
Y334750D02*X308300Y335500D01*
X309800D01*
X310550Y334750D01*
Y333250D01*
X309800Y332500D02*X310550Y333250D01*
X308300Y332500D02*X309800D01*
X307550Y333250D02*X308300Y332500D01*
X313100Y334750D02*Y332500D01*
Y334750D02*X313850Y335500D01*
X314600D01*
X315350Y334750D01*
Y332500D01*
X312350Y335500D02*X313100Y334750D01*
X320600Y338500D02*Y332500D01*
X322850Y338500D02*X323600Y337750D01*
Y333250D01*
X322850Y332500D02*X323600Y333250D01*
X319850Y332500D02*X322850D01*
X319850Y338500D02*X322850D01*
X326150Y334750D02*Y332500D01*
Y334750D02*X326900Y335500D01*
X328400D01*
X325400D02*X326150Y334750D01*
X332450Y335500D02*X333200Y334750D01*
X330950Y335500D02*X332450D01*
X330200Y334750D02*X330950Y335500D01*
X330200Y334750D02*Y333250D01*
X330950Y332500D01*
X333200Y335500D02*Y333250D01*
X333950Y332500D01*
X330950D02*X332450D01*
X333200Y333250D01*
X335750Y335500D02*Y333250D01*
X336500Y332500D01*
X337250D01*
X338000Y333250D01*
Y335500D02*Y333250D01*
X338750Y332500D01*
X339500D01*
X340250Y333250D01*
Y335500D02*Y333250D01*
X342050Y337000D02*Y336250D01*
Y334750D02*Y332500D01*
X344300Y334750D02*Y332500D01*
Y334750D02*X345050Y335500D01*
X345800D01*
X346550Y334750D01*
Y332500D01*
X343550Y335500D02*X344300Y334750D01*
X350600Y335500D02*X351350Y334750D01*
X349100Y335500D02*X350600D01*
X348350Y334750D02*X349100Y335500D01*
X348350Y334750D02*Y333250D01*
X349100Y332500D01*
X350600D01*
X351350Y333250D01*
X348350Y331000D02*X349100Y330250D01*
X350600D01*
X351350Y331000D01*
Y335500D02*Y331000D01*
M02*
