G04 start of page 6 for group -4063 idx -4063 *
G04 Title: (unknown), componentmask *
G04 Creator: pcb 4.0.2 *
G04 CreationDate: Wed Jul  1 19:45:12 2020 UTC *
G04 For: ndholmes *
G04 Format: Gerber/RS-274X *
G04 PCB-Dimensions (mil): 4000.00 2800.00 *
G04 PCB-Coordinate-Origin: lower left *
%MOIN*%
%FSLAX25Y25*%
%LNTOPMASK*%
%ADD64C,0.1270*%
%ADD63C,0.0750*%
%ADD62C,0.0860*%
%ADD61C,0.0900*%
%ADD60C,0.0660*%
%ADD59C,0.0001*%
%ADD58C,0.1000*%
%ADD57C,0.2997*%
G54D57*X17000Y263000D03*
G54D58*X52512Y260500D03*
X141488D03*
G54D57*X383000Y263000D03*
G54D59*G36*
X273200Y212300D02*Y205700D01*
X279800D01*
Y212300D01*
X273200D01*
G37*
G54D60*X276500Y199000D03*
Y189000D03*
X366500Y209000D03*
Y199000D03*
Y189000D03*
G54D58*X52512Y220500D03*
X141488D03*
G54D61*X200500Y177500D03*
Y187500D03*
G54D59*G36*
X196000Y202000D02*Y193000D01*
X205000D01*
Y202000D01*
X196000D01*
G37*
G54D57*X17000Y17000D03*
G54D59*G36*
X18200Y73300D02*Y64700D01*
X26800D01*
Y73300D01*
X18200D01*
G37*
G54D62*X22500Y49000D03*
G54D59*G36*
X152750Y102750D02*Y95250D01*
X160250D01*
Y102750D01*
X152750D01*
G37*
G54D63*X156500Y69000D03*
Y49000D03*
Y29000D03*
X186500D03*
Y49000D03*
Y69000D03*
Y99000D03*
G54D59*G36*
X208750Y102750D02*Y95250D01*
X216250D01*
Y102750D01*
X208750D01*
G37*
G54D63*X242500Y99000D03*
X212500Y69000D03*
Y49000D03*
Y29000D03*
X242500D03*
Y49000D03*
Y69000D03*
G54D64*X28000Y138750D03*
G54D59*G36*
X18200Y188800D02*Y180200D01*
X26800D01*
Y188800D01*
X18200D01*
G37*
G54D62*X22500Y164500D03*
G54D59*G36*
X18200Y234800D02*Y226200D01*
X26800D01*
Y234800D01*
X18200D01*
G37*
G54D62*X22500Y210500D03*
G54D64*X48500Y138750D03*
X69000D03*
X28000Y96250D03*
X48500D03*
X69000D03*
G54D60*X276500Y179000D03*
Y169000D03*
Y159000D03*
Y149000D03*
Y139000D03*
Y129000D03*
Y119000D03*
Y109000D03*
Y99000D03*
X366500Y179000D03*
Y169000D03*
Y159000D03*
Y149000D03*
Y139000D03*
Y129000D03*
Y119000D03*
Y109000D03*
Y99000D03*
X276500Y89000D03*
Y79000D03*
X366500Y89000D03*
Y79000D03*
G54D57*X383000Y17000D03*
G54D60*X276500Y69000D03*
X366500D03*
G54D59*G36*
X154600Y167600D02*Y161400D01*
X167400D01*
Y167600D01*
X154600D01*
G37*
G36*
Y176600D02*Y170400D01*
X167400D01*
Y176600D01*
X154600D01*
G37*
G36*
Y185700D02*Y179500D01*
X167400D01*
Y185700D01*
X154600D01*
G37*
G36*
X143000Y184400D02*X130200D01*
Y162600D01*
X143000D01*
Y184400D01*
G37*
G36*
X205950Y249942D02*X199050D01*
Y236743D01*
X205950D01*
Y249942D01*
G37*
G36*
Y230257D02*X199050D01*
Y217058D01*
X205950D01*
Y230257D01*
G37*
G36*
X161704Y226139D02*Y215696D01*
X175296D01*
Y226139D01*
X161704D01*
G37*
G36*
Y253304D02*Y242861D01*
X175296D01*
Y253304D01*
X161704D01*
G37*
G36*
X275887Y263351D02*X272925D01*
Y256649D01*
X275887D01*
Y263351D01*
G37*
G36*
X282186Y279099D02*X276862D01*
Y271413D01*
X282186D01*
Y279099D01*
G37*
G36*
X271950Y263351D02*X268988D01*
Y256649D01*
X271950D01*
Y263351D01*
G37*
G36*
X308276Y256561D02*Y254289D01*
X312420D01*
Y256561D01*
X308276D01*
G37*
G36*
Y259711D02*Y257439D01*
X312420D01*
Y259711D01*
X308276D01*
G37*
G36*
X301580D02*Y257439D01*
X305724D01*
Y259711D01*
X301580D01*
G37*
G36*
Y256561D02*Y254289D01*
X305724D01*
Y256561D01*
X301580D01*
G37*
G36*
X268012Y263351D02*X265050D01*
Y256649D01*
X268012D01*
Y263351D01*
G37*
G36*
X264075D02*X261113D01*
Y256649D01*
X264075D01*
Y263351D01*
G37*
G36*
X260138Y279099D02*X254814D01*
Y271413D01*
X260138D01*
Y279099D01*
G37*
G36*
X79950Y70450D02*X73050D01*
Y47550D01*
X79950D01*
Y70450D01*
G37*
G36*
X66950D02*X60050D01*
Y47550D01*
X66950D01*
Y70450D01*
G37*
G36*
X53950D02*X47050D01*
Y47550D01*
X53950D01*
Y70450D01*
G37*
G36*
X97704Y76804D02*Y66362D01*
X111296D01*
Y76804D01*
X97704D01*
G37*
G36*
Y49638D02*Y39196D01*
X111296D01*
Y49638D01*
X97704D01*
G37*
G36*
X137273Y106252D02*X131555D01*
Y99748D01*
X137273D01*
Y106252D01*
G37*
G36*
X98900Y100900D02*Y88100D01*
X120700D01*
Y100900D01*
X98900D01*
G37*
G36*
X53950Y185950D02*X47050D01*
Y163050D01*
X53950D01*
Y185950D01*
G37*
G36*
X66950D02*X60050D01*
Y163050D01*
X66950D01*
Y185950D01*
G37*
G36*
X79950D02*X73050D01*
Y163050D01*
X79950D01*
Y185950D01*
G37*
G36*
X97704Y193304D02*Y182862D01*
X111296D01*
Y193304D01*
X97704D01*
G37*
G36*
Y166138D02*Y155696D01*
X111296D01*
Y166138D01*
X97704D01*
G37*
G36*
X131748Y122902D02*Y117184D01*
X138252D01*
Y122902D01*
X131748D01*
G37*
G36*
Y115816D02*Y110098D01*
X138252D01*
Y115816D01*
X131748D01*
G37*
G36*
X144748Y115773D02*Y110055D01*
X151252D01*
Y115773D01*
X144748D01*
G37*
G36*
Y122859D02*Y117141D01*
X151252D01*
Y122859D01*
X144748D01*
G37*
G36*
X121814Y144828D02*Y135172D01*
X132256D01*
Y144828D01*
X121814D01*
G37*
G36*
X121900Y125300D02*X115700D01*
Y112500D01*
X121900D01*
Y125300D01*
G37*
G36*
X112900D02*X106700D01*
Y112500D01*
X112900D01*
Y125300D01*
G37*
G36*
X103800D02*X97600D01*
Y112500D01*
X103800D01*
Y125300D01*
G37*
G36*
X202902Y158252D02*X197184D01*
Y151748D01*
X202902D01*
Y158252D01*
G37*
G36*
X195816D02*X190098D01*
Y151748D01*
X195816D01*
Y158252D01*
G37*
G36*
X144359Y106252D02*X138641D01*
Y99748D01*
X144359D01*
Y106252D01*
G37*
G36*
X138744Y144828D02*Y135172D01*
X149186D01*
Y144828D01*
X138744D01*
G37*
G36*
X193200Y121500D02*Y118500D01*
X197800D01*
Y121500D01*
X193200D01*
G37*
G36*
Y117600D02*Y114600D01*
X197800D01*
Y117600D01*
X193200D01*
G37*
G36*
Y113700D02*Y110700D01*
X197800D01*
Y113700D01*
X193200D01*
G37*
G36*
X201400D02*Y110700D01*
X206000D01*
Y113700D01*
X201400D01*
G37*
G36*
Y117600D02*Y114600D01*
X206000D01*
Y117600D01*
X201400D01*
G37*
G36*
Y121500D02*Y118500D01*
X206000D01*
Y121500D01*
X201400D01*
G37*
M02*
