G04 start of page 8 for group -4079 idx -4079 *
G04 Title: (unknown), topsilk *
G04 Creator: pcb 4.0.2 *
G04 CreationDate: Wed Jul  1 19:45:12 2020 UTC *
G04 For: ndholmes *
G04 Format: Gerber/RS-274X *
G04 PCB-Dimensions (mil): 4000.00 2800.00 *
G04 PCB-Coordinate-Origin: lower left *
%MOIN*%
%FSLAX25Y25*%
%LNTOPSILK*%
%ADD75C,0.0080*%
%ADD74C,0.0100*%
%ADD73C,0.0001*%
G54D73*G36*
X255400Y256427D02*X255443Y256475D01*
X255784Y256432D01*
X256002Y256025D01*
Y255732D01*
X256196Y255277D01*
X256230Y255228D01*
X256283Y255157D01*
X256424Y254414D01*
X256457Y251935D01*
Y247302D01*
X262734D01*
X265654Y247269D01*
X267124Y247205D01*
X267134Y247182D01*
X267139Y247166D01*
X267107Y246873D01*
X267096Y246840D01*
X267080Y246813D01*
X266759Y246081D01*
X266722Y245994D01*
X266683Y245907D01*
X266000Y244882D01*
X265930Y244801D01*
X265778Y244632D01*
X264709Y243873D01*
X263804Y243444D01*
X262974D01*
X261389Y242842D01*
X259930Y241643D01*
X259745Y241345D01*
X259626Y241160D01*
X257922Y240211D01*
X256457D01*
Y235583D01*
X256424Y233104D01*
X256283Y232360D01*
X256230Y232284D01*
X256196Y232241D01*
X256002Y231796D01*
Y231503D01*
X255822Y231123D01*
X255795Y231091D01*
X255746Y231047D01*
X255540Y230961D01*
X255393Y231422D01*
X255324Y232773D01*
X255296Y234677D01*
X255290Y235312D01*
X255258Y239402D01*
X254748Y239440D01*
X254672Y239446D01*
X253815Y239413D01*
X253750Y239402D01*
X253261Y239326D01*
Y238502D01*
X252643Y237726D01*
X252280D01*
X251791Y237607D01*
X251765Y237585D01*
X251720Y237563D01*
X251422D01*
X251400Y237585D01*
X251384Y237607D01*
X251239Y237726D01*
X251156D01*
X251091Y236858D01*
X251174Y235946D01*
X251210Y235925D01*
X251217Y235919D01*
X251324Y236012D01*
Y236115D01*
X251563Y236337D01*
X251607Y236353D01*
X251644Y236375D01*
X251894Y236576D01*
Y236755D01*
X252139Y237070D01*
X252182Y237107D01*
X252252Y237178D01*
X252697Y237254D01*
X252774Y237205D01*
X252811Y237178D01*
X253202Y236570D01*
X253230Y236494D01*
X253261Y236380D01*
X253234Y235534D01*
X253191Y235409D01*
X253137Y235263D01*
X252491Y234666D01*
X252420Y234693D01*
X252215Y234183D01*
X252226Y234042D01*
X252230Y233961D01*
X251715Y233494D01*
X251607Y233478D01*
X251537Y233472D01*
X251232Y233142D01*
X251228Y233060D01*
X251206Y232849D01*
X250550Y232274D01*
X249952Y232881D01*
Y233185D01*
X249904Y233494D01*
X249687D01*
X249095Y232957D01*
X248981Y232870D01*
X248861Y232789D01*
X248287Y232252D01*
X247928D01*
X247548Y231894D01*
X247207Y231411D01*
Y231346D01*
X247202Y231237D01*
X246876Y230662D01*
X246367Y230310D01*
X246280Y230315D01*
X246219Y230320D01*
X245959Y230168D01*
Y230049D01*
X246056Y229838D01*
X246074Y229821D01*
X246106Y229800D01*
X246181Y228888D01*
X246100Y228020D01*
X246063D01*
X246030Y227163D01*
X246002Y224895D01*
X245991Y221678D01*
Y217961D01*
X246002Y214207D01*
X246024Y210870D01*
X246056Y208413D01*
X246067Y207496D01*
X246100Y207290D01*
X246106Y207235D01*
X246074Y206823D01*
X246063Y206812D01*
X246046Y206807D01*
X245959Y206438D01*
Y205885D01*
X247532D01*
X247570Y205006D01*
X247576Y204886D01*
X247528Y204040D01*
X247517Y204024D01*
X247500Y204013D01*
X246783Y203980D01*
X246687Y203986D01*
X245959Y204056D01*
Y201110D01*
X245980Y199770D01*
X246030Y199005D01*
X246046Y198994D01*
X246056Y198989D01*
X246063Y198202D01*
X246052Y198083D01*
X246019Y197757D01*
X246008Y196238D01*
X245976Y192180D01*
X245965Y186679D01*
X245959Y180472D01*
X245970Y174331D01*
X245991Y168998D01*
X246024Y165232D01*
X246035Y163806D01*
X246074Y163784D01*
X246106Y163762D01*
X246181Y163030D01*
X246100Y162352D01*
X246052D01*
X245987Y161239D01*
X245959Y158820D01*
Y153671D01*
X246290Y153286D01*
X246344Y153226D01*
X246669Y152461D01*
X246680Y152369D01*
X246687Y152298D01*
X246848Y151197D01*
X246870Y151094D01*
X246887Y150996D01*
X247050Y149868D01*
X247060Y149792D01*
X247071Y149678D01*
X247554Y148788D01*
X247750Y148593D01*
X248259Y147899D01*
X248265Y147860D01*
Y147828D01*
X248443Y147551D01*
X248471Y147540D01*
X248493Y147530D01*
X248689Y147052D01*
X248698Y146982D01*
X248709Y146868D01*
X248845Y146526D01*
X249367Y146293D01*
X249550Y146227D01*
X249659Y146195D01*
X251384Y145658D01*
X251547Y145609D01*
X251720Y145560D01*
X253006Y145012D01*
X253056Y144969D01*
X253109Y144920D01*
X253283Y144763D01*
X253452Y144502D01*
X253570Y143998D01*
X253646Y143054D01*
X253690Y141486D01*
X253713Y139099D01*
X253717Y135702D01*
Y118325D01*
X254819D01*
X255617Y118081D01*
X255681Y118010D01*
X255730Y117961D01*
X256034Y117164D01*
X256050Y117050D01*
X256061Y116963D01*
X256219Y115650D01*
X256234Y115525D01*
X256245Y115406D01*
X256440Y113909D01*
X256457Y113784D01*
X256474Y113665D01*
X256674Y112113D01*
X256695Y111983D01*
X256713Y111858D01*
X256865Y110431D01*
X256874Y110333D01*
X256940Y109617D01*
X242356D01*
X237311Y109628D01*
X233378Y109650D01*
X231517Y109709D01*
X231028Y109758D01*
X231002Y109796D01*
X230980Y109823D01*
X230941Y110111D01*
X230958Y110133D01*
X230969Y110154D01*
X231131Y111098D01*
X231148Y111229D01*
X231158Y111359D01*
X231332Y112867D01*
X231348Y112976D01*
X231397Y113377D01*
X231756Y116388D01*
X231778Y116583D01*
X231815Y116936D01*
X232206Y117983D01*
X233091Y118325D01*
X234187D01*
X234224Y131226D01*
Y133033D01*
X234245Y138453D01*
X234278Y142348D01*
X234348Y143998D01*
X234415Y144388D01*
X234469Y144470D01*
X234544Y144595D01*
X235135Y145094D01*
X236178Y145533D01*
X236481Y145625D01*
X236628Y145674D01*
X238222Y146162D01*
X238331Y146195D01*
X238500Y146249D01*
X238998Y146466D01*
X239117Y146792D01*
X239128Y146900D01*
X239134Y146982D01*
X239356Y147470D01*
X239394Y147492D01*
X239421Y147508D01*
X239589Y147801D01*
X239584Y147828D01*
X239574Y147882D01*
X239965Y148446D01*
X240485Y148918D01*
X240598D01*
X240778Y149537D01*
X240800Y149635D01*
X240815Y149738D01*
X240974Y150649D01*
X240984Y150693D01*
X240989Y150741D01*
X241098Y151338D01*
X241108Y151382D01*
X241163Y151696D01*
X241391Y152727D01*
X241608Y153248D01*
X241663Y153308D01*
X241706Y153362D01*
X241798Y153557D01*
X241874Y154143D01*
X241902Y155461D01*
X241906Y157301D01*
Y162227D01*
X232808D01*
X231078Y162194D01*
X230400Y162124D01*
X230269Y162021D01*
X230258Y161977D01*
X230241Y161923D01*
X230133Y161218D01*
X229921Y159411D01*
X229856Y158809D01*
X229840Y158690D01*
X229656Y157051D01*
X229639Y156910D01*
X229624Y156774D01*
X229417Y155000D01*
X229402Y154859D01*
X229384Y154724D01*
X229178Y153031D01*
X229167Y152901D01*
X229152Y152776D01*
X228961Y151213D01*
X228950Y151094D01*
X228896Y150676D01*
X228506Y147410D01*
X228478Y147177D01*
X228463Y147052D01*
X228272Y145441D01*
X228261Y145311D01*
X228185Y144660D01*
X227610Y139831D01*
X227567Y139468D01*
X227552Y139343D01*
X227361Y137731D01*
X227350Y137601D01*
X227333Y137476D01*
X227150Y135865D01*
X227133Y135735D01*
X227117Y135610D01*
X226917Y133917D01*
X226900Y133776D01*
X226883Y133641D01*
X226678Y131867D01*
X226661Y131725D01*
X226644Y131590D01*
X226444Y129946D01*
X226433Y129827D01*
X226417Y129707D01*
X226232Y128210D01*
X226221Y128085D01*
X226206Y127971D01*
X226004Y126197D01*
X225989Y126034D01*
X225967Y125877D01*
X225756Y124103D01*
X225739Y123984D01*
X225722Y123864D01*
X225532Y122307D01*
X225521Y122177D01*
X225478Y121792D01*
X225137Y118987D01*
X225115Y118846D01*
X225033Y118325D01*
X225890D01*
X226591Y118027D01*
X226910Y117229D01*
X226932Y116979D01*
X226959Y116643D01*
X227117Y114972D01*
X227252Y113892D01*
X227269Y113844D01*
X227274Y113822D01*
X227382Y112672D01*
X227393Y112509D01*
X227465Y111359D01*
X223433D01*
X221610Y111391D01*
X220574Y111446D01*
X220569Y111456D01*
X220552Y111484D01*
X220606Y112569D01*
X220791Y114598D01*
X220845Y115091D01*
X220861Y115238D01*
X221013Y116822D01*
X221024Y116925D01*
X221035Y117077D01*
X221328Y117951D01*
X221387Y118010D01*
X221452Y118081D01*
X221778Y118276D01*
X222413Y118325D01*
X222874D01*
X223633Y118439D01*
X223644Y118455D01*
X223656Y118477D01*
X223819Y119518D01*
X223834Y119665D01*
X223872Y120039D01*
X224226Y123240D01*
X224263Y123550D01*
X224280Y123696D01*
X224480Y125356D01*
X224496Y125475D01*
X224507Y125600D01*
X224702Y127260D01*
X224724Y127402D01*
X224740Y127548D01*
X224935Y129214D01*
X224952Y129333D01*
X224963Y129452D01*
X225158Y131112D01*
X225180Y131259D01*
X225196Y131405D01*
X225397Y133093D01*
X225413Y133218D01*
X225424Y133342D01*
X225615Y134899D01*
X225630Y135019D01*
X225641Y135144D01*
X225847Y136836D01*
X225863Y136977D01*
X225880Y137124D01*
X226080Y138789D01*
X226097Y138909D01*
X226107Y139034D01*
X226304Y140688D01*
X226319Y140835D01*
X226374Y141301D01*
X226748Y144535D01*
X226780Y144779D01*
X226840Y145289D01*
X227089Y147399D01*
X227382Y149900D01*
X227465Y150600D01*
X227480Y150758D01*
X227681Y152472D01*
X227697Y152591D01*
X227708Y152711D01*
X227898Y154268D01*
X227915Y154393D01*
X227926Y154523D01*
X228126Y156237D01*
X228147Y156384D01*
X228165Y156530D01*
X228365Y158190D01*
X228381Y158310D01*
X228391Y158429D01*
X228587Y159986D01*
X228604Y160111D01*
X228619Y160241D01*
X228771Y162070D01*
X228782Y162227D01*
X228787Y162390D01*
X228930Y163627D01*
X228945Y163659D01*
X228967Y163719D01*
X229070Y164240D01*
X229239Y165574D01*
X229293Y166019D01*
X229304Y166139D01*
X229493Y167701D01*
X229509Y167826D01*
X229543Y168092D01*
X230937Y167967D01*
X230606Y164912D01*
X230589Y164679D01*
X230524Y163844D01*
X241846D01*
X241874Y180635D01*
X241906Y197426D01*
X234474D01*
X233990Y193352D01*
X233920Y192793D01*
X233611Y190238D01*
X233404Y188583D01*
X233394Y188469D01*
X233356Y188198D01*
X233095Y186125D01*
X232852Y184031D01*
X232824Y183744D01*
X232791Y183483D01*
X232395Y180152D01*
X232357Y179827D01*
X232341Y179707D01*
X232146Y178101D01*
X232135Y177960D01*
X232119Y177825D01*
X231919Y176165D01*
X231907Y176034D01*
X231891Y175910D01*
X231702Y174298D01*
X231690Y174168D01*
X231674Y174043D01*
X231484Y172432D01*
X231474Y172302D01*
X231457Y172177D01*
X231245Y170457D01*
X231230Y170311D01*
X231213Y170170D01*
X231002Y168455D01*
X230985Y168325D01*
X230937Y167967D01*
X229543Y168092D01*
X229939Y171461D01*
X229981Y171803D01*
X229993Y171933D01*
X230187Y173544D01*
X230204Y173669D01*
X230220Y173799D01*
X230410Y175410D01*
X230426Y175535D01*
X230437Y175665D01*
X230639Y177380D01*
X230659Y177526D01*
X230676Y177673D01*
X230876Y179360D01*
X230893Y179485D01*
X230904Y179610D01*
X231093Y181167D01*
X231110Y181286D01*
X231120Y181416D01*
X231328Y183158D01*
X231343Y183310D01*
X231359Y183467D01*
X231565Y185181D01*
X231582Y185301D01*
X231593Y185420D01*
X231789Y187031D01*
X231809Y187167D01*
X231826Y187303D01*
X232017Y188909D01*
X232032Y189028D01*
X232043Y189153D01*
X232239Y190867D01*
X232260Y191019D01*
X232276Y191176D01*
X232478Y192891D01*
X232493Y193010D01*
X232504Y193130D01*
X232706Y194741D01*
X232721Y194877D01*
X232737Y195018D01*
X232889Y197052D01*
X232900Y197242D01*
X232906Y197432D01*
X233037Y198826D01*
X233052Y198859D01*
X233102Y198989D01*
X233389Y200405D01*
X233421Y200660D01*
X233437Y200806D01*
X233622Y202467D01*
X233639Y202586D01*
X233650Y202705D01*
X233833Y204268D01*
X233850Y204393D01*
X235287Y204328D01*
X235206Y203666D01*
X234913Y201197D01*
X234724Y199743D01*
X234702Y199580D01*
X234647Y199179D01*
X238244Y199141D01*
X238739Y199135D01*
X240789Y199146D01*
X241846Y199190D01*
Y199955D01*
X241852Y201208D01*
Y201626D01*
X241857Y203953D01*
X241108Y203991D01*
X240989Y204002D01*
X240350Y204159D01*
Y204181D01*
X240333Y204333D01*
X240350Y205543D01*
X240371Y205597D01*
X240387Y205657D01*
X241022Y205901D01*
X241180Y205906D01*
X241347Y205917D01*
X241890Y206188D01*
Y206259D01*
X241884Y206302D01*
X241804Y206769D01*
X241793Y206796D01*
X241776Y206829D01*
X241759Y207740D01*
X241770Y207854D01*
X241781Y207968D01*
X241826Y210323D01*
X241852Y213898D01*
Y215086D01*
X241857Y221493D01*
X241430Y221754D01*
X241369Y221792D01*
X240730Y222302D01*
X240685Y222345D01*
X240615Y222416D01*
X240181Y222557D01*
X240132Y222519D01*
X240083Y222486D01*
X239763Y222551D01*
X239730Y222600D01*
X239698Y222644D01*
X239665Y222975D01*
X239693Y223002D01*
X239709Y223034D01*
X239698Y223170D01*
X239650D01*
X239513Y223067D01*
X239508Y223045D01*
X239487Y223012D01*
X239047Y223137D01*
X238961Y223219D01*
X238895Y223278D01*
X238667Y223788D01*
X238678Y223843D01*
X238683Y223886D01*
X238667Y224184D01*
X238656Y224190D01*
X238645Y224195D01*
X238233Y224732D01*
X238180Y224814D01*
X237772Y225400D01*
X239096Y225958D01*
X239878Y225248D01*
X239893Y225302D01*
X240474D01*
X240517Y225248D01*
X240620Y225128D01*
X240821Y224494D01*
X240772Y224428D01*
X240756Y224418D01*
X240913Y224211D01*
X240957D01*
X241033Y224217D01*
X241337Y224011D01*
Y223821D01*
X241804Y223457D01*
X241808Y223468D01*
X241846Y224146D01*
X241874Y225410D01*
X241880Y225709D01*
X241906Y227895D01*
X240365Y227890D01*
X239980D01*
X238813Y227792D01*
X238424Y227510D01*
Y227049D01*
X239096Y225958D01*
X237772Y225400D01*
X237696Y224689D01*
X237685Y224597D01*
X237522Y223175D01*
X237511Y223045D01*
X237495Y222920D01*
X237289Y221206D01*
X237274Y221059D01*
X237224Y220674D01*
X236860Y217593D01*
X236828Y217327D01*
X236813Y217202D01*
X236611Y215536D01*
X236595Y215401D01*
X236578Y215265D01*
X236378Y213551D01*
X236361Y213410D01*
X236345Y213274D01*
X236144Y211560D01*
X236133Y211418D01*
X236117Y211283D01*
X235928Y209671D01*
X235917Y209552D01*
X235874Y209216D01*
X235652Y207442D01*
X235363Y205000D01*
X235287Y204328D01*
X233850Y204393D01*
X233860Y204523D01*
X234067Y206237D01*
X234083Y206384D01*
X234100Y206530D01*
X234294Y208190D01*
X234311Y208310D01*
X234321Y208429D01*
X234517Y210068D01*
X234539Y210203D01*
X234556Y210344D01*
X234750Y212064D01*
X234767Y212194D01*
X234778Y212330D01*
X234983Y214017D01*
X235006Y214153D01*
X235021Y214294D01*
X235217Y215960D01*
X235233Y216084D01*
X235244Y216215D01*
X235428Y217826D01*
X235444Y217951D01*
X235456Y218081D01*
X235656Y219741D01*
X235672Y219877D01*
X235683Y220018D01*
X235889Y221678D01*
X235906Y221803D01*
X235922Y221933D01*
X236128Y223647D01*
X236144Y223794D01*
X236189Y224179D01*
X236557Y227092D01*
X236595Y227336D01*
X236611Y227461D01*
X236660Y228715D01*
X236650Y228796D01*
X236633Y228942D01*
X236898Y231075D01*
X236969Y231319D01*
X237013Y231492D01*
X237832Y233055D01*
X239215Y232925D01*
X238933Y232198D01*
X238906Y232122D01*
X238874Y232046D01*
X238554Y231091D01*
X238531Y231009D01*
X238510Y230933D01*
X238309Y230342D01*
X238298Y230326D01*
X238282Y230304D01*
X238174Y229821D01*
X238135Y229393D01*
X238239D01*
X238554Y229604D01*
X238624Y229637D01*
X238721Y229691D01*
X239269Y229843D01*
X240202Y229886D01*
X241939D01*
X241911Y230261D01*
X241906Y230315D01*
X241722Y230830D01*
X241694Y230857D01*
X241630Y230933D01*
X241663Y231606D01*
X241732Y231666D01*
X241776Y231709D01*
X241960Y232393D01*
Y232859D01*
X241819Y233543D01*
X241793Y233570D01*
X241765Y233597D01*
X241619Y233885D01*
Y234064D01*
X241765Y234281D01*
X241793Y234286D01*
X241815Y234297D01*
X241960Y234482D01*
Y234574D01*
X241419Y234661D01*
X240680Y234351D01*
X240582Y234248D01*
X240556Y234227D01*
X240128Y233863D01*
X240089Y233831D01*
X240045Y233803D01*
X239790Y233532D01*
Y233386D01*
X239617Y233245D01*
X239481D01*
X239243Y233006D01*
X239231Y232963D01*
X239215Y232925D01*
X237832Y233055D01*
X238880Y234628D01*
X239041Y234802D01*
X239156Y234932D01*
X240121Y235648D01*
X240870Y236109D01*
X241180D01*
X241358Y236581D01*
X241343Y236630D01*
X241331Y236652D01*
X241402Y236956D01*
X241424Y236977D01*
X241450Y237021D01*
X241987Y237124D01*
X243528Y237135D01*
X244044Y237129D01*
X246528Y237091D01*
Y236663D01*
X246984Y236456D01*
X247028Y236489D01*
X247071Y236532D01*
X247593Y236711D01*
X247641Y236706D01*
X247684Y236701D01*
X248000Y236777D01*
X248009Y236793D01*
Y236798D01*
X247760Y236950D01*
X247717Y236956D01*
X247581Y236972D01*
X247141Y237297D01*
X246897Y238144D01*
X246865Y238420D01*
X246848Y238556D01*
X246648Y239999D01*
X246637Y240091D01*
X246621Y240189D01*
X246528Y241003D01*
Y241556D01*
X246371Y242305D01*
X246350Y242381D01*
X246322Y242462D01*
X246230Y243048D01*
X246241Y243065D01*
X246246Y243081D01*
X246002Y243357D01*
X245959Y243385D01*
X245867Y243439D01*
X245667Y244220D01*
X245731Y244258D01*
X245774Y244291D01*
X245633Y245213D01*
X245557Y245359D01*
X245270Y245918D01*
X245526Y246114D01*
X245557Y246146D01*
X246311Y246314D01*
X246621D01*
X247267Y246515D01*
X247315Y246558D01*
X247380Y246618D01*
X247539Y246927D01*
X247528Y247666D01*
X247510Y247909D01*
X247494Y248148D01*
X247472Y248870D01*
X247608Y249087D01*
X247669Y249103D01*
X247744Y249130D01*
X248130Y248799D01*
X248134Y248696D01*
Y248500D01*
X248644Y247903D01*
X248765Y247795D01*
X248959Y247621D01*
X248709Y247427D01*
X248633Y247502D01*
X248124Y247427D01*
Y247334D01*
X248487Y247052D01*
X249095D01*
X248709Y247427D01*
X248959Y247621D01*
X249615Y247145D01*
X250033Y247112D01*
X250126Y247155D01*
X250190Y247194D01*
X250365Y247427D01*
X250408Y248077D01*
Y248544D01*
X250489Y249282D01*
X250680Y249212D01*
X250690Y249169D01*
X250695Y249135D01*
X250733Y248387D01*
Y248300D01*
X250728Y248170D01*
X250950Y247438D01*
X251021Y247367D01*
X251091Y247296D01*
X251563Y247194D01*
X251639Y247237D01*
X251791Y247328D01*
X252502Y247974D01*
X252930Y248637D01*
X252941Y248728D01*
X252947Y248799D01*
X253137Y249103D01*
X253267D01*
X253457Y248782D01*
X253467Y248707D01*
X253474Y248603D01*
X253680Y248295D01*
X254369Y248256D01*
X254596Y248273D01*
X255319Y248321D01*
Y253048D01*
X255339Y255191D01*
X255389Y256416D01*
X255400Y256427D01*
G37*
G36*
X301543Y2709D02*X301147Y2980D01*
X301011Y3425D01*
X301065Y3740D01*
X301261Y3990D01*
X301391Y4104D01*
Y5986D01*
X300718D01*
X300241Y5981D01*
X300045Y5964D01*
X299953Y5840D01*
X299600Y5617D01*
X299172D01*
X298873Y5807D01*
X298689Y6100D01*
X298662Y6431D01*
X298770Y6724D01*
X298987Y6946D01*
X299302Y7066D01*
X299682Y7012D01*
X299991Y6773D01*
X300056Y6675D01*
X300724D01*
X301391Y6670D01*
Y8167D01*
X299058D01*
Y8900D01*
X299053Y9627D01*
X298955Y9697D01*
X298787Y9876D01*
X298678Y10093D01*
X298689Y10527D01*
X298873Y10815D01*
X299161Y10994D01*
X299497Y11026D01*
X299790Y10923D01*
X300013Y10701D01*
X300132Y10381D01*
X300078Y10006D01*
X299839Y9697D01*
X299742Y9627D01*
Y8851D01*
X301391D01*
Y11156D01*
X301857Y11748D01*
X302329Y12339D01*
Y14406D01*
X301418D01*
Y15193D01*
X305802D01*
Y16566D01*
X302986D01*
Y15193D01*
X302329D01*
Y16566D01*
X301418D01*
Y17325D01*
X302319D01*
Y18692D01*
X303002Y18719D01*
X302997Y18057D01*
X302991Y17586D01*
X303002Y17368D01*
X303067Y17358D01*
X303290Y17347D01*
X303724Y17341D01*
X304407Y17336D01*
X305802D01*
Y18719D01*
X303002D01*
X302319Y18692D01*
X301418D01*
Y19452D01*
X302329D01*
X302986Y19479D01*
X305802D01*
Y20852D01*
X302986D01*
Y19479D01*
X302329Y19452D01*
Y20824D01*
X301418D01*
Y21584D01*
X302319D01*
X302329Y22962D01*
X302986Y23005D01*
Y22327D01*
X302991Y21844D01*
X303008Y21627D01*
X303420Y21617D01*
X304407Y21611D01*
X305791D01*
X305796Y22300D01*
Y22316D01*
X305807Y23005D01*
X302986D01*
X302329Y22962D01*
X301418D01*
Y23722D01*
X302319D01*
Y25094D01*
X303002Y25148D01*
X302997Y24492D01*
X302991Y24015D01*
X303002Y23797D01*
X303067Y23787D01*
X303290Y23776D01*
X303724Y23770D01*
X304407Y23765D01*
X305807D01*
X305796Y24459D01*
X305791Y25148D01*
X303002D01*
X302319Y25094D01*
X301418D01*
Y25854D01*
X302329D01*
Y27096D01*
X302986D01*
Y25854D01*
X305802D01*
Y27096D01*
X306491D01*
Y25854D01*
X307402D01*
Y25094D01*
X306491D01*
Y23694D01*
X307402D01*
Y22935D01*
X306491D01*
Y21541D01*
X307402D01*
Y20781D01*
X306491D01*
Y19408D01*
X307402D01*
Y18649D01*
X306491D01*
Y17255D01*
X307402D01*
Y16495D01*
X306491D01*
Y15122D01*
X307402D01*
Y14336D01*
X306491D01*
X306485Y13750D01*
Y13158D01*
X305069Y11368D01*
X303648Y9583D01*
Y5574D01*
X304624Y4597D01*
X307044D01*
Y6719D01*
X307039Y7543D01*
Y8216D01*
X307033Y8672D01*
X307028Y8834D01*
X306903Y8927D01*
X306659Y9393D01*
X306794Y9909D01*
X307370Y10218D01*
X307972Y9947D01*
X308129Y9382D01*
X307831Y8872D01*
X307733Y8802D01*
Y3914D01*
X304342D01*
X302986Y5270D01*
Y9844D01*
X304396Y11623D01*
X305802Y13403D01*
Y14341D01*
X302986D01*
Y12003D01*
X302074Y10853D01*
Y4022D01*
X302140Y3990D01*
X302319Y3821D01*
X302449Y3588D01*
X302416Y3073D01*
X302069Y2693D01*
X301803Y2633D01*
X301543Y2644D01*
Y2709D01*
G37*
G36*
X317385Y3729D02*X315567Y4071D01*
X313983Y4793D01*
X312876Y5671D01*
X311932Y6778D01*
X311070Y8341D01*
X310424Y10196D01*
X310326Y10565D01*
X312746Y11081D01*
X313679Y11281D01*
X314455Y11444D01*
X314981Y11547D01*
X315182Y11580D01*
X315236Y11368D01*
X315285Y11118D01*
X315367Y10782D01*
X315730Y9757D01*
X316245Y8932D01*
X316891Y8324D01*
X317662Y7961D01*
X317900Y7918D01*
X318296Y7901D01*
X318687Y7918D01*
X318942Y7961D01*
X319962Y8547D01*
X320521Y9583D01*
X320575Y10212D01*
X320521Y10809D01*
X321123Y10983D01*
X321161Y9567D01*
X320803Y8617D01*
X320173Y7885D01*
X319316Y7424D01*
X318280Y7256D01*
X316951Y7559D01*
X315882Y8384D01*
X315090Y9627D01*
X314889Y10153D01*
X314743Y10657D01*
X314694Y10826D01*
X314645Y10842D01*
X314493Y10815D01*
X314135Y10739D01*
X313609Y10625D01*
X312979Y10489D01*
X311829Y10245D01*
X311292Y10126D01*
X311129Y10077D01*
Y10044D01*
X311178Y9860D01*
X311303Y9491D01*
X311449Y9084D01*
X311574Y8758D01*
X312572Y6979D01*
X313858Y5650D01*
X315432Y4782D01*
X317303Y4364D01*
X317699Y4353D01*
X318247D01*
X318795Y4369D01*
X319218Y4402D01*
X320548Y4657D01*
X321709Y5091D01*
X322609Y5623D01*
X323363Y6279D01*
X323966Y7060D01*
X324432Y7966D01*
X324660Y8661D01*
X324817Y9447D01*
X324866Y10402D01*
X324817Y11336D01*
X324590Y12323D01*
X324232Y13213D01*
X323711Y14032D01*
X323027Y14813D01*
X322327Y15459D01*
X321519Y16056D01*
X320445Y16717D01*
X318953Y17547D01*
X317808Y18182D01*
X317016Y18660D01*
X316463Y19061D01*
X316034Y19463D01*
X315486Y20249D01*
X315318Y21117D01*
X315464Y22159D01*
X315898Y22973D01*
X316603Y23537D01*
X317558Y23819D01*
X318139Y23836D01*
X318714Y23770D01*
X319484Y23477D01*
X320152Y22951D01*
X320727Y22186D01*
X321221Y21166D01*
X321307Y20966D01*
X321367Y20922D01*
X321530Y20971D01*
X321909Y21074D01*
X322419Y21226D01*
X323005Y21394D01*
X323581Y21562D01*
X324080Y21714D01*
X324438Y21817D01*
X324579Y21861D01*
X324552Y21985D01*
X324465Y22262D01*
X324340Y22604D01*
X324221Y22919D01*
X323543Y24134D01*
X322653Y25138D01*
X321579Y25913D01*
X320325Y26440D01*
X318568Y26743D01*
X316647Y26657D01*
X314900Y26196D01*
X313500Y25360D01*
X312800Y24633D01*
X312258Y23749D01*
X311889Y22723D01*
X311688Y21573D01*
X311661Y20797D01*
X311699Y20087D01*
X311938Y19105D01*
X312377Y18199D01*
X313017Y17358D01*
X313880Y16566D01*
X314422Y16159D01*
X315052Y15746D01*
X315855Y15269D01*
X316940Y14661D01*
X317667Y14260D01*
X318209Y13951D01*
X318633Y13696D01*
X319007Y13457D01*
X320439Y12247D01*
X321123Y10983D01*
X320521Y10809D01*
X319924Y11878D01*
X318665Y12925D01*
X318302Y13158D01*
X317895Y13403D01*
X317379Y13696D01*
X316685Y14075D01*
X315307Y14851D01*
X314292Y15480D01*
X313517Y16045D01*
X312860Y16625D01*
X312111Y17466D01*
X311574Y18350D01*
X311156Y19533D01*
X311026Y20846D01*
X311118Y22132D01*
X311411Y23331D01*
X312171Y24855D01*
X313332Y26038D01*
X314862Y26863D01*
X316734Y27302D01*
X318193Y27384D01*
X319577Y27259D01*
X320852Y26933D01*
X321991Y26407D01*
X323130Y25561D01*
X324069Y24476D01*
X324796Y23174D01*
X325289Y21671D01*
X325349Y21416D01*
X323147Y20776D01*
X322284Y20532D01*
X321579Y20331D01*
X321101Y20201D01*
X320922Y20157D01*
X320846Y20358D01*
X320618Y20960D01*
X320358Y21535D01*
X319598Y22604D01*
X318649Y23136D01*
X318014Y23201D01*
X317363Y23152D01*
X316506Y22680D01*
X316169Y22219D01*
X315985Y21622D01*
X315947Y21139D01*
X315985Y20727D01*
X316332Y20076D01*
X317059Y19408D01*
X317412Y19164D01*
X317851Y18888D01*
X318426Y18562D01*
X319197Y18139D01*
X320065Y17667D01*
X320748Y17282D01*
X321307Y16951D01*
X321785Y16642D01*
X323011Y15714D01*
X323977Y14726D01*
X324704Y13674D01*
X325192Y12534D01*
X325468Y11162D01*
X325474Y9730D01*
X325219Y8330D01*
X324709Y7066D01*
X323912Y5948D01*
X322870Y5037D01*
X321600Y4359D01*
X320135Y3914D01*
X318757Y3740D01*
X317385Y3735D01*
Y3729D01*
G37*
G36*
X327970Y15535D02*X328610Y15540D01*
X328604Y4641D01*
X340030D01*
Y7798D01*
X332256D01*
Y14319D01*
X337941D01*
Y17488D01*
X332256D01*
Y23271D01*
X339716D01*
Y26440D01*
X328621D01*
X328610Y15540D01*
X327970Y15535D01*
Y27064D01*
X340350D01*
Y22653D01*
X332890D01*
Y18133D01*
X338571D01*
Y13723D01*
X332907D01*
X332896Y11091D01*
X332890Y8460D01*
X340654D01*
Y4022D01*
X327970D01*
Y15535D01*
G37*
G36*
X305107Y5623D02*X304825Y5812D01*
X304646Y6100D01*
X304641Y6534D01*
X304868Y6887D01*
X304999Y6979D01*
X305010Y7440D01*
X305015Y8552D01*
Y10126D01*
X306111Y11504D01*
X307201Y12887D01*
X308531D01*
X308617Y13007D01*
X308845Y13202D01*
X308997Y13267D01*
X309203Y13278D01*
X309404Y13272D01*
X309556Y13202D01*
X309778Y13012D01*
X309914Y12768D01*
X309930Y12486D01*
X309865Y12214D01*
X309589Y11927D01*
X309203Y11813D01*
X308645Y12062D01*
X308520Y12198D01*
X307532D01*
X306615Y11043D01*
X305704Y9887D01*
Y6990D01*
X305807Y6919D01*
X306067Y6523D01*
X306035Y6024D01*
X305650Y5650D01*
X305107Y5617D01*
Y5623D01*
G37*
G36*
X303941Y29782D02*X303056Y30069D01*
X302291Y30628D01*
X301743Y31360D01*
X301456Y32223D01*
X301418Y32863D01*
X301499Y33482D01*
X301809Y34247D01*
X302329Y34898D01*
X303176Y35473D01*
X304147Y35716D01*
X305156Y35629D01*
X306100Y35202D01*
X306653Y34697D01*
X307077Y34079D01*
X307310Y33395D01*
X307380Y32668D01*
X307272Y31941D01*
X307006Y31268D01*
X306599Y30720D01*
X306084Y30275D01*
X305482Y29955D01*
X304831Y29782D01*
X304380Y29760D01*
X303941Y29782D01*
G37*
G54D74*X500Y279500D02*X199500D01*
Y500D02*X500D01*
Y279500D01*
X198500D02*X399500D01*
Y500D02*X190000D01*
X399500Y279500D02*Y500D01*
G54D75*X7000Y213000D02*X6500Y212500D01*
X7000Y214500D02*Y213000D01*
X6500Y215000D02*X7000Y214500D01*
X3500Y215000D02*X6500D01*
X3500D02*X3000Y214500D01*
Y213000D01*
X3500Y212500D01*
X4500D01*
X5000Y213000D02*X4500Y212500D01*
X5000Y214000D02*Y213000D01*
X3000Y211300D02*X7000D01*
X6500D02*X7000D01*
X6500D02*X4000Y208800D01*
X3000D02*X7000D01*
X3000Y207100D02*X7000D01*
Y205600D02*X6500Y205100D01*
X3500D02*X6500D01*
X3000Y205600D02*X3500Y205100D01*
X3000Y207600D02*Y205600D01*
X7000Y207600D02*Y205600D01*
X5000Y236000D02*Y234000D01*
X4000Y235000D02*X6000D01*
X4000Y232800D02*X7000D01*
X4000D02*X3000Y231800D01*
X4000Y230800D01*
X7000D01*
Y229600D02*Y228600D01*
X3000Y229100D02*X7000D01*
X3000Y229600D02*Y228600D01*
Y227400D02*X7000D01*
X6500D02*X7000D01*
X6500D02*X4000Y224900D01*
X3000D02*X7000D01*
X16000Y126000D02*Y124500D01*
X14000Y126000D02*Y124000D01*
Y126000D02*X18000D01*
Y124000D01*
X14000Y122800D02*X17500D01*
X18000Y122300D01*
Y120800D01*
X17500Y120300D01*
X14000D02*X17500D01*
X16000Y122800D02*Y120300D01*
X18000Y119100D02*Y117100D01*
X17500Y116600D01*
X16500D02*X17500D01*
X16000Y117100D02*X16500Y116600D01*
X16000Y118600D02*Y117100D01*
X14000Y118600D02*X18000D01*
X16000D02*X14000Y116600D01*
X18000Y115400D02*Y113400D01*
X14000Y114400D02*X18000D01*
X14000Y112200D02*X18000D01*
X14000Y109700D02*X18000D01*
X16000Y112200D02*Y109700D01*
X11000Y126000D02*X10500Y125500D01*
X11000Y127500D02*Y126000D01*
X10500Y128000D02*X11000Y127500D01*
X7500Y128000D02*X10500D01*
X7500D02*X7000Y127500D01*
Y126000D01*
X7500Y125500D01*
X8500D01*
X9000Y126000D02*X8500Y125500D01*
X9000Y127000D02*Y126000D01*
X11000Y124300D02*Y122300D01*
X10500Y121800D01*
X9500D02*X10500D01*
X9000Y122300D02*X9500Y121800D01*
X9000Y123800D02*Y122300D01*
X7000Y123800D02*X11000D01*
X9000D02*X7000Y121800D01*
X7500Y120600D02*X10500D01*
X11000Y120100D01*
Y119100D01*
X10500Y118600D01*
X7500D02*X10500D01*
X7000Y119100D02*X7500Y118600D01*
X7000Y120100D02*Y119100D01*
X7500Y120600D02*X7000Y120100D01*
X7500Y117400D02*X11000D01*
X7500D02*X7000Y116900D01*
Y115900D01*
X7500Y115400D01*
X11000D01*
X7000Y114200D02*X11000D01*
X10500D02*X11000D01*
X10500D02*X8000Y111700D01*
X7000D02*X11000D01*
X7000Y110000D02*X11000D01*
Y108500D02*X10500Y108000D01*
X7500D02*X10500D01*
X7000Y108500D02*X7500Y108000D01*
X7000Y110500D02*Y108500D01*
X11000Y110500D02*Y108500D01*
X3000Y181500D02*X7000D01*
X3000D02*Y179500D01*
Y178300D02*X6500D01*
X7000Y177800D01*
Y176300D01*
X6500Y175800D01*
X3000D02*X6500D01*
X5000Y178300D02*Y175800D01*
X3000Y174600D02*X7000D01*
X5500Y173100D01*
X7000Y171600D01*
X3000D02*X7000D01*
X3000Y169900D02*X7000D01*
Y170400D02*Y168400D01*
X6500Y167900D01*
X5500D02*X6500D01*
X5000Y168400D02*X5500Y167900D01*
X5000Y169900D02*Y168400D01*
X235500Y276500D02*Y273500D01*
Y276500D02*X236000Y277000D01*
X237000D01*
X237500Y276500D01*
Y273500D01*
X237000Y273000D02*X237500Y273500D01*
X236000Y273000D02*X237000D01*
X235500Y273500D02*X236000Y273000D01*
X236500Y274000D02*X237500Y273000D01*
X238700Y275000D02*Y273500D01*
X239200Y273000D01*
X239700D01*
X240200Y273500D01*
Y275000D02*Y273500D01*
X240700Y273000D01*
X241200D01*
X241700Y273500D01*
Y275000D02*Y273500D01*
X242900Y276000D02*Y275500D01*
Y274500D02*Y273000D01*
X243900Y276000D02*Y275500D01*
Y274500D02*Y273000D01*
X245400Y275000D02*X246900D01*
X244900Y274500D02*X245400Y275000D01*
X244900Y274500D02*Y273500D01*
X245400Y273000D01*
X246900D01*
X229000Y270000D02*X229500Y270500D01*
X230500D01*
X231000Y270000D01*
Y267000D01*
X230500Y266500D02*X231000Y267000D01*
X229500Y266500D02*X230500D01*
X229000Y267000D02*X229500Y266500D01*
Y268500D02*X231000D01*
X232200Y266500D02*X232700D01*
X233900Y270000D02*X234400Y270500D01*
X235400D01*
X235900Y270000D01*
Y267000D01*
X235400Y266500D02*X235900Y267000D01*
X234400Y266500D02*X235400D01*
X233900Y267000D02*X234400Y266500D01*
Y268500D02*X235900D01*
X237100Y270500D02*Y267500D01*
X238100Y266500D01*
X239100Y267500D01*
Y270500D02*Y267500D01*
X242100Y270500D02*X243100D01*
X242600D02*Y266500D01*
X242100D02*X243100D01*
X244300Y270000D02*X244800Y270500D01*
X246300D01*
X246800Y270000D01*
Y269000D01*
X244300Y266500D02*X246800Y269000D01*
X244300Y266500D02*X246800D01*
X248500D02*X250000D01*
X248000Y267000D02*X248500Y266500D01*
X248000Y270000D02*Y267000D01*
Y270000D02*X248500Y270500D01*
X250000D01*
X3000Y64000D02*Y62500D01*
X3500Y64500D02*X3000Y64000D01*
X3500Y64500D02*X6500D01*
X7000Y64000D01*
Y62500D01*
X3500Y61300D02*X6500D01*
X7000Y60800D01*
Y59800D01*
X6500Y59300D01*
X3500D02*X6500D01*
X3000Y59800D02*X3500Y59300D01*
X3000Y60800D02*Y59800D01*
X3500Y61300D02*X3000Y60800D01*
X7000Y58100D02*Y57100D01*
X3000Y57600D02*X7000D01*
X3000Y58100D02*Y57100D01*
Y55900D02*X7000D01*
X3000D02*Y53900D01*
X304500Y49500D02*Y45500D01*
X306000Y47000D01*
X307500Y45500D01*
Y49500D02*Y45500D01*
X308700Y49500D02*X309700D01*
X309200D02*Y45500D01*
X308700D02*X309700D01*
X310900Y49500D02*Y45500D01*
Y49500D02*X312900D01*
X310900Y47500D02*X312400D01*
X314100Y49500D02*X315100D01*
X314600D02*Y45500D01*
X314100D02*X315100D01*
X318100Y49000D02*Y45500D01*
Y49000D02*X318600Y49500D01*
X320100D01*
X320600Y49000D01*
Y45500D01*
X318100Y47500D02*X320600D01*
X321800Y49500D02*Y45500D01*
Y49500D02*Y49000D01*
X324300Y46500D01*
Y49500D02*Y45500D01*
X325500Y49500D02*X327500D01*
X326500D02*Y45500D01*
X328700Y47500D02*X330200D01*
X328700Y45500D02*X330700D01*
X328700Y49500D02*Y45500D01*
Y49500D02*X330700D01*
X331900D02*Y45500D01*
Y49500D02*Y49000D01*
X334400Y46500D01*
Y49500D02*Y45500D01*
X335600Y49500D02*Y45500D01*
Y49500D02*Y49000D01*
X338100Y46500D01*
Y49500D02*Y45500D01*
X339300Y49000D02*Y45500D01*
Y49000D02*X339800Y49500D01*
X341300D01*
X341800Y49000D01*
Y45500D01*
X339300Y47500D02*X341800D01*
X379500Y77500D02*Y76500D01*
Y77000D02*X383500D01*
Y77500D02*Y76500D01*
X382000Y78700D02*X383000D01*
X382000D02*X381500Y79200D01*
Y80200D02*Y79200D01*
Y80200D02*X382000Y80700D01*
X383000D01*
X383500Y80200D02*X383000Y80700D01*
X383500Y80200D02*Y79200D01*
X383000Y78700D02*X383500Y79200D01*
X381500Y81900D02*X383000D01*
X383500Y82400D01*
Y82900D02*Y82400D01*
Y82900D02*X383000Y83400D01*
X381500D02*X383000D01*
X383500Y83900D01*
Y84400D02*Y83900D01*
Y84400D02*X383000Y84900D01*
X381500D02*X383000D01*
X381500Y87600D02*X382000Y88100D01*
X381500Y87600D02*Y86600D01*
X382000Y86100D02*X381500Y86600D01*
X382000Y86100D02*X383000D01*
X383500Y86600D01*
X381500Y88100D02*X383000D01*
X383500Y88600D01*
Y87600D02*Y86600D01*
Y87600D02*X383000Y88100D01*
X379500Y93600D02*X380000Y94100D01*
X379500Y93600D02*Y92100D01*
X380000Y91600D02*X379500Y92100D01*
X380000Y91600D02*X381000D01*
X381500Y92100D01*
Y93600D02*Y92100D01*
Y93600D02*X382000Y94100D01*
X383000D01*
X383500Y93600D02*X383000Y94100D01*
X383500Y93600D02*Y92100D01*
X383000Y91600D02*X383500Y92100D01*
X381500Y97300D02*Y95800D01*
X382000Y95300D02*X381500Y95800D01*
X382000Y95300D02*X383000D01*
X383500Y95800D01*
Y97300D02*Y95800D01*
X381500Y100000D02*X382000Y100500D01*
X381500Y100000D02*Y99000D01*
X382000Y98500D02*X381500Y99000D01*
X382000Y98500D02*X383000D01*
X383500Y99000D01*
X381500Y100500D02*X383000D01*
X383500Y101000D01*
Y100000D02*Y99000D01*
Y100000D02*X383000Y100500D01*
X379500Y102200D02*X383000D01*
X383500Y102700D01*
Y105700D02*Y104200D01*
X383000Y103700D02*X383500Y104200D01*
X382000Y103700D02*X383000D01*
X382000D02*X381500Y104200D01*
Y105200D02*Y104200D01*
Y105200D02*X382000Y105700D01*
X382500D02*Y103700D01*
X382000Y105700D02*X382500D01*
X379500Y108900D02*X383500D01*
Y108400D02*X383000Y108900D01*
X383500Y108400D02*Y107400D01*
X383000Y106900D02*X383500Y107400D01*
X382000Y106900D02*X383000D01*
X382000D02*X381500Y107400D01*
Y108400D02*Y107400D01*
Y108400D02*X382000Y108900D01*
X381500Y113400D02*Y111900D01*
X383500Y113900D02*Y111900D01*
X379500D02*X383500D01*
X379500Y113900D02*Y111900D01*
X382000Y115600D02*X383500D01*
X382000D02*X381500Y116100D01*
Y116600D02*Y116100D01*
Y116600D02*X382000Y117100D01*
X383500D01*
X381500Y115100D02*X382000Y115600D01*
X381500Y119800D02*X382000Y120300D01*
X381500Y119800D02*Y118800D01*
X382000Y118300D02*X381500Y118800D01*
X382000Y118300D02*X383000D01*
X383500Y118800D01*
Y119800D02*Y118800D01*
Y119800D02*X383000Y120300D01*
X384500Y118300D02*X385000Y118800D01*
Y119800D02*Y118800D01*
Y119800D02*X384500Y120300D01*
X381500D02*X384500D01*
X380500Y121500D02*X381000D01*
X382000D02*X383500D01*
X382000Y123000D02*X383500D01*
X382000D02*X381500Y123500D01*
Y124000D02*Y123500D01*
Y124000D02*X382000Y124500D01*
X383500D01*
X381500Y122500D02*X382000Y123000D01*
X383500Y127700D02*Y126200D01*
X383000Y125700D02*X383500Y126200D01*
X382000Y125700D02*X383000D01*
X382000D02*X381500Y126200D01*
Y127200D02*Y126200D01*
Y127200D02*X382000Y127700D01*
X382500D02*Y125700D01*
X382000Y127700D02*X382500D01*
X383500Y130900D02*Y129400D01*
X383000Y128900D02*X383500Y129400D01*
X382000Y128900D02*X383000D01*
X382000D02*X381500Y129400D01*
Y130400D02*Y129400D01*
Y130400D02*X382000Y130900D01*
X382500D02*Y128900D01*
X382000Y130900D02*X382500D01*
X382000Y132600D02*X383500D01*
X382000D02*X381500Y133100D01*
Y134100D02*Y133100D01*
Y132100D02*X382000Y132600D01*
X380500Y135300D02*X381000D01*
X382000D02*X383500D01*
X382000Y136800D02*X383500D01*
X382000D02*X381500Y137300D01*
Y137800D02*Y137300D01*
Y137800D02*X382000Y138300D01*
X383500D01*
X381500Y136300D02*X382000Y136800D01*
X381500Y141000D02*X382000Y141500D01*
X381500Y141000D02*Y140000D01*
X382000Y139500D02*X381500Y140000D01*
X382000Y139500D02*X383000D01*
X383500Y140000D01*
Y141000D02*Y140000D01*
Y141000D02*X383000Y141500D01*
X384500Y139500D02*X385000Y140000D01*
Y141000D02*Y140000D01*
Y141000D02*X384500Y141500D01*
X381500D02*X384500D01*
X382500Y163000D02*Y161500D01*
X384500Y163500D02*Y161500D01*
X380500D02*X384500D01*
X380500Y163500D02*Y161500D01*
Y166700D02*X381000Y167200D01*
X380500Y166700D02*Y165200D01*
X381000Y164700D02*X380500Y165200D01*
X381000Y164700D02*X382000D01*
X382500Y165200D01*
Y166700D02*Y165200D01*
Y166700D02*X383000Y167200D01*
X384000D01*
X384500Y166700D02*X384000Y167200D01*
X384500Y166700D02*Y165200D01*
X384000Y164700D02*X384500Y165200D01*
X380500Y168900D02*X384500D01*
X380500Y170400D02*Y168400D01*
Y170400D02*X381000Y170900D01*
X382000D01*
X382500Y170400D02*X382000Y170900D01*
X382500Y170400D02*Y168900D01*
Y174100D02*Y172100D01*
X380500Y177300D02*X381000Y177800D01*
X380500Y177300D02*Y175800D01*
X381000Y175300D02*X380500Y175800D01*
X381000Y175300D02*X382000D01*
X382500Y175800D01*
Y177300D02*Y175800D01*
Y177300D02*X383000Y177800D01*
X384000D01*
X384500Y177300D02*X384000Y177800D01*
X384500Y177300D02*Y175800D01*
X384000Y175300D02*X384500Y175800D01*
X382500Y180500D02*Y179000D01*
X384500Y181000D02*Y179000D01*
X380500D02*X384500D01*
X380500Y181000D02*Y179000D01*
X381000Y182200D02*X384500D01*
X381000D02*X380500Y182700D01*
Y184200D02*Y182700D01*
Y184200D02*X381000Y184700D01*
X384500D01*
X382500D02*Y182200D01*
X380500Y187900D02*Y185900D01*
Y187900D02*X381000Y188400D01*
X382000D01*
X382500Y187900D02*X382000Y188400D01*
X382500Y187900D02*Y186400D01*
X380500D02*X384500D01*
X382500D02*X384500Y188400D01*
Y191600D02*Y190100D01*
X384000Y189600D02*X384500Y190100D01*
X381000Y189600D02*X384000D01*
X381000D02*X380500Y190100D01*
Y191600D02*Y190100D01*
Y192800D02*X384500D01*
X380500Y195300D02*X384500D01*
X382500D02*Y192800D01*
X380500Y196500D02*X384500D01*
Y198500D02*Y196500D01*
X380500Y200700D02*Y199700D01*
Y200200D02*X384500D01*
Y200700D02*Y199700D01*
X380500Y203900D02*X381000Y204400D01*
X380500Y203900D02*Y202400D01*
X381000Y201900D02*X380500Y202400D01*
X381000Y201900D02*X384000D01*
X384500Y202400D01*
Y203900D02*Y202400D01*
Y203900D02*X384000Y204400D01*
X383000D02*X384000D01*
X382500Y203900D02*X383000Y204400D01*
X382500Y203900D02*Y202900D01*
X380500Y205600D02*X384500D01*
X380500Y208100D02*X384500D01*
X382500D02*Y205600D01*
X380500Y211300D02*Y209300D01*
Y210300D02*X384500D01*
X382500Y214300D02*X383500D01*
X384500Y215300D01*
X383500Y216300D01*
X382500D02*X383500D01*
X384500Y219000D02*Y218000D01*
X380500Y218500D02*X384500D01*
X381500Y217500D02*X380500Y218500D01*
X384500Y220700D02*Y220200D01*
X384000Y221900D02*X384500Y222400D01*
X381000Y221900D02*X384000D01*
X381000D02*X380500Y222400D01*
Y223400D02*Y222400D01*
Y223400D02*X381000Y223900D01*
X384000D01*
X384500Y223400D02*X384000Y223900D01*
X384500Y223400D02*Y222400D01*
X383500Y221900D02*X381500Y223900D01*
X387500Y77000D02*X391500D01*
X390000D02*X389500Y77500D01*
Y78500D02*Y77500D01*
Y78500D02*X390000Y79000D01*
X391500D01*
X387500Y80700D02*X391000D01*
X391500Y81200D01*
X389000D02*Y80200D01*
X387500Y82700D02*X391000D01*
X391500Y83200D01*
X389000D02*Y82200D01*
X390000Y84700D02*X393000D01*
X389500Y84200D02*X390000Y84700D01*
X389500Y85200D01*
Y86200D02*Y85200D01*
Y86200D02*X390000Y86700D01*
X391000D01*
X391500Y86200D02*X391000Y86700D01*
X391500Y86200D02*Y85200D01*
X391000Y84700D02*X391500Y85200D01*
Y89900D02*Y88400D01*
Y89900D02*X391000Y90400D01*
X390500Y89900D02*X391000Y90400D01*
X390500Y89900D02*Y88400D01*
X390000Y87900D02*X390500Y88400D01*
X390000Y87900D02*X389500Y88400D01*
Y89900D02*Y88400D01*
Y89900D02*X390000Y90400D01*
X391000Y87900D02*X391500Y88400D01*
X389000Y92100D02*Y91600D01*
X390000Y92100D02*Y91600D01*
X391000Y93300D02*X388000Y96300D01*
X391000Y97500D02*X388000Y100500D01*
X389500Y101700D02*X391000D01*
X391500Y102200D01*
Y102700D02*Y102200D01*
Y102700D02*X391000Y103200D01*
X389500D02*X391000D01*
X391500Y103700D01*
Y104200D02*Y103700D01*
Y104200D02*X391000Y104700D01*
X389500D02*X391000D01*
X389500Y105900D02*X391000D01*
X391500Y106400D01*
Y106900D02*Y106400D01*
Y106900D02*X391000Y107400D01*
X389500D02*X391000D01*
X391500Y107900D01*
Y108400D02*Y107900D01*
Y108400D02*X391000Y108900D01*
X389500D02*X391000D01*
X389500Y110100D02*X391000D01*
X391500Y110600D01*
Y111100D02*Y110600D01*
Y111100D02*X391000Y111600D01*
X389500D02*X391000D01*
X391500Y112100D01*
Y112600D02*Y112100D01*
Y112600D02*X391000Y113100D01*
X389500D02*X391000D01*
X391500Y114800D02*Y114300D01*
X388500Y116000D02*X389000D01*
X390000D02*X391500D01*
X389500Y118500D02*X390000Y119000D01*
X389500Y118500D02*Y117500D01*
X390000Y117000D02*X389500Y117500D01*
X390000Y117000D02*X391000D01*
X391500Y117500D01*
X389500Y119000D02*X391000D01*
X391500Y119500D01*
Y118500D02*Y117500D01*
Y118500D02*X391000Y119000D01*
X391500Y122700D02*Y121200D01*
Y122700D02*X391000Y123200D01*
X390500Y122700D02*X391000Y123200D01*
X390500Y122700D02*Y121200D01*
X390000Y120700D02*X390500Y121200D01*
X390000Y120700D02*X389500Y121200D01*
Y122700D02*Y121200D01*
Y122700D02*X390000Y123200D01*
X391000Y120700D02*X391500Y121200D01*
X389500Y126400D02*Y124900D01*
X390000Y124400D02*X389500Y124900D01*
X390000Y124400D02*X391000D01*
X391500Y124900D01*
Y126400D02*Y124900D01*
X389500Y129100D02*X390000Y129600D01*
X389500Y129100D02*Y128100D01*
X390000Y127600D02*X389500Y128100D01*
X390000Y127600D02*X391000D01*
X391500Y128100D01*
X389500Y129600D02*X391000D01*
X391500Y130100D01*
Y129100D02*Y128100D01*
Y129100D02*X391000Y129600D01*
X387500Y131300D02*X391000D01*
X391500Y131800D01*
Y134800D02*Y133300D01*
X391000Y132800D02*X391500Y133300D01*
X390000Y132800D02*X391000D01*
X390000D02*X389500Y133300D01*
Y134300D02*Y133300D01*
Y134300D02*X390000Y134800D01*
X390500D02*Y132800D01*
X390000Y134800D02*X390500D01*
X387500Y138000D02*X391500D01*
Y137500D02*X391000Y138000D01*
X391500Y137500D02*Y136500D01*
X391000Y136000D02*X391500Y136500D01*
X390000Y136000D02*X391000D01*
X390000D02*X389500Y136500D01*
Y137500D02*Y136500D01*
Y137500D02*X390000Y138000D01*
X391500Y139700D02*Y139200D01*
X389500Y142900D02*Y141400D01*
X390000Y140900D02*X389500Y141400D01*
X390000Y140900D02*X391000D01*
X391500Y141400D01*
Y142900D02*Y141400D01*
X390000Y144100D02*X391000D01*
X390000D02*X389500Y144600D01*
Y145600D02*Y144600D01*
Y145600D02*X390000Y146100D01*
X391000D01*
X391500Y145600D02*X391000Y146100D01*
X391500Y145600D02*Y144600D01*
X391000Y144100D02*X391500Y144600D01*
X390000Y147800D02*X391500D01*
X390000D02*X389500Y148300D01*
Y148800D02*Y148300D01*
Y148800D02*X390000Y149300D01*
X391500D01*
X390000D02*X389500Y149800D01*
Y150300D02*Y149800D01*
Y150300D02*X390000Y150800D01*
X391500D01*
X389500Y147300D02*X390000Y147800D01*
X392500Y163500D02*Y162000D01*
X392000Y161500D02*X392500Y162000D01*
X389000Y161500D02*X392000D01*
X389000D02*X388500Y162000D01*
Y163500D02*Y162000D01*
X392500Y166700D02*Y165200D01*
X392000Y164700D02*X392500Y165200D01*
X389000Y164700D02*X392000D01*
X389000D02*X388500Y165200D01*
Y166700D02*Y165200D01*
X392500Y171700D02*Y169700D01*
Y171700D02*X392000Y172200D01*
X391000D02*X392000D01*
X390500Y171700D02*X391000Y172200D01*
X390500Y171700D02*Y170200D01*
X388500D02*X392500D01*
X388500Y171700D02*Y169700D01*
Y171700D02*X389000Y172200D01*
X390000D01*
X390500Y171700D02*X390000Y172200D01*
X388500Y173400D02*X389000D01*
X390000Y174400D01*
X389000Y175400D01*
X388500D02*X389000D01*
X390000Y174400D02*X392500D01*
X390500Y178600D02*Y176600D01*
X388500Y181800D02*X389000Y182300D01*
X388500Y181800D02*Y180300D01*
X389000Y179800D02*X388500Y180300D01*
X389000Y179800D02*X390000D01*
X390500Y180300D01*
Y181800D02*Y180300D01*
Y181800D02*X391000Y182300D01*
X392000D01*
X392500Y181800D02*X392000Y182300D01*
X392500Y181800D02*Y180300D01*
X392000Y179800D02*X392500Y180300D01*
X389000Y183500D02*X392500D01*
X389000D02*X388500Y184000D01*
Y185500D02*Y184000D01*
Y185500D02*X389000Y186000D01*
X392500D01*
X390500D02*Y183500D01*
X392000Y189000D02*X392500Y189500D01*
X389000Y189000D02*X388500Y189500D01*
X389000Y189000D02*X392000D01*
X392500Y192700D02*Y191200D01*
X392000Y190700D02*X392500Y191200D01*
X389000Y190700D02*X392000D01*
X389000D02*X388500Y191200D01*
Y192700D02*Y191200D01*
Y193900D02*X389000Y194400D01*
X392000D01*
X392500Y193900D02*X392000Y194400D01*
X389000Y197400D02*X388500Y197900D01*
Y199400D02*Y197900D01*
Y199400D02*X389000Y199900D01*
X390000D01*
X392500Y197400D02*X390000Y199900D01*
X392500D02*Y197400D01*
X392000Y201100D02*X392500Y201600D01*
X389000Y201100D02*X392000D01*
X389000D02*X388500Y201600D01*
Y202600D02*Y201600D01*
Y202600D02*X389000Y203100D01*
X392000D01*
X392500Y202600D02*X392000Y203100D01*
X392500Y202600D02*Y201600D01*
X391500Y201100D02*X389500Y203100D01*
X389000Y204300D02*X388500Y204800D01*
Y206300D02*Y204800D01*
Y206300D02*X389000Y206800D01*
X390000D01*
X392500Y204300D02*X390000Y206800D01*
X392500D02*Y204300D01*
X392000Y208000D02*X392500Y208500D01*
X389000Y208000D02*X392000D01*
X389000D02*X388500Y208500D01*
Y209500D02*Y208500D01*
Y209500D02*X389000Y210000D01*
X392000D01*
X392500Y209500D02*X392000Y210000D01*
X392500Y209500D02*Y208500D01*
X391500Y208000D02*X389500Y210000D01*
G54D74*X271500Y239000D02*Y39000D01*
Y239000D02*X371500D01*
Y39000D01*
X271500D02*X371500D01*
X281500Y214000D02*X271500D01*
Y204000D02*X281500D01*
Y214000D01*
X300701Y253259D02*X313299D01*
X300701Y260741D02*Y253259D01*
Y260741D02*X313299D01*
Y253259D01*
X81500Y72000D02*Y46000D01*
X45500Y72000D02*Y46000D01*
X80500D02*X81500D01*
X45500D02*X46500D01*
X45500Y72000D02*X46500D01*
X80500D02*X81500D01*
X9700Y79000D02*Y39000D01*
X39700Y79000D02*Y39000D01*
X35300Y79000D02*Y39000D01*
X9700Y79000D02*X39700D01*
X9700Y39000D02*X39700D01*
X145245Y116850D02*Y116064D01*
X150755Y116850D02*Y116064D01*
X137564Y105755D02*X138350D01*
X137564Y100245D02*X138350D01*
X116803Y77685D02*Y38315D01*
X92197D02*X116803D01*
X92197Y77685D02*Y38315D01*
Y77685D02*X116803D01*
X92197Y50500D02*X116803D01*
X192600Y122000D02*X206500D01*
X192600D02*Y110200D01*
X206500D01*
Y122000D02*Y110200D01*
X151500Y104000D02*Y24000D01*
X191500D01*
Y104000D01*
X151500D02*X166500D01*
X176500D02*X191500D01*
X166500D02*G75*G03X176500Y104000I5000J0D01*G01*
X207500D02*Y24000D01*
X247500D01*
Y104000D01*
X207500D02*X222500D01*
X232500D02*X247500D01*
X222500D02*G75*G03X232500Y104000I5000J0D01*G01*
G54D75*X45819Y241996D02*X148181D01*
X45819D02*Y279004D01*
X148181Y241996D02*Y279004D01*
X45819D02*X148181D01*
G54D74*X137755Y116893D02*Y116107D01*
X132245Y116893D02*Y116107D01*
X38500Y117500D02*G75*G03X38500Y117500I10000J0D01*G01*
X120933Y147874D02*X150067D01*
Y132126D01*
X120933D02*X150067D01*
X120933Y147874D02*Y132126D01*
X137900Y147874D02*Y132126D01*
X124000Y127400D02*Y86000D01*
X95500Y127400D02*X124000D01*
X95500D02*Y86000D01*
X124000D01*
X196107Y152245D02*X196893D01*
X196107Y157755D02*X196893D01*
X128100Y159300D02*X169500D01*
Y187800D02*Y159300D01*
X128100Y187800D02*X169500D01*
X128100D02*Y159300D01*
X45500Y187500D02*Y161500D01*
X81500Y187500D02*Y161500D01*
X45500Y187500D02*X46500D01*
X80500D02*X81500D01*
X80500Y161500D02*X81500D01*
X45500D02*X46500D01*
X116803Y194185D02*Y154815D01*
X92197D02*X116803D01*
X92197Y194185D02*Y154815D01*
Y194185D02*X116803D01*
X92197Y167000D02*X116803D01*
X9700Y194500D02*Y154500D01*
X39700Y194500D02*Y154500D01*
X35300Y194500D02*Y154500D01*
X9700Y194500D02*X39700D01*
X9700Y154500D02*X39700D01*
X9700Y240500D02*Y200500D01*
X39700Y240500D02*Y200500D01*
X35300Y240500D02*Y200500D01*
X9700Y240500D02*X39700D01*
X9700Y200500D02*X39700D01*
X189508Y220508D02*X196004D01*
X208996D02*X215492D01*
Y239996D02*Y220508D01*
X189508Y239996D02*Y220508D01*
X215492Y239996D02*X208996Y246492D01*
X189508Y239996D02*X196004Y246492D01*
X192500Y239500D02*X196500D01*
X194500Y241500D02*Y237500D01*
X156197Y254185D02*Y214815D01*
Y254185D02*X180803D01*
Y214815D01*
X156197D02*X180803D01*
X156197Y242000D02*X180803D01*
X192626Y210335D02*Y164665D01*
X226090Y210335D02*Y164665D01*
X192626Y210335D02*X226090D01*
X192626Y164665D02*X226090D01*
G54D75*X45819Y201996D02*X148181D01*
X45819D02*Y239004D01*
X148181Y201996D02*Y239004D01*
X45819D02*X148181D01*
X43000Y195500D02*X44500D01*
Y192000D01*
X44000Y191500D02*X44500Y192000D01*
X43500Y191500D02*X44000D01*
X43000Y192000D02*X43500Y191500D01*
X45700Y195000D02*X46200Y195500D01*
X47700D01*
X48200Y195000D01*
Y194000D01*
X45700Y191500D02*X48200Y194000D01*
X45700Y191500D02*X48200D01*
X35000Y248000D02*X36500D01*
Y244500D01*
X36000Y244000D02*X36500Y244500D01*
X35500Y244000D02*X36000D01*
X35000Y244500D02*X35500Y244000D01*
X38200D02*X39200D01*
X38700Y248000D02*Y244000D01*
X37700Y247000D02*X38700Y248000D01*
X132198Y129075D02*X134198D01*
X134698Y128575D01*
Y127575D01*
X134198Y127075D02*X134698Y127575D01*
X132698Y127075D02*X134198D01*
X132698Y129075D02*Y125075D01*
Y127075D02*X134698Y125075D01*
X136398D02*X137398D01*
X136898Y129075D02*Y125075D01*
X135898Y128075D02*X136898Y129075D01*
X197500Y129500D02*Y126000D01*
X198000Y125500D01*
X199000D01*
X199500Y126000D01*
Y129500D02*Y126000D01*
X200700Y127500D02*X202700Y129500D01*
X200700Y127500D02*X203200D01*
X202700Y129500D02*Y125500D01*
X77500Y148500D02*X79000D01*
Y145000D01*
X78500Y144500D02*X79000Y145000D01*
X78000Y144500D02*X78500D01*
X77500Y145000D02*X78000Y144500D01*
X80200Y146500D02*X82200Y148500D01*
X80200Y146500D02*X82700D01*
X82200Y148500D02*Y144500D01*
X94000Y152000D02*Y148000D01*
X95500Y152000D02*X96000Y151500D01*
Y148500D01*
X95500Y148000D02*X96000Y148500D01*
X93500Y148000D02*X95500D01*
X93500Y152000D02*X95500D01*
X97700Y148000D02*X98700D01*
X98200Y152000D02*Y148000D01*
X97200Y151000D02*X98200Y152000D01*
X112000Y143500D02*Y139500D01*
X113500Y143500D02*X114000Y143000D01*
Y140000D01*
X113500Y139500D02*X114000Y140000D01*
X111500Y139500D02*X113500D01*
X111500Y143500D02*X113500D01*
X115200Y141500D02*X117200Y143500D01*
X115200Y141500D02*X117700D01*
X117200Y143500D02*Y139500D01*
X96000Y134000D02*Y130500D01*
X96500Y130000D01*
X97500D01*
X98000Y130500D01*
Y134000D02*Y130500D01*
X99200Y133500D02*X99700Y134000D01*
X100700D01*
X101200Y133500D01*
Y130500D01*
X100700Y130000D02*X101200Y130500D01*
X99700Y130000D02*X100700D01*
X99200Y130500D02*X99700Y130000D01*
Y132000D02*X101200D01*
X182502Y153075D02*X184002D01*
X182002Y153575D02*X182502Y153075D01*
X182002Y156575D02*Y153575D01*
Y156575D02*X182502Y157075D01*
X184002D01*
X185202Y156575D02*X185702Y157075D01*
X187202D01*
X187702Y156575D01*
Y155575D01*
X185202Y153075D02*X187702Y155575D01*
X185202Y153075D02*X187702D01*
X220500Y217000D02*X222000D01*
X220000Y217500D02*X220500Y217000D01*
X220000Y220500D02*Y217500D01*
Y220500D02*X220500Y221000D01*
X222000D01*
X223700Y217000D02*X224700D01*
X224200Y221000D02*Y217000D01*
X223200Y220000D02*X224200Y221000D01*
X273000Y245500D02*Y245000D01*
X275500Y242500D01*
Y241500D01*
X273000Y242500D02*Y241500D01*
Y242500D02*X275500Y245000D01*
Y245500D02*Y245000D01*
X276700Y245500D02*Y242000D01*
X277200Y241500D01*
X278200D01*
X278700Y242000D01*
Y245500D02*Y242000D01*
X279900Y245000D02*X280400Y245500D01*
X281900D01*
X282400Y245000D01*
Y244000D01*
X279900Y241500D02*X282400Y244000D01*
X279900Y241500D02*X282400D01*
X184500Y209000D02*Y205500D01*
X185000Y205000D01*
X186000D01*
X186500Y205500D01*
Y209000D02*Y205500D01*
X188200Y205000D02*X189200D01*
X188700Y209000D02*Y205000D01*
X187700Y208000D02*X188700Y209000D01*
X87157Y269000D02*Y265000D01*
Y269000D02*X89157D01*
X87157Y267000D02*X88657D01*
X90857Y265000D02*X91857D01*
X91357Y269000D02*Y265000D01*
X90357Y268000D02*X91357Y269000D01*
X129000Y194000D02*Y191000D01*
Y194000D02*X129500Y194500D01*
X130500D01*
X131000Y194000D01*
Y191000D01*
X130500Y190500D02*X131000Y191000D01*
X129500Y190500D02*X130500D01*
X129000Y191000D02*X129500Y190500D01*
X130000Y191500D02*X131000Y190500D01*
X132700D02*X133700D01*
X133200Y194500D02*Y190500D01*
X132200Y193500D02*X133200Y194500D01*
X71000D02*X71500Y194000D01*
X69500Y194500D02*X71000D01*
X69000Y194000D02*X69500Y194500D01*
X69000Y194000D02*Y191000D01*
X69500Y190500D01*
X71000D01*
X71500Y191000D01*
Y192000D02*Y191000D01*
X71000Y192500D02*X71500Y192000D01*
X70000Y192500D02*X71000D01*
X73200Y194500D02*Y190500D01*
X74700Y194500D02*X75200Y194000D01*
Y191000D01*
X74700Y190500D02*X75200Y191000D01*
X72700Y190500D02*X74700D01*
X72700Y194500D02*X74700D01*
X76400D02*X78400D01*
X77400D02*Y190500D01*
X80100D02*X81100D01*
X80600Y194500D02*Y190500D01*
X79600Y193500D02*X80600Y194500D01*
X87157Y229000D02*Y225000D01*
Y229000D02*X89157D01*
X87157Y227000D02*X88657D01*
X90357Y228500D02*X90857Y229000D01*
X92357D01*
X92857Y228500D01*
Y227500D01*
X90357Y225000D02*X92857Y227500D01*
X90357Y225000D02*X92857D01*
X165000Y261000D02*Y257000D01*
X166500Y261000D02*X167000Y260500D01*
Y257500D01*
X166500Y257000D02*X167000Y257500D01*
X164500Y257000D02*X166500D01*
X164500Y261000D02*X166500D01*
X168200Y260500D02*X168700Y261000D01*
X169700D01*
X170200Y260500D01*
Y257500D01*
X169700Y257000D02*X170200Y257500D01*
X168700Y257000D02*X169700D01*
X168200Y257500D02*X168700Y257000D01*
Y259000D02*X170200D01*
X284500D02*X286000D01*
Y255500D01*
X285500Y255000D02*X286000Y255500D01*
X285000Y255000D02*X285500D01*
X284500Y255500D02*X285000Y255000D01*
X287200Y259000D02*X289200D01*
X287200D02*Y257000D01*
X287700Y257500D01*
X288700D01*
X289200Y257000D01*
Y255500D01*
X288700Y255000D02*X289200Y255500D01*
X287700Y255000D02*X288700D01*
X287200Y255500D02*X287700Y255000D01*
X319457Y258500D02*X321457D01*
X321957Y258000D01*
Y257000D01*
X321457Y256500D02*X321957Y257000D01*
X319957Y256500D02*X321457D01*
X319957Y258500D02*Y254500D01*
Y256500D02*X321957Y254500D01*
X323157Y258000D02*X323657Y258500D01*
X324657D01*
X325157Y258000D01*
Y255000D01*
X324657Y254500D02*X325157Y255000D01*
X323657Y254500D02*X324657D01*
X323157Y255000D02*X323657Y254500D01*
Y256500D02*X325157D01*
X70500Y42500D02*X71000Y42000D01*
X69000Y42500D02*X70500D01*
X68500Y42000D02*X69000Y42500D01*
X68500Y42000D02*Y39000D01*
X69000Y38500D01*
X70500D01*
X71000Y39000D01*
Y40000D02*Y39000D01*
X70500Y40500D02*X71000Y40000D01*
X69500Y40500D02*X70500D01*
X72700Y42500D02*Y38500D01*
X74200Y42500D02*X74700Y42000D01*
Y39000D01*
X74200Y38500D02*X74700Y39000D01*
X72200Y38500D02*X74200D01*
X72200Y42500D02*X74200D01*
X75900D02*X77900D01*
X76900D02*Y38500D01*
X79100Y42000D02*X79600Y42500D01*
X81100D01*
X81600Y42000D01*
Y41000D01*
X79100Y38500D02*X81600Y41000D01*
X79100Y38500D02*X81600D01*
X108500Y35000D02*Y31000D01*
X110000Y35000D02*X110500Y34500D01*
Y31500D01*
X110000Y31000D02*X110500Y31500D01*
X108000Y31000D02*X110000D01*
X108000Y35000D02*X110000D01*
X111700Y34500D02*X112200Y35000D01*
X113700D01*
X114200Y34500D01*
Y33500D01*
X111700Y31000D02*X114200Y33500D01*
X111700Y31000D02*X114200D01*
X34500Y35500D02*X36000D01*
Y32000D01*
X35500Y31500D02*X36000Y32000D01*
X35000Y31500D02*X35500D01*
X34500Y32000D02*X35000Y31500D01*
X37200Y35000D02*X37700Y35500D01*
X38700D01*
X39200Y35000D01*
Y32000D01*
X38700Y31500D02*X39200Y32000D01*
X37700Y31500D02*X38700D01*
X37200Y32000D02*X37700Y31500D01*
Y33500D02*X39200D01*
X144457Y129000D02*X146457D01*
X146957Y128500D01*
Y127500D01*
X146457Y127000D02*X146957Y127500D01*
X144957Y127000D02*X146457D01*
X144957Y129000D02*Y125000D01*
Y127000D02*X146957Y125000D01*
X148157Y128500D02*X148657Y129000D01*
X150157D01*
X150657Y128500D01*
Y127500D01*
X148157Y125000D02*X150657Y127500D01*
X148157Y125000D02*X150657D01*
X136000Y91500D02*X137500D01*
X135500Y92000D02*X136000Y91500D01*
X135500Y95000D02*Y92000D01*
Y95000D02*X136000Y95500D01*
X137500D01*
X138700Y95000D02*X139200Y95500D01*
X140200D01*
X140700Y95000D01*
Y92000D01*
X140200Y91500D02*X140700Y92000D01*
X139200Y91500D02*X140200D01*
X138700Y92000D02*X139200Y91500D01*
Y93500D02*X140700D01*
X194500Y98000D02*Y94000D01*
Y96000D02*X196500Y98000D01*
X194500Y96000D02*X196500Y94000D01*
X198200D02*X199200D01*
X198700Y98000D02*Y94000D01*
X197700Y97000D02*X198700Y98000D01*
X251000D02*Y94000D01*
Y96000D02*X253000Y98000D01*
X251000Y96000D02*X253000Y94000D01*
X254200Y97500D02*X254700Y98000D01*
X256200D01*
X256700Y97500D01*
Y96500D01*
X254200Y94000D02*X256700Y96500D01*
X254200Y94000D02*X256700D01*
M02*
