M48
INCH
T56C0.012
T55C0.101
T54C0.048
T53C0.045
T52C0.038
T51C0.059
T50C0.129
%
T56
X003100Y005150
X003100Y004750
X003100Y004350
X003100Y003950
X003250Y017000
X003250Y016600
X003250Y016200
X003250Y015800
X003250Y007650
X003250Y007250
X003250Y006850
X003250Y006450
X003550Y005150
X003550Y004750
X003550Y004350
X003550Y003950
X003700Y017000
X003700Y016600
X003700Y016200
X003700Y015800
X003700Y007650
X003700Y007250
X003700Y006850
X003700Y006450
X004000Y005150
X004000Y004750
X004000Y004350
X004000Y003950
X004150Y017000
X004150Y016600
X004150Y016200
X004150Y015800
X004150Y007650
X004150Y007250
X004150Y006850
X004150Y006450
X004600Y015800
X004600Y007650
X005050Y015800
X005050Y007650
X008450Y019250
X008450Y018850
X008450Y018450
X008450Y018050
X008950Y019250
X008950Y018850
X008950Y018450
X008950Y018050
X009000Y016900
X009000Y016500
X009000Y016100
X009000Y015700
X009000Y007550
X009000Y007150
X009000Y006750
X009000Y006350
X009000Y005050
X009000Y004650
X009000Y004250
X009000Y003850
X009500Y016900
X009500Y016500
X009500Y016100
X009500Y015700
X009500Y007550
X009500Y007150
X009500Y006750
X009500Y006350
X009500Y005050
X009500Y004650
X009500Y004250
X009500Y003850
X009950Y016900
X009950Y005350
X010000Y006350
X010400Y016900
X010400Y005350
X010450Y006350
X010900Y016900
X010900Y005350
X010950Y006350
X011400Y016900
X011400Y016500
X011400Y016100
X011400Y015700
X011400Y007550
X011400Y007150
X011400Y006750
X011400Y006350
X011400Y005050
X011400Y004650
X011400Y004250
X011400Y003850
X012200Y014950
X012650Y014950
X013100Y014950
X013400Y024900
X013400Y024450
X013850Y024900
X013850Y024450
X014250Y024900
X014250Y024450
X014650Y024900
X014650Y024450
X014750Y010600
X014750Y010200
X014750Y009800
X015300Y022850
X015300Y022450
X015300Y022050
X015300Y021650
X016000Y021150
X016300Y015750
X016450Y021150
X016650Y015750
X016850Y021150
X017250Y021150
X018700Y012000
X019050Y012000
X019650Y023100
X019650Y022750
X019650Y022350
X019650Y022000
X019650Y021600
X020550Y014800
X020900Y011220
X021100Y014800
X021230Y011220
X027050Y025200
X027050Y024850
X027950Y025950
X027950Y025550
T52
X015650Y009900
X015650Y006900
X015650Y004900
X015650Y002900
X018650Y009900
X018650Y006900
X018650Y004900
X018650Y002900
X021250Y009900
X021250Y006900
X021250Y004900
X021250Y002900
X024250Y009900
X024250Y006900
X024250Y004900
X024250Y002900
X027650Y020900
X027650Y019900
X027650Y018900
X027650Y017900
X027650Y016900
X027650Y015900
X027650Y014900
X027650Y013900
X027650Y012900
X027650Y011900
X027650Y010900
X027650Y009900
X027650Y008900
X027650Y007900
X027650Y006900
X036650Y020900
X036650Y019900
X036650Y018900
X036650Y017900
X036650Y016900
X036650Y015900
X036650Y014900
X036650Y013900
X036650Y012900
X036650Y011900
X036650Y010900
X036650Y009900
X036650Y008900
X036650Y007900
X036650Y006900
T53
X020050Y019750
X020050Y018750
X020050Y017750
T54
X002250Y023050
X002250Y021050
X002250Y018450
X002250Y016450
X002250Y006900
X002250Y004900
T51
X005251Y026050
X005251Y022050
X014149Y026050
X014149Y022050
T55
X002800Y013875
X002800Y009625
X004850Y013875
X004850Y009625
X006900Y013875
X006900Y009625
T50
X001700Y026300
X001700Y001700
X038300Y026300
X038300Y001700
M30
