G04 start of page 10 for group -4015 idx -4015 *
G04 Title: (unknown), toppaste *
G04 Creator: pcb 4.0.2 *
G04 CreationDate: Wed Jul  1 19:45:12 2020 UTC *
G04 For: ndholmes *
G04 Format: Gerber/RS-274X *
G04 PCB-Dimensions (mil): 4000.00 2800.00 *
G04 PCB-Coordinate-Origin: lower left *
%MOIN*%
%FSLAX25Y25*%
%LNTOPPASTE*%
%ADD77C,0.0001*%
G54D77*G36*
X202602Y157952D02*X197484D01*
Y152048D01*
X202602D01*
Y157952D01*
G37*
G36*
X195516D02*X190398D01*
Y152048D01*
X195516D01*
Y157952D01*
G37*
G36*
X79650Y70150D02*X73350D01*
Y47850D01*
X79650D01*
Y70150D01*
G37*
G36*
X66650D02*X60350D01*
Y47850D01*
X66650D01*
Y70150D01*
G37*
G36*
X53650D02*X47350D01*
Y47850D01*
X53650D01*
Y70150D01*
G37*
G36*
X132048Y122602D02*Y117484D01*
X137952D01*
Y122602D01*
X132048D01*
G37*
G36*
Y115516D02*Y110398D01*
X137952D01*
Y115516D01*
X132048D01*
G37*
G36*
X145048Y115473D02*Y110355D01*
X150952D01*
Y115473D01*
X145048D01*
G37*
G36*
Y122559D02*Y117441D01*
X150952D01*
Y122559D01*
X145048D01*
G37*
G36*
X136973Y105952D02*X131855D01*
Y100048D01*
X136973D01*
Y105952D01*
G37*
G36*
X144059D02*X138941D01*
Y100048D01*
X144059D01*
Y105952D01*
G37*
G36*
X154900Y167300D02*Y161700D01*
X167100D01*
Y167300D01*
X154900D01*
G37*
G36*
Y176300D02*Y170700D01*
X167100D01*
Y176300D01*
X154900D01*
G37*
G36*
Y185400D02*Y179800D01*
X167100D01*
Y185400D01*
X154900D01*
G37*
G36*
X142700Y184100D02*X130500D01*
Y162900D01*
X142700D01*
Y184100D01*
G37*
G36*
X98004Y76504D02*Y66662D01*
X110996D01*
Y76504D01*
X98004D01*
G37*
G36*
Y49338D02*Y39496D01*
X110996D01*
Y49338D01*
X98004D01*
G37*
G36*
X53650Y185650D02*X47350D01*
Y163350D01*
X53650D01*
Y185650D01*
G37*
G36*
X66650D02*X60350D01*
Y163350D01*
X66650D01*
Y185650D01*
G37*
G36*
X79650D02*X73350D01*
Y163350D01*
X79650D01*
Y185650D01*
G37*
G36*
X98004Y193004D02*Y183162D01*
X110996D01*
Y193004D01*
X98004D01*
G37*
G36*
Y165838D02*Y155996D01*
X110996D01*
Y165838D01*
X98004D01*
G37*
G36*
X122114Y144528D02*Y135472D01*
X131956D01*
Y144528D01*
X122114D01*
G37*
G36*
X139044D02*Y135472D01*
X148886D01*
Y144528D01*
X139044D01*
G37*
G36*
X205650Y249642D02*X199350D01*
Y237043D01*
X205650D01*
Y249642D01*
G37*
G36*
Y229957D02*X199350D01*
Y217358D01*
X205650D01*
Y229957D01*
G37*
G36*
X162004Y225839D02*Y215996D01*
X174996D01*
Y225839D01*
X162004D01*
G37*
G36*
Y253004D02*Y243161D01*
X174996D01*
Y253004D01*
X162004D01*
G37*
G36*
X121600Y125000D02*X116000D01*
Y112800D01*
X121600D01*
Y125000D01*
G37*
G36*
X112600D02*X107000D01*
Y112800D01*
X112600D01*
Y125000D01*
G37*
G36*
X103500D02*X97900D01*
Y112800D01*
X103500D01*
Y125000D01*
G37*
G36*
X99200Y100600D02*Y88400D01*
X120400D01*
Y100600D01*
X99200D01*
G37*
G36*
X193500Y121200D02*Y118800D01*
X197500D01*
Y121200D01*
X193500D01*
G37*
G36*
Y117300D02*Y114900D01*
X197500D01*
Y117300D01*
X193500D01*
G37*
G36*
Y113400D02*Y111000D01*
X197500D01*
Y113400D01*
X193500D01*
G37*
G36*
X201700D02*Y111000D01*
X205700D01*
Y113400D01*
X201700D01*
G37*
G36*
Y117300D02*Y114900D01*
X205700D01*
Y117300D01*
X201700D01*
G37*
G36*
Y121200D02*Y118800D01*
X205700D01*
Y121200D01*
X201700D01*
G37*
G36*
X275587Y263051D02*X273225D01*
Y256949D01*
X275587D01*
Y263051D01*
G37*
G36*
X271650D02*X269288D01*
Y256949D01*
X271650D01*
Y263051D01*
G37*
G36*
X267712D02*X265350D01*
Y256949D01*
X267712D01*
Y263051D01*
G37*
G36*
X263775D02*X261413D01*
Y256949D01*
X263775D01*
Y263051D01*
G37*
G36*
X281886Y278799D02*X277162D01*
Y271713D01*
X281886D01*
Y278799D01*
G37*
G36*
X259838D02*X255114D01*
Y271713D01*
X259838D01*
Y278799D01*
G37*
G36*
X308576Y256261D02*Y254589D01*
X312120D01*
Y256261D01*
X308576D01*
G37*
G36*
Y259411D02*Y257739D01*
X312120D01*
Y259411D01*
X308576D01*
G37*
G36*
X301880D02*Y257739D01*
X305424D01*
Y259411D01*
X301880D01*
G37*
G36*
Y256261D02*Y254589D01*
X305424D01*
Y256261D01*
X301880D01*
G37*
M02*
