G04 start of page 7 for group -4062 idx -4062 *
G04 Title: (unknown), soldermask *
G04 Creator: pcb 4.0.2 *
G04 CreationDate: Wed Jul  1 19:45:12 2020 UTC *
G04 For: ndholmes *
G04 Format: Gerber/RS-274X *
G04 PCB-Dimensions (mil): 4000.00 2800.00 *
G04 PCB-Coordinate-Origin: lower left *
%MOIN*%
%FSLAX25Y25*%
%LNBOTTOMMASK*%
%ADD72C,0.1270*%
%ADD71C,0.0750*%
%ADD70C,0.0860*%
%ADD69C,0.0900*%
%ADD68C,0.0660*%
%ADD67C,0.0001*%
%ADD66C,0.1000*%
%ADD65C,0.2997*%
G54D65*X17000Y263000D03*
G54D66*X52512Y260500D03*
X141488D03*
G54D65*X383000Y263000D03*
G54D67*G36*
X273200Y212300D02*Y205700D01*
X279800D01*
Y212300D01*
X273200D01*
G37*
G54D68*X276500Y199000D03*
Y189000D03*
X366500Y209000D03*
Y199000D03*
Y189000D03*
G54D66*X52512Y220500D03*
X141488D03*
G54D69*X200500Y177500D03*
Y187500D03*
G54D67*G36*
X196000Y202000D02*Y193000D01*
X205000D01*
Y202000D01*
X196000D01*
G37*
G54D65*X17000Y17000D03*
G54D67*G36*
X18200Y73300D02*Y64700D01*
X26800D01*
Y73300D01*
X18200D01*
G37*
G54D70*X22500Y49000D03*
G54D67*G36*
X152750Y102750D02*Y95250D01*
X160250D01*
Y102750D01*
X152750D01*
G37*
G54D71*X156500Y69000D03*
Y49000D03*
Y29000D03*
X186500D03*
Y49000D03*
Y69000D03*
Y99000D03*
G54D67*G36*
X208750Y102750D02*Y95250D01*
X216250D01*
Y102750D01*
X208750D01*
G37*
G54D71*X242500Y99000D03*
X212500Y69000D03*
Y49000D03*
Y29000D03*
X242500D03*
Y49000D03*
Y69000D03*
G54D72*X28000Y138750D03*
G54D67*G36*
X18200Y188800D02*Y180200D01*
X26800D01*
Y188800D01*
X18200D01*
G37*
G54D70*X22500Y164500D03*
G54D67*G36*
X18200Y234800D02*Y226200D01*
X26800D01*
Y234800D01*
X18200D01*
G37*
G54D70*X22500Y210500D03*
G54D72*X48500Y138750D03*
X69000D03*
X28000Y96250D03*
X48500D03*
X69000D03*
G54D68*X276500Y179000D03*
Y169000D03*
Y159000D03*
Y149000D03*
Y139000D03*
Y129000D03*
Y119000D03*
Y109000D03*
Y99000D03*
X366500Y179000D03*
Y169000D03*
Y159000D03*
Y149000D03*
Y139000D03*
Y129000D03*
Y119000D03*
Y109000D03*
Y99000D03*
X276500Y89000D03*
Y79000D03*
X366500Y89000D03*
Y79000D03*
G54D65*X383000Y17000D03*
G54D68*X276500Y69000D03*
X366500D03*
M02*
