G04 start of page 2 for group 0 idx 0 *
G04 Title: (unknown), component *
G04 Creator: pcb 4.0.2 *
G04 CreationDate: Wed Jul  1 19:45:12 2020 UTC *
G04 For: ndholmes *
G04 Format: Gerber/RS-274X *
G04 PCB-Dimensions (mil): 4000.00 2800.00 *
G04 PCB-Coordinate-Origin: lower left *
%MOIN*%
%FSLAX25Y25*%
%LNTOP*%
%ADD30C,0.1010*%
%ADD29C,0.0480*%
%ADD28C,0.0450*%
%ADD27C,0.0380*%
%ADD26C,0.0590*%
%ADD25C,0.1285*%
%ADD24C,0.0120*%
%ADD23C,0.0240*%
%ADD22C,0.1210*%
%ADD21C,0.0680*%
%ADD20C,0.0800*%
%ADD19C,0.0787*%
%ADD18C,0.0600*%
%ADD17C,0.0940*%
%ADD16C,0.2937*%
%ADD15C,0.0700*%
%ADD14C,0.0400*%
%ADD13C,0.0100*%
%ADD12C,0.0250*%
%ADD11C,0.0001*%
G54D11*G36*
X26993Y57500D02*X43000D01*
Y38500D01*
X26993D01*
Y46145D01*
X27078Y46181D01*
X27179Y46243D01*
X27269Y46319D01*
X27345Y46409D01*
X27405Y46511D01*
X27622Y46980D01*
X27789Y47469D01*
X27909Y47972D01*
X27982Y48484D01*
X28006Y49000D01*
X27982Y49516D01*
X27909Y50028D01*
X27789Y50531D01*
X27622Y51020D01*
X27410Y51492D01*
X27349Y51593D01*
X27272Y51684D01*
X27182Y51761D01*
X27080Y51823D01*
X26993Y51860D01*
Y57500D01*
G37*
G36*
X22502D02*X26993D01*
Y51860D01*
X26971Y51869D01*
X26855Y51897D01*
X26737Y51906D01*
X26619Y51897D01*
X26503Y51870D01*
X26393Y51824D01*
X26292Y51762D01*
X26202Y51686D01*
X26124Y51595D01*
X26062Y51494D01*
X26016Y51385D01*
X25989Y51269D01*
X25979Y51151D01*
X25988Y51032D01*
X26016Y50917D01*
X26063Y50808D01*
X26221Y50468D01*
X26342Y50112D01*
X26430Y49747D01*
X26482Y49375D01*
X26500Y49000D01*
X26482Y48625D01*
X26430Y48253D01*
X26342Y47888D01*
X26221Y47532D01*
X26067Y47190D01*
X26020Y47082D01*
X25993Y46967D01*
X25983Y46849D01*
X25993Y46732D01*
X26021Y46617D01*
X26066Y46508D01*
X26128Y46407D01*
X26205Y46318D01*
X26295Y46241D01*
X26395Y46180D01*
X26504Y46135D01*
X26619Y46107D01*
X26737Y46098D01*
X26855Y46108D01*
X26969Y46135D01*
X26993Y46145D01*
Y38500D01*
X22502D01*
Y43494D01*
X23016Y43518D01*
X23528Y43591D01*
X24031Y43711D01*
X24520Y43878D01*
X24992Y44090D01*
X25093Y44151D01*
X25184Y44228D01*
X25261Y44318D01*
X25323Y44420D01*
X25369Y44529D01*
X25397Y44645D01*
X25406Y44763D01*
X25397Y44881D01*
X25370Y44997D01*
X25324Y45107D01*
X25262Y45208D01*
X25186Y45298D01*
X25095Y45376D01*
X24994Y45438D01*
X24885Y45484D01*
X24769Y45511D01*
X24651Y45521D01*
X24532Y45512D01*
X24417Y45484D01*
X24308Y45437D01*
X23968Y45279D01*
X23612Y45158D01*
X23247Y45070D01*
X22875Y45018D01*
X22502Y45000D01*
Y53000D01*
X22875Y52982D01*
X23247Y52930D01*
X23612Y52842D01*
X23968Y52721D01*
X24310Y52567D01*
X24418Y52520D01*
X24533Y52493D01*
X24651Y52483D01*
X24768Y52493D01*
X24883Y52521D01*
X24992Y52566D01*
X25093Y52628D01*
X25182Y52705D01*
X25259Y52795D01*
X25320Y52895D01*
X25365Y53004D01*
X25393Y53119D01*
X25402Y53237D01*
X25392Y53355D01*
X25365Y53469D01*
X25319Y53578D01*
X25257Y53679D01*
X25181Y53769D01*
X25091Y53845D01*
X24989Y53905D01*
X24520Y54122D01*
X24031Y54289D01*
X23528Y54409D01*
X23016Y54482D01*
X22502Y54506D01*
Y57500D01*
G37*
G36*
X18007D02*X22502D01*
Y54506D01*
X22500Y54506D01*
X21984Y54482D01*
X21472Y54409D01*
X20969Y54289D01*
X20480Y54122D01*
X20008Y53910D01*
X19907Y53849D01*
X19816Y53772D01*
X19739Y53682D01*
X19677Y53580D01*
X19631Y53471D01*
X19603Y53355D01*
X19594Y53237D01*
X19603Y53119D01*
X19630Y53003D01*
X19676Y52893D01*
X19738Y52792D01*
X19814Y52702D01*
X19905Y52624D01*
X20006Y52562D01*
X20115Y52516D01*
X20231Y52489D01*
X20349Y52479D01*
X20468Y52488D01*
X20583Y52516D01*
X20692Y52563D01*
X21032Y52721D01*
X21388Y52842D01*
X21753Y52930D01*
X22125Y52982D01*
X22500Y53000D01*
X22502Y53000D01*
Y45000D01*
X22500Y45000D01*
X22125Y45018D01*
X21753Y45070D01*
X21388Y45158D01*
X21032Y45279D01*
X20690Y45433D01*
X20582Y45480D01*
X20467Y45507D01*
X20349Y45517D01*
X20232Y45507D01*
X20117Y45479D01*
X20008Y45434D01*
X19907Y45372D01*
X19818Y45295D01*
X19741Y45205D01*
X19680Y45105D01*
X19635Y44996D01*
X19607Y44881D01*
X19598Y44763D01*
X19608Y44645D01*
X19635Y44531D01*
X19681Y44422D01*
X19743Y44321D01*
X19819Y44231D01*
X19909Y44155D01*
X20011Y44095D01*
X20480Y43878D01*
X20969Y43711D01*
X21472Y43591D01*
X21984Y43518D01*
X22500Y43494D01*
X22502Y43494D01*
Y38500D01*
X18007D01*
Y46140D01*
X18029Y46131D01*
X18145Y46103D01*
X18263Y46094D01*
X18381Y46103D01*
X18497Y46130D01*
X18607Y46176D01*
X18708Y46238D01*
X18798Y46314D01*
X18876Y46405D01*
X18938Y46506D01*
X18984Y46615D01*
X19011Y46731D01*
X19021Y46849D01*
X19012Y46968D01*
X18984Y47083D01*
X18937Y47192D01*
X18779Y47532D01*
X18658Y47888D01*
X18570Y48253D01*
X18518Y48625D01*
X18500Y49000D01*
X18518Y49375D01*
X18570Y49747D01*
X18658Y50112D01*
X18779Y50468D01*
X18933Y50810D01*
X18980Y50918D01*
X19007Y51033D01*
X19017Y51151D01*
X19007Y51268D01*
X18979Y51383D01*
X18934Y51492D01*
X18872Y51593D01*
X18795Y51682D01*
X18705Y51759D01*
X18605Y51820D01*
X18496Y51865D01*
X18381Y51893D01*
X18263Y51902D01*
X18145Y51892D01*
X18031Y51865D01*
X18007Y51855D01*
Y57500D01*
G37*
G36*
X15000D02*X18007D01*
Y51855D01*
X17922Y51819D01*
X17821Y51757D01*
X17731Y51681D01*
X17655Y51591D01*
X17595Y51489D01*
X17378Y51020D01*
X17211Y50531D01*
X17091Y50028D01*
X17018Y49516D01*
X16994Y49000D01*
X17018Y48484D01*
X17091Y47972D01*
X17211Y47469D01*
X17378Y46980D01*
X17590Y46508D01*
X17651Y46407D01*
X17728Y46316D01*
X17818Y46239D01*
X17920Y46177D01*
X18007Y46140D01*
Y38500D01*
X15000D01*
Y57500D01*
G37*
G36*
X41500Y45000D02*X82000D01*
Y38500D01*
X41500D01*
Y45000D01*
G37*
G36*
X15000D02*X19636D01*
X19635Y44996D01*
X19607Y44881D01*
X19598Y44763D01*
X19608Y44645D01*
X19635Y44531D01*
X19681Y44422D01*
X19743Y44321D01*
X19819Y44231D01*
X19909Y44155D01*
X20011Y44095D01*
X20480Y43878D01*
X20969Y43711D01*
X21472Y43591D01*
X21984Y43518D01*
X22500Y43494D01*
X23016Y43518D01*
X23528Y43591D01*
X24031Y43711D01*
X24520Y43878D01*
X24992Y44090D01*
X25093Y44151D01*
X25184Y44228D01*
X25261Y44318D01*
X25323Y44420D01*
X25369Y44529D01*
X25397Y44645D01*
X25406Y44763D01*
X25397Y44881D01*
X25370Y44997D01*
X25368Y45000D01*
X117000D01*
Y34500D01*
X15000D01*
Y45000D01*
G37*
G36*
X73500Y79500D02*X84500D01*
Y38500D01*
X73500D01*
Y79500D01*
G37*
G36*
Y51000D02*X117000D01*
Y38500D01*
X73500D01*
Y51000D01*
G37*
G36*
X76500Y57000D02*X117000D01*
Y38500D01*
X76500D01*
Y57000D01*
G37*
G36*
X86500Y79500D02*X117500D01*
Y60500D01*
X86500D01*
Y79500D01*
G37*
G36*
X246464Y92500D02*X248000D01*
Y2000D01*
X246464D01*
Y26564D01*
X246549Y26589D01*
X246655Y26639D01*
X246753Y26706D01*
X246839Y26787D01*
X246911Y26880D01*
X246966Y26984D01*
X247141Y27412D01*
X247270Y27855D01*
X247357Y28309D01*
X247400Y28769D01*
Y29231D01*
X247357Y29691D01*
X247270Y30145D01*
X247141Y30588D01*
X246971Y31018D01*
X246915Y31122D01*
X246842Y31216D01*
X246755Y31297D01*
X246657Y31364D01*
X246550Y31414D01*
X246464Y31440D01*
Y46096D01*
X246476Y46111D01*
X246879Y46769D01*
X247175Y47481D01*
X247355Y48231D01*
X247400Y49000D01*
X247355Y49769D01*
X247175Y50519D01*
X246879Y51231D01*
X246476Y51889D01*
X246464Y51904D01*
Y66096D01*
X246476Y66111D01*
X246879Y66769D01*
X247175Y67481D01*
X247355Y68231D01*
X247400Y69000D01*
X247355Y69769D01*
X247175Y70519D01*
X246879Y71231D01*
X246476Y71889D01*
X246464Y71904D01*
Y92500D01*
G37*
G36*
Y51904D02*X245976Y52476D01*
X245389Y52976D01*
X244731Y53379D01*
X244019Y53675D01*
X243269Y53855D01*
X242502Y53915D01*
Y64085D01*
X243269Y64145D01*
X244019Y64325D01*
X244731Y64621D01*
X245389Y65024D01*
X245976Y65524D01*
X246464Y66096D01*
Y51904D01*
G37*
G36*
Y2000D02*X242502D01*
Y24100D01*
X242731D01*
X243191Y24143D01*
X243645Y24230D01*
X244088Y24359D01*
X244518Y24529D01*
X244622Y24585D01*
X244716Y24658D01*
X244797Y24745D01*
X244864Y24843D01*
X244914Y24950D01*
X244948Y25064D01*
X244962Y25182D01*
X244959Y25300D01*
X244936Y25417D01*
X244896Y25528D01*
X244839Y25632D01*
X244766Y25726D01*
X244680Y25807D01*
X244582Y25874D01*
X244475Y25925D01*
X244361Y25958D01*
X244243Y25973D01*
X244124Y25969D01*
X244008Y25947D01*
X243897Y25904D01*
X243601Y25783D01*
X243293Y25694D01*
X242979Y25634D01*
X242660Y25604D01*
X242502D01*
Y32396D01*
X242660D01*
X242979Y32366D01*
X243293Y32306D01*
X243601Y32217D01*
X243899Y32099D01*
X244009Y32057D01*
X244125Y32035D01*
X244243Y32031D01*
X244360Y32046D01*
X244473Y32079D01*
X244580Y32129D01*
X244678Y32196D01*
X244764Y32276D01*
X244836Y32370D01*
X244893Y32473D01*
X244933Y32584D01*
X244955Y32700D01*
X244959Y32818D01*
X244944Y32935D01*
X244911Y33049D01*
X244861Y33155D01*
X244794Y33253D01*
X244713Y33339D01*
X244620Y33411D01*
X244516Y33466D01*
X244088Y33641D01*
X243645Y33770D01*
X243191Y33857D01*
X242731Y33900D01*
X242502D01*
Y44085D01*
X243269Y44145D01*
X244019Y44325D01*
X244731Y44621D01*
X245389Y45024D01*
X245976Y45524D01*
X246464Y46096D01*
Y31440D01*
X246436Y31448D01*
X246318Y31462D01*
X246200Y31459D01*
X246083Y31437D01*
X245972Y31396D01*
X245868Y31339D01*
X245774Y31266D01*
X245693Y31180D01*
X245626Y31082D01*
X245575Y30975D01*
X245542Y30861D01*
X245527Y30743D01*
X245531Y30624D01*
X245553Y30508D01*
X245596Y30397D01*
X245717Y30101D01*
X245806Y29793D01*
X245866Y29479D01*
X245896Y29160D01*
Y28840D01*
X245866Y28521D01*
X245806Y28207D01*
X245717Y27899D01*
X245599Y27601D01*
X245557Y27491D01*
X245535Y27375D01*
X245531Y27257D01*
X245546Y27140D01*
X245579Y27027D01*
X245629Y26920D01*
X245696Y26822D01*
X245776Y26736D01*
X245870Y26664D01*
X245973Y26607D01*
X246084Y26567D01*
X246200Y26545D01*
X246318Y26541D01*
X246435Y26556D01*
X246464Y26564D01*
Y2000D01*
G37*
G36*
X242502Y92500D02*X246464D01*
Y71904D01*
X245976Y72476D01*
X245389Y72976D01*
X244731Y73379D01*
X244019Y73675D01*
X243269Y73855D01*
X242502Y73915D01*
Y92500D01*
G37*
G36*
X238536Y46096D02*X239024Y45524D01*
X239611Y45024D01*
X240269Y44621D01*
X240981Y44325D01*
X241731Y44145D01*
X242500Y44085D01*
X242502Y44085D01*
Y33900D01*
X242269D01*
X241809Y33857D01*
X241355Y33770D01*
X240912Y33641D01*
X240482Y33471D01*
X240378Y33415D01*
X240284Y33342D01*
X240203Y33255D01*
X240136Y33157D01*
X240086Y33050D01*
X240052Y32936D01*
X240038Y32818D01*
X240041Y32700D01*
X240063Y32583D01*
X240104Y32472D01*
X240161Y32368D01*
X240234Y32274D01*
X240320Y32193D01*
X240418Y32126D01*
X240525Y32075D01*
X240639Y32042D01*
X240757Y32027D01*
X240876Y32031D01*
X240992Y32053D01*
X241103Y32096D01*
X241399Y32217D01*
X241707Y32306D01*
X242021Y32366D01*
X242340Y32396D01*
X242502D01*
Y25604D01*
X242340D01*
X242021Y25634D01*
X241707Y25694D01*
X241399Y25783D01*
X241101Y25901D01*
X240991Y25943D01*
X240875Y25965D01*
X240757Y25969D01*
X240640Y25954D01*
X240527Y25921D01*
X240420Y25871D01*
X240322Y25804D01*
X240236Y25724D01*
X240164Y25630D01*
X240107Y25527D01*
X240067Y25416D01*
X240045Y25300D01*
X240041Y25182D01*
X240056Y25065D01*
X240089Y24951D01*
X240139Y24845D01*
X240206Y24747D01*
X240287Y24661D01*
X240380Y24589D01*
X240484Y24534D01*
X240912Y24359D01*
X241355Y24230D01*
X241809Y24143D01*
X242269Y24100D01*
X242502D01*
Y2000D01*
X238536D01*
Y26560D01*
X238564Y26552D01*
X238682Y26538D01*
X238800Y26541D01*
X238917Y26564D01*
X239028Y26604D01*
X239132Y26661D01*
X239226Y26734D01*
X239307Y26820D01*
X239374Y26918D01*
X239425Y27025D01*
X239458Y27139D01*
X239473Y27257D01*
X239469Y27376D01*
X239447Y27492D01*
X239404Y27603D01*
X239283Y27899D01*
X239194Y28207D01*
X239134Y28521D01*
X239104Y28840D01*
Y29160D01*
X239134Y29479D01*
X239194Y29793D01*
X239283Y30101D01*
X239401Y30399D01*
X239443Y30509D01*
X239465Y30625D01*
X239469Y30743D01*
X239454Y30860D01*
X239421Y30973D01*
X239371Y31080D01*
X239304Y31178D01*
X239224Y31264D01*
X239130Y31336D01*
X239027Y31393D01*
X238916Y31433D01*
X238800Y31455D01*
X238682Y31459D01*
X238565Y31444D01*
X238536Y31436D01*
Y46096D01*
G37*
G36*
Y66096D02*X239024Y65524D01*
X239611Y65024D01*
X240269Y64621D01*
X240981Y64325D01*
X241731Y64145D01*
X242500Y64085D01*
X242502Y64085D01*
Y53915D01*
X242500Y53915D01*
X241731Y53855D01*
X240981Y53675D01*
X240269Y53379D01*
X239611Y52976D01*
X239024Y52476D01*
X238536Y51904D01*
Y66096D01*
G37*
G36*
Y92500D02*X242502D01*
Y73915D01*
X242500Y73915D01*
X241731Y73855D01*
X240981Y73675D01*
X240269Y73379D01*
X239611Y72976D01*
X239024Y72476D01*
X238536Y71904D01*
Y92500D01*
G37*
G36*
X216464D02*X238536D01*
Y71904D01*
X238524Y71889D01*
X238121Y71231D01*
X237825Y70519D01*
X237645Y69769D01*
X237585Y69000D01*
X237645Y68231D01*
X237825Y67481D01*
X238121Y66769D01*
X238524Y66111D01*
X238536Y66096D01*
Y51904D01*
X238524Y51889D01*
X238121Y51231D01*
X237825Y50519D01*
X237645Y49769D01*
X237585Y49000D01*
X237645Y48231D01*
X237825Y47481D01*
X238121Y46769D01*
X238524Y46111D01*
X238536Y46096D01*
Y31436D01*
X238451Y31411D01*
X238345Y31361D01*
X238247Y31294D01*
X238161Y31213D01*
X238089Y31120D01*
X238034Y31016D01*
X237859Y30588D01*
X237730Y30145D01*
X237643Y29691D01*
X237600Y29231D01*
Y28769D01*
X237643Y28309D01*
X237730Y27855D01*
X237859Y27412D01*
X238029Y26982D01*
X238085Y26878D01*
X238158Y26784D01*
X238245Y26703D01*
X238343Y26636D01*
X238450Y26586D01*
X238536Y26560D01*
Y2000D01*
X216464D01*
Y26564D01*
X216549Y26589D01*
X216655Y26639D01*
X216753Y26706D01*
X216839Y26787D01*
X216911Y26880D01*
X216966Y26984D01*
X217141Y27412D01*
X217270Y27855D01*
X217357Y28309D01*
X217400Y28769D01*
Y29231D01*
X217357Y29691D01*
X217270Y30145D01*
X217141Y30588D01*
X216971Y31018D01*
X216915Y31122D01*
X216842Y31216D01*
X216755Y31297D01*
X216657Y31364D01*
X216550Y31414D01*
X216464Y31440D01*
Y46096D01*
X216476Y46111D01*
X216879Y46769D01*
X217175Y47481D01*
X217355Y48231D01*
X217400Y49000D01*
X217355Y49769D01*
X217175Y50519D01*
X216879Y51231D01*
X216476Y51889D01*
X216464Y51904D01*
Y66096D01*
X216476Y66111D01*
X216879Y66769D01*
X217175Y67481D01*
X217355Y68231D01*
X217400Y69000D01*
X217355Y69769D01*
X217175Y70519D01*
X216879Y71231D01*
X216476Y71889D01*
X216464Y71904D01*
Y92500D01*
G37*
G36*
Y51904D02*X215976Y52476D01*
X215389Y52976D01*
X214731Y53379D01*
X214019Y53675D01*
X213269Y53855D01*
X212500Y53915D01*
X212492Y53915D01*
Y64085D01*
X212500Y64085D01*
X213269Y64145D01*
X214019Y64325D01*
X214731Y64621D01*
X215389Y65024D01*
X215976Y65524D01*
X216464Y66096D01*
Y51904D01*
G37*
G36*
Y2000D02*X212492D01*
Y24100D01*
X212731D01*
X213191Y24143D01*
X213645Y24230D01*
X214088Y24359D01*
X214518Y24529D01*
X214622Y24585D01*
X214716Y24658D01*
X214797Y24745D01*
X214864Y24843D01*
X214914Y24950D01*
X214948Y25064D01*
X214962Y25182D01*
X214959Y25300D01*
X214936Y25417D01*
X214896Y25528D01*
X214839Y25632D01*
X214766Y25726D01*
X214680Y25807D01*
X214582Y25874D01*
X214475Y25925D01*
X214361Y25958D01*
X214243Y25973D01*
X214124Y25969D01*
X214008Y25947D01*
X213897Y25904D01*
X213601Y25783D01*
X213293Y25694D01*
X212979Y25634D01*
X212660Y25604D01*
X212492D01*
Y32396D01*
X212660D01*
X212979Y32366D01*
X213293Y32306D01*
X213601Y32217D01*
X213899Y32099D01*
X214009Y32057D01*
X214125Y32035D01*
X214243Y32031D01*
X214360Y32046D01*
X214473Y32079D01*
X214580Y32129D01*
X214678Y32196D01*
X214764Y32276D01*
X214836Y32370D01*
X214893Y32473D01*
X214933Y32584D01*
X214955Y32700D01*
X214959Y32818D01*
X214944Y32935D01*
X214911Y33049D01*
X214861Y33155D01*
X214794Y33253D01*
X214713Y33339D01*
X214620Y33411D01*
X214516Y33466D01*
X214088Y33641D01*
X213645Y33770D01*
X213191Y33857D01*
X212731Y33900D01*
X212492D01*
Y44085D01*
X212500Y44085D01*
X213269Y44145D01*
X214019Y44325D01*
X214731Y44621D01*
X215389Y45024D01*
X215976Y45524D01*
X216464Y46096D01*
Y31440D01*
X216436Y31448D01*
X216318Y31462D01*
X216200Y31459D01*
X216083Y31437D01*
X215972Y31396D01*
X215868Y31339D01*
X215774Y31266D01*
X215693Y31180D01*
X215626Y31082D01*
X215575Y30975D01*
X215542Y30861D01*
X215527Y30743D01*
X215531Y30624D01*
X215553Y30508D01*
X215596Y30397D01*
X215717Y30101D01*
X215806Y29793D01*
X215866Y29479D01*
X215896Y29160D01*
Y28840D01*
X215866Y28521D01*
X215806Y28207D01*
X215717Y27899D01*
X215599Y27601D01*
X215557Y27491D01*
X215535Y27375D01*
X215531Y27257D01*
X215546Y27140D01*
X215579Y27027D01*
X215629Y26920D01*
X215696Y26822D01*
X215776Y26736D01*
X215870Y26664D01*
X215973Y26607D01*
X216084Y26567D01*
X216200Y26545D01*
X216318Y26541D01*
X216435Y26556D01*
X216464Y26564D01*
Y2000D01*
G37*
G36*
X212492Y92500D02*X216464D01*
Y71904D01*
X215976Y72476D01*
X215389Y72976D01*
X214731Y73379D01*
X214019Y73675D01*
X213269Y73855D01*
X212500Y73915D01*
X212492Y73915D01*
Y92500D01*
G37*
G36*
X208536Y46096D02*X209024Y45524D01*
X209611Y45024D01*
X210269Y44621D01*
X210981Y44325D01*
X211731Y44145D01*
X212492Y44085D01*
Y33900D01*
X212269D01*
X211809Y33857D01*
X211355Y33770D01*
X210912Y33641D01*
X210482Y33471D01*
X210378Y33415D01*
X210284Y33342D01*
X210203Y33255D01*
X210136Y33157D01*
X210086Y33050D01*
X210052Y32936D01*
X210038Y32818D01*
X210041Y32700D01*
X210063Y32583D01*
X210104Y32472D01*
X210161Y32368D01*
X210234Y32274D01*
X210320Y32193D01*
X210418Y32126D01*
X210525Y32075D01*
X210639Y32042D01*
X210757Y32027D01*
X210876Y32031D01*
X210992Y32053D01*
X211103Y32096D01*
X211399Y32217D01*
X211707Y32306D01*
X212021Y32366D01*
X212340Y32396D01*
X212492D01*
Y25604D01*
X212340D01*
X212021Y25634D01*
X211707Y25694D01*
X211399Y25783D01*
X211101Y25901D01*
X210991Y25943D01*
X210875Y25965D01*
X210757Y25969D01*
X210640Y25954D01*
X210527Y25921D01*
X210420Y25871D01*
X210322Y25804D01*
X210236Y25724D01*
X210164Y25630D01*
X210107Y25527D01*
X210067Y25416D01*
X210045Y25300D01*
X210041Y25182D01*
X210056Y25065D01*
X210089Y24951D01*
X210139Y24845D01*
X210206Y24747D01*
X210287Y24661D01*
X210380Y24589D01*
X210484Y24534D01*
X210912Y24359D01*
X211355Y24230D01*
X211809Y24143D01*
X212269Y24100D01*
X212492D01*
Y2000D01*
X208536D01*
Y26560D01*
X208564Y26552D01*
X208682Y26538D01*
X208800Y26541D01*
X208917Y26564D01*
X209028Y26604D01*
X209132Y26661D01*
X209226Y26734D01*
X209307Y26820D01*
X209374Y26918D01*
X209425Y27025D01*
X209458Y27139D01*
X209473Y27257D01*
X209469Y27376D01*
X209447Y27492D01*
X209404Y27603D01*
X209283Y27899D01*
X209194Y28207D01*
X209134Y28521D01*
X209104Y28840D01*
Y29160D01*
X209134Y29479D01*
X209194Y29793D01*
X209283Y30101D01*
X209401Y30399D01*
X209443Y30509D01*
X209465Y30625D01*
X209469Y30743D01*
X209454Y30860D01*
X209421Y30973D01*
X209371Y31080D01*
X209304Y31178D01*
X209224Y31264D01*
X209130Y31336D01*
X209027Y31393D01*
X208916Y31433D01*
X208800Y31455D01*
X208682Y31459D01*
X208565Y31444D01*
X208536Y31436D01*
Y46096D01*
G37*
G36*
Y66096D02*X209024Y65524D01*
X209611Y65024D01*
X210269Y64621D01*
X210981Y64325D01*
X211731Y64145D01*
X212492Y64085D01*
Y53915D01*
X211731Y53855D01*
X210981Y53675D01*
X210269Y53379D01*
X209611Y52976D01*
X209024Y52476D01*
X208536Y51904D01*
Y66096D01*
G37*
G36*
Y90794D02*X210243Y92500D01*
X212492D01*
Y73915D01*
X211731Y73855D01*
X210981Y73675D01*
X210269Y73379D01*
X209611Y72976D01*
X209024Y72476D01*
X208536Y71904D01*
Y90794D01*
G37*
G36*
X190464Y89500D02*X205882D01*
X206000Y89491D01*
X206471Y89528D01*
X206471Y89528D01*
X206930Y89638D01*
X207366Y89819D01*
X207769Y90065D01*
X208128Y90372D01*
X208204Y90462D01*
X208536Y90794D01*
Y71904D01*
X208524Y71889D01*
X208121Y71231D01*
X207825Y70519D01*
X207645Y69769D01*
X207585Y69000D01*
X207645Y68231D01*
X207825Y67481D01*
X208121Y66769D01*
X208524Y66111D01*
X208536Y66096D01*
Y51904D01*
X208524Y51889D01*
X208121Y51231D01*
X207825Y50519D01*
X207645Y49769D01*
X207585Y49000D01*
X207645Y48231D01*
X207825Y47481D01*
X208121Y46769D01*
X208524Y46111D01*
X208536Y46096D01*
Y31436D01*
X208451Y31411D01*
X208345Y31361D01*
X208247Y31294D01*
X208161Y31213D01*
X208089Y31120D01*
X208034Y31016D01*
X207859Y30588D01*
X207730Y30145D01*
X207643Y29691D01*
X207600Y29231D01*
Y28769D01*
X207643Y28309D01*
X207730Y27855D01*
X207859Y27412D01*
X208029Y26982D01*
X208085Y26878D01*
X208158Y26784D01*
X208245Y26703D01*
X208343Y26636D01*
X208450Y26586D01*
X208536Y26560D01*
Y2000D01*
X190464D01*
Y26564D01*
X190549Y26589D01*
X190655Y26639D01*
X190753Y26706D01*
X190839Y26787D01*
X190911Y26880D01*
X190966Y26984D01*
X191141Y27412D01*
X191270Y27855D01*
X191357Y28309D01*
X191400Y28769D01*
Y29231D01*
X191357Y29691D01*
X191270Y30145D01*
X191141Y30588D01*
X190971Y31018D01*
X190915Y31122D01*
X190842Y31216D01*
X190755Y31297D01*
X190657Y31364D01*
X190550Y31414D01*
X190464Y31440D01*
Y46096D01*
X190476Y46111D01*
X190879Y46769D01*
X191175Y47481D01*
X191355Y48231D01*
X191400Y49000D01*
X191355Y49769D01*
X191175Y50519D01*
X190879Y51231D01*
X190476Y51889D01*
X190464Y51904D01*
Y66096D01*
X190476Y66111D01*
X190879Y66769D01*
X191175Y67481D01*
X191355Y68231D01*
X191400Y69000D01*
X191355Y69769D01*
X191175Y70519D01*
X190879Y71231D01*
X190476Y71889D01*
X190464Y71904D01*
Y89500D01*
G37*
G36*
Y51904D02*X189976Y52476D01*
X189389Y52976D01*
X188731Y53379D01*
X188019Y53675D01*
X187269Y53855D01*
X186502Y53915D01*
Y64085D01*
X187269Y64145D01*
X188019Y64325D01*
X188731Y64621D01*
X189389Y65024D01*
X189976Y65524D01*
X190464Y66096D01*
Y51904D01*
G37*
G36*
Y2000D02*X186502D01*
Y24100D01*
X186731D01*
X187191Y24143D01*
X187645Y24230D01*
X188088Y24359D01*
X188518Y24529D01*
X188622Y24585D01*
X188716Y24658D01*
X188797Y24745D01*
X188864Y24843D01*
X188914Y24950D01*
X188948Y25064D01*
X188962Y25182D01*
X188959Y25300D01*
X188936Y25417D01*
X188896Y25528D01*
X188839Y25632D01*
X188766Y25726D01*
X188680Y25807D01*
X188582Y25874D01*
X188475Y25925D01*
X188361Y25958D01*
X188243Y25973D01*
X188124Y25969D01*
X188008Y25947D01*
X187897Y25904D01*
X187601Y25783D01*
X187293Y25694D01*
X186979Y25634D01*
X186660Y25604D01*
X186502D01*
Y32396D01*
X186660D01*
X186979Y32366D01*
X187293Y32306D01*
X187601Y32217D01*
X187899Y32099D01*
X188009Y32057D01*
X188125Y32035D01*
X188243Y32031D01*
X188360Y32046D01*
X188473Y32079D01*
X188580Y32129D01*
X188678Y32196D01*
X188764Y32276D01*
X188836Y32370D01*
X188893Y32473D01*
X188933Y32584D01*
X188955Y32700D01*
X188959Y32818D01*
X188944Y32935D01*
X188911Y33049D01*
X188861Y33155D01*
X188794Y33253D01*
X188713Y33339D01*
X188620Y33411D01*
X188516Y33466D01*
X188088Y33641D01*
X187645Y33770D01*
X187191Y33857D01*
X186731Y33900D01*
X186502D01*
Y44085D01*
X187269Y44145D01*
X188019Y44325D01*
X188731Y44621D01*
X189389Y45024D01*
X189976Y45524D01*
X190464Y46096D01*
Y31440D01*
X190436Y31448D01*
X190318Y31462D01*
X190200Y31459D01*
X190083Y31437D01*
X189972Y31396D01*
X189868Y31339D01*
X189774Y31266D01*
X189693Y31180D01*
X189626Y31082D01*
X189575Y30975D01*
X189542Y30861D01*
X189527Y30743D01*
X189531Y30624D01*
X189553Y30508D01*
X189596Y30397D01*
X189717Y30101D01*
X189806Y29793D01*
X189866Y29479D01*
X189896Y29160D01*
Y28840D01*
X189866Y28521D01*
X189806Y28207D01*
X189717Y27899D01*
X189599Y27601D01*
X189557Y27491D01*
X189535Y27375D01*
X189531Y27257D01*
X189546Y27140D01*
X189579Y27027D01*
X189629Y26920D01*
X189696Y26822D01*
X189776Y26736D01*
X189870Y26664D01*
X189973Y26607D01*
X190084Y26567D01*
X190200Y26545D01*
X190318Y26541D01*
X190435Y26556D01*
X190464Y26564D01*
Y2000D01*
G37*
G36*
X186502Y89500D02*X190464D01*
Y71904D01*
X189976Y72476D01*
X189389Y72976D01*
X188731Y73379D01*
X188019Y73675D01*
X187269Y73855D01*
X186502Y73915D01*
Y89500D01*
G37*
G36*
X182536Y46096D02*X183024Y45524D01*
X183611Y45024D01*
X184269Y44621D01*
X184981Y44325D01*
X185731Y44145D01*
X186500Y44085D01*
X186502Y44085D01*
Y33900D01*
X186269D01*
X185809Y33857D01*
X185355Y33770D01*
X184912Y33641D01*
X184482Y33471D01*
X184378Y33415D01*
X184284Y33342D01*
X184203Y33255D01*
X184136Y33157D01*
X184086Y33050D01*
X184052Y32936D01*
X184038Y32818D01*
X184041Y32700D01*
X184063Y32583D01*
X184104Y32472D01*
X184161Y32368D01*
X184234Y32274D01*
X184320Y32193D01*
X184418Y32126D01*
X184525Y32075D01*
X184639Y32042D01*
X184757Y32027D01*
X184876Y32031D01*
X184992Y32053D01*
X185103Y32096D01*
X185399Y32217D01*
X185707Y32306D01*
X186021Y32366D01*
X186340Y32396D01*
X186502D01*
Y25604D01*
X186340D01*
X186021Y25634D01*
X185707Y25694D01*
X185399Y25783D01*
X185101Y25901D01*
X184991Y25943D01*
X184875Y25965D01*
X184757Y25969D01*
X184640Y25954D01*
X184527Y25921D01*
X184420Y25871D01*
X184322Y25804D01*
X184236Y25724D01*
X184164Y25630D01*
X184107Y25527D01*
X184067Y25416D01*
X184045Y25300D01*
X184041Y25182D01*
X184056Y25065D01*
X184089Y24951D01*
X184139Y24845D01*
X184206Y24747D01*
X184287Y24661D01*
X184380Y24589D01*
X184484Y24534D01*
X184912Y24359D01*
X185355Y24230D01*
X185809Y24143D01*
X186269Y24100D01*
X186502D01*
Y2000D01*
X182536D01*
Y26560D01*
X182564Y26552D01*
X182682Y26538D01*
X182800Y26541D01*
X182917Y26564D01*
X183028Y26604D01*
X183132Y26661D01*
X183226Y26734D01*
X183307Y26820D01*
X183374Y26918D01*
X183425Y27025D01*
X183458Y27139D01*
X183473Y27257D01*
X183469Y27376D01*
X183447Y27492D01*
X183404Y27603D01*
X183283Y27899D01*
X183194Y28207D01*
X183134Y28521D01*
X183104Y28840D01*
Y29160D01*
X183134Y29479D01*
X183194Y29793D01*
X183283Y30101D01*
X183401Y30399D01*
X183443Y30509D01*
X183465Y30625D01*
X183469Y30743D01*
X183454Y30860D01*
X183421Y30973D01*
X183371Y31080D01*
X183304Y31178D01*
X183224Y31264D01*
X183130Y31336D01*
X183027Y31393D01*
X182916Y31433D01*
X182800Y31455D01*
X182682Y31459D01*
X182565Y31444D01*
X182536Y31436D01*
Y46096D01*
G37*
G36*
Y66096D02*X183024Y65524D01*
X183611Y65024D01*
X184269Y64621D01*
X184981Y64325D01*
X185731Y64145D01*
X186500Y64085D01*
X186502Y64085D01*
Y53915D01*
X186500Y53915D01*
X185731Y53855D01*
X184981Y53675D01*
X184269Y53379D01*
X183611Y52976D01*
X183024Y52476D01*
X182536Y51904D01*
Y66096D01*
G37*
G36*
Y89500D02*X186502D01*
Y73915D01*
X186500Y73915D01*
X185731Y73855D01*
X184981Y73675D01*
X184269Y73379D01*
X183611Y72976D01*
X183024Y72476D01*
X182536Y71904D01*
Y89500D01*
G37*
G36*
X160464Y92500D02*X177757D01*
X179796Y90462D01*
X179872Y90372D01*
X180231Y90065D01*
X180231Y90065D01*
X180634Y89819D01*
X181070Y89638D01*
X181440Y89549D01*
X181529Y89528D01*
X181529D01*
X182000Y89491D01*
X182118Y89500D01*
X182536D01*
Y71904D01*
X182524Y71889D01*
X182121Y71231D01*
X181825Y70519D01*
X181645Y69769D01*
X181585Y69000D01*
X181645Y68231D01*
X181825Y67481D01*
X182121Y66769D01*
X182524Y66111D01*
X182536Y66096D01*
Y51904D01*
X182524Y51889D01*
X182121Y51231D01*
X181825Y50519D01*
X181645Y49769D01*
X181585Y49000D01*
X181645Y48231D01*
X181825Y47481D01*
X182121Y46769D01*
X182524Y46111D01*
X182536Y46096D01*
Y31436D01*
X182451Y31411D01*
X182345Y31361D01*
X182247Y31294D01*
X182161Y31213D01*
X182089Y31120D01*
X182034Y31016D01*
X181859Y30588D01*
X181730Y30145D01*
X181643Y29691D01*
X181600Y29231D01*
Y28769D01*
X181643Y28309D01*
X181730Y27855D01*
X181859Y27412D01*
X182029Y26982D01*
X182085Y26878D01*
X182158Y26784D01*
X182245Y26703D01*
X182343Y26636D01*
X182450Y26586D01*
X182536Y26560D01*
Y2000D01*
X160464D01*
Y26564D01*
X160549Y26589D01*
X160655Y26639D01*
X160753Y26706D01*
X160839Y26787D01*
X160911Y26880D01*
X160966Y26984D01*
X161141Y27412D01*
X161270Y27855D01*
X161357Y28309D01*
X161400Y28769D01*
Y29231D01*
X161357Y29691D01*
X161270Y30145D01*
X161141Y30588D01*
X160971Y31018D01*
X160915Y31122D01*
X160842Y31216D01*
X160755Y31297D01*
X160657Y31364D01*
X160550Y31414D01*
X160464Y31440D01*
Y46096D01*
X160476Y46111D01*
X160879Y46769D01*
X161175Y47481D01*
X161355Y48231D01*
X161400Y49000D01*
X161355Y49769D01*
X161175Y50519D01*
X160879Y51231D01*
X160476Y51889D01*
X160464Y51904D01*
Y66096D01*
X160476Y66111D01*
X160879Y66769D01*
X161175Y67481D01*
X161355Y68231D01*
X161400Y69000D01*
X161355Y69769D01*
X161175Y70519D01*
X160879Y71231D01*
X160476Y71889D01*
X160464Y71904D01*
Y92500D01*
G37*
G36*
Y51904D02*X159976Y52476D01*
X159389Y52976D01*
X158731Y53379D01*
X158019Y53675D01*
X157269Y53855D01*
X156500Y53915D01*
X156492Y53915D01*
Y64085D01*
X156500Y64085D01*
X157269Y64145D01*
X158019Y64325D01*
X158731Y64621D01*
X159389Y65024D01*
X159976Y65524D01*
X160464Y66096D01*
Y51904D01*
G37*
G36*
Y2000D02*X156492D01*
Y24100D01*
X156731D01*
X157191Y24143D01*
X157645Y24230D01*
X158088Y24359D01*
X158518Y24529D01*
X158622Y24585D01*
X158716Y24658D01*
X158797Y24745D01*
X158864Y24843D01*
X158914Y24950D01*
X158948Y25064D01*
X158962Y25182D01*
X158959Y25300D01*
X158936Y25417D01*
X158896Y25528D01*
X158839Y25632D01*
X158766Y25726D01*
X158680Y25807D01*
X158582Y25874D01*
X158475Y25925D01*
X158361Y25958D01*
X158243Y25973D01*
X158124Y25969D01*
X158008Y25947D01*
X157897Y25904D01*
X157601Y25783D01*
X157293Y25694D01*
X156979Y25634D01*
X156660Y25604D01*
X156492D01*
Y32396D01*
X156660D01*
X156979Y32366D01*
X157293Y32306D01*
X157601Y32217D01*
X157899Y32099D01*
X158009Y32057D01*
X158125Y32035D01*
X158243Y32031D01*
X158360Y32046D01*
X158473Y32079D01*
X158580Y32129D01*
X158678Y32196D01*
X158764Y32276D01*
X158836Y32370D01*
X158893Y32473D01*
X158933Y32584D01*
X158955Y32700D01*
X158959Y32818D01*
X158944Y32935D01*
X158911Y33049D01*
X158861Y33155D01*
X158794Y33253D01*
X158713Y33339D01*
X158620Y33411D01*
X158516Y33466D01*
X158088Y33641D01*
X157645Y33770D01*
X157191Y33857D01*
X156731Y33900D01*
X156492D01*
Y44085D01*
X156500Y44085D01*
X157269Y44145D01*
X158019Y44325D01*
X158731Y44621D01*
X159389Y45024D01*
X159976Y45524D01*
X160464Y46096D01*
Y31440D01*
X160436Y31448D01*
X160318Y31462D01*
X160200Y31459D01*
X160083Y31437D01*
X159972Y31396D01*
X159868Y31339D01*
X159774Y31266D01*
X159693Y31180D01*
X159626Y31082D01*
X159575Y30975D01*
X159542Y30861D01*
X159527Y30743D01*
X159531Y30624D01*
X159553Y30508D01*
X159596Y30397D01*
X159717Y30101D01*
X159806Y29793D01*
X159866Y29479D01*
X159896Y29160D01*
Y28840D01*
X159866Y28521D01*
X159806Y28207D01*
X159717Y27899D01*
X159599Y27601D01*
X159557Y27491D01*
X159535Y27375D01*
X159531Y27257D01*
X159546Y27140D01*
X159579Y27027D01*
X159629Y26920D01*
X159696Y26822D01*
X159776Y26736D01*
X159870Y26664D01*
X159973Y26607D01*
X160084Y26567D01*
X160200Y26545D01*
X160318Y26541D01*
X160435Y26556D01*
X160464Y26564D01*
Y2000D01*
G37*
G36*
X156492Y92500D02*X160464D01*
Y71904D01*
X159976Y72476D01*
X159389Y72976D01*
X158731Y73379D01*
X158019Y73675D01*
X157269Y73855D01*
X156500Y73915D01*
X156492Y73915D01*
Y92500D01*
G37*
G36*
X152536Y46096D02*X153024Y45524D01*
X153611Y45024D01*
X154269Y44621D01*
X154981Y44325D01*
X155731Y44145D01*
X156492Y44085D01*
Y33900D01*
X156269D01*
X155809Y33857D01*
X155355Y33770D01*
X154912Y33641D01*
X154482Y33471D01*
X154378Y33415D01*
X154284Y33342D01*
X154203Y33255D01*
X154136Y33157D01*
X154086Y33050D01*
X154052Y32936D01*
X154038Y32818D01*
X154041Y32700D01*
X154063Y32583D01*
X154104Y32472D01*
X154161Y32368D01*
X154234Y32274D01*
X154320Y32193D01*
X154418Y32126D01*
X154525Y32075D01*
X154639Y32042D01*
X154757Y32027D01*
X154876Y32031D01*
X154992Y32053D01*
X155103Y32096D01*
X155399Y32217D01*
X155707Y32306D01*
X156021Y32366D01*
X156340Y32396D01*
X156492D01*
Y25604D01*
X156340D01*
X156021Y25634D01*
X155707Y25694D01*
X155399Y25783D01*
X155101Y25901D01*
X154991Y25943D01*
X154875Y25965D01*
X154757Y25969D01*
X154640Y25954D01*
X154527Y25921D01*
X154420Y25871D01*
X154322Y25804D01*
X154236Y25724D01*
X154164Y25630D01*
X154107Y25527D01*
X154067Y25416D01*
X154045Y25300D01*
X154041Y25182D01*
X154056Y25065D01*
X154089Y24951D01*
X154139Y24845D01*
X154206Y24747D01*
X154287Y24661D01*
X154380Y24589D01*
X154484Y24534D01*
X154912Y24359D01*
X155355Y24230D01*
X155809Y24143D01*
X156269Y24100D01*
X156492D01*
Y2000D01*
X152536D01*
Y26560D01*
X152564Y26552D01*
X152682Y26538D01*
X152800Y26541D01*
X152917Y26564D01*
X153028Y26604D01*
X153132Y26661D01*
X153226Y26734D01*
X153307Y26820D01*
X153374Y26918D01*
X153425Y27025D01*
X153458Y27139D01*
X153473Y27257D01*
X153469Y27376D01*
X153447Y27492D01*
X153404Y27603D01*
X153283Y27899D01*
X153194Y28207D01*
X153134Y28521D01*
X153104Y28840D01*
Y29160D01*
X153134Y29479D01*
X153194Y29793D01*
X153283Y30101D01*
X153401Y30399D01*
X153443Y30509D01*
X153465Y30625D01*
X153469Y30743D01*
X153454Y30860D01*
X153421Y30973D01*
X153371Y31080D01*
X153304Y31178D01*
X153224Y31264D01*
X153130Y31336D01*
X153027Y31393D01*
X152916Y31433D01*
X152800Y31455D01*
X152682Y31459D01*
X152565Y31444D01*
X152536Y31436D01*
Y46096D01*
G37*
G36*
Y66096D02*X153024Y65524D01*
X153611Y65024D01*
X154269Y64621D01*
X154981Y64325D01*
X155731Y64145D01*
X156492Y64085D01*
Y53915D01*
X155731Y53855D01*
X154981Y53675D01*
X154269Y53379D01*
X153611Y52976D01*
X153024Y52476D01*
X152536Y51904D01*
Y66096D01*
G37*
G36*
Y92500D02*X156492D01*
Y73915D01*
X155731Y73855D01*
X154981Y73675D01*
X154269Y73379D01*
X153611Y72976D01*
X153024Y72476D01*
X152536Y71904D01*
Y92500D01*
G37*
G36*
X143000D02*X152536D01*
Y71904D01*
X152524Y71889D01*
X152121Y71231D01*
X151825Y70519D01*
X151645Y69769D01*
X151585Y69000D01*
X151645Y68231D01*
X151825Y67481D01*
X152121Y66769D01*
X152524Y66111D01*
X152536Y66096D01*
Y51904D01*
X152524Y51889D01*
X152121Y51231D01*
X151825Y50519D01*
X151645Y49769D01*
X151585Y49000D01*
X151645Y48231D01*
X151825Y47481D01*
X152121Y46769D01*
X152524Y46111D01*
X152536Y46096D01*
Y31436D01*
X152451Y31411D01*
X152345Y31361D01*
X152247Y31294D01*
X152161Y31213D01*
X152089Y31120D01*
X152034Y31016D01*
X151859Y30588D01*
X151730Y30145D01*
X151643Y29691D01*
X151600Y29231D01*
Y28769D01*
X151643Y28309D01*
X151730Y27855D01*
X151859Y27412D01*
X152029Y26982D01*
X152085Y26878D01*
X152158Y26784D01*
X152245Y26703D01*
X152343Y26636D01*
X152450Y26586D01*
X152536Y26560D01*
Y2000D01*
X143000D01*
Y92500D01*
G37*
G36*
X160464Y66096D02*X160476Y66111D01*
X160879Y66769D01*
X161175Y67481D01*
X161355Y68231D01*
X161400Y69000D01*
X161355Y69769D01*
X161175Y70519D01*
X160879Y71231D01*
X160476Y71889D01*
X160464Y71904D01*
Y73500D01*
X165500D01*
Y2000D01*
X160464D01*
Y26564D01*
X160549Y26589D01*
X160655Y26639D01*
X160753Y26706D01*
X160839Y26787D01*
X160911Y26880D01*
X160966Y26984D01*
X161141Y27412D01*
X161270Y27855D01*
X161357Y28309D01*
X161400Y28769D01*
Y29231D01*
X161357Y29691D01*
X161270Y30145D01*
X161141Y30588D01*
X160971Y31018D01*
X160915Y31122D01*
X160842Y31216D01*
X160755Y31297D01*
X160657Y31364D01*
X160550Y31414D01*
X160464Y31440D01*
Y46096D01*
X160476Y46111D01*
X160879Y46769D01*
X161175Y47481D01*
X161355Y48231D01*
X161400Y49000D01*
X161355Y49769D01*
X161175Y50519D01*
X160879Y51231D01*
X160476Y51889D01*
X160464Y51904D01*
Y66096D01*
G37*
G36*
Y2000D02*X156492D01*
Y24100D01*
X156731D01*
X157191Y24143D01*
X157645Y24230D01*
X158088Y24359D01*
X158518Y24529D01*
X158622Y24585D01*
X158716Y24658D01*
X158797Y24745D01*
X158864Y24843D01*
X158914Y24950D01*
X158948Y25064D01*
X158962Y25182D01*
X158959Y25300D01*
X158936Y25417D01*
X158896Y25528D01*
X158839Y25632D01*
X158766Y25726D01*
X158680Y25807D01*
X158582Y25874D01*
X158475Y25925D01*
X158361Y25958D01*
X158243Y25973D01*
X158124Y25969D01*
X158008Y25947D01*
X157897Y25904D01*
X157601Y25783D01*
X157293Y25694D01*
X156979Y25634D01*
X156660Y25604D01*
X156492D01*
Y32396D01*
X156660D01*
X156979Y32366D01*
X157293Y32306D01*
X157601Y32217D01*
X157899Y32099D01*
X158009Y32057D01*
X158125Y32035D01*
X158243Y32031D01*
X158360Y32046D01*
X158473Y32079D01*
X158580Y32129D01*
X158678Y32196D01*
X158764Y32276D01*
X158836Y32370D01*
X158893Y32473D01*
X158933Y32584D01*
X158955Y32700D01*
X158959Y32818D01*
X158944Y32935D01*
X158911Y33049D01*
X158861Y33155D01*
X158794Y33253D01*
X158713Y33339D01*
X158620Y33411D01*
X158516Y33466D01*
X158088Y33641D01*
X157645Y33770D01*
X157191Y33857D01*
X156731Y33900D01*
X156492D01*
Y44085D01*
X156500Y44085D01*
X157269Y44145D01*
X158019Y44325D01*
X158731Y44621D01*
X159389Y45024D01*
X159976Y45524D01*
X160464Y46096D01*
Y31440D01*
X160436Y31448D01*
X160318Y31462D01*
X160200Y31459D01*
X160083Y31437D01*
X159972Y31396D01*
X159868Y31339D01*
X159774Y31266D01*
X159693Y31180D01*
X159626Y31082D01*
X159575Y30975D01*
X159542Y30861D01*
X159527Y30743D01*
X159531Y30624D01*
X159553Y30508D01*
X159596Y30397D01*
X159717Y30101D01*
X159806Y29793D01*
X159866Y29479D01*
X159896Y29160D01*
Y28840D01*
X159866Y28521D01*
X159806Y28207D01*
X159717Y27899D01*
X159599Y27601D01*
X159557Y27491D01*
X159535Y27375D01*
X159531Y27257D01*
X159546Y27140D01*
X159579Y27027D01*
X159629Y26920D01*
X159696Y26822D01*
X159776Y26736D01*
X159870Y26664D01*
X159973Y26607D01*
X160084Y26567D01*
X160200Y26545D01*
X160318Y26541D01*
X160435Y26556D01*
X160464Y26564D01*
Y2000D01*
G37*
G36*
Y71904D02*X159976Y72476D01*
X159389Y72976D01*
X158731Y73379D01*
X158440Y73500D01*
X160464D01*
Y71904D01*
G37*
G36*
X156492Y64085D02*X156500Y64085D01*
X157269Y64145D01*
X158019Y64325D01*
X158731Y64621D01*
X159389Y65024D01*
X159976Y65524D01*
X160464Y66096D01*
Y51904D01*
X159976Y52476D01*
X159389Y52976D01*
X158731Y53379D01*
X158019Y53675D01*
X157269Y53855D01*
X156500Y53915D01*
X156492Y53915D01*
Y64085D01*
G37*
G36*
X152536Y46096D02*X153024Y45524D01*
X153611Y45024D01*
X154269Y44621D01*
X154981Y44325D01*
X155731Y44145D01*
X156492Y44085D01*
Y33900D01*
X156269D01*
X155809Y33857D01*
X155355Y33770D01*
X154912Y33641D01*
X154482Y33471D01*
X154378Y33415D01*
X154284Y33342D01*
X154203Y33255D01*
X154136Y33157D01*
X154086Y33050D01*
X154052Y32936D01*
X154038Y32818D01*
X154041Y32700D01*
X154063Y32583D01*
X154104Y32472D01*
X154161Y32368D01*
X154234Y32274D01*
X154320Y32193D01*
X154418Y32126D01*
X154525Y32075D01*
X154639Y32042D01*
X154757Y32027D01*
X154876Y32031D01*
X154992Y32053D01*
X155103Y32096D01*
X155399Y32217D01*
X155707Y32306D01*
X156021Y32366D01*
X156340Y32396D01*
X156492D01*
Y25604D01*
X156340D01*
X156021Y25634D01*
X155707Y25694D01*
X155399Y25783D01*
X155101Y25901D01*
X154991Y25943D01*
X154875Y25965D01*
X154757Y25969D01*
X154640Y25954D01*
X154527Y25921D01*
X154420Y25871D01*
X154322Y25804D01*
X154236Y25724D01*
X154164Y25630D01*
X154107Y25527D01*
X154067Y25416D01*
X154045Y25300D01*
X154041Y25182D01*
X154056Y25065D01*
X154089Y24951D01*
X154139Y24845D01*
X154206Y24747D01*
X154287Y24661D01*
X154380Y24589D01*
X154484Y24534D01*
X154912Y24359D01*
X155355Y24230D01*
X155809Y24143D01*
X156269Y24100D01*
X156492D01*
Y2000D01*
X152536D01*
Y26560D01*
X152564Y26552D01*
X152682Y26538D01*
X152800Y26541D01*
X152917Y26564D01*
X153028Y26604D01*
X153132Y26661D01*
X153226Y26734D01*
X153307Y26820D01*
X153374Y26918D01*
X153425Y27025D01*
X153458Y27139D01*
X153473Y27257D01*
X153469Y27376D01*
X153447Y27492D01*
X153404Y27603D01*
X153283Y27899D01*
X153194Y28207D01*
X153134Y28521D01*
X153104Y28840D01*
Y29160D01*
X153134Y29479D01*
X153194Y29793D01*
X153283Y30101D01*
X153401Y30399D01*
X153443Y30509D01*
X153465Y30625D01*
X153469Y30743D01*
X153454Y30860D01*
X153421Y30973D01*
X153371Y31080D01*
X153304Y31178D01*
X153224Y31264D01*
X153130Y31336D01*
X153027Y31393D01*
X152916Y31433D01*
X152800Y31455D01*
X152682Y31459D01*
X152565Y31444D01*
X152536Y31436D01*
Y46096D01*
G37*
G36*
Y66096D02*X153024Y65524D01*
X153611Y65024D01*
X154269Y64621D01*
X154981Y64325D01*
X155731Y64145D01*
X156492Y64085D01*
Y53915D01*
X155731Y53855D01*
X154981Y53675D01*
X154269Y53379D01*
X153611Y52976D01*
X153024Y52476D01*
X152536Y51904D01*
Y66096D01*
G37*
G36*
Y73500D02*X154560D01*
X154269Y73379D01*
X153611Y72976D01*
X153024Y72476D01*
X152536Y71904D01*
Y73500D01*
G37*
G36*
X120000D02*X152536D01*
Y71904D01*
X152524Y71889D01*
X152121Y71231D01*
X151825Y70519D01*
X151645Y69769D01*
X151585Y69000D01*
X151645Y68231D01*
X151825Y67481D01*
X152121Y66769D01*
X152524Y66111D01*
X152536Y66096D01*
Y51904D01*
X152524Y51889D01*
X152121Y51231D01*
X151825Y50519D01*
X151645Y49769D01*
X151585Y49000D01*
X151645Y48231D01*
X151825Y47481D01*
X152121Y46769D01*
X152524Y46111D01*
X152536Y46096D01*
Y31436D01*
X152451Y31411D01*
X152345Y31361D01*
X152247Y31294D01*
X152161Y31213D01*
X152089Y31120D01*
X152034Y31016D01*
X151859Y30588D01*
X151730Y30145D01*
X151643Y29691D01*
X151600Y29231D01*
Y28769D01*
X151643Y28309D01*
X151730Y27855D01*
X151859Y27412D01*
X152029Y26982D01*
X152085Y26878D01*
X152158Y26784D01*
X152245Y26703D01*
X152343Y26636D01*
X152450Y26586D01*
X152536Y26560D01*
Y2000D01*
X120000D01*
Y73500D01*
G37*
G36*
X246464Y92500D02*X254500D01*
Y2000D01*
X246464D01*
Y26564D01*
X246549Y26589D01*
X246655Y26639D01*
X246753Y26706D01*
X246839Y26787D01*
X246911Y26880D01*
X246966Y26984D01*
X247141Y27412D01*
X247270Y27855D01*
X247357Y28309D01*
X247400Y28769D01*
Y29231D01*
X247357Y29691D01*
X247270Y30145D01*
X247141Y30588D01*
X246971Y31018D01*
X246915Y31122D01*
X246842Y31216D01*
X246755Y31297D01*
X246657Y31364D01*
X246550Y31414D01*
X246464Y31440D01*
Y46096D01*
X246476Y46111D01*
X246879Y46769D01*
X247175Y47481D01*
X247355Y48231D01*
X247400Y49000D01*
X247355Y49769D01*
X247175Y50519D01*
X246879Y51231D01*
X246476Y51889D01*
X246464Y51904D01*
Y66096D01*
X246476Y66111D01*
X246879Y66769D01*
X247175Y67481D01*
X247355Y68231D01*
X247400Y69000D01*
X247355Y69769D01*
X247175Y70519D01*
X246879Y71231D01*
X246476Y71889D01*
X246464Y71904D01*
Y92500D01*
G37*
G36*
Y51904D02*X245976Y52476D01*
X245389Y52976D01*
X244731Y53379D01*
X244019Y53675D01*
X243269Y53855D01*
X242502Y53915D01*
Y64085D01*
X243269Y64145D01*
X244019Y64325D01*
X244731Y64621D01*
X245389Y65024D01*
X245976Y65524D01*
X246464Y66096D01*
Y51904D01*
G37*
G36*
Y2000D02*X242502D01*
Y24100D01*
X242731D01*
X243191Y24143D01*
X243645Y24230D01*
X244088Y24359D01*
X244518Y24529D01*
X244622Y24585D01*
X244716Y24658D01*
X244797Y24745D01*
X244864Y24843D01*
X244914Y24950D01*
X244948Y25064D01*
X244962Y25182D01*
X244959Y25300D01*
X244936Y25417D01*
X244896Y25528D01*
X244839Y25632D01*
X244766Y25726D01*
X244680Y25807D01*
X244582Y25874D01*
X244475Y25925D01*
X244361Y25958D01*
X244243Y25973D01*
X244124Y25969D01*
X244008Y25947D01*
X243897Y25904D01*
X243601Y25783D01*
X243293Y25694D01*
X242979Y25634D01*
X242660Y25604D01*
X242502D01*
Y32396D01*
X242660D01*
X242979Y32366D01*
X243293Y32306D01*
X243601Y32217D01*
X243899Y32099D01*
X244009Y32057D01*
X244125Y32035D01*
X244243Y32031D01*
X244360Y32046D01*
X244473Y32079D01*
X244580Y32129D01*
X244678Y32196D01*
X244764Y32276D01*
X244836Y32370D01*
X244893Y32473D01*
X244933Y32584D01*
X244955Y32700D01*
X244959Y32818D01*
X244944Y32935D01*
X244911Y33049D01*
X244861Y33155D01*
X244794Y33253D01*
X244713Y33339D01*
X244620Y33411D01*
X244516Y33466D01*
X244088Y33641D01*
X243645Y33770D01*
X243191Y33857D01*
X242731Y33900D01*
X242502D01*
Y44085D01*
X243269Y44145D01*
X244019Y44325D01*
X244731Y44621D01*
X245389Y45024D01*
X245976Y45524D01*
X246464Y46096D01*
Y31440D01*
X246436Y31448D01*
X246318Y31462D01*
X246200Y31459D01*
X246083Y31437D01*
X245972Y31396D01*
X245868Y31339D01*
X245774Y31266D01*
X245693Y31180D01*
X245626Y31082D01*
X245575Y30975D01*
X245542Y30861D01*
X245527Y30743D01*
X245531Y30624D01*
X245553Y30508D01*
X245596Y30397D01*
X245717Y30101D01*
X245806Y29793D01*
X245866Y29479D01*
X245896Y29160D01*
Y28840D01*
X245866Y28521D01*
X245806Y28207D01*
X245717Y27899D01*
X245599Y27601D01*
X245557Y27491D01*
X245535Y27375D01*
X245531Y27257D01*
X245546Y27140D01*
X245579Y27027D01*
X245629Y26920D01*
X245696Y26822D01*
X245776Y26736D01*
X245870Y26664D01*
X245973Y26607D01*
X246084Y26567D01*
X246200Y26545D01*
X246318Y26541D01*
X246435Y26556D01*
X246464Y26564D01*
Y2000D01*
G37*
G36*
X242502Y92500D02*X246464D01*
Y71904D01*
X245976Y72476D01*
X245389Y72976D01*
X244731Y73379D01*
X244019Y73675D01*
X243269Y73855D01*
X242502Y73915D01*
Y92500D01*
G37*
G36*
X238536Y46096D02*X239024Y45524D01*
X239611Y45024D01*
X240269Y44621D01*
X240981Y44325D01*
X241731Y44145D01*
X242500Y44085D01*
X242502Y44085D01*
Y33900D01*
X242269D01*
X241809Y33857D01*
X241355Y33770D01*
X240912Y33641D01*
X240482Y33471D01*
X240378Y33415D01*
X240284Y33342D01*
X240203Y33255D01*
X240136Y33157D01*
X240086Y33050D01*
X240052Y32936D01*
X240038Y32818D01*
X240041Y32700D01*
X240063Y32583D01*
X240104Y32472D01*
X240161Y32368D01*
X240234Y32274D01*
X240320Y32193D01*
X240418Y32126D01*
X240525Y32075D01*
X240639Y32042D01*
X240757Y32027D01*
X240876Y32031D01*
X240992Y32053D01*
X241103Y32096D01*
X241399Y32217D01*
X241707Y32306D01*
X242021Y32366D01*
X242340Y32396D01*
X242502D01*
Y25604D01*
X242340D01*
X242021Y25634D01*
X241707Y25694D01*
X241399Y25783D01*
X241101Y25901D01*
X240991Y25943D01*
X240875Y25965D01*
X240757Y25969D01*
X240640Y25954D01*
X240527Y25921D01*
X240420Y25871D01*
X240322Y25804D01*
X240236Y25724D01*
X240164Y25630D01*
X240107Y25527D01*
X240067Y25416D01*
X240045Y25300D01*
X240041Y25182D01*
X240056Y25065D01*
X240089Y24951D01*
X240139Y24845D01*
X240206Y24747D01*
X240287Y24661D01*
X240380Y24589D01*
X240484Y24534D01*
X240912Y24359D01*
X241355Y24230D01*
X241809Y24143D01*
X242269Y24100D01*
X242502D01*
Y2000D01*
X238536D01*
Y26560D01*
X238564Y26552D01*
X238682Y26538D01*
X238800Y26541D01*
X238917Y26564D01*
X239028Y26604D01*
X239132Y26661D01*
X239226Y26734D01*
X239307Y26820D01*
X239374Y26918D01*
X239425Y27025D01*
X239458Y27139D01*
X239473Y27257D01*
X239469Y27376D01*
X239447Y27492D01*
X239404Y27603D01*
X239283Y27899D01*
X239194Y28207D01*
X239134Y28521D01*
X239104Y28840D01*
Y29160D01*
X239134Y29479D01*
X239194Y29793D01*
X239283Y30101D01*
X239401Y30399D01*
X239443Y30509D01*
X239465Y30625D01*
X239469Y30743D01*
X239454Y30860D01*
X239421Y30973D01*
X239371Y31080D01*
X239304Y31178D01*
X239224Y31264D01*
X239130Y31336D01*
X239027Y31393D01*
X238916Y31433D01*
X238800Y31455D01*
X238682Y31459D01*
X238565Y31444D01*
X238536Y31436D01*
Y46096D01*
G37*
G36*
Y66096D02*X239024Y65524D01*
X239611Y65024D01*
X240269Y64621D01*
X240981Y64325D01*
X241731Y64145D01*
X242500Y64085D01*
X242502Y64085D01*
Y53915D01*
X242500Y53915D01*
X241731Y53855D01*
X240981Y53675D01*
X240269Y53379D01*
X239611Y52976D01*
X239024Y52476D01*
X238536Y51904D01*
Y66096D01*
G37*
G36*
Y92500D02*X242502D01*
Y73915D01*
X242500Y73915D01*
X241731Y73855D01*
X240981Y73675D01*
X240269Y73379D01*
X239611Y72976D01*
X239024Y72476D01*
X238536Y71904D01*
Y92500D01*
G37*
G36*
X216464D02*X238536D01*
Y71904D01*
X238524Y71889D01*
X238121Y71231D01*
X237825Y70519D01*
X237645Y69769D01*
X237585Y69000D01*
X237645Y68231D01*
X237825Y67481D01*
X238121Y66769D01*
X238524Y66111D01*
X238536Y66096D01*
Y51904D01*
X238524Y51889D01*
X238121Y51231D01*
X237825Y50519D01*
X237645Y49769D01*
X237585Y49000D01*
X237645Y48231D01*
X237825Y47481D01*
X238121Y46769D01*
X238524Y46111D01*
X238536Y46096D01*
Y31436D01*
X238451Y31411D01*
X238345Y31361D01*
X238247Y31294D01*
X238161Y31213D01*
X238089Y31120D01*
X238034Y31016D01*
X237859Y30588D01*
X237730Y30145D01*
X237643Y29691D01*
X237600Y29231D01*
Y28769D01*
X237643Y28309D01*
X237730Y27855D01*
X237859Y27412D01*
X238029Y26982D01*
X238085Y26878D01*
X238158Y26784D01*
X238245Y26703D01*
X238343Y26636D01*
X238450Y26586D01*
X238536Y26560D01*
Y2000D01*
X216464D01*
Y26564D01*
X216549Y26589D01*
X216655Y26639D01*
X216753Y26706D01*
X216839Y26787D01*
X216911Y26880D01*
X216966Y26984D01*
X217141Y27412D01*
X217270Y27855D01*
X217357Y28309D01*
X217400Y28769D01*
Y29231D01*
X217357Y29691D01*
X217270Y30145D01*
X217141Y30588D01*
X216971Y31018D01*
X216915Y31122D01*
X216842Y31216D01*
X216755Y31297D01*
X216657Y31364D01*
X216550Y31414D01*
X216464Y31440D01*
Y46096D01*
X216476Y46111D01*
X216879Y46769D01*
X217175Y47481D01*
X217355Y48231D01*
X217400Y49000D01*
X217355Y49769D01*
X217175Y50519D01*
X216879Y51231D01*
X216476Y51889D01*
X216464Y51904D01*
Y66096D01*
X216476Y66111D01*
X216879Y66769D01*
X217175Y67481D01*
X217355Y68231D01*
X217400Y69000D01*
X217355Y69769D01*
X217175Y70519D01*
X216879Y71231D01*
X216476Y71889D01*
X216464Y71904D01*
Y92500D01*
G37*
G36*
Y51904D02*X215976Y52476D01*
X215500Y52882D01*
Y65118D01*
X215976Y65524D01*
X216464Y66096D01*
Y51904D01*
G37*
G36*
Y2000D02*X215500D01*
Y45118D01*
X215976Y45524D01*
X216464Y46096D01*
Y31440D01*
X216436Y31448D01*
X216318Y31462D01*
X216200Y31459D01*
X216083Y31437D01*
X215972Y31396D01*
X215868Y31339D01*
X215774Y31266D01*
X215693Y31180D01*
X215626Y31082D01*
X215575Y30975D01*
X215542Y30861D01*
X215527Y30743D01*
X215531Y30624D01*
X215553Y30508D01*
X215596Y30397D01*
X215717Y30101D01*
X215806Y29793D01*
X215866Y29479D01*
X215896Y29160D01*
Y28840D01*
X215866Y28521D01*
X215806Y28207D01*
X215717Y27899D01*
X215599Y27601D01*
X215557Y27491D01*
X215535Y27375D01*
X215531Y27257D01*
X215546Y27140D01*
X215579Y27027D01*
X215629Y26920D01*
X215696Y26822D01*
X215776Y26736D01*
X215870Y26664D01*
X215973Y26607D01*
X216084Y26567D01*
X216200Y26545D01*
X216318Y26541D01*
X216435Y26556D01*
X216464Y26564D01*
Y2000D01*
G37*
G36*
X215500Y92500D02*X216464D01*
Y71904D01*
X215976Y72476D01*
X215500Y72882D01*
Y92500D01*
G37*
G36*
X55000Y187000D02*X72000D01*
Y148000D01*
X55000D01*
Y187000D01*
G37*
G36*
X36000Y195000D02*X82500D01*
Y188500D01*
X36000D01*
Y195000D01*
G37*
G36*
X53500Y161000D02*X44500D01*
Y187000D01*
X53500D01*
Y161000D01*
G37*
G36*
X33916Y97493D02*X33951Y97338D01*
X34025Y96796D01*
X34050Y96250D01*
X34025Y95704D01*
X33951Y95162D01*
X33916Y95007D01*
Y97493D01*
G37*
G36*
Y139993D02*X33951Y139838D01*
X34025Y139296D01*
X34050Y138750D01*
X34025Y138204D01*
X33951Y137662D01*
X33916Y137507D01*
Y139993D01*
G37*
G36*
X54416Y97493D02*X54451Y97338D01*
X54525Y96796D01*
X54550Y96250D01*
X54525Y95704D01*
X54451Y95162D01*
X54416Y95007D01*
Y97493D01*
G37*
G36*
Y139993D02*X54451Y139838D01*
X54525Y139296D01*
X54550Y138750D01*
X54525Y138204D01*
X54451Y137662D01*
X54416Y137507D01*
Y139993D01*
G37*
G36*
X74916Y97493D02*X74951Y97338D01*
X75025Y96796D01*
X75050Y96250D01*
X75025Y95704D01*
X74951Y95162D01*
X74916Y95007D01*
Y97493D01*
G37*
G36*
Y139993D02*X74951Y139838D01*
X75025Y139296D01*
X75050Y138750D01*
X75025Y138204D01*
X74951Y137662D01*
X74916Y137507D01*
Y139993D01*
G37*
G36*
Y152500D02*X84500D01*
Y81000D01*
X74916D01*
Y92419D01*
X75045Y92608D01*
X75349Y93168D01*
X75601Y93754D01*
X75799Y94360D01*
X75942Y94981D01*
X76028Y95613D01*
X76057Y96250D01*
X76028Y96887D01*
X75942Y97519D01*
X75799Y98140D01*
X75601Y98746D01*
X75349Y99332D01*
X75045Y99892D01*
X74916Y100086D01*
Y134919D01*
X75045Y135108D01*
X75349Y135668D01*
X75601Y136254D01*
X75799Y136860D01*
X75942Y137481D01*
X76028Y138113D01*
X76057Y138750D01*
X76028Y139387D01*
X75942Y140019D01*
X75799Y140640D01*
X75601Y141246D01*
X75349Y141832D01*
X75045Y142392D01*
X74916Y142586D01*
Y152500D01*
G37*
G36*
X69003D02*X74916D01*
Y142586D01*
X74691Y142923D01*
X74639Y142984D01*
X74579Y143035D01*
X74511Y143077D01*
X74437Y143107D01*
X74359Y143125D01*
X74280Y143131D01*
X74200Y143124D01*
X74123Y143106D01*
X74050Y143075D01*
X73982Y143033D01*
X73921Y142981D01*
X73870Y142920D01*
X73829Y142852D01*
X73798Y142778D01*
X73780Y142701D01*
X73774Y142621D01*
X73781Y142542D01*
X73800Y142464D01*
X73831Y142391D01*
X73874Y142324D01*
X74182Y141873D01*
X74443Y141392D01*
X74659Y140890D01*
X74829Y140371D01*
X74916Y139993D01*
Y137507D01*
X74829Y137129D01*
X74659Y136610D01*
X74443Y136108D01*
X74182Y135627D01*
X73879Y135172D01*
X73836Y135106D01*
X73806Y135034D01*
X73787Y134957D01*
X73781Y134879D01*
X73786Y134800D01*
X73804Y134724D01*
X73834Y134651D01*
X73875Y134584D01*
X73926Y134524D01*
X73985Y134472D01*
X74052Y134431D01*
X74125Y134400D01*
X74201Y134382D01*
X74280Y134375D01*
X74358Y134381D01*
X74435Y134399D01*
X74508Y134429D01*
X74575Y134470D01*
X74635Y134520D01*
X74685Y134581D01*
X74916Y134919D01*
Y100086D01*
X74691Y100423D01*
X74639Y100484D01*
X74579Y100535D01*
X74511Y100577D01*
X74437Y100607D01*
X74359Y100625D01*
X74280Y100631D01*
X74200Y100624D01*
X74123Y100606D01*
X74050Y100575D01*
X73982Y100533D01*
X73921Y100481D01*
X73870Y100420D01*
X73829Y100352D01*
X73798Y100278D01*
X73780Y100201D01*
X73774Y100121D01*
X73781Y100042D01*
X73800Y99964D01*
X73831Y99891D01*
X73874Y99824D01*
X74182Y99373D01*
X74443Y98892D01*
X74659Y98390D01*
X74829Y97871D01*
X74916Y97493D01*
Y95007D01*
X74829Y94629D01*
X74659Y94110D01*
X74443Y93608D01*
X74182Y93127D01*
X73879Y92672D01*
X73836Y92606D01*
X73806Y92534D01*
X73787Y92457D01*
X73781Y92379D01*
X73786Y92300D01*
X73804Y92224D01*
X73834Y92151D01*
X73875Y92084D01*
X73926Y92024D01*
X73985Y91972D01*
X74052Y91931D01*
X74125Y91900D01*
X74201Y91882D01*
X74280Y91875D01*
X74358Y91881D01*
X74435Y91899D01*
X74508Y91929D01*
X74575Y91970D01*
X74635Y92020D01*
X74685Y92081D01*
X74916Y92419D01*
Y81000D01*
X69003D01*
Y89193D01*
X69637Y89222D01*
X70269Y89308D01*
X70890Y89451D01*
X71496Y89649D01*
X72082Y89901D01*
X72642Y90205D01*
X73173Y90559D01*
X73234Y90611D01*
X73285Y90671D01*
X73327Y90739D01*
X73357Y90813D01*
X73375Y90891D01*
X73381Y90970D01*
X73374Y91050D01*
X73356Y91127D01*
X73325Y91200D01*
X73283Y91268D01*
X73231Y91329D01*
X73170Y91380D01*
X73102Y91421D01*
X73028Y91452D01*
X72951Y91470D01*
X72871Y91476D01*
X72792Y91469D01*
X72714Y91450D01*
X72641Y91419D01*
X72574Y91376D01*
X72123Y91068D01*
X71642Y90807D01*
X71140Y90591D01*
X70621Y90421D01*
X70088Y90299D01*
X69546Y90225D01*
X69003Y90200D01*
Y102300D01*
X69546Y102275D01*
X70088Y102201D01*
X70621Y102079D01*
X71140Y101909D01*
X71642Y101693D01*
X72123Y101432D01*
X72578Y101129D01*
X72644Y101086D01*
X72716Y101056D01*
X72793Y101037D01*
X72871Y101031D01*
X72950Y101036D01*
X73026Y101054D01*
X73099Y101084D01*
X73166Y101125D01*
X73226Y101176D01*
X73278Y101235D01*
X73319Y101302D01*
X73350Y101375D01*
X73368Y101451D01*
X73375Y101530D01*
X73369Y101608D01*
X73351Y101685D01*
X73321Y101758D01*
X73280Y101825D01*
X73230Y101885D01*
X73169Y101935D01*
X72642Y102295D01*
X72082Y102599D01*
X71496Y102851D01*
X70890Y103049D01*
X70269Y103192D01*
X69637Y103278D01*
X69003Y103307D01*
Y131693D01*
X69637Y131722D01*
X70269Y131808D01*
X70890Y131951D01*
X71496Y132149D01*
X72082Y132401D01*
X72642Y132705D01*
X73173Y133059D01*
X73234Y133111D01*
X73285Y133171D01*
X73327Y133239D01*
X73357Y133313D01*
X73375Y133391D01*
X73381Y133470D01*
X73374Y133550D01*
X73356Y133627D01*
X73325Y133700D01*
X73283Y133768D01*
X73231Y133829D01*
X73170Y133880D01*
X73102Y133921D01*
X73028Y133952D01*
X72951Y133970D01*
X72871Y133976D01*
X72792Y133969D01*
X72714Y133950D01*
X72641Y133919D01*
X72574Y133876D01*
X72123Y133568D01*
X71642Y133307D01*
X71140Y133091D01*
X70621Y132921D01*
X70088Y132799D01*
X69546Y132725D01*
X69003Y132700D01*
Y144800D01*
X69546Y144775D01*
X70088Y144701D01*
X70621Y144579D01*
X71140Y144409D01*
X71642Y144193D01*
X72123Y143932D01*
X72578Y143629D01*
X72644Y143586D01*
X72716Y143556D01*
X72793Y143537D01*
X72871Y143531D01*
X72950Y143536D01*
X73026Y143554D01*
X73099Y143584D01*
X73166Y143625D01*
X73226Y143676D01*
X73278Y143735D01*
X73319Y143802D01*
X73350Y143875D01*
X73368Y143951D01*
X73375Y144030D01*
X73369Y144108D01*
X73351Y144185D01*
X73321Y144258D01*
X73280Y144325D01*
X73230Y144385D01*
X73169Y144435D01*
X72642Y144795D01*
X72082Y145099D01*
X71496Y145351D01*
X70890Y145549D01*
X70269Y145692D01*
X69637Y145778D01*
X69003Y145807D01*
Y152500D01*
G37*
G36*
X63084D02*X69003D01*
Y145807D01*
X69000Y145807D01*
X68363Y145778D01*
X67731Y145692D01*
X67110Y145549D01*
X66504Y145351D01*
X65918Y145099D01*
X65358Y144795D01*
X64827Y144441D01*
X64766Y144389D01*
X64715Y144329D01*
X64673Y144261D01*
X64643Y144187D01*
X64625Y144109D01*
X64619Y144030D01*
X64626Y143950D01*
X64644Y143873D01*
X64675Y143800D01*
X64717Y143732D01*
X64769Y143671D01*
X64830Y143620D01*
X64898Y143579D01*
X64972Y143548D01*
X65049Y143530D01*
X65129Y143524D01*
X65208Y143531D01*
X65286Y143550D01*
X65359Y143581D01*
X65426Y143624D01*
X65877Y143932D01*
X66358Y144193D01*
X66860Y144409D01*
X67379Y144579D01*
X67912Y144701D01*
X68454Y144775D01*
X69000Y144800D01*
X69003Y144800D01*
Y132700D01*
X69000Y132700D01*
X68454Y132725D01*
X67912Y132799D01*
X67379Y132921D01*
X66860Y133091D01*
X66358Y133307D01*
X65877Y133568D01*
X65422Y133871D01*
X65356Y133914D01*
X65284Y133944D01*
X65207Y133963D01*
X65129Y133969D01*
X65050Y133964D01*
X64974Y133946D01*
X64901Y133916D01*
X64834Y133875D01*
X64774Y133824D01*
X64722Y133765D01*
X64681Y133698D01*
X64650Y133625D01*
X64632Y133549D01*
X64625Y133470D01*
X64631Y133392D01*
X64649Y133315D01*
X64679Y133242D01*
X64720Y133175D01*
X64770Y133115D01*
X64831Y133065D01*
X65358Y132705D01*
X65918Y132401D01*
X66504Y132149D01*
X67110Y131951D01*
X67731Y131808D01*
X68363Y131722D01*
X69000Y131693D01*
X69003Y131693D01*
Y103307D01*
X69000Y103307D01*
X68363Y103278D01*
X67731Y103192D01*
X67110Y103049D01*
X66504Y102851D01*
X65918Y102599D01*
X65358Y102295D01*
X64827Y101941D01*
X64766Y101889D01*
X64715Y101829D01*
X64673Y101761D01*
X64643Y101687D01*
X64625Y101609D01*
X64619Y101530D01*
X64626Y101450D01*
X64644Y101373D01*
X64675Y101300D01*
X64717Y101232D01*
X64769Y101171D01*
X64830Y101120D01*
X64898Y101079D01*
X64972Y101048D01*
X65049Y101030D01*
X65129Y101024D01*
X65208Y101031D01*
X65286Y101050D01*
X65359Y101081D01*
X65426Y101124D01*
X65877Y101432D01*
X66358Y101693D01*
X66860Y101909D01*
X67379Y102079D01*
X67912Y102201D01*
X68454Y102275D01*
X69000Y102300D01*
X69003Y102300D01*
Y90200D01*
X69000Y90200D01*
X68454Y90225D01*
X67912Y90299D01*
X67379Y90421D01*
X66860Y90591D01*
X66358Y90807D01*
X65877Y91068D01*
X65422Y91371D01*
X65356Y91414D01*
X65284Y91444D01*
X65207Y91463D01*
X65129Y91469D01*
X65050Y91464D01*
X64974Y91446D01*
X64901Y91416D01*
X64834Y91375D01*
X64774Y91324D01*
X64722Y91265D01*
X64681Y91198D01*
X64650Y91125D01*
X64632Y91049D01*
X64625Y90970D01*
X64631Y90892D01*
X64649Y90815D01*
X64679Y90742D01*
X64720Y90675D01*
X64770Y90615D01*
X64831Y90565D01*
X65358Y90205D01*
X65918Y89901D01*
X66504Y89649D01*
X67110Y89451D01*
X67731Y89308D01*
X68363Y89222D01*
X69000Y89193D01*
X69003Y89193D01*
Y81000D01*
X63084D01*
Y92414D01*
X63309Y92077D01*
X63361Y92016D01*
X63421Y91965D01*
X63489Y91923D01*
X63563Y91893D01*
X63641Y91875D01*
X63720Y91869D01*
X63800Y91876D01*
X63877Y91894D01*
X63950Y91925D01*
X64018Y91967D01*
X64079Y92019D01*
X64130Y92080D01*
X64171Y92148D01*
X64202Y92222D01*
X64220Y92299D01*
X64226Y92379D01*
X64219Y92458D01*
X64200Y92536D01*
X64169Y92609D01*
X64126Y92676D01*
X63818Y93127D01*
X63557Y93608D01*
X63341Y94110D01*
X63171Y94629D01*
X63084Y95007D01*
Y97493D01*
X63171Y97871D01*
X63341Y98390D01*
X63557Y98892D01*
X63818Y99373D01*
X64121Y99828D01*
X64164Y99894D01*
X64194Y99966D01*
X64213Y100043D01*
X64219Y100121D01*
X64214Y100200D01*
X64196Y100276D01*
X64166Y100349D01*
X64125Y100416D01*
X64074Y100476D01*
X64015Y100528D01*
X63948Y100569D01*
X63875Y100600D01*
X63799Y100618D01*
X63720Y100625D01*
X63642Y100619D01*
X63565Y100601D01*
X63492Y100571D01*
X63425Y100530D01*
X63365Y100480D01*
X63315Y100419D01*
X63084Y100081D01*
Y134914D01*
X63309Y134577D01*
X63361Y134516D01*
X63421Y134465D01*
X63489Y134423D01*
X63563Y134393D01*
X63641Y134375D01*
X63720Y134369D01*
X63800Y134376D01*
X63877Y134394D01*
X63950Y134425D01*
X64018Y134467D01*
X64079Y134519D01*
X64130Y134580D01*
X64171Y134648D01*
X64202Y134722D01*
X64220Y134799D01*
X64226Y134879D01*
X64219Y134958D01*
X64200Y135036D01*
X64169Y135109D01*
X64126Y135176D01*
X63818Y135627D01*
X63557Y136108D01*
X63341Y136610D01*
X63171Y137129D01*
X63084Y137507D01*
Y139993D01*
X63171Y140371D01*
X63341Y140890D01*
X63557Y141392D01*
X63818Y141873D01*
X64121Y142328D01*
X64164Y142394D01*
X64194Y142466D01*
X64213Y142543D01*
X64219Y142621D01*
X64214Y142700D01*
X64196Y142776D01*
X64166Y142849D01*
X64125Y142916D01*
X64074Y142976D01*
X64015Y143028D01*
X63948Y143069D01*
X63875Y143100D01*
X63799Y143118D01*
X63720Y143125D01*
X63642Y143119D01*
X63565Y143101D01*
X63492Y143071D01*
X63425Y143030D01*
X63365Y142980D01*
X63315Y142919D01*
X63084Y142581D01*
Y152500D01*
G37*
G36*
Y95007D02*X63049Y95162D01*
X62975Y95704D01*
X62950Y96250D01*
X62975Y96796D01*
X63049Y97338D01*
X63084Y97493D01*
Y95007D01*
G37*
G36*
Y137507D02*X63049Y137662D01*
X62975Y138204D01*
X62950Y138750D01*
X62975Y139296D01*
X63049Y139838D01*
X63084Y139993D01*
Y137507D01*
G37*
G36*
X54416Y152500D02*X63084D01*
Y142581D01*
X62955Y142392D01*
X62651Y141832D01*
X62399Y141246D01*
X62201Y140640D01*
X62058Y140019D01*
X61972Y139387D01*
X61943Y138750D01*
X61972Y138113D01*
X62058Y137481D01*
X62201Y136860D01*
X62399Y136254D01*
X62651Y135668D01*
X62955Y135108D01*
X63084Y134914D01*
Y100081D01*
X62955Y99892D01*
X62651Y99332D01*
X62399Y98746D01*
X62201Y98140D01*
X62058Y97519D01*
X61972Y96887D01*
X61943Y96250D01*
X61972Y95613D01*
X62058Y94981D01*
X62201Y94360D01*
X62399Y93754D01*
X62651Y93168D01*
X62955Y92608D01*
X63084Y92414D01*
Y81000D01*
X54416D01*
Y92419D01*
X54545Y92608D01*
X54849Y93168D01*
X55101Y93754D01*
X55299Y94360D01*
X55442Y94981D01*
X55528Y95613D01*
X55557Y96250D01*
X55528Y96887D01*
X55442Y97519D01*
X55299Y98140D01*
X55101Y98746D01*
X54849Y99332D01*
X54545Y99892D01*
X54416Y100086D01*
Y134919D01*
X54545Y135108D01*
X54849Y135668D01*
X55101Y136254D01*
X55299Y136860D01*
X55442Y137481D01*
X55528Y138113D01*
X55557Y138750D01*
X55528Y139387D01*
X55442Y140019D01*
X55299Y140640D01*
X55101Y141246D01*
X54849Y141832D01*
X54545Y142392D01*
X54416Y142586D01*
Y152500D01*
G37*
G36*
X48503D02*X54416D01*
Y142586D01*
X54191Y142923D01*
X54139Y142984D01*
X54079Y143035D01*
X54011Y143077D01*
X53937Y143107D01*
X53859Y143125D01*
X53780Y143131D01*
X53700Y143124D01*
X53623Y143106D01*
X53550Y143075D01*
X53482Y143033D01*
X53421Y142981D01*
X53370Y142920D01*
X53329Y142852D01*
X53298Y142778D01*
X53280Y142701D01*
X53274Y142621D01*
X53281Y142542D01*
X53300Y142464D01*
X53331Y142391D01*
X53374Y142324D01*
X53682Y141873D01*
X53943Y141392D01*
X54159Y140890D01*
X54329Y140371D01*
X54416Y139993D01*
Y137507D01*
X54329Y137129D01*
X54159Y136610D01*
X53943Y136108D01*
X53682Y135627D01*
X53379Y135172D01*
X53336Y135106D01*
X53306Y135034D01*
X53287Y134957D01*
X53281Y134879D01*
X53286Y134800D01*
X53304Y134724D01*
X53334Y134651D01*
X53375Y134584D01*
X53426Y134524D01*
X53485Y134472D01*
X53552Y134431D01*
X53625Y134400D01*
X53701Y134382D01*
X53780Y134375D01*
X53858Y134381D01*
X53935Y134399D01*
X54008Y134429D01*
X54075Y134470D01*
X54135Y134520D01*
X54185Y134581D01*
X54416Y134919D01*
Y100086D01*
X54191Y100423D01*
X54139Y100484D01*
X54079Y100535D01*
X54011Y100577D01*
X53937Y100607D01*
X53859Y100625D01*
X53780Y100631D01*
X53700Y100624D01*
X53623Y100606D01*
X53550Y100575D01*
X53482Y100533D01*
X53421Y100481D01*
X53370Y100420D01*
X53329Y100352D01*
X53298Y100278D01*
X53280Y100201D01*
X53274Y100121D01*
X53281Y100042D01*
X53300Y99964D01*
X53331Y99891D01*
X53374Y99824D01*
X53682Y99373D01*
X53943Y98892D01*
X54159Y98390D01*
X54329Y97871D01*
X54416Y97493D01*
Y95007D01*
X54329Y94629D01*
X54159Y94110D01*
X53943Y93608D01*
X53682Y93127D01*
X53379Y92672D01*
X53336Y92606D01*
X53306Y92534D01*
X53287Y92457D01*
X53281Y92379D01*
X53286Y92300D01*
X53304Y92224D01*
X53334Y92151D01*
X53375Y92084D01*
X53426Y92024D01*
X53485Y91972D01*
X53552Y91931D01*
X53625Y91900D01*
X53701Y91882D01*
X53780Y91875D01*
X53858Y91881D01*
X53935Y91899D01*
X54008Y91929D01*
X54075Y91970D01*
X54135Y92020D01*
X54185Y92081D01*
X54416Y92419D01*
Y81000D01*
X48503D01*
Y89193D01*
X49137Y89222D01*
X49769Y89308D01*
X50390Y89451D01*
X50996Y89649D01*
X51582Y89901D01*
X52142Y90205D01*
X52673Y90559D01*
X52734Y90611D01*
X52785Y90671D01*
X52827Y90739D01*
X52857Y90813D01*
X52875Y90891D01*
X52881Y90970D01*
X52874Y91050D01*
X52856Y91127D01*
X52825Y91200D01*
X52783Y91268D01*
X52731Y91329D01*
X52670Y91380D01*
X52602Y91421D01*
X52528Y91452D01*
X52451Y91470D01*
X52371Y91476D01*
X52292Y91469D01*
X52214Y91450D01*
X52141Y91419D01*
X52074Y91376D01*
X51623Y91068D01*
X51142Y90807D01*
X50640Y90591D01*
X50121Y90421D01*
X49588Y90299D01*
X49046Y90225D01*
X48503Y90200D01*
Y102300D01*
X49046Y102275D01*
X49588Y102201D01*
X50121Y102079D01*
X50640Y101909D01*
X51142Y101693D01*
X51623Y101432D01*
X52078Y101129D01*
X52144Y101086D01*
X52216Y101056D01*
X52293Y101037D01*
X52371Y101031D01*
X52450Y101036D01*
X52526Y101054D01*
X52599Y101084D01*
X52666Y101125D01*
X52726Y101176D01*
X52778Y101235D01*
X52819Y101302D01*
X52850Y101375D01*
X52868Y101451D01*
X52875Y101530D01*
X52869Y101608D01*
X52851Y101685D01*
X52821Y101758D01*
X52780Y101825D01*
X52730Y101885D01*
X52669Y101935D01*
X52142Y102295D01*
X51582Y102599D01*
X50996Y102851D01*
X50390Y103049D01*
X49769Y103192D01*
X49137Y103278D01*
X48503Y103307D01*
Y131693D01*
X49137Y131722D01*
X49769Y131808D01*
X50390Y131951D01*
X50996Y132149D01*
X51582Y132401D01*
X52142Y132705D01*
X52673Y133059D01*
X52734Y133111D01*
X52785Y133171D01*
X52827Y133239D01*
X52857Y133313D01*
X52875Y133391D01*
X52881Y133470D01*
X52874Y133550D01*
X52856Y133627D01*
X52825Y133700D01*
X52783Y133768D01*
X52731Y133829D01*
X52670Y133880D01*
X52602Y133921D01*
X52528Y133952D01*
X52451Y133970D01*
X52371Y133976D01*
X52292Y133969D01*
X52214Y133950D01*
X52141Y133919D01*
X52074Y133876D01*
X51623Y133568D01*
X51142Y133307D01*
X50640Y133091D01*
X50121Y132921D01*
X49588Y132799D01*
X49046Y132725D01*
X48503Y132700D01*
Y144800D01*
X49046Y144775D01*
X49588Y144701D01*
X50121Y144579D01*
X50640Y144409D01*
X51142Y144193D01*
X51623Y143932D01*
X52078Y143629D01*
X52144Y143586D01*
X52216Y143556D01*
X52293Y143537D01*
X52371Y143531D01*
X52450Y143536D01*
X52526Y143554D01*
X52599Y143584D01*
X52666Y143625D01*
X52726Y143676D01*
X52778Y143735D01*
X52819Y143802D01*
X52850Y143875D01*
X52868Y143951D01*
X52875Y144030D01*
X52869Y144108D01*
X52851Y144185D01*
X52821Y144258D01*
X52780Y144325D01*
X52730Y144385D01*
X52669Y144435D01*
X52142Y144795D01*
X51582Y145099D01*
X50996Y145351D01*
X50390Y145549D01*
X49769Y145692D01*
X49137Y145778D01*
X48503Y145807D01*
Y152500D01*
G37*
G36*
X42584D02*X48503D01*
Y145807D01*
X48500Y145807D01*
X47863Y145778D01*
X47231Y145692D01*
X46610Y145549D01*
X46004Y145351D01*
X45418Y145099D01*
X44858Y144795D01*
X44327Y144441D01*
X44266Y144389D01*
X44215Y144329D01*
X44173Y144261D01*
X44143Y144187D01*
X44125Y144109D01*
X44119Y144030D01*
X44126Y143950D01*
X44144Y143873D01*
X44175Y143800D01*
X44217Y143732D01*
X44269Y143671D01*
X44330Y143620D01*
X44398Y143579D01*
X44472Y143548D01*
X44549Y143530D01*
X44629Y143524D01*
X44708Y143531D01*
X44786Y143550D01*
X44859Y143581D01*
X44926Y143624D01*
X45377Y143932D01*
X45858Y144193D01*
X46360Y144409D01*
X46879Y144579D01*
X47412Y144701D01*
X47954Y144775D01*
X48500Y144800D01*
X48503Y144800D01*
Y132700D01*
X48500Y132700D01*
X47954Y132725D01*
X47412Y132799D01*
X46879Y132921D01*
X46360Y133091D01*
X45858Y133307D01*
X45377Y133568D01*
X44922Y133871D01*
X44856Y133914D01*
X44784Y133944D01*
X44707Y133963D01*
X44629Y133969D01*
X44550Y133964D01*
X44474Y133946D01*
X44401Y133916D01*
X44334Y133875D01*
X44274Y133824D01*
X44222Y133765D01*
X44181Y133698D01*
X44150Y133625D01*
X44132Y133549D01*
X44125Y133470D01*
X44131Y133392D01*
X44149Y133315D01*
X44179Y133242D01*
X44220Y133175D01*
X44270Y133115D01*
X44331Y133065D01*
X44858Y132705D01*
X45418Y132401D01*
X46004Y132149D01*
X46610Y131951D01*
X47231Y131808D01*
X47863Y131722D01*
X48500Y131693D01*
X48503Y131693D01*
Y103307D01*
X48500Y103307D01*
X47863Y103278D01*
X47231Y103192D01*
X46610Y103049D01*
X46004Y102851D01*
X45418Y102599D01*
X44858Y102295D01*
X44327Y101941D01*
X44266Y101889D01*
X44215Y101829D01*
X44173Y101761D01*
X44143Y101687D01*
X44125Y101609D01*
X44119Y101530D01*
X44126Y101450D01*
X44144Y101373D01*
X44175Y101300D01*
X44217Y101232D01*
X44269Y101171D01*
X44330Y101120D01*
X44398Y101079D01*
X44472Y101048D01*
X44549Y101030D01*
X44629Y101024D01*
X44708Y101031D01*
X44786Y101050D01*
X44859Y101081D01*
X44926Y101124D01*
X45377Y101432D01*
X45858Y101693D01*
X46360Y101909D01*
X46879Y102079D01*
X47412Y102201D01*
X47954Y102275D01*
X48500Y102300D01*
X48503Y102300D01*
Y90200D01*
X48500Y90200D01*
X47954Y90225D01*
X47412Y90299D01*
X46879Y90421D01*
X46360Y90591D01*
X45858Y90807D01*
X45377Y91068D01*
X44922Y91371D01*
X44856Y91414D01*
X44784Y91444D01*
X44707Y91463D01*
X44629Y91469D01*
X44550Y91464D01*
X44474Y91446D01*
X44401Y91416D01*
X44334Y91375D01*
X44274Y91324D01*
X44222Y91265D01*
X44181Y91198D01*
X44150Y91125D01*
X44132Y91049D01*
X44125Y90970D01*
X44131Y90892D01*
X44149Y90815D01*
X44179Y90742D01*
X44220Y90675D01*
X44270Y90615D01*
X44331Y90565D01*
X44858Y90205D01*
X45418Y89901D01*
X46004Y89649D01*
X46610Y89451D01*
X47231Y89308D01*
X47863Y89222D01*
X48500Y89193D01*
X48503Y89193D01*
Y81000D01*
X42584D01*
Y92414D01*
X42809Y92077D01*
X42861Y92016D01*
X42921Y91965D01*
X42989Y91923D01*
X43063Y91893D01*
X43141Y91875D01*
X43220Y91869D01*
X43300Y91876D01*
X43377Y91894D01*
X43450Y91925D01*
X43518Y91967D01*
X43579Y92019D01*
X43630Y92080D01*
X43671Y92148D01*
X43702Y92222D01*
X43720Y92299D01*
X43726Y92379D01*
X43719Y92458D01*
X43700Y92536D01*
X43669Y92609D01*
X43626Y92676D01*
X43318Y93127D01*
X43057Y93608D01*
X42841Y94110D01*
X42671Y94629D01*
X42584Y95007D01*
Y97493D01*
X42671Y97871D01*
X42841Y98390D01*
X43057Y98892D01*
X43318Y99373D01*
X43621Y99828D01*
X43664Y99894D01*
X43694Y99966D01*
X43713Y100043D01*
X43719Y100121D01*
X43714Y100200D01*
X43696Y100276D01*
X43666Y100349D01*
X43625Y100416D01*
X43574Y100476D01*
X43515Y100528D01*
X43448Y100569D01*
X43375Y100600D01*
X43299Y100618D01*
X43220Y100625D01*
X43142Y100619D01*
X43065Y100601D01*
X42992Y100571D01*
X42925Y100530D01*
X42865Y100480D01*
X42815Y100419D01*
X42584Y100081D01*
Y134914D01*
X42809Y134577D01*
X42861Y134516D01*
X42921Y134465D01*
X42989Y134423D01*
X43063Y134393D01*
X43141Y134375D01*
X43220Y134369D01*
X43300Y134376D01*
X43377Y134394D01*
X43450Y134425D01*
X43518Y134467D01*
X43579Y134519D01*
X43630Y134580D01*
X43671Y134648D01*
X43702Y134722D01*
X43720Y134799D01*
X43726Y134879D01*
X43719Y134958D01*
X43700Y135036D01*
X43669Y135109D01*
X43626Y135176D01*
X43318Y135627D01*
X43057Y136108D01*
X42841Y136610D01*
X42671Y137129D01*
X42584Y137507D01*
Y139993D01*
X42671Y140371D01*
X42841Y140890D01*
X43057Y141392D01*
X43318Y141873D01*
X43621Y142328D01*
X43664Y142394D01*
X43694Y142466D01*
X43713Y142543D01*
X43719Y142621D01*
X43714Y142700D01*
X43696Y142776D01*
X43666Y142849D01*
X43625Y142916D01*
X43574Y142976D01*
X43515Y143028D01*
X43448Y143069D01*
X43375Y143100D01*
X43299Y143118D01*
X43220Y143125D01*
X43142Y143119D01*
X43065Y143101D01*
X42992Y143071D01*
X42925Y143030D01*
X42865Y142980D01*
X42815Y142919D01*
X42584Y142581D01*
Y152500D01*
G37*
G36*
Y95007D02*X42549Y95162D01*
X42475Y95704D01*
X42450Y96250D01*
X42475Y96796D01*
X42549Y97338D01*
X42584Y97493D01*
Y95007D01*
G37*
G36*
Y137507D02*X42549Y137662D01*
X42475Y138204D01*
X42450Y138750D01*
X42475Y139296D01*
X42549Y139838D01*
X42584Y139993D01*
Y137507D01*
G37*
G36*
X33916Y152500D02*X42584D01*
Y142581D01*
X42455Y142392D01*
X42151Y141832D01*
X41899Y141246D01*
X41701Y140640D01*
X41558Y140019D01*
X41472Y139387D01*
X41443Y138750D01*
X41472Y138113D01*
X41558Y137481D01*
X41701Y136860D01*
X41899Y136254D01*
X42151Y135668D01*
X42455Y135108D01*
X42584Y134914D01*
Y100081D01*
X42455Y99892D01*
X42151Y99332D01*
X41899Y98746D01*
X41701Y98140D01*
X41558Y97519D01*
X41472Y96887D01*
X41443Y96250D01*
X41472Y95613D01*
X41558Y94981D01*
X41701Y94360D01*
X41899Y93754D01*
X42151Y93168D01*
X42455Y92608D01*
X42584Y92414D01*
Y81000D01*
X33916D01*
Y92419D01*
X34045Y92608D01*
X34349Y93168D01*
X34601Y93754D01*
X34799Y94360D01*
X34942Y94981D01*
X35028Y95613D01*
X35057Y96250D01*
X35028Y96887D01*
X34942Y97519D01*
X34799Y98140D01*
X34601Y98746D01*
X34349Y99332D01*
X34045Y99892D01*
X33916Y100086D01*
Y134919D01*
X34045Y135108D01*
X34349Y135668D01*
X34601Y136254D01*
X34799Y136860D01*
X34942Y137481D01*
X35028Y138113D01*
X35057Y138750D01*
X35028Y139387D01*
X34942Y140019D01*
X34799Y140640D01*
X34601Y141246D01*
X34349Y141832D01*
X34045Y142392D01*
X33916Y142586D01*
Y152500D01*
G37*
G36*
X28003D02*X33916D01*
Y142586D01*
X33691Y142923D01*
X33639Y142984D01*
X33579Y143035D01*
X33511Y143077D01*
X33437Y143107D01*
X33359Y143125D01*
X33280Y143131D01*
X33200Y143124D01*
X33123Y143106D01*
X33050Y143075D01*
X32982Y143033D01*
X32921Y142981D01*
X32870Y142920D01*
X32829Y142852D01*
X32798Y142778D01*
X32780Y142701D01*
X32774Y142621D01*
X32781Y142542D01*
X32800Y142464D01*
X32831Y142391D01*
X32874Y142324D01*
X33182Y141873D01*
X33443Y141392D01*
X33659Y140890D01*
X33829Y140371D01*
X33916Y139993D01*
Y137507D01*
X33829Y137129D01*
X33659Y136610D01*
X33443Y136108D01*
X33182Y135627D01*
X32879Y135172D01*
X32836Y135106D01*
X32806Y135034D01*
X32787Y134957D01*
X32781Y134879D01*
X32786Y134800D01*
X32804Y134724D01*
X32834Y134651D01*
X32875Y134584D01*
X32926Y134524D01*
X32985Y134472D01*
X33052Y134431D01*
X33125Y134400D01*
X33201Y134382D01*
X33280Y134375D01*
X33358Y134381D01*
X33435Y134399D01*
X33508Y134429D01*
X33575Y134470D01*
X33635Y134520D01*
X33685Y134581D01*
X33916Y134919D01*
Y100086D01*
X33691Y100423D01*
X33639Y100484D01*
X33579Y100535D01*
X33511Y100577D01*
X33437Y100607D01*
X33359Y100625D01*
X33280Y100631D01*
X33200Y100624D01*
X33123Y100606D01*
X33050Y100575D01*
X32982Y100533D01*
X32921Y100481D01*
X32870Y100420D01*
X32829Y100352D01*
X32798Y100278D01*
X32780Y100201D01*
X32774Y100121D01*
X32781Y100042D01*
X32800Y99964D01*
X32831Y99891D01*
X32874Y99824D01*
X33182Y99373D01*
X33443Y98892D01*
X33659Y98390D01*
X33829Y97871D01*
X33916Y97493D01*
Y95007D01*
X33829Y94629D01*
X33659Y94110D01*
X33443Y93608D01*
X33182Y93127D01*
X32879Y92672D01*
X32836Y92606D01*
X32806Y92534D01*
X32787Y92457D01*
X32781Y92379D01*
X32786Y92300D01*
X32804Y92224D01*
X32834Y92151D01*
X32875Y92084D01*
X32926Y92024D01*
X32985Y91972D01*
X33052Y91931D01*
X33125Y91900D01*
X33201Y91882D01*
X33280Y91875D01*
X33358Y91881D01*
X33435Y91899D01*
X33508Y91929D01*
X33575Y91970D01*
X33635Y92020D01*
X33685Y92081D01*
X33916Y92419D01*
Y81000D01*
X28003D01*
Y89193D01*
X28637Y89222D01*
X29269Y89308D01*
X29890Y89451D01*
X30496Y89649D01*
X31082Y89901D01*
X31642Y90205D01*
X32173Y90559D01*
X32234Y90611D01*
X32285Y90671D01*
X32327Y90739D01*
X32357Y90813D01*
X32375Y90891D01*
X32381Y90970D01*
X32374Y91050D01*
X32356Y91127D01*
X32325Y91200D01*
X32283Y91268D01*
X32231Y91329D01*
X32170Y91380D01*
X32102Y91421D01*
X32028Y91452D01*
X31951Y91470D01*
X31871Y91476D01*
X31792Y91469D01*
X31714Y91450D01*
X31641Y91419D01*
X31574Y91376D01*
X31123Y91068D01*
X30642Y90807D01*
X30140Y90591D01*
X29621Y90421D01*
X29088Y90299D01*
X28546Y90225D01*
X28003Y90200D01*
Y102300D01*
X28546Y102275D01*
X29088Y102201D01*
X29621Y102079D01*
X30140Y101909D01*
X30642Y101693D01*
X31123Y101432D01*
X31578Y101129D01*
X31644Y101086D01*
X31716Y101056D01*
X31793Y101037D01*
X31871Y101031D01*
X31950Y101036D01*
X32026Y101054D01*
X32099Y101084D01*
X32166Y101125D01*
X32226Y101176D01*
X32278Y101235D01*
X32319Y101302D01*
X32350Y101375D01*
X32368Y101451D01*
X32375Y101530D01*
X32369Y101608D01*
X32351Y101685D01*
X32321Y101758D01*
X32280Y101825D01*
X32230Y101885D01*
X32169Y101935D01*
X31642Y102295D01*
X31082Y102599D01*
X30496Y102851D01*
X29890Y103049D01*
X29269Y103192D01*
X28637Y103278D01*
X28003Y103307D01*
Y131693D01*
X28637Y131722D01*
X29269Y131808D01*
X29890Y131951D01*
X30496Y132149D01*
X31082Y132401D01*
X31642Y132705D01*
X32173Y133059D01*
X32234Y133111D01*
X32285Y133171D01*
X32327Y133239D01*
X32357Y133313D01*
X32375Y133391D01*
X32381Y133470D01*
X32374Y133550D01*
X32356Y133627D01*
X32325Y133700D01*
X32283Y133768D01*
X32231Y133829D01*
X32170Y133880D01*
X32102Y133921D01*
X32028Y133952D01*
X31951Y133970D01*
X31871Y133976D01*
X31792Y133969D01*
X31714Y133950D01*
X31641Y133919D01*
X31574Y133876D01*
X31123Y133568D01*
X30642Y133307D01*
X30140Y133091D01*
X29621Y132921D01*
X29088Y132799D01*
X28546Y132725D01*
X28003Y132700D01*
Y144800D01*
X28546Y144775D01*
X29088Y144701D01*
X29621Y144579D01*
X30140Y144409D01*
X30642Y144193D01*
X31123Y143932D01*
X31578Y143629D01*
X31644Y143586D01*
X31716Y143556D01*
X31793Y143537D01*
X31871Y143531D01*
X31950Y143536D01*
X32026Y143554D01*
X32099Y143584D01*
X32166Y143625D01*
X32226Y143676D01*
X32278Y143735D01*
X32319Y143802D01*
X32350Y143875D01*
X32368Y143951D01*
X32375Y144030D01*
X32369Y144108D01*
X32351Y144185D01*
X32321Y144258D01*
X32280Y144325D01*
X32230Y144385D01*
X32169Y144435D01*
X31642Y144795D01*
X31082Y145099D01*
X30496Y145351D01*
X29890Y145549D01*
X29269Y145692D01*
X28637Y145778D01*
X28003Y145807D01*
Y152500D01*
G37*
G36*
X22084D02*X28003D01*
Y145807D01*
X28000Y145807D01*
X27363Y145778D01*
X26731Y145692D01*
X26110Y145549D01*
X25504Y145351D01*
X24918Y145099D01*
X24358Y144795D01*
X23827Y144441D01*
X23766Y144389D01*
X23715Y144329D01*
X23673Y144261D01*
X23643Y144187D01*
X23625Y144109D01*
X23619Y144030D01*
X23626Y143950D01*
X23644Y143873D01*
X23675Y143800D01*
X23717Y143732D01*
X23769Y143671D01*
X23830Y143620D01*
X23898Y143579D01*
X23972Y143548D01*
X24049Y143530D01*
X24129Y143524D01*
X24208Y143531D01*
X24286Y143550D01*
X24359Y143581D01*
X24426Y143624D01*
X24877Y143932D01*
X25358Y144193D01*
X25860Y144409D01*
X26379Y144579D01*
X26912Y144701D01*
X27454Y144775D01*
X28000Y144800D01*
X28003Y144800D01*
Y132700D01*
X28000Y132700D01*
X27454Y132725D01*
X26912Y132799D01*
X26379Y132921D01*
X25860Y133091D01*
X25358Y133307D01*
X24877Y133568D01*
X24422Y133871D01*
X24356Y133914D01*
X24284Y133944D01*
X24207Y133963D01*
X24129Y133969D01*
X24050Y133964D01*
X23974Y133946D01*
X23901Y133916D01*
X23834Y133875D01*
X23774Y133824D01*
X23722Y133765D01*
X23681Y133698D01*
X23650Y133625D01*
X23632Y133549D01*
X23625Y133470D01*
X23631Y133392D01*
X23649Y133315D01*
X23679Y133242D01*
X23720Y133175D01*
X23770Y133115D01*
X23831Y133065D01*
X24358Y132705D01*
X24918Y132401D01*
X25504Y132149D01*
X26110Y131951D01*
X26731Y131808D01*
X27363Y131722D01*
X28000Y131693D01*
X28003Y131693D01*
Y103307D01*
X28000Y103307D01*
X27363Y103278D01*
X26731Y103192D01*
X26110Y103049D01*
X25504Y102851D01*
X24918Y102599D01*
X24358Y102295D01*
X23827Y101941D01*
X23766Y101889D01*
X23715Y101829D01*
X23673Y101761D01*
X23643Y101687D01*
X23625Y101609D01*
X23619Y101530D01*
X23626Y101450D01*
X23644Y101373D01*
X23675Y101300D01*
X23717Y101232D01*
X23769Y101171D01*
X23830Y101120D01*
X23898Y101079D01*
X23972Y101048D01*
X24049Y101030D01*
X24129Y101024D01*
X24208Y101031D01*
X24286Y101050D01*
X24359Y101081D01*
X24426Y101124D01*
X24877Y101432D01*
X25358Y101693D01*
X25860Y101909D01*
X26379Y102079D01*
X26912Y102201D01*
X27454Y102275D01*
X28000Y102300D01*
X28003Y102300D01*
Y90200D01*
X28000Y90200D01*
X27454Y90225D01*
X26912Y90299D01*
X26379Y90421D01*
X25860Y90591D01*
X25358Y90807D01*
X24877Y91068D01*
X24422Y91371D01*
X24356Y91414D01*
X24284Y91444D01*
X24207Y91463D01*
X24129Y91469D01*
X24050Y91464D01*
X23974Y91446D01*
X23901Y91416D01*
X23834Y91375D01*
X23774Y91324D01*
X23722Y91265D01*
X23681Y91198D01*
X23650Y91125D01*
X23632Y91049D01*
X23625Y90970D01*
X23631Y90892D01*
X23649Y90815D01*
X23679Y90742D01*
X23720Y90675D01*
X23770Y90615D01*
X23831Y90565D01*
X24358Y90205D01*
X24918Y89901D01*
X25504Y89649D01*
X26110Y89451D01*
X26731Y89308D01*
X27363Y89222D01*
X28000Y89193D01*
X28003Y89193D01*
Y81000D01*
X22084D01*
Y92414D01*
X22309Y92077D01*
X22361Y92016D01*
X22421Y91965D01*
X22489Y91923D01*
X22563Y91893D01*
X22641Y91875D01*
X22720Y91869D01*
X22800Y91876D01*
X22877Y91894D01*
X22950Y91925D01*
X23018Y91967D01*
X23079Y92019D01*
X23130Y92080D01*
X23171Y92148D01*
X23202Y92222D01*
X23220Y92299D01*
X23226Y92379D01*
X23219Y92458D01*
X23200Y92536D01*
X23169Y92609D01*
X23126Y92676D01*
X22818Y93127D01*
X22557Y93608D01*
X22341Y94110D01*
X22171Y94629D01*
X22084Y95007D01*
Y97493D01*
X22171Y97871D01*
X22341Y98390D01*
X22557Y98892D01*
X22818Y99373D01*
X23121Y99828D01*
X23164Y99894D01*
X23194Y99966D01*
X23213Y100043D01*
X23219Y100121D01*
X23214Y100200D01*
X23196Y100276D01*
X23166Y100349D01*
X23125Y100416D01*
X23074Y100476D01*
X23015Y100528D01*
X22948Y100569D01*
X22875Y100600D01*
X22799Y100618D01*
X22720Y100625D01*
X22642Y100619D01*
X22565Y100601D01*
X22492Y100571D01*
X22425Y100530D01*
X22365Y100480D01*
X22315Y100419D01*
X22084Y100081D01*
Y134914D01*
X22309Y134577D01*
X22361Y134516D01*
X22421Y134465D01*
X22489Y134423D01*
X22563Y134393D01*
X22641Y134375D01*
X22720Y134369D01*
X22800Y134376D01*
X22877Y134394D01*
X22950Y134425D01*
X23018Y134467D01*
X23079Y134519D01*
X23130Y134580D01*
X23171Y134648D01*
X23202Y134722D01*
X23220Y134799D01*
X23226Y134879D01*
X23219Y134958D01*
X23200Y135036D01*
X23169Y135109D01*
X23126Y135176D01*
X22818Y135627D01*
X22557Y136108D01*
X22341Y136610D01*
X22171Y137129D01*
X22084Y137507D01*
Y139993D01*
X22171Y140371D01*
X22341Y140890D01*
X22557Y141392D01*
X22818Y141873D01*
X23121Y142328D01*
X23164Y142394D01*
X23194Y142466D01*
X23213Y142543D01*
X23219Y142621D01*
X23214Y142700D01*
X23196Y142776D01*
X23166Y142849D01*
X23125Y142916D01*
X23074Y142976D01*
X23015Y143028D01*
X22948Y143069D01*
X22875Y143100D01*
X22799Y143118D01*
X22720Y143125D01*
X22642Y143119D01*
X22565Y143101D01*
X22492Y143071D01*
X22425Y143030D01*
X22365Y142980D01*
X22315Y142919D01*
X22084Y142581D01*
Y152500D01*
G37*
G36*
Y95007D02*X22049Y95162D01*
X21975Y95704D01*
X21950Y96250D01*
X21975Y96796D01*
X22049Y97338D01*
X22084Y97493D01*
Y95007D01*
G37*
G36*
Y137507D02*X22049Y137662D01*
X21975Y138204D01*
X21950Y138750D01*
X21975Y139296D01*
X22049Y139838D01*
X22084Y139993D01*
Y137507D01*
G37*
G36*
X15000Y152500D02*X22084D01*
Y142581D01*
X21955Y142392D01*
X21651Y141832D01*
X21399Y141246D01*
X21201Y140640D01*
X21058Y140019D01*
X20972Y139387D01*
X20943Y138750D01*
X20972Y138113D01*
X21058Y137481D01*
X21201Y136860D01*
X21399Y136254D01*
X21651Y135668D01*
X21955Y135108D01*
X22084Y134914D01*
Y100081D01*
X21955Y99892D01*
X21651Y99332D01*
X21399Y98746D01*
X21201Y98140D01*
X21058Y97519D01*
X20972Y96887D01*
X20943Y96250D01*
X20972Y95613D01*
X21058Y94981D01*
X21201Y94360D01*
X21399Y93754D01*
X21651Y93168D01*
X21955Y92608D01*
X22084Y92414D01*
Y81000D01*
X15000D01*
Y152500D01*
G37*
G36*
X55000Y85500D02*X72000D01*
Y46500D01*
X55000D01*
Y85500D01*
G37*
G36*
X53500Y60500D02*X27250D01*
Y65748D01*
X27368Y65757D01*
X27482Y65785D01*
X27592Y65830D01*
X27692Y65891D01*
X27782Y65968D01*
X27859Y66058D01*
X27920Y66158D01*
X27965Y66268D01*
X27993Y66382D01*
X28000Y66500D01*
Y71500D01*
X27993Y71618D01*
X27965Y71732D01*
X27920Y71842D01*
X27859Y71942D01*
X27782Y72032D01*
X27692Y72109D01*
X27592Y72170D01*
X27482Y72215D01*
X27368Y72243D01*
X27250Y72252D01*
Y79500D01*
X53500D01*
Y60500D01*
G37*
G36*
X27250D02*X22500D01*
Y63500D01*
X25000D01*
X25118Y63507D01*
X25232Y63535D01*
X25342Y63580D01*
X25442Y63641D01*
X25532Y63718D01*
X25609Y63808D01*
X25670Y63908D01*
X25715Y64018D01*
X25743Y64132D01*
X25752Y64250D01*
X25743Y64368D01*
X25715Y64482D01*
X25670Y64592D01*
X25609Y64692D01*
X25532Y64782D01*
X25442Y64859D01*
X25342Y64920D01*
X25232Y64965D01*
X25118Y64993D01*
X25000Y65000D01*
X22500D01*
Y73000D01*
X25000D01*
X25118Y73007D01*
X25232Y73035D01*
X25342Y73080D01*
X25442Y73141D01*
X25532Y73218D01*
X25609Y73308D01*
X25670Y73408D01*
X25715Y73518D01*
X25743Y73632D01*
X25752Y73750D01*
X25743Y73868D01*
X25715Y73982D01*
X25670Y74092D01*
X25609Y74192D01*
X25532Y74282D01*
X25442Y74359D01*
X25342Y74420D01*
X25232Y74465D01*
X25118Y74493D01*
X25000Y74500D01*
X22500D01*
Y79500D01*
X27250D01*
Y72252D01*
X27132Y72243D01*
X27018Y72215D01*
X26908Y72170D01*
X26808Y72109D01*
X26718Y72032D01*
X26641Y71942D01*
X26580Y71842D01*
X26535Y71732D01*
X26507Y71618D01*
X26500Y71500D01*
Y66500D01*
X26507Y66382D01*
X26535Y66268D01*
X26580Y66158D01*
X26641Y66058D01*
X26718Y65968D01*
X26808Y65891D01*
X26908Y65830D01*
X27018Y65785D01*
X27132Y65757D01*
X27250Y65748D01*
Y60500D01*
G37*
G36*
X22500D02*X17750D01*
Y65748D01*
X17868Y65757D01*
X17982Y65785D01*
X18092Y65830D01*
X18192Y65891D01*
X18282Y65968D01*
X18359Y66058D01*
X18420Y66158D01*
X18465Y66268D01*
X18493Y66382D01*
X18500Y66500D01*
Y71500D01*
X18493Y71618D01*
X18465Y71732D01*
X18420Y71842D01*
X18359Y71942D01*
X18282Y72032D01*
X18192Y72109D01*
X18092Y72170D01*
X17982Y72215D01*
X17868Y72243D01*
X17750Y72252D01*
Y79500D01*
X22500D01*
Y74500D01*
X20000D01*
X19882Y74493D01*
X19768Y74465D01*
X19658Y74420D01*
X19558Y74359D01*
X19468Y74282D01*
X19391Y74192D01*
X19330Y74092D01*
X19285Y73982D01*
X19257Y73868D01*
X19248Y73750D01*
X19257Y73632D01*
X19285Y73518D01*
X19330Y73408D01*
X19391Y73308D01*
X19468Y73218D01*
X19558Y73141D01*
X19658Y73080D01*
X19768Y73035D01*
X19882Y73007D01*
X20000Y73000D01*
X22500D01*
Y65000D01*
X20000D01*
X19882Y64993D01*
X19768Y64965D01*
X19658Y64920D01*
X19558Y64859D01*
X19468Y64782D01*
X19391Y64692D01*
X19330Y64592D01*
X19285Y64482D01*
X19257Y64368D01*
X19248Y64250D01*
X19257Y64132D01*
X19285Y64018D01*
X19330Y63908D01*
X19391Y63808D01*
X19468Y63718D01*
X19558Y63641D01*
X19658Y63580D01*
X19768Y63535D01*
X19882Y63507D01*
X20000Y63500D01*
X22500D01*
Y60500D01*
G37*
G36*
X17750D02*X15000D01*
Y79500D01*
X17750D01*
Y72252D01*
X17632Y72243D01*
X17518Y72215D01*
X17408Y72170D01*
X17308Y72109D01*
X17218Y72032D01*
X17141Y71942D01*
X17080Y71842D01*
X17035Y71732D01*
X17007Y71618D01*
X17000Y71500D01*
Y66500D01*
X17007Y66382D01*
X17035Y66268D01*
X17080Y66158D01*
X17141Y66058D01*
X17218Y65968D01*
X17308Y65891D01*
X17408Y65830D01*
X17518Y65785D01*
X17632Y65757D01*
X17750Y65748D01*
Y60500D01*
G37*
G36*
X44500Y76500D02*X53500D01*
Y46500D01*
X44500D01*
Y76500D01*
G37*
G36*
X26993Y172500D02*X53500D01*
Y154000D01*
X26993D01*
Y161645D01*
X27078Y161681D01*
X27179Y161743D01*
X27269Y161819D01*
X27345Y161909D01*
X27405Y162011D01*
X27622Y162480D01*
X27789Y162969D01*
X27909Y163472D01*
X27982Y163984D01*
X28006Y164500D01*
X27982Y165016D01*
X27909Y165528D01*
X27789Y166031D01*
X27622Y166520D01*
X27410Y166992D01*
X27349Y167093D01*
X27272Y167184D01*
X27182Y167261D01*
X27080Y167323D01*
X26993Y167360D01*
Y172500D01*
G37*
G36*
X22502D02*X26993D01*
Y167360D01*
X26971Y167369D01*
X26855Y167397D01*
X26737Y167406D01*
X26619Y167397D01*
X26503Y167370D01*
X26393Y167324D01*
X26292Y167262D01*
X26202Y167186D01*
X26124Y167095D01*
X26062Y166994D01*
X26016Y166885D01*
X25989Y166769D01*
X25979Y166651D01*
X25988Y166532D01*
X26016Y166417D01*
X26063Y166308D01*
X26221Y165968D01*
X26342Y165612D01*
X26430Y165247D01*
X26482Y164875D01*
X26500Y164500D01*
X26482Y164125D01*
X26430Y163753D01*
X26342Y163388D01*
X26221Y163032D01*
X26067Y162690D01*
X26020Y162582D01*
X25993Y162467D01*
X25983Y162349D01*
X25993Y162232D01*
X26021Y162117D01*
X26066Y162008D01*
X26128Y161907D01*
X26205Y161818D01*
X26295Y161741D01*
X26395Y161680D01*
X26504Y161635D01*
X26619Y161607D01*
X26737Y161598D01*
X26855Y161608D01*
X26969Y161635D01*
X26993Y161645D01*
Y154000D01*
X22502D01*
Y158994D01*
X23016Y159018D01*
X23528Y159091D01*
X24031Y159211D01*
X24520Y159378D01*
X24992Y159590D01*
X25093Y159651D01*
X25184Y159728D01*
X25261Y159818D01*
X25323Y159920D01*
X25369Y160029D01*
X25397Y160145D01*
X25406Y160263D01*
X25397Y160381D01*
X25370Y160497D01*
X25324Y160607D01*
X25262Y160708D01*
X25186Y160798D01*
X25095Y160876D01*
X24994Y160938D01*
X24885Y160984D01*
X24769Y161011D01*
X24651Y161021D01*
X24532Y161012D01*
X24417Y160984D01*
X24308Y160937D01*
X23968Y160779D01*
X23612Y160658D01*
X23247Y160570D01*
X22875Y160518D01*
X22502Y160500D01*
Y168500D01*
X22875Y168482D01*
X23247Y168430D01*
X23612Y168342D01*
X23968Y168221D01*
X24310Y168067D01*
X24418Y168020D01*
X24533Y167993D01*
X24651Y167983D01*
X24768Y167993D01*
X24883Y168021D01*
X24992Y168066D01*
X25093Y168128D01*
X25182Y168205D01*
X25259Y168295D01*
X25320Y168395D01*
X25365Y168504D01*
X25393Y168619D01*
X25402Y168737D01*
X25392Y168855D01*
X25365Y168969D01*
X25319Y169078D01*
X25257Y169179D01*
X25181Y169269D01*
X25091Y169345D01*
X24989Y169405D01*
X24520Y169622D01*
X24031Y169789D01*
X23528Y169909D01*
X23016Y169982D01*
X22502Y170006D01*
Y172500D01*
G37*
G36*
X18007D02*X22502D01*
Y170006D01*
X22500Y170006D01*
X21984Y169982D01*
X21472Y169909D01*
X20969Y169789D01*
X20480Y169622D01*
X20008Y169410D01*
X19907Y169349D01*
X19816Y169272D01*
X19739Y169182D01*
X19677Y169080D01*
X19631Y168971D01*
X19603Y168855D01*
X19594Y168737D01*
X19603Y168619D01*
X19630Y168503D01*
X19676Y168393D01*
X19738Y168292D01*
X19814Y168202D01*
X19905Y168124D01*
X20006Y168062D01*
X20115Y168016D01*
X20231Y167989D01*
X20349Y167979D01*
X20468Y167988D01*
X20583Y168016D01*
X20692Y168063D01*
X21032Y168221D01*
X21388Y168342D01*
X21753Y168430D01*
X22125Y168482D01*
X22500Y168500D01*
X22502Y168500D01*
Y160500D01*
X22500Y160500D01*
X22125Y160518D01*
X21753Y160570D01*
X21388Y160658D01*
X21032Y160779D01*
X20690Y160933D01*
X20582Y160980D01*
X20467Y161007D01*
X20349Y161017D01*
X20232Y161007D01*
X20117Y160979D01*
X20008Y160934D01*
X19907Y160872D01*
X19818Y160795D01*
X19741Y160705D01*
X19680Y160605D01*
X19635Y160496D01*
X19607Y160381D01*
X19598Y160263D01*
X19608Y160145D01*
X19635Y160031D01*
X19681Y159922D01*
X19743Y159821D01*
X19819Y159731D01*
X19909Y159655D01*
X20011Y159595D01*
X20480Y159378D01*
X20969Y159211D01*
X21472Y159091D01*
X21984Y159018D01*
X22500Y158994D01*
X22502Y158994D01*
Y154000D01*
X18007D01*
Y161640D01*
X18029Y161631D01*
X18145Y161603D01*
X18263Y161594D01*
X18381Y161603D01*
X18497Y161630D01*
X18607Y161676D01*
X18708Y161738D01*
X18798Y161814D01*
X18876Y161905D01*
X18938Y162006D01*
X18984Y162115D01*
X19011Y162231D01*
X19021Y162349D01*
X19012Y162468D01*
X18984Y162583D01*
X18937Y162692D01*
X18779Y163032D01*
X18658Y163388D01*
X18570Y163753D01*
X18518Y164125D01*
X18500Y164500D01*
X18518Y164875D01*
X18570Y165247D01*
X18658Y165612D01*
X18779Y165968D01*
X18933Y166310D01*
X18980Y166418D01*
X19007Y166533D01*
X19017Y166651D01*
X19007Y166768D01*
X18979Y166883D01*
X18934Y166992D01*
X18872Y167093D01*
X18795Y167182D01*
X18705Y167259D01*
X18605Y167320D01*
X18496Y167365D01*
X18381Y167393D01*
X18263Y167402D01*
X18145Y167392D01*
X18031Y167365D01*
X18007Y167355D01*
Y172500D01*
G37*
G36*
X15000D02*X18007D01*
Y167355D01*
X17922Y167319D01*
X17821Y167257D01*
X17731Y167181D01*
X17655Y167091D01*
X17595Y166989D01*
X17378Y166520D01*
X17211Y166031D01*
X17091Y165528D01*
X17018Y165016D01*
X16994Y164500D01*
X17018Y163984D01*
X17091Y163472D01*
X17211Y162969D01*
X17378Y162480D01*
X17590Y162008D01*
X17651Y161907D01*
X17728Y161816D01*
X17818Y161739D01*
X17920Y161677D01*
X18007Y161640D01*
Y154000D01*
X15000D01*
Y172500D01*
G37*
G36*
X27250Y195000D02*X43000D01*
Y176500D01*
X27250D01*
Y181248D01*
X27368Y181257D01*
X27482Y181285D01*
X27592Y181330D01*
X27692Y181391D01*
X27782Y181468D01*
X27859Y181558D01*
X27920Y181658D01*
X27965Y181768D01*
X27993Y181882D01*
X28000Y182000D01*
Y187000D01*
X27993Y187118D01*
X27965Y187232D01*
X27920Y187342D01*
X27859Y187442D01*
X27782Y187532D01*
X27692Y187609D01*
X27592Y187670D01*
X27482Y187715D01*
X27368Y187743D01*
X27250Y187752D01*
Y195000D01*
G37*
G36*
X22500D02*X27250D01*
Y187752D01*
X27132Y187743D01*
X27018Y187715D01*
X26908Y187670D01*
X26808Y187609D01*
X26718Y187532D01*
X26641Y187442D01*
X26580Y187342D01*
X26535Y187232D01*
X26507Y187118D01*
X26500Y187000D01*
Y182000D01*
X26507Y181882D01*
X26535Y181768D01*
X26580Y181658D01*
X26641Y181558D01*
X26718Y181468D01*
X26808Y181391D01*
X26908Y181330D01*
X27018Y181285D01*
X27132Y181257D01*
X27250Y181248D01*
Y176500D01*
X22500D01*
Y179000D01*
X25000D01*
X25118Y179007D01*
X25232Y179035D01*
X25342Y179080D01*
X25442Y179141D01*
X25532Y179218D01*
X25609Y179308D01*
X25670Y179408D01*
X25715Y179518D01*
X25743Y179632D01*
X25752Y179750D01*
X25743Y179868D01*
X25715Y179982D01*
X25670Y180092D01*
X25609Y180192D01*
X25532Y180282D01*
X25442Y180359D01*
X25342Y180420D01*
X25232Y180465D01*
X25118Y180493D01*
X25000Y180500D01*
X22500D01*
Y188500D01*
X25000D01*
X25118Y188507D01*
X25232Y188535D01*
X25342Y188580D01*
X25442Y188641D01*
X25532Y188718D01*
X25609Y188808D01*
X25670Y188908D01*
X25715Y189018D01*
X25743Y189132D01*
X25752Y189250D01*
X25743Y189368D01*
X25715Y189482D01*
X25670Y189592D01*
X25609Y189692D01*
X25532Y189782D01*
X25442Y189859D01*
X25342Y189920D01*
X25232Y189965D01*
X25118Y189993D01*
X25000Y190000D01*
X22500D01*
Y195000D01*
G37*
G36*
X17750D02*X22500D01*
Y190000D01*
X20000D01*
X19882Y189993D01*
X19768Y189965D01*
X19658Y189920D01*
X19558Y189859D01*
X19468Y189782D01*
X19391Y189692D01*
X19330Y189592D01*
X19285Y189482D01*
X19257Y189368D01*
X19248Y189250D01*
X19257Y189132D01*
X19285Y189018D01*
X19330Y188908D01*
X19391Y188808D01*
X19468Y188718D01*
X19558Y188641D01*
X19658Y188580D01*
X19768Y188535D01*
X19882Y188507D01*
X20000Y188500D01*
X22500D01*
Y180500D01*
X20000D01*
X19882Y180493D01*
X19768Y180465D01*
X19658Y180420D01*
X19558Y180359D01*
X19468Y180282D01*
X19391Y180192D01*
X19330Y180092D01*
X19285Y179982D01*
X19257Y179868D01*
X19248Y179750D01*
X19257Y179632D01*
X19285Y179518D01*
X19330Y179408D01*
X19391Y179308D01*
X19468Y179218D01*
X19558Y179141D01*
X19658Y179080D01*
X19768Y179035D01*
X19882Y179007D01*
X20000Y179000D01*
X22500D01*
Y176500D01*
X17750D01*
Y181248D01*
X17868Y181257D01*
X17982Y181285D01*
X18092Y181330D01*
X18192Y181391D01*
X18282Y181468D01*
X18359Y181558D01*
X18420Y181658D01*
X18465Y181768D01*
X18493Y181882D01*
X18500Y182000D01*
Y187000D01*
X18493Y187118D01*
X18465Y187232D01*
X18420Y187342D01*
X18359Y187442D01*
X18282Y187532D01*
X18192Y187609D01*
X18092Y187670D01*
X17982Y187715D01*
X17868Y187743D01*
X17750Y187752D01*
Y195000D01*
G37*
G36*
X15500D02*X17750D01*
Y187752D01*
X17632Y187743D01*
X17518Y187715D01*
X17408Y187670D01*
X17308Y187609D01*
X17218Y187532D01*
X17141Y187442D01*
X17080Y187342D01*
X17035Y187232D01*
X17007Y187118D01*
X17000Y187000D01*
Y182000D01*
X17007Y181882D01*
X17035Y181768D01*
X17080Y181658D01*
X17141Y181558D01*
X17218Y181468D01*
X17308Y181391D01*
X17408Y181330D01*
X17518Y181285D01*
X17632Y181257D01*
X17750Y181248D01*
Y176500D01*
X15500D01*
Y195000D01*
G37*
G36*
X15000Y173000D02*X45500D01*
Y169500D01*
X24783D01*
X24520Y169622D01*
X24031Y169789D01*
X23528Y169909D01*
X23016Y169982D01*
X22500Y170006D01*
X21984Y169982D01*
X21472Y169909D01*
X20969Y169789D01*
X20480Y169622D01*
X20208Y169500D01*
X15000D01*
Y173000D01*
G37*
G36*
Y178000D02*X43000D01*
Y176000D01*
X15000D01*
Y178000D01*
G37*
G36*
X95000Y141500D02*X103500D01*
Y112000D01*
X95000D01*
Y141500D01*
G37*
G36*
X89500Y152500D02*X103500D01*
Y112000D01*
X89500D01*
Y152500D01*
G37*
G36*
X105500Y130000D02*X114500D01*
Y104000D01*
X105500D01*
Y130000D01*
G37*
G36*
X154500Y154000D02*X175000D01*
Y138243D01*
X171962Y135204D01*
X171872Y135128D01*
X171565Y134769D01*
X171319Y134366D01*
X171138Y133930D01*
X171028Y133471D01*
X171028Y133471D01*
X170991Y133000D01*
X171000Y132882D01*
Y104500D01*
X154500D01*
Y154000D01*
G37*
G36*
X89500Y110000D02*X128000D01*
Y81500D01*
X89500D01*
Y110000D01*
G37*
G36*
X124000Y106000D02*X136500D01*
Y70000D01*
X124000D01*
Y106000D01*
G37*
G36*
X120000Y83000D02*X146000D01*
Y66500D01*
X120000D01*
Y83000D01*
G37*
G36*
X129500Y92500D02*X175500D01*
Y70000D01*
X161299D01*
X161175Y70519D01*
X160879Y71231D01*
X160476Y71889D01*
X159976Y72476D01*
X159389Y72976D01*
X158731Y73379D01*
X158019Y73675D01*
X157269Y73855D01*
X156500Y73915D01*
X155731Y73855D01*
X154981Y73675D01*
X154269Y73379D01*
X153611Y72976D01*
X153024Y72476D01*
X152524Y71889D01*
X152121Y71231D01*
X151825Y70519D01*
X151701Y70000D01*
X129500D01*
Y92500D01*
G37*
G36*
X141000Y115500D02*X151000D01*
Y94000D01*
X141000D01*
Y115500D01*
G37*
G36*
X143000D02*X171000D01*
Y102500D01*
X161386D01*
X161386Y102635D01*
X161331Y102865D01*
X161241Y103083D01*
X161117Y103284D01*
X160964Y103464D01*
X160784Y103617D01*
X160583Y103741D01*
X160365Y103831D01*
X160135Y103886D01*
X159900Y103900D01*
X152865Y103886D01*
X152635Y103831D01*
X152417Y103741D01*
X152216Y103617D01*
X152036Y103464D01*
X151883Y103284D01*
X151759Y103083D01*
X151669Y102865D01*
X151614Y102635D01*
X151606Y102500D01*
X143000D01*
Y115500D01*
G37*
G36*
X86500Y196500D02*Y270000D01*
X117500D01*
Y196500D01*
X86500D01*
G37*
G36*
X146588Y270000D02*X148000D01*
Y251000D01*
X146588D01*
Y257171D01*
X146662Y257213D01*
X146755Y257286D01*
X146835Y257373D01*
X146899Y257472D01*
X147162Y257984D01*
X147371Y258520D01*
X147529Y259074D01*
X147635Y259639D01*
X147688Y260212D01*
Y260788D01*
X147635Y261361D01*
X147529Y261926D01*
X147371Y262480D01*
X147162Y263016D01*
X146905Y263531D01*
X146839Y263630D01*
X146758Y263717D01*
X146665Y263791D01*
X146588Y263834D01*
Y270000D01*
G37*
G36*
X141491D02*X146588D01*
Y263834D01*
X146562Y263849D01*
X146450Y263890D01*
X146333Y263913D01*
X146215Y263918D01*
X146097Y263904D01*
X145982Y263872D01*
X145874Y263822D01*
X145776Y263756D01*
X145688Y263676D01*
X145615Y263582D01*
X145556Y263479D01*
X145515Y263367D01*
X145492Y263251D01*
X145487Y263132D01*
X145501Y263014D01*
X145534Y262899D01*
X145585Y262793D01*
X145785Y262405D01*
X145943Y261999D01*
X146062Y261580D01*
X146143Y261152D01*
X146183Y260718D01*
Y260282D01*
X146143Y259848D01*
X146062Y259420D01*
X145943Y259001D01*
X145785Y258595D01*
X145590Y258205D01*
X145538Y258099D01*
X145506Y257985D01*
X145492Y257868D01*
X145497Y257750D01*
X145520Y257634D01*
X145561Y257523D01*
X145619Y257420D01*
X145692Y257328D01*
X145779Y257248D01*
X145877Y257182D01*
X145984Y257133D01*
X146098Y257101D01*
X146215Y257087D01*
X146333Y257092D01*
X146449Y257115D01*
X146559Y257156D01*
X146588Y257171D01*
Y251000D01*
X141491D01*
Y254300D01*
X141776D01*
X142349Y254353D01*
X142915Y254459D01*
X143468Y254618D01*
X144004Y254826D01*
X144519Y255084D01*
X144618Y255149D01*
X144706Y255230D01*
X144779Y255323D01*
X144837Y255427D01*
X144878Y255538D01*
X144902Y255655D01*
X144906Y255773D01*
X144892Y255891D01*
X144860Y256006D01*
X144810Y256114D01*
X144745Y256213D01*
X144664Y256300D01*
X144571Y256374D01*
X144467Y256432D01*
X144355Y256473D01*
X144239Y256496D01*
X144120Y256501D01*
X144002Y256487D01*
X143888Y256455D01*
X143781Y256403D01*
X143394Y256204D01*
X142987Y256046D01*
X142568Y255926D01*
X142140Y255845D01*
X141706Y255805D01*
X141491D01*
Y265195D01*
X141706D01*
X142140Y265155D01*
X142568Y265074D01*
X142987Y264954D01*
X143394Y264796D01*
X143783Y264602D01*
X143889Y264550D01*
X144003Y264518D01*
X144120Y264504D01*
X144238Y264509D01*
X144354Y264532D01*
X144465Y264573D01*
X144568Y264631D01*
X144660Y264704D01*
X144741Y264790D01*
X144806Y264889D01*
X144855Y264996D01*
X144887Y265109D01*
X144901Y265227D01*
X144897Y265345D01*
X144874Y265460D01*
X144833Y265571D01*
X144775Y265674D01*
X144702Y265767D01*
X144615Y265847D01*
X144516Y265910D01*
X144004Y266174D01*
X143468Y266382D01*
X142915Y266541D01*
X142349Y266647D01*
X141776Y266700D01*
X141491D01*
Y270000D01*
G37*
G36*
X136389D02*X141491D01*
Y266700D01*
X141200D01*
X140627Y266647D01*
X140062Y266541D01*
X139508Y266382D01*
X138972Y266174D01*
X138457Y265916D01*
X138358Y265851D01*
X138271Y265770D01*
X138197Y265677D01*
X138139Y265573D01*
X138098Y265462D01*
X138075Y265345D01*
X138070Y265227D01*
X138084Y265109D01*
X138116Y264994D01*
X138166Y264886D01*
X138232Y264787D01*
X138313Y264700D01*
X138406Y264626D01*
X138510Y264568D01*
X138621Y264527D01*
X138738Y264504D01*
X138856Y264499D01*
X138974Y264513D01*
X139089Y264545D01*
X139196Y264597D01*
X139583Y264796D01*
X139989Y264954D01*
X140408Y265074D01*
X140836Y265155D01*
X141270Y265195D01*
X141491D01*
Y255805D01*
X141270D01*
X140836Y255845D01*
X140408Y255926D01*
X139989Y256046D01*
X139583Y256204D01*
X139193Y256398D01*
X139087Y256450D01*
X138973Y256482D01*
X138856Y256496D01*
X138738Y256491D01*
X138622Y256468D01*
X138512Y256427D01*
X138409Y256369D01*
X138316Y256296D01*
X138236Y256210D01*
X138170Y256111D01*
X138121Y256004D01*
X138089Y255891D01*
X138075Y255773D01*
X138080Y255655D01*
X138103Y255540D01*
X138144Y255429D01*
X138201Y255326D01*
X138275Y255233D01*
X138361Y255153D01*
X138461Y255090D01*
X138972Y254826D01*
X139508Y254618D01*
X140062Y254459D01*
X140627Y254353D01*
X141200Y254300D01*
X141491D01*
Y251000D01*
X136389D01*
Y257166D01*
X136415Y257151D01*
X136526Y257110D01*
X136643Y257087D01*
X136762Y257082D01*
X136880Y257096D01*
X136994Y257128D01*
X137102Y257178D01*
X137201Y257244D01*
X137288Y257324D01*
X137362Y257418D01*
X137420Y257521D01*
X137461Y257633D01*
X137484Y257749D01*
X137489Y257868D01*
X137475Y257986D01*
X137443Y258101D01*
X137391Y258207D01*
X137192Y258595D01*
X137034Y259001D01*
X136914Y259420D01*
X136834Y259848D01*
X136793Y260282D01*
Y260718D01*
X136834Y261152D01*
X136914Y261580D01*
X137034Y261999D01*
X137192Y262405D01*
X137387Y262795D01*
X137438Y262901D01*
X137470Y263015D01*
X137484Y263132D01*
X137479Y263250D01*
X137456Y263366D01*
X137415Y263477D01*
X137358Y263580D01*
X137284Y263672D01*
X137198Y263752D01*
X137100Y263818D01*
X136992Y263867D01*
X136879Y263899D01*
X136761Y263913D01*
X136644Y263908D01*
X136528Y263885D01*
X136417Y263844D01*
X136389Y263829D01*
Y270000D01*
G37*
G36*
X86500D02*X136389D01*
Y263829D01*
X136314Y263787D01*
X136221Y263714D01*
X136141Y263627D01*
X136078Y263528D01*
X135814Y263016D01*
X135606Y262480D01*
X135448Y261926D01*
X135342Y261361D01*
X135288Y260788D01*
Y260212D01*
X135342Y259639D01*
X135448Y259074D01*
X135606Y258520D01*
X135814Y257984D01*
X136072Y257469D01*
X136137Y257370D01*
X136218Y257283D01*
X136311Y257209D01*
X136389Y257166D01*
Y251000D01*
X86500D01*
Y270000D01*
G37*
G36*
X43000Y176500D02*X27250D01*
Y181248D01*
X27368Y181257D01*
X27482Y181285D01*
X27592Y181330D01*
X27692Y181391D01*
X27782Y181468D01*
X27859Y181558D01*
X27920Y181658D01*
X27965Y181768D01*
X27993Y181882D01*
X28000Y182000D01*
Y187000D01*
X27993Y187118D01*
X27965Y187232D01*
X27920Y187342D01*
X27859Y187442D01*
X27782Y187532D01*
X27692Y187609D01*
X27592Y187670D01*
X27482Y187715D01*
X27368Y187743D01*
X27250Y187752D01*
Y198000D01*
X43000D01*
Y176500D01*
G37*
G36*
X27250D02*X22500D01*
Y179000D01*
X25000D01*
X25118Y179007D01*
X25232Y179035D01*
X25342Y179080D01*
X25442Y179141D01*
X25532Y179218D01*
X25609Y179308D01*
X25670Y179408D01*
X25715Y179518D01*
X25743Y179632D01*
X25752Y179750D01*
X25743Y179868D01*
X25715Y179982D01*
X25670Y180092D01*
X25609Y180192D01*
X25532Y180282D01*
X25442Y180359D01*
X25342Y180420D01*
X25232Y180465D01*
X25118Y180493D01*
X25000Y180500D01*
X22500D01*
Y188500D01*
X25000D01*
X25118Y188507D01*
X25232Y188535D01*
X25342Y188580D01*
X25442Y188641D01*
X25532Y188718D01*
X25609Y188808D01*
X25670Y188908D01*
X25715Y189018D01*
X25743Y189132D01*
X25752Y189250D01*
X25743Y189368D01*
X25715Y189482D01*
X25670Y189592D01*
X25609Y189692D01*
X25532Y189782D01*
X25442Y189859D01*
X25342Y189920D01*
X25232Y189965D01*
X25118Y189993D01*
X25000Y190000D01*
X22500D01*
Y198000D01*
X27250D01*
Y187752D01*
X27132Y187743D01*
X27018Y187715D01*
X26908Y187670D01*
X26808Y187609D01*
X26718Y187532D01*
X26641Y187442D01*
X26580Y187342D01*
X26535Y187232D01*
X26507Y187118D01*
X26500Y187000D01*
Y182000D01*
X26507Y181882D01*
X26535Y181768D01*
X26580Y181658D01*
X26641Y181558D01*
X26718Y181468D01*
X26808Y181391D01*
X26908Y181330D01*
X27018Y181285D01*
X27132Y181257D01*
X27250Y181248D01*
Y176500D01*
G37*
G36*
X22500D02*X17750D01*
Y181248D01*
X17868Y181257D01*
X17982Y181285D01*
X18092Y181330D01*
X18192Y181391D01*
X18282Y181468D01*
X18359Y181558D01*
X18420Y181658D01*
X18465Y181768D01*
X18493Y181882D01*
X18500Y182000D01*
Y187000D01*
X18493Y187118D01*
X18465Y187232D01*
X18420Y187342D01*
X18359Y187442D01*
X18282Y187532D01*
X18192Y187609D01*
X18092Y187670D01*
X17982Y187715D01*
X17868Y187743D01*
X17750Y187752D01*
Y198000D01*
X22500D01*
Y190000D01*
X20000D01*
X19882Y189993D01*
X19768Y189965D01*
X19658Y189920D01*
X19558Y189859D01*
X19468Y189782D01*
X19391Y189692D01*
X19330Y189592D01*
X19285Y189482D01*
X19257Y189368D01*
X19248Y189250D01*
X19257Y189132D01*
X19285Y189018D01*
X19330Y188908D01*
X19391Y188808D01*
X19468Y188718D01*
X19558Y188641D01*
X19658Y188580D01*
X19768Y188535D01*
X19882Y188507D01*
X20000Y188500D01*
X22500D01*
Y180500D01*
X20000D01*
X19882Y180493D01*
X19768Y180465D01*
X19658Y180420D01*
X19558Y180359D01*
X19468Y180282D01*
X19391Y180192D01*
X19330Y180092D01*
X19285Y179982D01*
X19257Y179868D01*
X19248Y179750D01*
X19257Y179632D01*
X19285Y179518D01*
X19330Y179408D01*
X19391Y179308D01*
X19468Y179218D01*
X19558Y179141D01*
X19658Y179080D01*
X19768Y179035D01*
X19882Y179007D01*
X20000Y179000D01*
X22500D01*
Y176500D01*
G37*
G36*
X17750D02*X15000D01*
Y198000D01*
X17750D01*
Y187752D01*
X17632Y187743D01*
X17518Y187715D01*
X17408Y187670D01*
X17308Y187609D01*
X17218Y187532D01*
X17141Y187442D01*
X17080Y187342D01*
X17035Y187232D01*
X17007Y187118D01*
X17000Y187000D01*
Y182000D01*
X17007Y181882D01*
X17035Y181768D01*
X17080Y181658D01*
X17141Y181558D01*
X17218Y181468D01*
X17308Y181391D01*
X17408Y181330D01*
X17518Y181285D01*
X17632Y181257D01*
X17750Y181248D01*
Y176500D01*
G37*
G36*
X52514Y218000D02*X56534D01*
X56530Y217985D01*
X56516Y217868D01*
X56521Y217750D01*
X56544Y217634D01*
X56585Y217523D01*
X56642Y217420D01*
X56716Y217328D01*
X56802Y217248D01*
X56900Y217182D01*
X57008Y217133D01*
X57121Y217101D01*
X57239Y217087D01*
X57356Y217092D01*
X57472Y217115D01*
X57583Y217156D01*
X57686Y217213D01*
X57779Y217286D01*
X57859Y217373D01*
X57922Y217472D01*
X58186Y217984D01*
X58192Y218000D01*
X68000D01*
Y201500D01*
X52514D01*
Y214300D01*
X52800D01*
X53373Y214353D01*
X53938Y214459D01*
X54492Y214618D01*
X55028Y214826D01*
X55543Y215084D01*
X55642Y215149D01*
X55729Y215230D01*
X55803Y215323D01*
X55861Y215427D01*
X55902Y215538D01*
X55925Y215655D01*
X55930Y215773D01*
X55916Y215891D01*
X55884Y216006D01*
X55834Y216114D01*
X55768Y216213D01*
X55687Y216300D01*
X55594Y216374D01*
X55490Y216432D01*
X55379Y216473D01*
X55262Y216496D01*
X55144Y216501D01*
X55026Y216487D01*
X54911Y216455D01*
X54804Y216403D01*
X54417Y216204D01*
X54011Y216046D01*
X53592Y215926D01*
X53164Y215845D01*
X52730Y215805D01*
X52514D01*
Y218000D01*
G37*
G36*
X26993D02*X46832D01*
X46838Y217984D01*
X47095Y217469D01*
X47161Y217370D01*
X47241Y217283D01*
X47335Y217209D01*
X47438Y217151D01*
X47550Y217110D01*
X47667Y217087D01*
X47785Y217082D01*
X47903Y217096D01*
X48018Y217128D01*
X48126Y217178D01*
X48224Y217244D01*
X48312Y217324D01*
X48385Y217418D01*
X48444Y217521D01*
X48485Y217633D01*
X48508Y217749D01*
X48513Y217868D01*
X48499Y217986D01*
X48495Y218000D01*
X52514D01*
Y215805D01*
X52294D01*
X51860Y215845D01*
X51432Y215926D01*
X51013Y216046D01*
X50606Y216204D01*
X50217Y216398D01*
X50111Y216450D01*
X49997Y216482D01*
X49880Y216496D01*
X49762Y216491D01*
X49646Y216468D01*
X49535Y216427D01*
X49432Y216369D01*
X49340Y216296D01*
X49259Y216210D01*
X49194Y216111D01*
X49145Y216004D01*
X49113Y215891D01*
X49099Y215773D01*
X49103Y215655D01*
X49126Y215540D01*
X49167Y215429D01*
X49225Y215326D01*
X49298Y215233D01*
X49385Y215153D01*
X49484Y215090D01*
X49996Y214826D01*
X50532Y214618D01*
X51085Y214459D01*
X51651Y214353D01*
X52224Y214300D01*
X52514D01*
Y201500D01*
X26993D01*
Y207645D01*
X27078Y207681D01*
X27179Y207743D01*
X27269Y207819D01*
X27345Y207909D01*
X27405Y208011D01*
X27622Y208480D01*
X27789Y208969D01*
X27909Y209472D01*
X27982Y209984D01*
X28006Y210500D01*
X27982Y211016D01*
X27909Y211528D01*
X27789Y212031D01*
X27622Y212520D01*
X27410Y212992D01*
X27349Y213093D01*
X27272Y213184D01*
X27182Y213261D01*
X27080Y213323D01*
X26993Y213360D01*
Y218000D01*
G37*
G36*
X22502D02*X26993D01*
Y213360D01*
X26971Y213369D01*
X26855Y213397D01*
X26737Y213406D01*
X26619Y213397D01*
X26503Y213370D01*
X26393Y213324D01*
X26292Y213262D01*
X26202Y213186D01*
X26124Y213095D01*
X26062Y212994D01*
X26016Y212885D01*
X25989Y212769D01*
X25979Y212651D01*
X25988Y212532D01*
X26016Y212417D01*
X26063Y212308D01*
X26221Y211968D01*
X26342Y211612D01*
X26430Y211247D01*
X26482Y210875D01*
X26500Y210500D01*
X26482Y210125D01*
X26430Y209753D01*
X26342Y209388D01*
X26221Y209032D01*
X26067Y208690D01*
X26020Y208582D01*
X25993Y208467D01*
X25983Y208349D01*
X25993Y208232D01*
X26021Y208117D01*
X26066Y208008D01*
X26128Y207907D01*
X26205Y207818D01*
X26295Y207741D01*
X26395Y207680D01*
X26504Y207635D01*
X26619Y207607D01*
X26737Y207598D01*
X26855Y207608D01*
X26969Y207635D01*
X26993Y207645D01*
Y201500D01*
X22502D01*
Y204994D01*
X23016Y205018D01*
X23528Y205091D01*
X24031Y205211D01*
X24520Y205378D01*
X24992Y205590D01*
X25093Y205651D01*
X25184Y205728D01*
X25261Y205818D01*
X25323Y205920D01*
X25369Y206029D01*
X25397Y206145D01*
X25406Y206263D01*
X25397Y206381D01*
X25370Y206497D01*
X25324Y206607D01*
X25262Y206708D01*
X25186Y206798D01*
X25095Y206876D01*
X24994Y206938D01*
X24885Y206984D01*
X24769Y207011D01*
X24651Y207021D01*
X24532Y207012D01*
X24417Y206984D01*
X24308Y206937D01*
X23968Y206779D01*
X23612Y206658D01*
X23247Y206570D01*
X22875Y206518D01*
X22502Y206500D01*
Y214500D01*
X22875Y214482D01*
X23247Y214430D01*
X23612Y214342D01*
X23968Y214221D01*
X24310Y214067D01*
X24418Y214020D01*
X24533Y213993D01*
X24651Y213983D01*
X24768Y213993D01*
X24883Y214021D01*
X24992Y214066D01*
X25093Y214128D01*
X25182Y214205D01*
X25259Y214295D01*
X25320Y214395D01*
X25365Y214504D01*
X25393Y214619D01*
X25402Y214737D01*
X25392Y214855D01*
X25365Y214969D01*
X25319Y215078D01*
X25257Y215179D01*
X25181Y215269D01*
X25091Y215345D01*
X24989Y215405D01*
X24520Y215622D01*
X24031Y215789D01*
X23528Y215909D01*
X23016Y215982D01*
X22502Y216006D01*
Y218000D01*
G37*
G36*
X18007D02*X22502D01*
Y216006D01*
X22500Y216006D01*
X21984Y215982D01*
X21472Y215909D01*
X20969Y215789D01*
X20480Y215622D01*
X20008Y215410D01*
X19907Y215349D01*
X19816Y215272D01*
X19739Y215182D01*
X19677Y215080D01*
X19631Y214971D01*
X19603Y214855D01*
X19594Y214737D01*
X19603Y214619D01*
X19630Y214503D01*
X19676Y214393D01*
X19738Y214292D01*
X19814Y214202D01*
X19905Y214124D01*
X20006Y214062D01*
X20115Y214016D01*
X20231Y213989D01*
X20349Y213979D01*
X20468Y213988D01*
X20583Y214016D01*
X20692Y214063D01*
X21032Y214221D01*
X21388Y214342D01*
X21753Y214430D01*
X22125Y214482D01*
X22500Y214500D01*
X22502Y214500D01*
Y206500D01*
X22500Y206500D01*
X22125Y206518D01*
X21753Y206570D01*
X21388Y206658D01*
X21032Y206779D01*
X20690Y206933D01*
X20582Y206980D01*
X20467Y207007D01*
X20349Y207017D01*
X20232Y207007D01*
X20117Y206979D01*
X20008Y206934D01*
X19907Y206872D01*
X19818Y206795D01*
X19741Y206705D01*
X19680Y206605D01*
X19635Y206496D01*
X19607Y206381D01*
X19598Y206263D01*
X19608Y206145D01*
X19635Y206031D01*
X19681Y205922D01*
X19743Y205821D01*
X19819Y205731D01*
X19909Y205655D01*
X20011Y205595D01*
X20480Y205378D01*
X20969Y205211D01*
X21472Y205091D01*
X21984Y205018D01*
X22500Y204994D01*
X22502Y204994D01*
Y201500D01*
X18007D01*
Y207640D01*
X18029Y207631D01*
X18145Y207603D01*
X18263Y207594D01*
X18381Y207603D01*
X18497Y207630D01*
X18607Y207676D01*
X18708Y207738D01*
X18798Y207814D01*
X18876Y207905D01*
X18938Y208006D01*
X18984Y208115D01*
X19011Y208231D01*
X19021Y208349D01*
X19012Y208468D01*
X18984Y208583D01*
X18937Y208692D01*
X18779Y209032D01*
X18658Y209388D01*
X18570Y209753D01*
X18518Y210125D01*
X18500Y210500D01*
X18518Y210875D01*
X18570Y211247D01*
X18658Y211612D01*
X18779Y211968D01*
X18933Y212310D01*
X18980Y212418D01*
X19007Y212533D01*
X19017Y212651D01*
X19007Y212768D01*
X18979Y212883D01*
X18934Y212992D01*
X18872Y213093D01*
X18795Y213182D01*
X18705Y213259D01*
X18605Y213320D01*
X18496Y213365D01*
X18381Y213393D01*
X18263Y213402D01*
X18145Y213392D01*
X18031Y213365D01*
X18007Y213355D01*
Y218000D01*
G37*
G36*
X15000D02*X18007D01*
Y213355D01*
X17922Y213319D01*
X17821Y213257D01*
X17731Y213181D01*
X17655Y213091D01*
X17595Y212989D01*
X17378Y212520D01*
X17211Y212031D01*
X17091Y211528D01*
X17018Y211016D01*
X16994Y210500D01*
X17018Y209984D01*
X17091Y209472D01*
X17211Y208969D01*
X17378Y208480D01*
X17590Y208008D01*
X17651Y207907D01*
X17728Y207816D01*
X17818Y207739D01*
X17920Y207677D01*
X18007Y207640D01*
Y201500D01*
X15000D01*
Y218000D01*
G37*
G36*
X57611Y229500D02*X68000D01*
Y210500D01*
X57611D01*
Y217171D01*
X57686Y217213D01*
X57779Y217286D01*
X57859Y217373D01*
X57922Y217472D01*
X58186Y217984D01*
X58394Y218520D01*
X58552Y219074D01*
X58658Y219639D01*
X58712Y220212D01*
Y220788D01*
X58658Y221361D01*
X58552Y221926D01*
X58394Y222480D01*
X58186Y223016D01*
X57928Y223531D01*
X57863Y223630D01*
X57782Y223717D01*
X57689Y223791D01*
X57611Y223834D01*
Y229500D01*
G37*
G36*
X52514D02*X57611D01*
Y223834D01*
X57585Y223849D01*
X57474Y223890D01*
X57357Y223913D01*
X57238Y223918D01*
X57120Y223904D01*
X57006Y223872D01*
X56898Y223822D01*
X56799Y223756D01*
X56712Y223676D01*
X56638Y223582D01*
X56580Y223479D01*
X56539Y223367D01*
X56516Y223251D01*
X56511Y223132D01*
X56525Y223014D01*
X56557Y222899D01*
X56609Y222793D01*
X56808Y222405D01*
X56966Y221999D01*
X57086Y221580D01*
X57166Y221152D01*
X57207Y220718D01*
Y220282D01*
X57166Y219848D01*
X57086Y219420D01*
X56966Y219001D01*
X56808Y218595D01*
X56613Y218205D01*
X56562Y218099D01*
X56530Y217985D01*
X56516Y217868D01*
X56521Y217750D01*
X56544Y217634D01*
X56585Y217523D01*
X56642Y217420D01*
X56716Y217328D01*
X56802Y217248D01*
X56900Y217182D01*
X57008Y217133D01*
X57121Y217101D01*
X57239Y217087D01*
X57356Y217092D01*
X57472Y217115D01*
X57583Y217156D01*
X57611Y217171D01*
Y210500D01*
X52514D01*
Y214300D01*
X52800D01*
X53373Y214353D01*
X53938Y214459D01*
X54492Y214618D01*
X55028Y214826D01*
X55543Y215084D01*
X55642Y215149D01*
X55729Y215230D01*
X55803Y215323D01*
X55861Y215427D01*
X55902Y215538D01*
X55925Y215655D01*
X55930Y215773D01*
X55916Y215891D01*
X55884Y216006D01*
X55834Y216114D01*
X55768Y216213D01*
X55687Y216300D01*
X55594Y216374D01*
X55490Y216432D01*
X55379Y216473D01*
X55262Y216496D01*
X55144Y216501D01*
X55026Y216487D01*
X54911Y216455D01*
X54804Y216403D01*
X54417Y216204D01*
X54011Y216046D01*
X53592Y215926D01*
X53164Y215845D01*
X52730Y215805D01*
X52514D01*
Y225195D01*
X52730D01*
X53164Y225155D01*
X53592Y225074D01*
X54011Y224954D01*
X54417Y224796D01*
X54807Y224602D01*
X54913Y224550D01*
X55027Y224518D01*
X55144Y224504D01*
X55262Y224509D01*
X55378Y224532D01*
X55488Y224573D01*
X55591Y224631D01*
X55684Y224704D01*
X55764Y224790D01*
X55830Y224889D01*
X55879Y224996D01*
X55911Y225109D01*
X55925Y225227D01*
X55920Y225345D01*
X55897Y225460D01*
X55856Y225571D01*
X55799Y225674D01*
X55725Y225767D01*
X55639Y225847D01*
X55539Y225910D01*
X55028Y226174D01*
X54492Y226382D01*
X53938Y226541D01*
X53373Y226647D01*
X52800Y226700D01*
X52514D01*
Y229500D01*
G37*
G36*
X47412D02*X52514D01*
Y226700D01*
X52224D01*
X51651Y226647D01*
X51085Y226541D01*
X50532Y226382D01*
X49996Y226174D01*
X49481Y225916D01*
X49382Y225851D01*
X49294Y225770D01*
X49221Y225677D01*
X49163Y225573D01*
X49122Y225462D01*
X49098Y225345D01*
X49094Y225227D01*
X49108Y225109D01*
X49140Y224994D01*
X49190Y224886D01*
X49255Y224787D01*
X49336Y224700D01*
X49429Y224626D01*
X49533Y224568D01*
X49645Y224527D01*
X49761Y224504D01*
X49880Y224499D01*
X49998Y224513D01*
X50112Y224545D01*
X50219Y224597D01*
X50606Y224796D01*
X51013Y224954D01*
X51432Y225074D01*
X51860Y225155D01*
X52294Y225195D01*
X52514D01*
Y215805D01*
X52294D01*
X51860Y215845D01*
X51432Y215926D01*
X51013Y216046D01*
X50606Y216204D01*
X50217Y216398D01*
X50111Y216450D01*
X49997Y216482D01*
X49880Y216496D01*
X49762Y216491D01*
X49646Y216468D01*
X49535Y216427D01*
X49432Y216369D01*
X49340Y216296D01*
X49259Y216210D01*
X49194Y216111D01*
X49145Y216004D01*
X49113Y215891D01*
X49099Y215773D01*
X49103Y215655D01*
X49126Y215540D01*
X49167Y215429D01*
X49225Y215326D01*
X49298Y215233D01*
X49385Y215153D01*
X49484Y215090D01*
X49996Y214826D01*
X50532Y214618D01*
X51085Y214459D01*
X51651Y214353D01*
X52224Y214300D01*
X52514D01*
Y210500D01*
X47412D01*
Y217166D01*
X47438Y217151D01*
X47550Y217110D01*
X47667Y217087D01*
X47785Y217082D01*
X47903Y217096D01*
X48018Y217128D01*
X48126Y217178D01*
X48224Y217244D01*
X48312Y217324D01*
X48385Y217418D01*
X48444Y217521D01*
X48485Y217633D01*
X48508Y217749D01*
X48513Y217868D01*
X48499Y217986D01*
X48466Y218101D01*
X48415Y218207D01*
X48215Y218595D01*
X48057Y219001D01*
X47938Y219420D01*
X47857Y219848D01*
X47817Y220282D01*
Y220718D01*
X47857Y221152D01*
X47938Y221580D01*
X48057Y221999D01*
X48215Y222405D01*
X48410Y222795D01*
X48462Y222901D01*
X48494Y223015D01*
X48508Y223132D01*
X48503Y223250D01*
X48480Y223366D01*
X48439Y223477D01*
X48381Y223580D01*
X48308Y223672D01*
X48221Y223752D01*
X48123Y223818D01*
X48016Y223867D01*
X47902Y223899D01*
X47785Y223913D01*
X47667Y223908D01*
X47551Y223885D01*
X47441Y223844D01*
X47412Y223829D01*
Y229500D01*
G37*
G36*
X42000D02*X47412D01*
Y223829D01*
X47338Y223787D01*
X47245Y223714D01*
X47165Y223627D01*
X47101Y223528D01*
X46838Y223016D01*
X46629Y222480D01*
X46471Y221926D01*
X46365Y221361D01*
X46312Y220788D01*
Y220212D01*
X46365Y219639D01*
X46471Y219074D01*
X46629Y218520D01*
X46838Y217984D01*
X47095Y217469D01*
X47161Y217370D01*
X47241Y217283D01*
X47335Y217209D01*
X47412Y217166D01*
Y210500D01*
X42000D01*
Y229500D01*
G37*
G36*
X27250Y241000D02*X40500D01*
Y223000D01*
X27250D01*
Y227248D01*
X27368Y227257D01*
X27482Y227285D01*
X27592Y227330D01*
X27692Y227391D01*
X27782Y227468D01*
X27859Y227558D01*
X27920Y227658D01*
X27965Y227768D01*
X27993Y227882D01*
X28000Y228000D01*
Y233000D01*
X27993Y233118D01*
X27965Y233232D01*
X27920Y233342D01*
X27859Y233442D01*
X27782Y233532D01*
X27692Y233609D01*
X27592Y233670D01*
X27482Y233715D01*
X27368Y233743D01*
X27250Y233752D01*
Y241000D01*
G37*
G36*
X22500D02*X27250D01*
Y233752D01*
X27132Y233743D01*
X27018Y233715D01*
X26908Y233670D01*
X26808Y233609D01*
X26718Y233532D01*
X26641Y233442D01*
X26580Y233342D01*
X26535Y233232D01*
X26507Y233118D01*
X26500Y233000D01*
Y228000D01*
X26507Y227882D01*
X26535Y227768D01*
X26580Y227658D01*
X26641Y227558D01*
X26718Y227468D01*
X26808Y227391D01*
X26908Y227330D01*
X27018Y227285D01*
X27132Y227257D01*
X27250Y227248D01*
Y223000D01*
X22500D01*
Y225000D01*
X25000D01*
X25118Y225007D01*
X25232Y225035D01*
X25342Y225080D01*
X25442Y225141D01*
X25532Y225218D01*
X25609Y225308D01*
X25670Y225408D01*
X25715Y225518D01*
X25743Y225632D01*
X25752Y225750D01*
X25743Y225868D01*
X25715Y225982D01*
X25670Y226092D01*
X25609Y226192D01*
X25532Y226282D01*
X25442Y226359D01*
X25342Y226420D01*
X25232Y226465D01*
X25118Y226493D01*
X25000Y226500D01*
X22500D01*
Y234500D01*
X25000D01*
X25118Y234507D01*
X25232Y234535D01*
X25342Y234580D01*
X25442Y234641D01*
X25532Y234718D01*
X25609Y234808D01*
X25670Y234908D01*
X25715Y235018D01*
X25743Y235132D01*
X25752Y235250D01*
X25743Y235368D01*
X25715Y235482D01*
X25670Y235592D01*
X25609Y235692D01*
X25532Y235782D01*
X25442Y235859D01*
X25342Y235920D01*
X25232Y235965D01*
X25118Y235993D01*
X25000Y236000D01*
X22500D01*
Y241000D01*
G37*
G36*
X17750D02*X22500D01*
Y236000D01*
X20000D01*
X19882Y235993D01*
X19768Y235965D01*
X19658Y235920D01*
X19558Y235859D01*
X19468Y235782D01*
X19391Y235692D01*
X19330Y235592D01*
X19285Y235482D01*
X19257Y235368D01*
X19248Y235250D01*
X19257Y235132D01*
X19285Y235018D01*
X19330Y234908D01*
X19391Y234808D01*
X19468Y234718D01*
X19558Y234641D01*
X19658Y234580D01*
X19768Y234535D01*
X19882Y234507D01*
X20000Y234500D01*
X22500D01*
Y226500D01*
X20000D01*
X19882Y226493D01*
X19768Y226465D01*
X19658Y226420D01*
X19558Y226359D01*
X19468Y226282D01*
X19391Y226192D01*
X19330Y226092D01*
X19285Y225982D01*
X19257Y225868D01*
X19248Y225750D01*
X19257Y225632D01*
X19285Y225518D01*
X19330Y225408D01*
X19391Y225308D01*
X19468Y225218D01*
X19558Y225141D01*
X19658Y225080D01*
X19768Y225035D01*
X19882Y225007D01*
X20000Y225000D01*
X22500D01*
Y223000D01*
X17750D01*
Y227248D01*
X17868Y227257D01*
X17982Y227285D01*
X18092Y227330D01*
X18192Y227391D01*
X18282Y227468D01*
X18359Y227558D01*
X18420Y227658D01*
X18465Y227768D01*
X18493Y227882D01*
X18500Y228000D01*
Y233000D01*
X18493Y233118D01*
X18465Y233232D01*
X18420Y233342D01*
X18359Y233442D01*
X18282Y233532D01*
X18192Y233609D01*
X18092Y233670D01*
X17982Y233715D01*
X17868Y233743D01*
X17750Y233752D01*
Y241000D01*
G37*
G36*
X15000D02*X17750D01*
Y233752D01*
X17632Y233743D01*
X17518Y233715D01*
X17408Y233670D01*
X17308Y233609D01*
X17218Y233532D01*
X17141Y233442D01*
X17080Y233342D01*
X17035Y233232D01*
X17007Y233118D01*
X17000Y233000D01*
Y228000D01*
X17007Y227882D01*
X17035Y227768D01*
X17080Y227658D01*
X17141Y227558D01*
X17218Y227468D01*
X17308Y227391D01*
X17408Y227330D01*
X17518Y227285D01*
X17632Y227257D01*
X17750Y227248D01*
Y223000D01*
X15000D01*
Y241000D01*
G37*
G36*
X57611Y270000D02*X68000D01*
Y234500D01*
X57611D01*
Y257171D01*
X57686Y257213D01*
X57779Y257286D01*
X57859Y257373D01*
X57922Y257472D01*
X58186Y257984D01*
X58394Y258520D01*
X58552Y259074D01*
X58658Y259639D01*
X58712Y260212D01*
Y260788D01*
X58658Y261361D01*
X58552Y261926D01*
X58394Y262480D01*
X58186Y263016D01*
X57928Y263531D01*
X57863Y263630D01*
X57782Y263717D01*
X57689Y263791D01*
X57611Y263834D01*
Y270000D01*
G37*
G36*
X52514D02*X57611D01*
Y263834D01*
X57585Y263849D01*
X57474Y263890D01*
X57357Y263913D01*
X57238Y263918D01*
X57120Y263904D01*
X57006Y263872D01*
X56898Y263822D01*
X56799Y263756D01*
X56712Y263676D01*
X56638Y263582D01*
X56580Y263479D01*
X56539Y263367D01*
X56516Y263251D01*
X56511Y263132D01*
X56525Y263014D01*
X56557Y262899D01*
X56609Y262793D01*
X56808Y262405D01*
X56966Y261999D01*
X57086Y261580D01*
X57166Y261152D01*
X57207Y260718D01*
Y260282D01*
X57166Y259848D01*
X57086Y259420D01*
X56966Y259001D01*
X56808Y258595D01*
X56613Y258205D01*
X56562Y258099D01*
X56530Y257985D01*
X56516Y257868D01*
X56521Y257750D01*
X56544Y257634D01*
X56585Y257523D01*
X56642Y257420D01*
X56716Y257328D01*
X56802Y257248D01*
X56900Y257182D01*
X57008Y257133D01*
X57121Y257101D01*
X57239Y257087D01*
X57356Y257092D01*
X57472Y257115D01*
X57583Y257156D01*
X57611Y257171D01*
Y234500D01*
X52514D01*
Y254300D01*
X52800D01*
X53373Y254353D01*
X53938Y254459D01*
X54492Y254618D01*
X55028Y254826D01*
X55543Y255084D01*
X55642Y255149D01*
X55729Y255230D01*
X55803Y255323D01*
X55861Y255427D01*
X55902Y255538D01*
X55925Y255655D01*
X55930Y255773D01*
X55916Y255891D01*
X55884Y256006D01*
X55834Y256114D01*
X55768Y256213D01*
X55687Y256300D01*
X55594Y256374D01*
X55490Y256432D01*
X55379Y256473D01*
X55262Y256496D01*
X55144Y256501D01*
X55026Y256487D01*
X54911Y256455D01*
X54804Y256403D01*
X54417Y256204D01*
X54011Y256046D01*
X53592Y255926D01*
X53164Y255845D01*
X52730Y255805D01*
X52514D01*
Y265195D01*
X52730D01*
X53164Y265155D01*
X53592Y265074D01*
X54011Y264954D01*
X54417Y264796D01*
X54807Y264602D01*
X54913Y264550D01*
X55027Y264518D01*
X55144Y264504D01*
X55262Y264509D01*
X55378Y264532D01*
X55488Y264573D01*
X55591Y264631D01*
X55684Y264704D01*
X55764Y264790D01*
X55830Y264889D01*
X55879Y264996D01*
X55911Y265109D01*
X55925Y265227D01*
X55920Y265345D01*
X55897Y265460D01*
X55856Y265571D01*
X55799Y265674D01*
X55725Y265767D01*
X55639Y265847D01*
X55539Y265910D01*
X55028Y266174D01*
X54492Y266382D01*
X53938Y266541D01*
X53373Y266647D01*
X52800Y266700D01*
X52514D01*
Y270000D01*
G37*
G36*
X47412D02*X52514D01*
Y266700D01*
X52224D01*
X51651Y266647D01*
X51085Y266541D01*
X50532Y266382D01*
X49996Y266174D01*
X49481Y265916D01*
X49382Y265851D01*
X49294Y265770D01*
X49221Y265677D01*
X49163Y265573D01*
X49122Y265462D01*
X49098Y265345D01*
X49094Y265227D01*
X49108Y265109D01*
X49140Y264994D01*
X49190Y264886D01*
X49255Y264787D01*
X49336Y264700D01*
X49429Y264626D01*
X49533Y264568D01*
X49645Y264527D01*
X49761Y264504D01*
X49880Y264499D01*
X49998Y264513D01*
X50112Y264545D01*
X50219Y264597D01*
X50606Y264796D01*
X51013Y264954D01*
X51432Y265074D01*
X51860Y265155D01*
X52294Y265195D01*
X52514D01*
Y255805D01*
X52294D01*
X51860Y255845D01*
X51432Y255926D01*
X51013Y256046D01*
X50606Y256204D01*
X50217Y256398D01*
X50111Y256450D01*
X49997Y256482D01*
X49880Y256496D01*
X49762Y256491D01*
X49646Y256468D01*
X49535Y256427D01*
X49432Y256369D01*
X49340Y256296D01*
X49259Y256210D01*
X49194Y256111D01*
X49145Y256004D01*
X49113Y255891D01*
X49099Y255773D01*
X49103Y255655D01*
X49126Y255540D01*
X49167Y255429D01*
X49225Y255326D01*
X49298Y255233D01*
X49385Y255153D01*
X49484Y255090D01*
X49996Y254826D01*
X50532Y254618D01*
X51085Y254459D01*
X51651Y254353D01*
X52224Y254300D01*
X52514D01*
Y234500D01*
X47412D01*
Y257166D01*
X47438Y257151D01*
X47550Y257110D01*
X47667Y257087D01*
X47785Y257082D01*
X47903Y257096D01*
X48018Y257128D01*
X48126Y257178D01*
X48224Y257244D01*
X48312Y257324D01*
X48385Y257418D01*
X48444Y257521D01*
X48485Y257633D01*
X48508Y257749D01*
X48513Y257868D01*
X48499Y257986D01*
X48466Y258101D01*
X48415Y258207D01*
X48215Y258595D01*
X48057Y259001D01*
X47938Y259420D01*
X47857Y259848D01*
X47817Y260282D01*
Y260718D01*
X47857Y261152D01*
X47938Y261580D01*
X48057Y261999D01*
X48215Y262405D01*
X48410Y262795D01*
X48462Y262901D01*
X48494Y263015D01*
X48508Y263132D01*
X48503Y263250D01*
X48480Y263366D01*
X48439Y263477D01*
X48381Y263580D01*
X48308Y263672D01*
X48221Y263752D01*
X48123Y263818D01*
X48016Y263867D01*
X47902Y263899D01*
X47785Y263913D01*
X47667Y263908D01*
X47551Y263885D01*
X47441Y263844D01*
X47412Y263829D01*
Y270000D01*
G37*
G36*
X36000D02*X47412D01*
Y263829D01*
X47338Y263787D01*
X47245Y263714D01*
X47165Y263627D01*
X47101Y263528D01*
X46838Y263016D01*
X46629Y262480D01*
X46471Y261926D01*
X46365Y261361D01*
X46312Y260788D01*
Y260212D01*
X46365Y259639D01*
X46471Y259074D01*
X46629Y258520D01*
X46838Y257984D01*
X47095Y257469D01*
X47161Y257370D01*
X47241Y257283D01*
X47335Y257209D01*
X47412Y257166D01*
Y234500D01*
X36000D01*
Y270000D01*
G37*
G36*
X23000Y239500D02*X38000Y254500D01*
Y239500D01*
X23000D01*
G37*
G36*
X15000Y198000D02*X117500D01*
Y192000D01*
X15000D01*
Y198000D01*
G37*
G36*
X73500Y195000D02*X82500D01*
Y161000D01*
X73500D01*
Y195000D01*
G37*
G36*
X86500Y173000D02*X117500D01*
Y154000D01*
X86500D01*
Y173000D01*
G37*
G36*
X77500Y195000D02*X117500D01*
Y176000D01*
X77500D01*
Y195000D01*
G37*
G36*
X73500Y178000D02*X85000D01*
Y154000D01*
X73500D01*
Y178000D01*
G37*
G36*
X105500Y173000D02*X153000D01*
Y154000D01*
X105500D01*
Y173000D01*
G37*
G36*
X121000Y202000D02*X153000D01*
Y154000D01*
X121000D01*
Y202000D01*
G37*
G36*
X137000Y158000D02*X153000D01*
Y131500D01*
X137000D01*
Y158000D01*
G37*
G36*
X119000Y150000D02*X133500D01*
Y131500D01*
X119000D01*
Y150000D01*
G37*
G36*
Y152500D02*X133500D01*
Y134000D01*
X119000D01*
Y152500D01*
G37*
G36*
X133500D02*Y131500D01*
X95000D01*
Y152500D01*
X133500D01*
G37*
G36*
X147000Y177500D02*X169500D01*
Y169500D01*
X147000D01*
Y177500D01*
G37*
G36*
X181500Y179000D02*X154500D01*
Y229000D01*
X181500D01*
Y179000D01*
G37*
G36*
X146588Y229000D02*X181500D01*
Y203500D01*
X146588D01*
Y217171D01*
X146662Y217213D01*
X146755Y217286D01*
X146835Y217373D01*
X146899Y217472D01*
X147162Y217984D01*
X147371Y218520D01*
X147529Y219074D01*
X147635Y219639D01*
X147688Y220212D01*
Y220788D01*
X147635Y221361D01*
X147529Y221926D01*
X147371Y222480D01*
X147162Y223016D01*
X146905Y223531D01*
X146839Y223630D01*
X146758Y223717D01*
X146665Y223791D01*
X146588Y223834D01*
Y229000D01*
G37*
G36*
X141491D02*X146588D01*
Y223834D01*
X146562Y223849D01*
X146450Y223890D01*
X146333Y223913D01*
X146215Y223918D01*
X146097Y223904D01*
X145982Y223872D01*
X145874Y223822D01*
X145776Y223756D01*
X145688Y223676D01*
X145615Y223582D01*
X145556Y223479D01*
X145515Y223367D01*
X145492Y223251D01*
X145487Y223132D01*
X145501Y223014D01*
X145534Y222899D01*
X145585Y222793D01*
X145785Y222405D01*
X145943Y221999D01*
X146062Y221580D01*
X146143Y221152D01*
X146183Y220718D01*
Y220282D01*
X146143Y219848D01*
X146062Y219420D01*
X145943Y219001D01*
X145785Y218595D01*
X145590Y218205D01*
X145538Y218099D01*
X145506Y217985D01*
X145492Y217868D01*
X145497Y217750D01*
X145520Y217634D01*
X145561Y217523D01*
X145619Y217420D01*
X145692Y217328D01*
X145779Y217248D01*
X145877Y217182D01*
X145984Y217133D01*
X146098Y217101D01*
X146215Y217087D01*
X146333Y217092D01*
X146449Y217115D01*
X146559Y217156D01*
X146588Y217171D01*
Y203500D01*
X141491D01*
Y214300D01*
X141776D01*
X142349Y214353D01*
X142915Y214459D01*
X143468Y214618D01*
X144004Y214826D01*
X144519Y215084D01*
X144618Y215149D01*
X144706Y215230D01*
X144779Y215323D01*
X144837Y215427D01*
X144878Y215538D01*
X144902Y215655D01*
X144906Y215773D01*
X144892Y215891D01*
X144860Y216006D01*
X144810Y216114D01*
X144745Y216213D01*
X144664Y216300D01*
X144571Y216374D01*
X144467Y216432D01*
X144355Y216473D01*
X144239Y216496D01*
X144120Y216501D01*
X144002Y216487D01*
X143888Y216455D01*
X143781Y216403D01*
X143394Y216204D01*
X142987Y216046D01*
X142568Y215926D01*
X142140Y215845D01*
X141706Y215805D01*
X141491D01*
Y225195D01*
X141706D01*
X142140Y225155D01*
X142568Y225074D01*
X142987Y224954D01*
X143394Y224796D01*
X143783Y224602D01*
X143889Y224550D01*
X144003Y224518D01*
X144120Y224504D01*
X144238Y224509D01*
X144354Y224532D01*
X144465Y224573D01*
X144568Y224631D01*
X144660Y224704D01*
X144741Y224790D01*
X144806Y224889D01*
X144855Y224996D01*
X144887Y225109D01*
X144901Y225227D01*
X144897Y225345D01*
X144874Y225460D01*
X144833Y225571D01*
X144775Y225674D01*
X144702Y225767D01*
X144615Y225847D01*
X144516Y225910D01*
X144004Y226174D01*
X143468Y226382D01*
X142915Y226541D01*
X142349Y226647D01*
X141776Y226700D01*
X141491D01*
Y229000D01*
G37*
G36*
X136389D02*X141491D01*
Y226700D01*
X141200D01*
X140627Y226647D01*
X140062Y226541D01*
X139508Y226382D01*
X138972Y226174D01*
X138457Y225916D01*
X138358Y225851D01*
X138271Y225770D01*
X138197Y225677D01*
X138139Y225573D01*
X138098Y225462D01*
X138075Y225345D01*
X138070Y225227D01*
X138084Y225109D01*
X138116Y224994D01*
X138166Y224886D01*
X138232Y224787D01*
X138313Y224700D01*
X138406Y224626D01*
X138510Y224568D01*
X138621Y224527D01*
X138738Y224504D01*
X138856Y224499D01*
X138974Y224513D01*
X139089Y224545D01*
X139196Y224597D01*
X139583Y224796D01*
X139989Y224954D01*
X140408Y225074D01*
X140836Y225155D01*
X141270Y225195D01*
X141491D01*
Y215805D01*
X141270D01*
X140836Y215845D01*
X140408Y215926D01*
X139989Y216046D01*
X139583Y216204D01*
X139193Y216398D01*
X139087Y216450D01*
X138973Y216482D01*
X138856Y216496D01*
X138738Y216491D01*
X138622Y216468D01*
X138512Y216427D01*
X138409Y216369D01*
X138316Y216296D01*
X138236Y216210D01*
X138170Y216111D01*
X138121Y216004D01*
X138089Y215891D01*
X138075Y215773D01*
X138080Y215655D01*
X138103Y215540D01*
X138144Y215429D01*
X138201Y215326D01*
X138275Y215233D01*
X138361Y215153D01*
X138461Y215090D01*
X138972Y214826D01*
X139508Y214618D01*
X140062Y214459D01*
X140627Y214353D01*
X141200Y214300D01*
X141491D01*
Y203500D01*
X136389D01*
Y217166D01*
X136415Y217151D01*
X136526Y217110D01*
X136643Y217087D01*
X136762Y217082D01*
X136880Y217096D01*
X136994Y217128D01*
X137102Y217178D01*
X137201Y217244D01*
X137288Y217324D01*
X137362Y217418D01*
X137420Y217521D01*
X137461Y217633D01*
X137484Y217749D01*
X137489Y217868D01*
X137475Y217986D01*
X137443Y218101D01*
X137391Y218207D01*
X137192Y218595D01*
X137034Y219001D01*
X136914Y219420D01*
X136834Y219848D01*
X136793Y220282D01*
Y220718D01*
X136834Y221152D01*
X136914Y221580D01*
X137034Y221999D01*
X137192Y222405D01*
X137387Y222795D01*
X137438Y222901D01*
X137470Y223015D01*
X137484Y223132D01*
X137479Y223250D01*
X137456Y223366D01*
X137415Y223477D01*
X137358Y223580D01*
X137284Y223672D01*
X137198Y223752D01*
X137100Y223818D01*
X136992Y223867D01*
X136879Y223899D01*
X136761Y223913D01*
X136644Y223908D01*
X136528Y223885D01*
X136417Y223844D01*
X136389Y223829D01*
Y229000D01*
G37*
G36*
X121000D02*X136389D01*
Y223829D01*
X136314Y223787D01*
X136221Y223714D01*
X136141Y223627D01*
X136078Y223528D01*
X135814Y223016D01*
X135606Y222480D01*
X135448Y221926D01*
X135342Y221361D01*
X135288Y220788D01*
Y220212D01*
X135342Y219639D01*
X135448Y219074D01*
X135606Y218520D01*
X135814Y217984D01*
X136072Y217469D01*
X136137Y217370D01*
X136218Y217283D01*
X136311Y217209D01*
X136389Y217166D01*
Y203500D01*
X121000D01*
Y229000D01*
G37*
G36*
X146588Y233000D02*X181500D01*
Y213000D01*
X146588D01*
Y217171D01*
X146662Y217213D01*
X146755Y217286D01*
X146835Y217373D01*
X146899Y217472D01*
X147162Y217984D01*
X147371Y218520D01*
X147529Y219074D01*
X147635Y219639D01*
X147688Y220212D01*
Y220788D01*
X147635Y221361D01*
X147529Y221926D01*
X147371Y222480D01*
X147162Y223016D01*
X146905Y223531D01*
X146839Y223630D01*
X146758Y223717D01*
X146665Y223791D01*
X146588Y223834D01*
Y233000D01*
G37*
G36*
X141491D02*X146588D01*
Y223834D01*
X146562Y223849D01*
X146450Y223890D01*
X146333Y223913D01*
X146215Y223918D01*
X146097Y223904D01*
X145982Y223872D01*
X145874Y223822D01*
X145776Y223756D01*
X145688Y223676D01*
X145615Y223582D01*
X145556Y223479D01*
X145515Y223367D01*
X145492Y223251D01*
X145487Y223132D01*
X145501Y223014D01*
X145534Y222899D01*
X145585Y222793D01*
X145785Y222405D01*
X145943Y221999D01*
X146062Y221580D01*
X146143Y221152D01*
X146183Y220718D01*
Y220282D01*
X146143Y219848D01*
X146062Y219420D01*
X145943Y219001D01*
X145785Y218595D01*
X145590Y218205D01*
X145538Y218099D01*
X145506Y217985D01*
X145492Y217868D01*
X145497Y217750D01*
X145520Y217634D01*
X145561Y217523D01*
X145619Y217420D01*
X145692Y217328D01*
X145779Y217248D01*
X145877Y217182D01*
X145984Y217133D01*
X146098Y217101D01*
X146215Y217087D01*
X146333Y217092D01*
X146449Y217115D01*
X146559Y217156D01*
X146588Y217171D01*
Y213000D01*
X141491D01*
Y214300D01*
X141776D01*
X142349Y214353D01*
X142915Y214459D01*
X143468Y214618D01*
X144004Y214826D01*
X144519Y215084D01*
X144618Y215149D01*
X144706Y215230D01*
X144779Y215323D01*
X144837Y215427D01*
X144878Y215538D01*
X144902Y215655D01*
X144906Y215773D01*
X144892Y215891D01*
X144860Y216006D01*
X144810Y216114D01*
X144745Y216213D01*
X144664Y216300D01*
X144571Y216374D01*
X144467Y216432D01*
X144355Y216473D01*
X144239Y216496D01*
X144120Y216501D01*
X144002Y216487D01*
X143888Y216455D01*
X143781Y216403D01*
X143394Y216204D01*
X142987Y216046D01*
X142568Y215926D01*
X142140Y215845D01*
X141706Y215805D01*
X141491D01*
Y225195D01*
X141706D01*
X142140Y225155D01*
X142568Y225074D01*
X142987Y224954D01*
X143394Y224796D01*
X143783Y224602D01*
X143889Y224550D01*
X144003Y224518D01*
X144120Y224504D01*
X144238Y224509D01*
X144354Y224532D01*
X144465Y224573D01*
X144568Y224631D01*
X144660Y224704D01*
X144741Y224790D01*
X144806Y224889D01*
X144855Y224996D01*
X144887Y225109D01*
X144901Y225227D01*
X144897Y225345D01*
X144874Y225460D01*
X144833Y225571D01*
X144775Y225674D01*
X144702Y225767D01*
X144615Y225847D01*
X144516Y225910D01*
X144004Y226174D01*
X143468Y226382D01*
X142915Y226541D01*
X142349Y226647D01*
X141776Y226700D01*
X141491D01*
Y233000D01*
G37*
G36*
X136389D02*X141491D01*
Y226700D01*
X141200D01*
X140627Y226647D01*
X140062Y226541D01*
X139508Y226382D01*
X138972Y226174D01*
X138457Y225916D01*
X138358Y225851D01*
X138271Y225770D01*
X138197Y225677D01*
X138139Y225573D01*
X138098Y225462D01*
X138075Y225345D01*
X138070Y225227D01*
X138084Y225109D01*
X138116Y224994D01*
X138166Y224886D01*
X138232Y224787D01*
X138313Y224700D01*
X138406Y224626D01*
X138510Y224568D01*
X138621Y224527D01*
X138738Y224504D01*
X138856Y224499D01*
X138974Y224513D01*
X139089Y224545D01*
X139196Y224597D01*
X139583Y224796D01*
X139989Y224954D01*
X140408Y225074D01*
X140836Y225155D01*
X141270Y225195D01*
X141491D01*
Y215805D01*
X141270D01*
X140836Y215845D01*
X140408Y215926D01*
X139989Y216046D01*
X139583Y216204D01*
X139193Y216398D01*
X139087Y216450D01*
X138973Y216482D01*
X138856Y216496D01*
X138738Y216491D01*
X138622Y216468D01*
X138512Y216427D01*
X138409Y216369D01*
X138316Y216296D01*
X138236Y216210D01*
X138170Y216111D01*
X138121Y216004D01*
X138089Y215891D01*
X138075Y215773D01*
X138080Y215655D01*
X138103Y215540D01*
X138144Y215429D01*
X138201Y215326D01*
X138275Y215233D01*
X138361Y215153D01*
X138461Y215090D01*
X138972Y214826D01*
X139508Y214618D01*
X140062Y214459D01*
X140627Y214353D01*
X141200Y214300D01*
X141491D01*
Y213000D01*
X136389D01*
Y217166D01*
X136415Y217151D01*
X136526Y217110D01*
X136643Y217087D01*
X136762Y217082D01*
X136880Y217096D01*
X136994Y217128D01*
X137102Y217178D01*
X137201Y217244D01*
X137288Y217324D01*
X137362Y217418D01*
X137420Y217521D01*
X137461Y217633D01*
X137484Y217749D01*
X137489Y217868D01*
X137475Y217986D01*
X137443Y218101D01*
X137391Y218207D01*
X137192Y218595D01*
X137034Y219001D01*
X136914Y219420D01*
X136834Y219848D01*
X136793Y220282D01*
Y220718D01*
X136834Y221152D01*
X136914Y221580D01*
X137034Y221999D01*
X137192Y222405D01*
X137387Y222795D01*
X137438Y222901D01*
X137470Y223015D01*
X137484Y223132D01*
X137479Y223250D01*
X137456Y223366D01*
X137415Y223477D01*
X137358Y223580D01*
X137284Y223672D01*
X137198Y223752D01*
X137100Y223818D01*
X136992Y223867D01*
X136879Y223899D01*
X136761Y223913D01*
X136644Y223908D01*
X136528Y223885D01*
X136417Y223844D01*
X136389Y223829D01*
Y233000D01*
G37*
G36*
X121000D02*X136389D01*
Y223829D01*
X136314Y223787D01*
X136221Y223714D01*
X136141Y223627D01*
X136078Y223528D01*
X135814Y223016D01*
X135606Y222480D01*
X135448Y221926D01*
X135342Y221361D01*
X135288Y220788D01*
Y220212D01*
X135342Y219639D01*
X135448Y219074D01*
X135606Y218520D01*
X135814Y217984D01*
X136072Y217469D01*
X136137Y217370D01*
X136218Y217283D01*
X136311Y217209D01*
X136389Y217166D01*
Y213000D01*
X121000D01*
Y233000D01*
G37*
G36*
X179000Y215500D02*X191500D01*
Y179000D01*
X179000D01*
Y215500D01*
G37*
G36*
X171500Y185500D02*X191500D01*
Y144000D01*
X182118D01*
X182000Y144009D01*
X181529Y143972D01*
X181070Y143862D01*
X180634Y143681D01*
X180231Y143435D01*
X180231Y143434D01*
X179872Y143128D01*
X179796Y143038D01*
X171962Y135204D01*
X171872Y135128D01*
X171565Y134769D01*
X171500Y134662D01*
Y185500D01*
G37*
G36*
X146588Y270000D02*X181500D01*
Y236000D01*
X146588D01*
Y257171D01*
X146662Y257213D01*
X146755Y257286D01*
X146835Y257373D01*
X146899Y257472D01*
X147162Y257984D01*
X147371Y258520D01*
X147529Y259074D01*
X147635Y259639D01*
X147688Y260212D01*
Y260788D01*
X147635Y261361D01*
X147529Y261926D01*
X147371Y262480D01*
X147162Y263016D01*
X146905Y263531D01*
X146839Y263630D01*
X146758Y263717D01*
X146665Y263791D01*
X146588Y263834D01*
Y270000D01*
G37*
G36*
X141491D02*X146588D01*
Y263834D01*
X146562Y263849D01*
X146450Y263890D01*
X146333Y263913D01*
X146215Y263918D01*
X146097Y263904D01*
X145982Y263872D01*
X145874Y263822D01*
X145776Y263756D01*
X145688Y263676D01*
X145615Y263582D01*
X145556Y263479D01*
X145515Y263367D01*
X145492Y263251D01*
X145487Y263132D01*
X145501Y263014D01*
X145534Y262899D01*
X145585Y262793D01*
X145785Y262405D01*
X145943Y261999D01*
X146062Y261580D01*
X146143Y261152D01*
X146183Y260718D01*
Y260282D01*
X146143Y259848D01*
X146062Y259420D01*
X145943Y259001D01*
X145785Y258595D01*
X145590Y258205D01*
X145538Y258099D01*
X145506Y257985D01*
X145492Y257868D01*
X145497Y257750D01*
X145520Y257634D01*
X145561Y257523D01*
X145619Y257420D01*
X145692Y257328D01*
X145779Y257248D01*
X145877Y257182D01*
X145984Y257133D01*
X146098Y257101D01*
X146215Y257087D01*
X146333Y257092D01*
X146449Y257115D01*
X146559Y257156D01*
X146588Y257171D01*
Y236000D01*
X141491D01*
Y254300D01*
X141776D01*
X142349Y254353D01*
X142915Y254459D01*
X143468Y254618D01*
X144004Y254826D01*
X144519Y255084D01*
X144618Y255149D01*
X144706Y255230D01*
X144779Y255323D01*
X144837Y255427D01*
X144878Y255538D01*
X144902Y255655D01*
X144906Y255773D01*
X144892Y255891D01*
X144860Y256006D01*
X144810Y256114D01*
X144745Y256213D01*
X144664Y256300D01*
X144571Y256374D01*
X144467Y256432D01*
X144355Y256473D01*
X144239Y256496D01*
X144120Y256501D01*
X144002Y256487D01*
X143888Y256455D01*
X143781Y256403D01*
X143394Y256204D01*
X142987Y256046D01*
X142568Y255926D01*
X142140Y255845D01*
X141706Y255805D01*
X141491D01*
Y265195D01*
X141706D01*
X142140Y265155D01*
X142568Y265074D01*
X142987Y264954D01*
X143394Y264796D01*
X143783Y264602D01*
X143889Y264550D01*
X144003Y264518D01*
X144120Y264504D01*
X144238Y264509D01*
X144354Y264532D01*
X144465Y264573D01*
X144568Y264631D01*
X144660Y264704D01*
X144741Y264790D01*
X144806Y264889D01*
X144855Y264996D01*
X144887Y265109D01*
X144901Y265227D01*
X144897Y265345D01*
X144874Y265460D01*
X144833Y265571D01*
X144775Y265674D01*
X144702Y265767D01*
X144615Y265847D01*
X144516Y265910D01*
X144004Y266174D01*
X143468Y266382D01*
X142915Y266541D01*
X142349Y266647D01*
X141776Y266700D01*
X141491D01*
Y270000D01*
G37*
G36*
X136389D02*X141491D01*
Y266700D01*
X141200D01*
X140627Y266647D01*
X140062Y266541D01*
X139508Y266382D01*
X138972Y266174D01*
X138457Y265916D01*
X138358Y265851D01*
X138271Y265770D01*
X138197Y265677D01*
X138139Y265573D01*
X138098Y265462D01*
X138075Y265345D01*
X138070Y265227D01*
X138084Y265109D01*
X138116Y264994D01*
X138166Y264886D01*
X138232Y264787D01*
X138313Y264700D01*
X138406Y264626D01*
X138510Y264568D01*
X138621Y264527D01*
X138738Y264504D01*
X138856Y264499D01*
X138974Y264513D01*
X139089Y264545D01*
X139196Y264597D01*
X139583Y264796D01*
X139989Y264954D01*
X140408Y265074D01*
X140836Y265155D01*
X141270Y265195D01*
X141491D01*
Y255805D01*
X141270D01*
X140836Y255845D01*
X140408Y255926D01*
X139989Y256046D01*
X139583Y256204D01*
X139193Y256398D01*
X139087Y256450D01*
X138973Y256482D01*
X138856Y256496D01*
X138738Y256491D01*
X138622Y256468D01*
X138512Y256427D01*
X138409Y256369D01*
X138316Y256296D01*
X138236Y256210D01*
X138170Y256111D01*
X138121Y256004D01*
X138089Y255891D01*
X138075Y255773D01*
X138080Y255655D01*
X138103Y255540D01*
X138144Y255429D01*
X138201Y255326D01*
X138275Y255233D01*
X138361Y255153D01*
X138461Y255090D01*
X138972Y254826D01*
X139508Y254618D01*
X140062Y254459D01*
X140627Y254353D01*
X141200Y254300D01*
X141491D01*
Y236000D01*
X136389D01*
Y257166D01*
X136415Y257151D01*
X136526Y257110D01*
X136643Y257087D01*
X136762Y257082D01*
X136880Y257096D01*
X136994Y257128D01*
X137102Y257178D01*
X137201Y257244D01*
X137288Y257324D01*
X137362Y257418D01*
X137420Y257521D01*
X137461Y257633D01*
X137484Y257749D01*
X137489Y257868D01*
X137475Y257986D01*
X137443Y258101D01*
X137391Y258207D01*
X137192Y258595D01*
X137034Y259001D01*
X136914Y259420D01*
X136834Y259848D01*
X136793Y260282D01*
Y260718D01*
X136834Y261152D01*
X136914Y261580D01*
X137034Y261999D01*
X137192Y262405D01*
X137387Y262795D01*
X137438Y262901D01*
X137470Y263015D01*
X137484Y263132D01*
X137479Y263250D01*
X137456Y263366D01*
X137415Y263477D01*
X137358Y263580D01*
X137284Y263672D01*
X137198Y263752D01*
X137100Y263818D01*
X136992Y263867D01*
X136879Y263899D01*
X136761Y263913D01*
X136644Y263908D01*
X136528Y263885D01*
X136417Y263844D01*
X136389Y263829D01*
Y270000D01*
G37*
G36*
X111500D02*X136389D01*
Y263829D01*
X136314Y263787D01*
X136221Y263714D01*
X136141Y263627D01*
X136078Y263528D01*
X135814Y263016D01*
X135606Y262480D01*
X135448Y261926D01*
X135342Y261361D01*
X135288Y260788D01*
Y260212D01*
X135342Y259639D01*
X135448Y259074D01*
X135606Y258520D01*
X135814Y257984D01*
X136072Y257469D01*
X136137Y257370D01*
X136218Y257283D01*
X136311Y257209D01*
X136389Y257166D01*
Y236000D01*
X111500D01*
Y270000D01*
G37*
G36*
X146588Y278000D02*X216000D01*
Y236000D01*
X146588D01*
Y257171D01*
X146662Y257213D01*
X146755Y257286D01*
X146835Y257373D01*
X146899Y257472D01*
X147162Y257984D01*
X147371Y258520D01*
X147529Y259074D01*
X147635Y259639D01*
X147688Y260212D01*
Y260788D01*
X147635Y261361D01*
X147529Y261926D01*
X147371Y262480D01*
X147162Y263016D01*
X146905Y263531D01*
X146839Y263630D01*
X146758Y263717D01*
X146665Y263791D01*
X146588Y263834D01*
Y278000D01*
G37*
G36*
X141491D02*X146588D01*
Y263834D01*
X146562Y263849D01*
X146450Y263890D01*
X146333Y263913D01*
X146215Y263918D01*
X146097Y263904D01*
X145982Y263872D01*
X145874Y263822D01*
X145776Y263756D01*
X145688Y263676D01*
X145615Y263582D01*
X145556Y263479D01*
X145515Y263367D01*
X145492Y263251D01*
X145487Y263132D01*
X145501Y263014D01*
X145534Y262899D01*
X145585Y262793D01*
X145785Y262405D01*
X145943Y261999D01*
X146062Y261580D01*
X146143Y261152D01*
X146183Y260718D01*
Y260282D01*
X146143Y259848D01*
X146062Y259420D01*
X145943Y259001D01*
X145785Y258595D01*
X145590Y258205D01*
X145538Y258099D01*
X145506Y257985D01*
X145492Y257868D01*
X145497Y257750D01*
X145520Y257634D01*
X145561Y257523D01*
X145619Y257420D01*
X145692Y257328D01*
X145779Y257248D01*
X145877Y257182D01*
X145984Y257133D01*
X146098Y257101D01*
X146215Y257087D01*
X146333Y257092D01*
X146449Y257115D01*
X146559Y257156D01*
X146588Y257171D01*
Y236000D01*
X141491D01*
Y254300D01*
X141776D01*
X142349Y254353D01*
X142915Y254459D01*
X143468Y254618D01*
X144004Y254826D01*
X144519Y255084D01*
X144618Y255149D01*
X144706Y255230D01*
X144779Y255323D01*
X144837Y255427D01*
X144878Y255538D01*
X144902Y255655D01*
X144906Y255773D01*
X144892Y255891D01*
X144860Y256006D01*
X144810Y256114D01*
X144745Y256213D01*
X144664Y256300D01*
X144571Y256374D01*
X144467Y256432D01*
X144355Y256473D01*
X144239Y256496D01*
X144120Y256501D01*
X144002Y256487D01*
X143888Y256455D01*
X143781Y256403D01*
X143394Y256204D01*
X142987Y256046D01*
X142568Y255926D01*
X142140Y255845D01*
X141706Y255805D01*
X141491D01*
Y265195D01*
X141706D01*
X142140Y265155D01*
X142568Y265074D01*
X142987Y264954D01*
X143394Y264796D01*
X143783Y264602D01*
X143889Y264550D01*
X144003Y264518D01*
X144120Y264504D01*
X144238Y264509D01*
X144354Y264532D01*
X144465Y264573D01*
X144568Y264631D01*
X144660Y264704D01*
X144741Y264790D01*
X144806Y264889D01*
X144855Y264996D01*
X144887Y265109D01*
X144901Y265227D01*
X144897Y265345D01*
X144874Y265460D01*
X144833Y265571D01*
X144775Y265674D01*
X144702Y265767D01*
X144615Y265847D01*
X144516Y265910D01*
X144004Y266174D01*
X143468Y266382D01*
X142915Y266541D01*
X142349Y266647D01*
X141776Y266700D01*
X141491D01*
Y278000D01*
G37*
G36*
X136389D02*X141491D01*
Y266700D01*
X141200D01*
X140627Y266647D01*
X140062Y266541D01*
X139508Y266382D01*
X138972Y266174D01*
X138457Y265916D01*
X138358Y265851D01*
X138271Y265770D01*
X138197Y265677D01*
X138139Y265573D01*
X138098Y265462D01*
X138075Y265345D01*
X138070Y265227D01*
X138084Y265109D01*
X138116Y264994D01*
X138166Y264886D01*
X138232Y264787D01*
X138313Y264700D01*
X138406Y264626D01*
X138510Y264568D01*
X138621Y264527D01*
X138738Y264504D01*
X138856Y264499D01*
X138974Y264513D01*
X139089Y264545D01*
X139196Y264597D01*
X139583Y264796D01*
X139989Y264954D01*
X140408Y265074D01*
X140836Y265155D01*
X141270Y265195D01*
X141491D01*
Y255805D01*
X141270D01*
X140836Y255845D01*
X140408Y255926D01*
X139989Y256046D01*
X139583Y256204D01*
X139193Y256398D01*
X139087Y256450D01*
X138973Y256482D01*
X138856Y256496D01*
X138738Y256491D01*
X138622Y256468D01*
X138512Y256427D01*
X138409Y256369D01*
X138316Y256296D01*
X138236Y256210D01*
X138170Y256111D01*
X138121Y256004D01*
X138089Y255891D01*
X138075Y255773D01*
X138080Y255655D01*
X138103Y255540D01*
X138144Y255429D01*
X138201Y255326D01*
X138275Y255233D01*
X138361Y255153D01*
X138461Y255090D01*
X138972Y254826D01*
X139508Y254618D01*
X140062Y254459D01*
X140627Y254353D01*
X141200Y254300D01*
X141491D01*
Y236000D01*
X136389D01*
Y257166D01*
X136415Y257151D01*
X136526Y257110D01*
X136643Y257087D01*
X136762Y257082D01*
X136880Y257096D01*
X136994Y257128D01*
X137102Y257178D01*
X137201Y257244D01*
X137288Y257324D01*
X137362Y257418D01*
X137420Y257521D01*
X137461Y257633D01*
X137484Y257749D01*
X137489Y257868D01*
X137475Y257986D01*
X137443Y258101D01*
X137391Y258207D01*
X137192Y258595D01*
X137034Y259001D01*
X136914Y259420D01*
X136834Y259848D01*
X136793Y260282D01*
Y260718D01*
X136834Y261152D01*
X136914Y261580D01*
X137034Y261999D01*
X137192Y262405D01*
X137387Y262795D01*
X137438Y262901D01*
X137470Y263015D01*
X137484Y263132D01*
X137479Y263250D01*
X137456Y263366D01*
X137415Y263477D01*
X137358Y263580D01*
X137284Y263672D01*
X137198Y263752D01*
X137100Y263818D01*
X136992Y263867D01*
X136879Y263899D01*
X136761Y263913D01*
X136644Y263908D01*
X136528Y263885D01*
X136417Y263844D01*
X136389Y263829D01*
Y278000D01*
G37*
G36*
X86500D02*X136389D01*
Y263829D01*
X136314Y263787D01*
X136221Y263714D01*
X136141Y263627D01*
X136078Y263528D01*
X135814Y263016D01*
X135606Y262480D01*
X135448Y261926D01*
X135342Y261361D01*
X135288Y260788D01*
Y260212D01*
X135342Y259639D01*
X135448Y259074D01*
X135606Y258520D01*
X135814Y257984D01*
X136072Y257469D01*
X136137Y257370D01*
X136218Y257283D01*
X136311Y257209D01*
X136389Y257166D01*
Y236000D01*
X86500D01*
Y278000D01*
G37*
G36*
X168500Y233000D02*X208000D01*
Y213500D01*
X168500D01*
Y233000D01*
G37*
G36*
X243500Y279000D02*X292000D01*
Y271500D01*
X243500D01*
Y279000D01*
G37*
G36*
X195000Y278000D02*X234500D01*
Y236000D01*
X195000D01*
Y278000D01*
G37*
G36*
X210500D02*X234500D01*
Y203000D01*
X210500D01*
Y278000D01*
G37*
G36*
X205437Y212000D02*X234500D01*
Y191500D01*
X205437D01*
Y194560D01*
X205594Y194572D01*
X205747Y194609D01*
X205892Y194669D01*
X206027Y194751D01*
X206146Y194854D01*
X206249Y194973D01*
X206331Y195108D01*
X206391Y195253D01*
X206428Y195406D01*
X206437Y195563D01*
Y199437D01*
X206428Y199594D01*
X206391Y199747D01*
X206331Y199892D01*
X206249Y200027D01*
X206146Y200146D01*
X206027Y200249D01*
X205892Y200331D01*
X205747Y200391D01*
X205594Y200428D01*
X205437Y200440D01*
Y212000D01*
G37*
G36*
X200500D02*X205437D01*
Y200440D01*
X205280Y200428D01*
X205127Y200391D01*
X204982Y200331D01*
X204847Y200249D01*
X204728Y200146D01*
X204625Y200027D01*
X204543Y199892D01*
X204483Y199747D01*
X204446Y199594D01*
X204437Y199437D01*
Y195563D01*
X204446Y195406D01*
X204483Y195253D01*
X204543Y195108D01*
X204625Y194973D01*
X204728Y194854D01*
X204847Y194751D01*
X204982Y194669D01*
X205127Y194609D01*
X205280Y194572D01*
X205437Y194560D01*
Y191500D01*
X204891D01*
X204711Y191711D01*
X204000Y192318D01*
X203432Y192666D01*
X203428Y192720D01*
X203391Y192873D01*
X203331Y193018D01*
X203249Y193153D01*
X203146Y193272D01*
X203027Y193375D01*
X202892Y193457D01*
X202747Y193517D01*
X202594Y193554D01*
X202437Y193563D01*
X200500D01*
Y201437D01*
X202437D01*
X202594Y201446D01*
X202747Y201483D01*
X202892Y201543D01*
X203027Y201625D01*
X203146Y201728D01*
X203249Y201847D01*
X203331Y201982D01*
X203391Y202127D01*
X203428Y202280D01*
X203440Y202437D01*
X203428Y202594D01*
X203391Y202747D01*
X203331Y202892D01*
X203249Y203027D01*
X203146Y203146D01*
X203027Y203249D01*
X202892Y203331D01*
X202747Y203391D01*
X202594Y203428D01*
X202437Y203437D01*
X200500D01*
Y212000D01*
G37*
G36*
X195563D02*X200500D01*
Y203437D01*
X198563D01*
X198406Y203428D01*
X198253Y203391D01*
X198108Y203331D01*
X197973Y203249D01*
X197854Y203146D01*
X197751Y203027D01*
X197669Y202892D01*
X197609Y202747D01*
X197572Y202594D01*
X197560Y202437D01*
X197572Y202280D01*
X197609Y202127D01*
X197669Y201982D01*
X197751Y201847D01*
X197854Y201728D01*
X197973Y201625D01*
X198108Y201543D01*
X198253Y201483D01*
X198406Y201446D01*
X198563Y201437D01*
X200500D01*
Y193563D01*
X198563D01*
X198406Y193554D01*
X198253Y193517D01*
X198108Y193457D01*
X197973Y193375D01*
X197854Y193272D01*
X197751Y193153D01*
X197669Y193018D01*
X197609Y192873D01*
X197572Y192720D01*
X197568Y192666D01*
X197000Y192318D01*
X196289Y191711D01*
X196109Y191500D01*
X195563D01*
Y194560D01*
X195720Y194572D01*
X195873Y194609D01*
X196018Y194669D01*
X196153Y194751D01*
X196272Y194854D01*
X196375Y194973D01*
X196457Y195108D01*
X196517Y195253D01*
X196554Y195406D01*
X196563Y195563D01*
Y199437D01*
X196554Y199594D01*
X196517Y199747D01*
X196457Y199892D01*
X196375Y200027D01*
X196272Y200146D01*
X196153Y200249D01*
X196018Y200331D01*
X195873Y200391D01*
X195720Y200428D01*
X195563Y200440D01*
Y212000D01*
G37*
G36*
X192500D02*X195563D01*
Y200440D01*
X195406Y200428D01*
X195253Y200391D01*
X195108Y200331D01*
X194973Y200249D01*
X194854Y200146D01*
X194751Y200027D01*
X194669Y199892D01*
X194609Y199747D01*
X194572Y199594D01*
X194563Y199437D01*
Y195563D01*
X194572Y195406D01*
X194609Y195253D01*
X194669Y195108D01*
X194751Y194973D01*
X194854Y194854D01*
X194973Y194751D01*
X195108Y194669D01*
X195253Y194609D01*
X195406Y194572D01*
X195563Y194560D01*
Y191500D01*
X192500D01*
Y212000D01*
G37*
G54D12*X276500Y169000D02*X257000D01*
X276500Y159000D02*X254000D01*
X276500Y149000D02*X250500D01*
G54D13*X295000Y160500D02*X298500Y164000D01*
G54D14*X288500Y205500D02*Y123000D01*
G54D13*X295000D02*Y139500D01*
X297500Y122000D02*Y139500D01*
X295000Y138500D02*Y160500D01*
X297500Y138000D02*Y151500D01*
G54D15*X296500Y209000D02*X287000Y218500D01*
G54D14*X289000Y216500D01*
G54D13*X297500Y151500D02*X300000Y154000D01*
G54D15*X258000Y184000D02*Y211000D01*
X265500Y218500D01*
X287000D01*
G54D13*X268000Y227500D02*X266500Y229000D01*
X262594Y232906D02*X267500Y228000D01*
X272000Y230000D02*X266500Y235500D01*
G54D12*X270469Y257500D02*Y248531D01*
G54D13*X266500Y257969D02*X266531Y258000D01*
X270500Y248500D02*X270469Y248531D01*
G54D12*Y249031D02*X270500Y249000D01*
G54D13*X262594Y258000D02*Y232906D01*
X266500Y235500D02*Y257969D01*
X262575Y248925D02*X262594Y248906D01*
G54D14*X356500Y169000D02*X366500D01*
X359000D02*X288500D01*
G54D13*X298500Y164000D02*X372500D01*
X300000Y154000D02*X373500D01*
X378000Y158500D01*
X372500Y164000D02*X375500Y167000D01*
Y195000D01*
X378000Y158500D02*Y187000D01*
X375500Y192500D02*Y223500D01*
X371500Y227500D01*
X378000Y184500D02*Y225000D01*
X373000Y230000D01*
G54D15*X366500Y209000D02*X296500D01*
G54D13*X371500Y227500D02*X268000D01*
X373000Y230000D02*X272000D01*
X266500Y263500D02*Y256500D01*
X268500Y265500D02*X266500Y263500D01*
Y261000D01*
X262594Y260000D02*Y266094D01*
X264500Y268000D01*
G54D12*X279500Y259500D02*Y255500D01*
X274406Y258000D02*X279500D01*
G54D13*X268500Y265500D02*X295500D01*
X310348Y258575D02*Y248848D01*
X310000Y248500D01*
X295500Y265500D02*X297000Y264000D01*
X299500Y266500D02*Y260500D01*
X303652Y258575D02*X301425D01*
X299500Y260500D01*
X310000Y248500D02*X270500D01*
X297000Y264000D02*Y257500D01*
X303652Y255425D02*X299075D01*
X297000Y257500D01*
X264500Y268000D02*X298000D01*
X299500Y266500D01*
G54D14*X200500Y187500D02*X182500D01*
X276500Y209000D02*X285000D01*
X288500Y205500D01*
G54D12*X166500Y157500D02*X163000D01*
X161000Y164500D02*Y159500D01*
X163000Y157500D01*
X257000Y169000D02*X236000Y148000D01*
X238000Y143000D02*X244000Y149000D01*
X254000Y159000D02*X241250Y146250D01*
G54D15*X251500Y177500D02*X258000Y184000D01*
G54D12*X236000Y148000D02*X205500D01*
G54D14*X200500Y144500D02*Y177500D01*
G54D15*X217500D02*X200500D01*
X213500D02*X251500D01*
G54D12*X195500Y112200D02*Y108000D01*
X199600Y118700D02*Y107900D01*
X202000Y105500D01*
G54D14*X197000Y141000D02*X200500Y144500D01*
G54D12*X242500Y99000D02*X225000D01*
X218500Y105500D01*
X217600Y116100D02*X226500Y125000D01*
X218500Y105500D02*X202000D01*
X203700Y112200D02*X212300D01*
X203700Y116100D02*X217600D01*
X203700Y120000D02*X200900D01*
X199600Y118700D01*
X199500Y125500D02*X220500D01*
X148000Y120000D02*X135043D01*
X135000Y120043D01*
X119943D01*
X118800Y118900D01*
X135000Y112957D02*X130457D01*
X124500Y107000D01*
X195500Y108000D02*X186500Y99000D01*
G54D14*X156500D02*X175500D01*
X182000Y92500D01*
X206000D01*
X212500Y99000D01*
G54D12*X195500Y120000D02*X187000D01*
X195500Y116100D02*X183400D01*
X181000Y118500D01*
Y123000D01*
X183500Y125500D01*
X202500D01*
G54D14*X174000Y99000D02*Y133000D01*
X182000Y141000D01*
X197000D01*
G54D12*X250500Y149000D02*X223000Y121500D01*
X220500Y125500D02*X241500Y146500D01*
G54D14*X288500Y123000D02*X284500Y119000D01*
X276500D01*
X288500Y123000D02*X286500Y121000D01*
G54D13*X283500Y111500D02*X295000Y123000D01*
X286000Y110500D02*X297500Y122000D01*
X286000Y110500D02*X287750Y112250D01*
X276500Y89000D02*X283500D01*
X281000Y94000D02*X271500D01*
X268500Y91000D01*
Y81500D01*
X271000Y79000D01*
X276500D01*
X283500Y89000D02*X286000Y91500D01*
X283500Y96500D02*X281000Y94000D01*
X286000Y91500D02*Y110500D01*
X283500Y111500D02*Y96500D01*
G54D16*X17000Y263000D03*
G54D17*X52512Y260500D03*
X141488D03*
G54D16*X383000Y263000D03*
G54D11*G36*
X273500Y212000D02*Y206000D01*
X279500D01*
Y212000D01*
X273500D01*
G37*
G54D18*X276500Y199000D03*
Y189000D03*
X366500Y209000D03*
Y199000D03*
Y189000D03*
G54D17*X52512Y220500D03*
X141488D03*
G54D19*X200500Y177500D03*
Y187500D03*
G54D11*G36*
X196563Y201437D02*Y193563D01*
X204437D01*
Y201437D01*
X196563D01*
G37*
G54D16*X17000Y17000D03*
G54D11*G36*
X18500Y73000D02*Y65000D01*
X26500D01*
Y73000D01*
X18500D01*
G37*
G54D20*X22500Y49000D03*
G54D11*G36*
X153100Y102400D02*Y95600D01*
X159900D01*
Y102400D01*
X153100D01*
G37*
G54D21*X156500Y69000D03*
Y49000D03*
Y29000D03*
X186500D03*
Y49000D03*
Y69000D03*
Y99000D03*
G54D11*G36*
X209100Y102400D02*Y95600D01*
X215900D01*
Y102400D01*
X209100D01*
G37*
G54D21*X242500Y99000D03*
X212500Y69000D03*
Y49000D03*
Y29000D03*
X242500D03*
Y49000D03*
Y69000D03*
G54D22*X28000Y138750D03*
G54D11*G36*
X18500Y188500D02*Y180500D01*
X26500D01*
Y188500D01*
X18500D01*
G37*
G54D20*X22500Y164500D03*
G54D11*G36*
X18500Y234500D02*Y226500D01*
X26500D01*
Y234500D01*
X18500D01*
G37*
G54D20*X22500Y210500D03*
G54D22*X48500Y138750D03*
X69000D03*
X28000Y96250D03*
X48500D03*
X69000D03*
G54D18*X276500Y179000D03*
Y169000D03*
Y159000D03*
Y149000D03*
Y139000D03*
Y129000D03*
Y119000D03*
Y109000D03*
Y99000D03*
X366500Y179000D03*
Y169000D03*
Y159000D03*
Y149000D03*
Y139000D03*
Y129000D03*
Y119000D03*
Y109000D03*
Y99000D03*
X276500Y89000D03*
Y79000D03*
X366500Y89000D03*
Y79000D03*
G54D16*X383000Y17000D03*
G54D18*X276500Y69000D03*
X366500D03*
G54D11*G36*
X154900Y167300D02*Y161700D01*
X167100D01*
Y167300D01*
X154900D01*
G37*
G36*
Y176300D02*Y170700D01*
X167100D01*
Y176300D01*
X154900D01*
G37*
G36*
Y185400D02*Y179800D01*
X167100D01*
Y185400D01*
X154900D01*
G37*
G36*
X142700Y184100D02*X130500D01*
Y162900D01*
X142700D01*
Y184100D01*
G37*
G36*
X205650Y249642D02*X199350D01*
Y237043D01*
X205650D01*
Y249642D01*
G37*
G36*
Y229957D02*X199350D01*
Y217358D01*
X205650D01*
Y229957D01*
G37*
G36*
X162004Y225839D02*Y215996D01*
X174996D01*
Y225839D01*
X162004D01*
G37*
G36*
Y253004D02*Y243161D01*
X174996D01*
Y253004D01*
X162004D01*
G37*
G36*
X275587Y263051D02*X273225D01*
Y256949D01*
X275587D01*
Y263051D01*
G37*
G36*
X281886Y278799D02*X277162D01*
Y271713D01*
X281886D01*
Y278799D01*
G37*
G36*
X271650Y263051D02*X269288D01*
Y256949D01*
X271650D01*
Y263051D01*
G37*
G36*
X308576Y256261D02*Y254589D01*
X312120D01*
Y256261D01*
X308576D01*
G37*
G36*
Y259411D02*Y257739D01*
X312120D01*
Y259411D01*
X308576D01*
G37*
G36*
X301880D02*Y257739D01*
X305424D01*
Y259411D01*
X301880D01*
G37*
G36*
Y256261D02*Y254589D01*
X305424D01*
Y256261D01*
X301880D01*
G37*
G36*
X267712Y263051D02*X265350D01*
Y256949D01*
X267712D01*
Y263051D01*
G37*
G36*
X263775D02*X261413D01*
Y256949D01*
X263775D01*
Y263051D01*
G37*
G36*
X259838Y278799D02*X255114D01*
Y271713D01*
X259838D01*
Y278799D01*
G37*
G36*
X79650Y70150D02*X73350D01*
Y47850D01*
X79650D01*
Y70150D01*
G37*
G36*
X66650D02*X60350D01*
Y47850D01*
X66650D01*
Y70150D01*
G37*
G36*
X53650D02*X47350D01*
Y47850D01*
X53650D01*
Y70150D01*
G37*
G36*
X98004Y76504D02*Y66662D01*
X110996D01*
Y76504D01*
X98004D01*
G37*
G36*
Y49338D02*Y39496D01*
X110996D01*
Y49338D01*
X98004D01*
G37*
G36*
X136973Y105952D02*X131855D01*
Y100048D01*
X136973D01*
Y105952D01*
G37*
G36*
X99200Y100600D02*Y88400D01*
X120400D01*
Y100600D01*
X99200D01*
G37*
G36*
X53650Y185650D02*X47350D01*
Y163350D01*
X53650D01*
Y185650D01*
G37*
G36*
X66650D02*X60350D01*
Y163350D01*
X66650D01*
Y185650D01*
G37*
G36*
X79650D02*X73350D01*
Y163350D01*
X79650D01*
Y185650D01*
G37*
G36*
X98004Y193004D02*Y183162D01*
X110996D01*
Y193004D01*
X98004D01*
G37*
G36*
Y165838D02*Y155996D01*
X110996D01*
Y165838D01*
X98004D01*
G37*
G36*
X132048Y122602D02*Y117484D01*
X137952D01*
Y122602D01*
X132048D01*
G37*
G36*
Y115516D02*Y110398D01*
X137952D01*
Y115516D01*
X132048D01*
G37*
G36*
X145048Y115473D02*Y110355D01*
X150952D01*
Y115473D01*
X145048D01*
G37*
G36*
Y122559D02*Y117441D01*
X150952D01*
Y122559D01*
X145048D01*
G37*
G36*
X122114Y144528D02*Y135472D01*
X131956D01*
Y144528D01*
X122114D01*
G37*
G36*
X121600Y125000D02*X116000D01*
Y112800D01*
X121600D01*
Y125000D01*
G37*
G36*
X112600D02*X107000D01*
Y112800D01*
X112600D01*
Y125000D01*
G37*
G36*
X103500D02*X97900D01*
Y112800D01*
X103500D01*
Y125000D01*
G37*
G36*
X202602Y157952D02*X197484D01*
Y152048D01*
X202602D01*
Y157952D01*
G37*
G36*
X195516D02*X190398D01*
Y152048D01*
X195516D01*
Y157952D01*
G37*
G36*
X144059Y105952D02*X138941D01*
Y100048D01*
X144059D01*
Y105952D01*
G37*
G36*
X139044Y144528D02*Y135472D01*
X148886D01*
Y144528D01*
X139044D01*
G37*
G36*
X193500Y121200D02*Y118800D01*
X197500D01*
Y121200D01*
X193500D01*
G37*
G36*
Y117300D02*Y114900D01*
X197500D01*
Y117300D01*
X193500D01*
G37*
G36*
Y113400D02*Y111000D01*
X197500D01*
Y113400D01*
X193500D01*
G37*
G36*
X201700D02*Y111000D01*
X205700D01*
Y113400D01*
X201700D01*
G37*
G36*
Y117300D02*Y114900D01*
X205700D01*
Y117300D01*
X201700D01*
G37*
G36*
Y121200D02*Y118800D01*
X205700D01*
Y121200D01*
X201700D01*
G37*
G54D23*X41500Y76500D03*
Y72500D03*
X37000D03*
X32500D03*
X37000Y76500D03*
X32500D03*
X41500Y68500D03*
Y64500D03*
X37000D03*
Y68500D03*
X32500Y64500D03*
Y68500D03*
X37000Y166000D03*
X32500D03*
X37000Y170000D03*
X32500D03*
X41500D03*
Y166000D03*
Y162000D03*
X37000Y158000D03*
X32500D03*
Y162000D03*
X37000D03*
X41500Y158000D03*
X50500D03*
X46000D03*
X35500Y47500D03*
X31000D03*
X35500Y51500D03*
X31000D03*
X40000D03*
Y47500D03*
Y43500D03*
Y39500D03*
X35500D03*
X31000D03*
Y43500D03*
X35500D03*
X50500Y76500D03*
X46000D03*
X90000Y63500D03*
X95000Y50500D03*
Y46500D03*
X90000Y50500D03*
Y46500D03*
X95000Y42500D03*
Y38500D03*
X90000Y42500D03*
Y38500D03*
X114000D03*
Y42500D03*
Y50500D03*
X109000Y53500D03*
X104000D03*
X99500D03*
X114000Y46500D03*
Y169000D03*
Y165000D03*
X109000Y169000D03*
X90000Y165000D03*
X114000Y157000D03*
Y161000D03*
X95000D03*
Y157000D03*
X90000Y161000D03*
Y157000D03*
X95000Y169000D03*
Y165000D03*
X104000Y169000D03*
X99500D03*
X90000D03*
X89500Y180500D03*
Y192500D03*
Y188500D03*
X84500Y192500D03*
Y188500D03*
X89500Y184500D03*
X84500D03*
Y180500D03*
X114000Y63500D03*
X109500D03*
X114000Y67500D03*
X104500Y63500D03*
X95000Y67500D03*
X100000Y63500D03*
X95000D03*
X114000Y75500D03*
Y71500D03*
X95000Y75500D03*
Y71500D03*
X90000Y75500D03*
Y71500D03*
Y67500D03*
X147500Y106000D03*
X190500Y120000D03*
X187000D03*
X209000Y112200D03*
X212300D03*
X147500Y102000D03*
Y98000D03*
X153000Y228500D03*
Y224500D03*
Y220500D03*
Y216500D03*
X160000Y211500D03*
X164500D03*
X168500D03*
X172500D03*
X134000Y249000D03*
X138500D03*
X134000Y244500D03*
X142500Y249000D03*
X146500D03*
X138500Y244500D03*
X142500D03*
X146500D03*
X196500Y216000D03*
Y220000D03*
Y223500D03*
Y227500D03*
Y231000D03*
X122000Y149500D03*
X126500D03*
X131000D03*
X166500Y157500D03*
X163000D03*
X211000Y148000D03*
X205500D03*
X270500Y252000D03*
Y248500D03*
X279500Y259500D03*
Y255500D03*
G54D24*G54D25*G54D26*G54D25*G54D27*G54D26*G54D28*G54D25*G54D29*G54D27*G54D30*G54D29*G54D30*G54D27*G54D25*G54D27*M02*
